<svg width="123" height="73" viewBox="0 0 123 73" fill="none" xmlns="http://www.w3.org/2000/svg">
<path d="M76.6947 57.5662H45.8118V72.2492L76.6911 66.6643L76.6947 57.5662Z" fill="#FBA300"/>
<path d="M9.60962 47.3927H19.3562C26.5601 44.4419 33.3359 40.5388 39.5026 35.7877C41.0039 34.6292 42.4665 33.4246 43.8904 32.1737V27.8391C35.1605 36.0608 24.7727 42.32 13.4245 46.1964C12.1628 46.6258 10.8912 47.0245 9.60962 47.3927Z" fill="#FBA300"/>
<path d="M121.141 47.5053C120.761 47.2892 110.039 41.0664 106.908 38.955C101.91 35.6353 97.2185 31.8745 92.8911 27.7175C91.8444 26.6966 90.8235 25.6475 89.8284 24.5701C84.704 19.0179 80.2926 12.8478 76.6966 6.20289V0H72.87V5.32912H69.9991V4.08692C70.007 3.83459 69.9158 3.58919 69.7451 3.40321C69.5364 3.20113 69.2573 3.08813 68.9668 3.08813C68.6763 3.08813 68.3972 3.20113 68.1885 3.40321C68.0177 3.58914 67.9266 3.83457 67.9345 4.08692V5.32912H62.0127V4.08692C62.0207 3.83456 61.9295 3.58909 61.7587 3.40321C61.55 3.20113 61.2709 3.08813 60.9804 3.08813C60.6899 3.08813 60.4108 3.20113 60.2021 3.40321C60.0313 3.58914 59.9401 3.83457 59.9481 4.08692V5.32912H54.0271V4.08692C54.0351 3.83457 53.9439 3.58914 53.7731 3.40321C53.5644 3.20113 53.2853 3.08813 52.9948 3.08813C52.7043 3.08813 52.4252 3.20113 52.2165 3.40321C52.0457 3.58914 51.9545 3.83457 51.9625 4.08692V5.32912H49.7474C49.7139 5.29688 49.6784 5.26678 49.6411 5.23903V0.00089343H45.8163V8.44407C45.7218 8.58639 45.6281 8.72962 45.5326 8.87195C40.8564 15.0545 35.6911 20.8515 30.0866 26.2069C24.8172 30.8222 19.2595 35.0976 13.4471 39.0072C9.41964 41.7628 5.3147 44.403 1.19356 47.0153C0.82838 47.2468 0.527537 47.5667 0.318898 47.9454C0.110258 48.3241 0.000571847 48.7493 0 49.1817L0 53.0714C0 53.4086 0.0664278 53.7426 0.195491 54.0542C0.324553 54.3658 0.513723 54.6488 0.7522 54.8873C0.990677 55.1258 1.27379 55.315 1.58538 55.4441C1.89696 55.5731 2.23092 55.6395 2.56817 55.6395H119.942C120.623 55.6391 121.276 55.3683 121.757 54.8867C122.238 54.4051 122.508 53.7522 122.508 53.0714V49.7754C122.502 49.3097 122.372 48.854 122.132 48.4551C121.892 48.0562 121.55 47.7284 121.141 47.5053ZM45.8154 25.9637V49.3195H3.54554L4.20222 48.9016L4.56254 48.6746C12.9096 43.5151 20.9333 37.8499 28.5886 31.7108C32.2492 28.708 35.7245 25.4862 38.9955 22.0632C41.0547 19.8941 43.0158 17.6259 44.8507 15.2622C45.1762 14.8418 45.4972 14.4215 45.8136 14.0011V25.9637H45.8154ZM68.6407 49.3186H53.8677V23.6126C53.8656 22.168 54.2895 20.7549 55.0864 19.55C59.3389 23.7728 63.8669 27.7086 68.6407 31.3315V49.3195V49.3186ZM68.6407 27.3014C64.7043 24.1905 60.9493 20.8566 57.3943 17.316C58.5137 16.6299 59.7958 16.2546 61.1085 16.2287C62.4212 16.2028 63.717 16.5272 64.8627 17.1686C66.0083 17.81 66.9622 18.7452 67.6263 19.8779C68.2904 21.0105 68.6405 22.2996 68.6407 23.6126V27.3014ZM76.6948 49.3186V37.0047C81.7798 40.37 87.2238 43.1584 92.9262 45.3182C97.5712 46.9694 102.324 48.3006 107.151 49.3024L76.6948 49.3186ZM93.1082 41.9735C89.9893 40.7869 86.9632 39.3694 84.0552 37.7326C81.8717 36.5165 79.7413 35.1996 77.6595 33.8186C77.337 33.6054 77.0161 33.3904 76.6966 33.1737V12.6049C82.1282 21.1909 88.811 28.9181 96.524 35.531C98.3965 37.2323 100.33 38.8628 102.326 40.4224C105.327 42.8275 108.51 44.9974 111.845 46.9126L112.076 47.0613C105.63 45.8663 99.2877 44.1642 93.1091 41.9708L93.1082 41.9735Z" fill="#FBA300"/>
</svg>
