<svg width="71" height="75" viewBox="0 0 71 75" fill="none" xmlns="http://www.w3.org/2000/svg">
<path d="M61.8885 12.7481H14.5966L22.2164 5.12824C22.7798 4.56478 23.0962 3.80061 23.0961 3.00384C23.0961 2.20707 22.7795 1.44297 22.216 0.87963C21.6525 0.316289 20.8884 -0.000145484 20.0916 -6.10183e-05C19.2948 2.34479e-05 18.5307 0.31662 17.9674 0.88008L0.880167 17.9673C0.601124 18.2463 0.379771 18.5775 0.228751 18.942C0.07773 19.3065 0 19.6973 0 20.0918C0 20.4864 0.07773 20.8771 0.228751 21.2416C0.379771 21.6062 0.601124 21.9374 0.880167 22.2164L17.9674 39.3036C18.5308 39.867 19.2951 40.1836 20.0919 40.1836C20.8888 40.1836 21.653 39.867 22.2164 39.3036C22.7799 38.7401 23.0965 37.9759 23.0965 37.1791C23.0965 36.3822 22.7799 35.618 22.2164 35.0545L14.5966 27.4347H61.8885C63.8074 27.3922 65.6334 26.6 66.9755 25.2278C68.3176 23.8557 69.0691 22.0126 69.0691 20.0932C69.0691 18.1738 68.3176 16.3307 66.9755 14.9585C65.6334 13.5863 63.8074 12.7942 61.8885 12.7517V12.7481Z" fill="#FBA300"/>
<path d="M69.3535 52.0985L52.2663 35.0122C51.7028 34.4488 50.9386 34.1322 50.1417 34.1322C49.3449 34.1322 48.5807 34.4488 48.0172 35.0122C47.4537 35.5757 47.1372 36.3399 47.1372 37.1367C47.1372 37.9336 47.4537 38.6978 48.0172 39.2613L55.637 46.8811H8.3452C6.42627 46.9236 4.60026 47.7158 3.25816 49.0879C1.91606 50.4601 1.16455 52.3032 1.16455 54.2226C1.16455 56.142 1.91606 57.9851 3.25816 59.3573C4.60026 60.7295 6.42627 61.5216 8.3452 61.5641H55.637L48.0172 69.1839C47.7382 69.4629 47.5169 69.7942 47.3659 70.1587C47.2149 70.5232 47.1372 70.9139 47.1372 71.3085C47.1372 71.7031 47.2149 72.0937 47.3659 72.4583C47.5169 72.8228 47.7382 73.154 48.0172 73.433C48.2962 73.712 48.6274 73.9333 48.9919 74.0843C49.3565 74.2353 49.7472 74.313 50.1417 74.313C50.5363 74.313 50.927 74.2353 51.2915 74.0843C51.656 73.9333 51.9873 73.712 52.2663 73.433L69.3535 56.3458C69.9165 55.7825 70.2327 55.0186 70.2327 54.2222C70.2327 53.4257 69.9165 52.6619 69.3535 52.0985Z" fill="#FBA300"/>
</svg>
