<svg width="88" height="88" viewBox="0 0 88 88" fill="none" xmlns="http://www.w3.org/2000/svg">
<path d="M58 0H30C13.4315 0 0 13.4315 0 30V58C0 74.5685 13.4315 88 30 88H58C74.5685 88 88 74.5685 88 58V30C88 13.4315 74.5685 0 58 0Z" fill="#FBA300"/>
<path d="M70.8218 26.9064C69.404 29.2263 67.5587 31.2559 65.3838 32.8874V34.3374C65.3838 49.7424 54.3278 67.3204 34.0298 67.3204C28.0157 67.274 22.1505 65.4452 17.1758 62.0654C18.0118 62.2223 18.863 62.283 19.7128 62.2464C24.6871 62.3154 29.5172 60.5763 33.3058 57.3524C28.4108 57.3524 24.4248 53.9104 22.9758 49.1974C23.6276 49.3557 24.2992 49.4167 24.9688 49.3784C25.9454 49.3586 26.9173 49.2372 27.8688 49.0164C22.7958 47.9304 18.9898 43.0354 18.9898 37.4164V37.2354C20.5253 38.154 22.2748 38.6539 24.0638 38.6854C22.5364 37.5534 21.2973 36.0774 20.4472 34.3769C19.5971 32.6764 19.1597 30.7995 19.1708 28.8984C19.1776 26.8765 19.6745 24.8863 20.6188 23.0984C23.2854 26.6774 26.6864 29.645 30.5937 31.8021C34.501 33.9592 38.8243 35.2559 43.2738 35.6054C43.0645 34.7131 42.9433 33.8024 42.9118 32.8864C42.9118 26.5434 47.8048 21.2864 53.9668 21.4674C55.4925 21.4853 56.996 21.835 58.373 22.4922C59.75 23.1494 60.9674 24.0985 61.9408 25.2734C64.5558 24.7066 67.0641 23.7277 69.3718 22.3734C68.5545 25.0068 66.817 27.2582 64.4768 28.7164C66.6616 28.3918 68.7946 27.7834 70.8218 26.9064Z" fill="#F9F9F9"/>
</svg>
