<?xml version="1.0" encoding="UTF-8"?>
<svg xmlns="http://www.w3.org/2000/svg" xmlns:xlink="http://www.w3.org/1999/xlink" width="36px" height="24px" viewBox="0 0 36 24" version="1.1">
<g id="surface1">
<path style=" stroke:none;fill-rule:nonzero;fill:rgb(13.333333%,13.333333%,13.333333%);fill-opacity:1;" d="M 5.410156 12 L 4.78125 12.628906 L 4.152344 12 L 4.78125 11.371094 Z M 6.9375 10.472656 L 8.015625 11.550781 L 8.644531 10.921875 L 6.9375 9.21875 L 5.230469 10.921875 L 5.859375 11.550781 Z M 9.09375 11.371094 L 8.464844 12 L 9.09375 12.628906 L 9.71875 12 Z M 6.9375 13.527344 L 5.859375 12.449219 L 5.230469 13.078125 L 6.9375 14.78125 L 8.644531 13.078125 L 8.015625 12.449219 Z M 6.9375 12.628906 L 7.566406 12 L 6.9375 11.371094 L 6.308594 12 Z M 13.570312 12.6875 L 13.570312 12.679688 C 13.570312 12.269531 13.355469 12.066406 13 11.929688 C 13.21875 11.808594 13.402344 11.617188 13.402344 11.273438 L 13.402344 11.261719 C 13.402344 10.785156 13.015625 10.472656 12.394531 10.472656 L 10.976562 10.472656 L 10.976562 13.527344 L 12.429688 13.527344 C 13.117188 13.527344 13.570312 13.246094 13.570312 12.6875 Z M 12.734375 11.382812 C 12.734375 11.609375 12.546875 11.707031 12.25 11.707031 L 11.632812 11.707031 L 11.632812 11.0625 L 12.292969 11.0625 C 12.578125 11.0625 12.734375 11.175781 12.734375 11.375 Z M 12.902344 12.605469 C 12.902344 12.832031 12.726562 12.9375 12.429688 12.9375 L 11.632812 12.9375 L 11.632812 12.265625 L 12.40625 12.265625 C 12.753906 12.265625 12.90625 12.394531 12.90625 12.597656 Z M 14.980469 13.527344 L 14.980469 10.472656 L 14.308594 10.472656 L 14.308594 13.527344 Z M 18.59375 13.527344 L 18.59375 10.472656 L 17.925781 10.472656 L 17.925781 12.351562 L 16.496094 10.472656 L 15.878906 10.472656 L 15.878906 13.527344 L 16.539062 13.527344 L 16.539062 11.585938 L 18.019531 13.527344 Z M 22.3125 13.527344 L 21.003906 10.453125 L 20.382812 10.453125 L 19.074219 13.527344 L 19.757812 13.527344 L 20.039062 12.839844 L 21.332031 12.839844 L 21.609375 13.527344 Z M 21.089844 12.25 L 20.277344 12.25 L 20.683594 11.257812 Z M 25.515625 13.527344 L 25.515625 10.472656 L 24.847656 10.472656 L 24.847656 12.351562 L 23.417969 10.472656 L 22.800781 10.472656 L 22.800781 13.527344 L 23.460938 13.527344 L 23.460938 11.585938 L 24.941406 13.527344 Z M 28.980469 13.035156 L 28.554688 12.601562 C 28.3125 12.820312 28.101562 12.960938 27.75 12.960938 C 27.226562 12.960938 26.867188 12.523438 26.867188 12 L 26.867188 11.992188 C 26.867188 11.46875 27.238281 11.039062 27.75 11.039062 C 28.054688 11.039062 28.292969 11.171875 28.53125 11.386719 L 28.957031 10.890625 C 28.675781 10.613281 28.328125 10.421875 27.753906 10.421875 C 26.816406 10.421875 26.164062 11.132812 26.164062 12 L 26.164062 12.007812 C 26.164062 12.882812 26.828125 13.578125 27.726562 13.578125 C 28.316406 13.578125 28.664062 13.371094 28.976562 13.035156 Z M 31.847656 13.527344 L 31.847656 12.929688 L 30.1875 12.929688 L 30.1875 12.285156 L 31.625 12.285156 L 31.625 11.6875 L 30.1875 11.6875 L 30.1875 11.070312 L 31.820312 11.070312 L 31.820312 10.472656 L 29.519531 10.472656 L 29.519531 13.527344 Z M 31.847656 13.527344 "/>
</g>
</svg>
