<svg width="215" height="166" viewBox="0 0 215 166" fill="none" xmlns="http://www.w3.org/2000/svg">
<path d="M28.424 17.0691H0.25V45.0581H28.424V17.0691Z" fill="#FBA300"/>
<path d="M46.5779 11.075H34.5129V23.063H46.5779V11.075Z" fill="#FBA300"/>
<path d="M28.424 0.536133H18.729V10.167H28.424V0.536133Z" fill="#FBA300"/>
<path d="M148.603 105.801L124.642 147.301L123.856 148.687L118.42 158.064L118.404 116.844H118.42L148.603 105.801Z" fill="#F36A10"/>
<path d="M118.405 116.847L118.421 158.066L118.19 158.466C109.279 163.113 99.3814 165.548 89.3319 165.566C52.4319 165.566 22.408 132.951 22.408 92.866C22.408 52.781 52.4359 20.166 89.3319 20.166C95.3182 20.1642 101.273 21.0302 107.011 22.7371L94.783 31.4841V31.53C92.9727 31.3321 91.1529 31.2346 89.3319 31.238C58.5319 31.238 33.481 58.879 33.481 92.864C33.481 125.787 56.994 152.751 86.468 154.399C86.637 154.415 86.8379 154.429 87.0219 154.429H87.4539C90.3002 154.433 93.0999 153.707 95.586 152.321C98.0721 150.935 100.161 148.935 101.655 146.512C103.148 144.089 103.996 141.324 104.117 138.48C104.237 135.636 103.627 132.809 102.345 130.268L101.421 128.651C101.421 128.636 101.421 128.636 101.406 128.621L88.2059 105.769L118.405 116.847Z" fill="#FBA300"/>
<path d="M118.405 72.606L118.413 105.806L81.047 92.3579L81.063 92.342L118.405 72.606Z" fill="#F36A10"/>
<path d="M155.811 92.373L118.431 105.801H118.415L118.407 72.6011L155.689 92.1531L155.811 92.373Z" fill="#E50019"/>
<path d="M118.421 27.6809L118.405 72.605L81.063 92.342L99.696 60.05L102.929 54.4609L118.421 27.6809Z" fill="#FBA300"/>
<path d="M214.434 92.866C214.434 132.949 184.406 165.566 147.51 165.566C141.513 165.564 135.548 164.692 129.801 162.979L142.074 154.187C143.879 154.384 145.694 154.482 147.51 154.479C178.31 154.479 203.362 126.853 203.362 92.8682C203.362 60.4532 180.571 33.8131 151.745 31.4111C150.775 31.3341 149.789 31.2721 148.819 31.2571C146.084 31.3457 143.413 32.1063 141.042 33.4719C138.671 34.8376 136.673 36.7661 135.224 39.0872C133.775 41.4082 132.92 44.0506 132.734 46.7805C132.548 49.5105 133.038 52.2441 134.159 54.74C134.174 54.756 134.174 54.7711 134.19 54.7871C134.236 54.8791 134.283 54.956 134.313 55.033C134.37 55.1708 134.437 55.3046 134.513 55.4331C134.542 55.483 134.568 55.5348 134.59 55.5881C134.609 55.6421 134.635 55.6933 134.667 55.741C134.675 55.7606 134.68 55.7811 134.682 55.802L135.19 56.6501L155.69 92.1602L118.408 72.6091L118.424 66.135V27.6831L118.685 27.2371C127.59 22.6077 137.476 20.1837 147.513 20.1689C184.406 20.1669 214.434 52.782 214.434 92.866Z" fill="#F36A10"/>
</svg>
