<svg width="798" height="915" viewBox="0 0 798 915" fill="none" xmlns="http://www.w3.org/2000/svg">
<mask id="mask0" mask-type="alpha" maskUnits="userSpaceOnUse" x="0" y="0" width="798" height="915">
<rect width="797.629" height="915" fill="#C4C4C4"/>
</mask>
<g mask="url(#mask0)">
<path d="M465.988 794.168C649.185 777.609 784.273 615.674 767.714 432.476C751.155 249.279 589.221 114.191 406.023 130.75C222.826 147.309 87.738 309.243 104.297 492.441C120.856 675.639 282.79 810.726 465.988 794.168Z" fill="white"/>
<path fill-rule="evenodd" clip-rule="evenodd" d="M438.195 479.757C447.896 478.679 454.633 469.786 453.555 460.085C452.477 450.384 443.585 443.647 433.884 444.725C424.182 445.803 417.445 454.696 418.523 464.397C419.871 474.098 428.494 481.104 438.195 479.757Z" fill="#FBA300"/>
<path fill-rule="evenodd" clip-rule="evenodd" d="M386.996 146.144L406.129 143.718L399.122 163.929L386.996 146.144Z" fill="black"/>
<path d="M365.269 150.013L362.119 150.745L365.593 165.707L368.743 164.976L365.269 150.013Z" fill="black"/>
<path d="M332.923 159.169L329.867 160.225L334.885 174.742L337.941 173.686L332.923 159.169Z" fill="black"/>
<path d="M301.715 171.811L298.786 173.182L305.297 187.093L308.226 185.723L301.715 171.811Z" fill="black"/>
<path d="M272.045 187.445L269.275 189.114L277.203 202.27L279.972 200.601L272.045 187.445Z" fill="black"/>
<path d="M218.528 227.448L216.166 229.656L226.655 240.877L229.017 238.669L218.528 227.448Z" fill="black"/>
<path d="M195.163 251.332L193.044 253.775L204.649 263.839L206.767 261.396L195.163 251.332Z" fill="black"/>
<path d="M174.283 277.727L172.432 280.378L185.026 289.171L186.877 286.519L174.283 277.727Z" fill="black"/>
<path d="M156.453 306.038L154.889 308.868L168.334 316.295L169.898 313.464L156.453 306.038Z" fill="black"/>
<path d="M129.979 367.686L129.038 370.779L143.733 375.251L144.674 372.157L129.979 367.686Z" fill="black"/>
<path d="M121.764 400.228L121.151 403.403L136.232 406.317L136.845 403.142L121.764 400.228Z" fill="black"/>
<path d="M131.209 466.376L115.852 466.664L115.912 469.897L131.269 469.609L131.209 466.376Z" fill="black"/>
<path d="M138.714 529.823L123.752 533.296L124.483 536.446L139.445 532.973L138.714 529.823Z" fill="black"/>
<path d="M147.335 560.543L132.818 565.561L133.874 568.617L148.391 563.599L147.335 560.543Z" fill="black"/>
<path d="M159.173 590.118L145.26 596.626L146.63 599.555L160.543 593.047L159.173 590.118Z" fill="black"/>
<path d="M174.02 618.382L160.864 626.311L162.534 629.08L175.69 621.151L174.02 618.382Z" fill="black"/>
<path d="M260.135 711.689L251.341 724.283L253.992 726.135L262.786 713.541L260.135 711.689Z" fill="black"/>
<path d="M287.12 728.555L279.691 742L282.522 743.563L289.95 730.119L287.12 728.555Z" fill="black"/>
<path d="M345.707 753.593L341.234 768.288L344.328 769.23L348.801 754.535L345.707 753.593Z" fill="black"/>
<path d="M443.417 767.222L440.184 767.282L440.472 782.639L443.705 782.579L443.417 767.222Z" fill="black"/>
<path d="M594.871 722.795L592.102 724.465L600.033 737.619L602.802 735.95L594.871 722.795Z" fill="black"/>
<path d="M645.308 684.07L642.945 686.277L653.43 697.503L655.793 695.295L645.308 684.07Z" fill="black"/>
<path d="M667.287 660.971L665.168 663.414L676.771 673.478L678.89 671.035L667.287 660.971Z" fill="black"/>
<path d="M686.844 635.565L684.993 638.216L697.587 647.01L699.438 644.359L686.844 635.565Z" fill="black"/>
<path d="M703.531 608.586L701.967 611.416L715.41 618.846L716.974 616.016L703.531 608.586Z" fill="black"/>
<path d="M728.287 549.566L727.346 552.66L742.041 557.133L742.982 554.039L728.287 549.566Z" fill="black"/>
<path d="M747.556 388.329L732.594 391.804L733.325 394.954L748.288 391.479L747.556 388.329Z" fill="black"/>
<path d="M738.261 356.218L723.744 361.236L724.8 364.292L739.317 359.274L738.261 356.218Z" fill="black"/>
<path d="M725.361 325.25L711.448 331.758L712.818 334.687L726.732 328.179L725.361 325.25Z" fill="black"/>
<path d="M709.468 295.648L696.312 303.576L697.981 306.345L711.137 298.418L709.468 295.648Z" fill="black"/>
<path d="M668.969 242.671L657.748 253.161L659.956 255.523L671.177 245.033L668.969 242.671Z" fill="black"/>
<path d="M644.479 219.346L634.412 230.947L636.855 233.067L646.922 221.465L644.479 219.346Z" fill="black"/>
<path d="M617.973 199.095L609.177 211.688L611.828 213.539L620.624 200.947L617.973 199.095Z" fill="black"/>
<path d="M589.609 181.615L582.178 195.059L585.008 196.623L592.44 183.18L589.609 181.615Z" fill="black"/>
<path d="M527.763 155.667L523.291 170.362L526.384 171.304L530.857 156.609L527.763 155.667Z" fill="black"/>
<path d="M495.267 147.796L492.354 162.878L495.529 163.491L498.443 148.409L495.267 147.796Z" fill="black"/>
<path d="M461.904 143.27L460.583 158.574L463.805 158.852L465.126 143.549L461.904 143.27Z" fill="black"/>
<path d="M431.555 142.05L428.322 142.11L428.608 157.468L431.841 157.407L431.555 142.05Z" fill="black"/>
<path fill-rule="evenodd" clip-rule="evenodd" d="M235.548 212.975L250.909 201.388L254.681 222.407L235.548 212.975Z" fill="black"/>
<path fill-rule="evenodd" clip-rule="evenodd" d="M119.673 511.287L117.248 492.423L137.459 499.43L119.673 511.287Z" fill="black"/>
<path fill-rule="evenodd" clip-rule="evenodd" d="M320.164 761.091L302.378 753.546L318.817 739.533L320.164 761.091Z" fill="black"/>
<path fill-rule="evenodd" clip-rule="evenodd" d="M485.085 778.879L465.952 781.304L472.958 760.824L485.085 778.879Z" fill="black"/>
<path fill-rule="evenodd" clip-rule="evenodd" d="M636.531 712.047L621.171 723.635L617.398 702.346L636.531 712.047Z" fill="black"/>
<path fill-rule="evenodd" clip-rule="evenodd" d="M734.622 578.386L727.076 595.902L713.063 579.734L734.622 578.386Z" fill="black"/>
<path fill-rule="evenodd" clip-rule="evenodd" d="M685.576 261.75L697.164 277.11L676.145 281.152L685.576 261.75Z" fill="black"/>
<path fill-rule="evenodd" clip-rule="evenodd" d="M551.915 163.929L569.7 171.474L553.262 185.487L551.915 163.929Z" fill="black"/>
<path fill-rule="evenodd" clip-rule="evenodd" d="M597.457 700.459C598.804 699.111 598.265 696.147 596.379 691.836C595.571 690.488 593.684 686.716 590.451 681.057L548.143 608.567L551.107 606.142L624.135 679.979L627.638 677.284L629.794 679.979L615.512 690.758L613.356 688.063L616.859 685.368L564.042 631.742L592.337 679.979C592.876 680.787 593.684 681.865 594.762 683.482C595.84 685.099 597.187 686.715 598.535 688.602C600.691 691.297 602.308 692.914 603.924 693.183C605.541 693.452 606.619 693.183 607.428 692.374L609.583 695.069L599.882 702.345L597.457 700.459Z" fill="black"/>
<path fill-rule="evenodd" clip-rule="evenodd" d="M394.81 131.054C486.432 119.736 573.743 146.414 641.112 198.962C708.482 251.51 755.91 329.659 767.228 421.281C778.546 512.904 751.867 600.215 699.319 667.584C646.771 734.953 568.623 782.381 477 793.699C385.378 805.017 298.067 778.339 230.698 725.791C163.328 673.243 115.9 595.094 104.582 503.472C93.2642 411.85 119.943 324.539 172.491 257.17C225.039 189.8 303.457 142.372 394.81 131.054ZM640.304 200.31C573.204 148.031 486.163 121.353 395.079 132.671C303.996 143.989 226.117 191.147 173.838 258.247C121.559 325.347 94.8811 412.389 106.199 503.472C117.517 594.555 164.676 672.434 231.776 724.713C298.876 776.992 385.917 803.67 477 792.352C568.084 781.034 645.963 733.875 698.241 666.775C750.52 599.675 777.198 512.634 765.88 421.551C754.562 330.467 707.404 252.588 640.304 200.31Z" fill="black"/>
<path fill-rule="evenodd" clip-rule="evenodd" d="M394.54 127.281C439.812 121.622 484.276 125.395 525.776 136.713C568.892 148.57 609.044 169.05 643.807 195.998C678.569 222.946 707.943 256.9 730.04 295.974C751.328 333.431 765.611 375.739 771.27 421.012C776.929 466.284 773.156 510.748 761.838 552.247C749.981 595.364 729.501 635.516 702.553 670.279C675.605 705.041 641.651 734.414 602.577 756.511C565.119 777.8 522.811 792.082 477.539 797.741C432.267 803.4 387.803 799.628 346.304 788.31C303.187 776.453 263.035 755.972 228.272 729.025C193.51 702.077 164.137 668.123 142.039 629.048C120.751 591.591 106.468 549.283 100.809 504.011C95.1504 458.739 98.9231 414.275 110.241 372.775C122.098 329.659 142.578 289.507 169.526 254.744C196.474 219.981 230.428 190.608 269.502 168.511C306.96 147.222 348.998 132.671 394.54 127.281ZM637.878 203.543C604.194 177.134 565.119 157.463 523.35 145.875C482.929 134.826 439.812 131.323 395.618 136.713C351.424 142.102 310.463 156.115 274.083 176.865C236.357 198.423 203.48 226.988 177.072 260.673C150.663 294.357 130.991 333.431 119.403 375.2C108.355 415.622 104.582 458.738 110.241 502.933C115.631 547.127 129.643 588.088 150.393 624.467C171.951 662.194 200.516 695.07 234.201 721.479C300.492 773.219 386.456 799.628 476.461 788.31C520.656 782.92 561.616 768.907 597.996 748.157C635.722 726.599 668.599 698.035 695.008 664.35C721.416 630.665 741.088 591.591 752.676 549.822C763.724 509.4 767.228 466.284 761.838 422.09C756.448 377.895 742.436 336.935 721.686 300.555C700.397 262.559 671.563 229.683 637.878 203.543Z" fill="black"/>
<path fill-rule="evenodd" clip-rule="evenodd" d="M398.312 159.08C482.12 148.57 562.155 173.362 623.865 221.329C685.576 269.296 728.961 340.977 739.202 424.784C749.711 508.592 724.919 588.627 676.952 650.337C628.985 712.048 557.304 755.434 473.497 765.674C389.689 776.183 309.654 751.391 247.944 703.424C186.234 655.457 142.848 583.776 132.607 499.969C122.098 416.161 146.89 336.126 194.857 274.416C243.093 212.975 314.774 169.589 398.312 159.08ZM623.057 222.676C561.616 174.709 482.12 150.456 398.851 160.696C315.583 170.937 244.171 214.053 196.474 275.494C148.507 336.935 124.254 416.431 134.494 499.699C144.734 582.968 187.85 654.379 249.291 702.077C310.732 750.044 390.228 774.297 473.497 764.057C556.765 753.817 628.177 710.7 675.874 649.259C723.841 587.818 748.094 508.323 737.854 425.054C727.345 341.785 684.228 270.374 623.057 222.676Z" fill="black"/>
<path fill-rule="evenodd" clip-rule="evenodd" d="M396.426 143.719C484.546 132.671 568.623 158.541 633.297 209.202C698.241 259.595 743.783 335.049 754.562 422.898C765.611 511.017 739.741 595.094 689.079 659.769C638.687 724.713 563.233 770.255 475.383 781.034C387.264 792.083 303.187 766.213 238.513 715.551C173.569 665.159 128.027 589.705 117.248 501.855C106.199 413.736 132.069 329.659 182.731 264.984C233.393 200.31 308.577 154.768 396.426 143.719ZM632.489 210.55C568.084 160.427 484.276 134.557 396.696 145.606C309.116 156.385 234.201 201.657 184.078 266.332C133.955 330.737 108.085 414.544 119.134 502.125C129.913 589.705 175.185 664.62 239.86 714.742C304.265 764.865 388.073 790.735 475.653 779.687C563.233 768.907 638.148 723.635 688.271 658.961C738.394 594.555 764.263 510.748 753.215 423.168C742.166 335.587 696.894 260.673 632.489 210.55Z" fill="black"/>
<path d="M537.151 749.96L534.095 751.017L539.115 765.534L542.171 764.477L537.151 749.96Z" fill="black"/>
<path d="M506.437 759.155L503.287 759.886L506.761 774.848L509.911 774.117L506.437 759.155Z" fill="black"/>
<path d="M566.746 737.911L563.816 739.28L570.32 753.195L573.249 751.826L566.746 737.911Z" fill="black"/>
<path d="M408.15 766.016L406.829 781.32L410.05 781.598L411.371 766.295L408.15 766.016Z" fill="black"/>
<path d="M376.693 761.415L373.779 776.496L376.954 777.11L379.868 762.029L376.693 761.415Z" fill="black"/>
<path d="M235.07 691.652L225.007 703.257L227.45 705.375L237.513 693.771L235.07 691.652Z" fill="black"/>
<path fill-rule="evenodd" clip-rule="evenodd" d="M186.504 663.002L174.916 647.642L195.935 643.869L186.504 663.002Z" fill="black"/>
<path d="M212.194 669.516L200.973 680.006L203.181 682.368L214.402 671.878L212.194 669.516Z" fill="black"/>
<path d="M117.215 433.431L116.937 436.653L132.24 437.974L132.518 434.752L117.215 433.431Z" fill="black"/>
<path fill-rule="evenodd" clip-rule="evenodd" d="M137.459 346.635L145.004 328.85L159.017 345.288L137.459 346.635Z" fill="black"/>
<path fill-rule="evenodd" clip-rule="evenodd" d="M752.407 413.465L754.832 432.598L734.621 425.322L752.407 413.465Z" fill="black"/>
<path d="M756.116 454.792L740.759 455.081L740.819 458.314L756.177 458.025L756.116 454.792Z" fill="black"/>
<path d="M739.961 486.936L739.683 490.158L754.987 491.476L755.264 488.254L739.961 486.936Z" fill="black"/>
<path d="M735.745 518.662L735.132 521.837L750.214 524.748L750.827 521.572L735.745 518.662Z" fill="black"/>
<path fill-rule="evenodd" clip-rule="evenodd" d="M414.751 278.727L397.774 280.883L397.235 277.38L400.738 276.841L386.186 237.497L383.491 258.786C383.222 260.942 382.952 262.559 382.952 263.637C382.683 265.792 382.683 267.409 382.952 268.487C383.491 272.26 384.03 274.955 384.839 276.302C385.647 277.649 386.995 278.458 389.15 278.188L389.689 281.692L374.868 283.578L374.329 280.075C375.946 279.536 377.293 278.188 378.102 276.302C378.91 274.416 379.988 269.565 380.797 261.75L384.3 233.186L365.167 182.254L362.472 182.524L361.933 179.021L378.91 176.865L379.449 180.368L375.137 180.907L388.342 216.747L390.498 199.231C390.767 197.615 390.767 195.728 391.037 193.303C391.037 190.878 391.037 189.261 391.037 188.183C390.767 185.488 389.959 183.332 389.15 181.715C388.342 180.099 387.264 179.29 385.647 179.56L385.108 176.056L399.121 174.439L399.66 177.943C397.774 178.212 396.426 179.829 395.348 182.524C394.54 185.219 393.462 190.339 392.654 197.884L389.959 221.329L409.9 275.494L413.673 274.955L414.751 278.727Z" fill="black"/>
<path fill-rule="evenodd" clip-rule="evenodd" d="M275.162 372.505L268.425 388.135L265.191 386.787L266.538 383.554L225.308 376.547L242.285 389.482C244.172 390.83 245.25 391.907 246.328 392.446C248.214 393.794 249.561 394.602 250.639 394.872C254.143 396.489 256.837 397.027 258.454 397.297C260.071 397.297 261.418 396.489 262.227 394.602L265.461 395.95L259.532 409.693L256.298 408.346C256.568 406.729 256.298 404.842 254.951 403.225C253.603 401.339 249.831 398.105 243.902 393.524L220.997 376.278L167.371 367.115L166.293 369.541L163.059 368.193L169.796 352.564L173.03 353.911L171.413 357.953L209.14 364.421L195.127 353.911C193.78 353.103 192.163 351.755 190.276 350.677C188.39 349.33 186.773 348.521 185.695 347.983C183 346.905 180.845 346.366 178.958 346.366C177.072 346.366 175.994 346.905 175.455 348.252L172.221 346.905L177.611 333.97L180.845 335.317C180.036 337.203 180.575 339.09 182.731 341.246C184.617 343.401 188.659 346.905 194.857 351.216L213.99 365.229L270.85 375.2L272.198 371.697L275.162 372.505Z" fill="black"/>
<path fill-rule="evenodd" clip-rule="evenodd" d="M431.997 276.57L413.672 278.726L413.133 275.223L417.984 274.684L405.857 177.403L401.276 177.942L400.737 174.438L419.062 172.013L419.601 175.516L414.75 176.325L426.877 273.606L431.727 273.067L431.997 276.57Z" fill="black"/>
<path fill-rule="evenodd" clip-rule="evenodd" d="M334.716 303.519L320.972 313.759L318.817 311.065L321.511 308.909L289.174 282.231L297.528 301.902C298.336 304.058 299.145 305.406 299.414 306.484C300.223 308.37 301.031 309.987 301.84 310.795C304.265 313.759 306.151 315.915 307.499 316.724C308.846 317.532 310.463 317.532 312.08 316.185L314.236 318.88L302.379 327.772L300.223 325.077C301.301 323.73 301.84 322.113 301.57 319.957C301.301 317.802 299.684 313.221 296.719 305.945L285.671 279.536L243.632 244.773L241.477 246.39L239.321 243.695L253.064 233.455L255.22 236.15L251.717 238.845L281.09 263.367L274.083 247.198C273.544 245.851 272.736 243.965 271.658 242.078C270.58 239.923 269.772 238.575 268.963 237.497C267.346 235.341 265.73 233.725 264.113 232.647C262.496 231.569 261.149 231.569 260.071 232.377L257.915 229.682L269.233 221.329L271.389 224.023C269.772 225.101 269.502 227.257 270.041 230.221C270.58 233.186 272.467 238.036 275.431 244.773L284.862 266.331L329.326 303.519L332.291 301.094L334.716 303.519Z" fill="black"/>
<path fill-rule="evenodd" clip-rule="evenodd" d="M348.729 293.01L333.908 304.058L331.752 301.363L335.794 298.399L276.509 219.981L272.736 222.945L270.581 220.251L285.402 208.933L287.558 211.627L283.515 214.592L342.801 293.01L346.573 290.045L348.729 293.01Z" fill="black"/>
<path fill-rule="evenodd" clip-rule="evenodd" d="M451.669 274.146L433.345 276.302L432.806 272.798L437.657 272.259L425.53 174.978L420.68 175.517L420.141 172.014L438.735 169.588L439.004 173.092L434.423 173.9L446.28 271.181L451.131 270.642L451.669 274.146Z" fill="black"/>
<path fill-rule="evenodd" clip-rule="evenodd" d="M587.216 347.713L575.898 332.892L578.593 330.736L581.557 334.778L659.975 275.493L657.011 271.72L659.975 269.564L671.024 284.386L668.329 286.542L665.365 282.769L586.947 341.784L589.911 345.827L587.216 347.713Z" fill="black"/>
<path fill-rule="evenodd" clip-rule="evenodd" d="M599.073 363.612L587.755 348.791L590.719 346.635L593.414 350.407L671.832 291.392L668.868 287.35L671.832 285.194L682.881 300.015L680.186 302.171L677.221 298.398L598.803 357.414L601.768 361.456L599.073 363.612Z" fill="black"/>
<path fill-rule="evenodd" clip-rule="evenodd" d="M519.578 294.357L502.601 287.081L503.948 283.848L508.53 285.734L546.795 195.459L542.214 193.573L543.562 190.339L560.808 197.345L559.461 200.579L554.88 198.693L516.614 289.237L521.195 291.124L519.578 294.357Z" fill="black"/>
<path fill-rule="evenodd" clip-rule="evenodd" d="M448.436 647.643L430.112 650.068L430.651 653.571L435.232 652.763L447.358 750.313L442.508 750.852L443.047 754.356L461.371 752.2L461.102 748.697L456.251 749.236L444.125 651.685L448.975 651.146L448.436 647.643Z" fill="black"/>
<path fill-rule="evenodd" clip-rule="evenodd" d="M500.176 743.846C498.29 743.846 496.673 741.42 495.056 736.839C494.517 735.222 493.439 731.18 491.822 724.982L471.612 643.6L467.839 644.139L466.761 748.157L462.449 748.696L462.988 752.2L480.774 750.044L480.235 746.541L475.923 747.08L476.462 671.895L489.666 726.06C489.936 726.869 490.205 728.216 490.475 730.372C490.744 732.258 491.014 734.414 491.283 736.57C491.822 740.073 491.553 742.498 490.475 743.846C489.667 745.193 488.589 745.732 487.511 745.732L488.05 749.235L500.176 747.618V743.846Z" fill="black"/>
<path fill-rule="evenodd" clip-rule="evenodd" d="M725.729 441.223L728.154 459.547L724.651 460.086L724.112 455.236L626.561 467.362L627.1 472.213L623.597 472.482L621.441 454.158L624.944 453.619L625.483 458.469L722.765 446.343L722.226 441.492L725.729 441.223Z" fill="black"/>
<path fill-rule="evenodd" clip-rule="evenodd" d="M723.303 420.742L725.459 439.067L721.956 439.606L721.417 434.755L624.136 446.882L624.675 451.732L621.171 452.002L618.746 433.677L622.249 433.138L622.788 437.989L720.339 425.862L719.8 421.012L723.303 420.742Z" fill="black"/>
<path fill-rule="evenodd" clip-rule="evenodd" d="M720.608 400.262L723.033 418.587L719.53 419.126L718.991 414.275L621.44 426.401L621.979 431.252L618.476 431.522L616.32 413.197L619.823 412.658L620.362 417.509L717.913 405.382L717.104 400.532L720.608 400.262Z" fill="black"/>
<path fill-rule="evenodd" clip-rule="evenodd" d="M613.625 518.562L620.901 501.316L624.135 502.663L622.249 507.244L712.524 545.51L714.41 540.929L717.644 542.276L710.368 559.523L707.134 558.176L709.021 553.595L618.746 515.329L616.859 519.91L613.625 518.562Z" fill="black"/>
<path fill-rule="evenodd" clip-rule="evenodd" d="M605.541 537.426L612.817 520.449L616.051 521.797L614.164 526.108L704.439 564.374L706.326 560.062L709.559 561.41L702.553 578.387L699.319 577.04L701.206 572.728L610.661 534.462L608.775 538.774L605.541 537.426Z" fill="black"/>
<path fill-rule="evenodd" clip-rule="evenodd" d="M597.457 556.559L604.732 539.312L607.966 540.66L606.08 545.241L696.355 583.507L698.511 578.926L701.744 580.273L694.468 597.52L691.235 596.172L693.121 591.591L602.577 553.325L600.69 557.907L597.457 556.559Z" fill="black"/>
<path fill-rule="evenodd" clip-rule="evenodd" d="M589.372 575.692L596.648 558.446L599.882 559.793L597.995 564.374L688.54 602.64L690.426 598.059L693.66 599.406L686.384 616.653L683.15 615.306L685.037 610.724L594.492 572.459L592.606 577.04L589.372 575.692Z" fill="black"/>
<path fill-rule="evenodd" clip-rule="evenodd" d="M257.646 495.117L260.071 513.441L256.568 513.98L256.029 509.13L158.478 521.256L159.017 526.107L155.514 526.376L153.358 508.052L156.861 507.513L157.4 512.363L254.951 500.237L254.143 495.386L257.646 495.117Z" fill="black"/>
<path fill-rule="evenodd" clip-rule="evenodd" d="M252.526 453.887L254.682 470.864L251.178 471.403L250.639 467.9L211.296 482.452L232.584 485.147C234.74 485.416 236.357 485.686 237.435 485.686C239.591 485.955 241.208 485.955 242.286 485.686C246.058 485.147 248.753 484.608 250.1 483.799C251.448 482.991 252.256 481.643 251.987 479.488L255.49 478.949L257.376 493.77L253.873 494.309C253.334 492.692 251.987 491.345 250.1 490.536C248.214 489.728 243.363 488.65 235.549 487.841L206.984 484.338L156.053 503.471L156.322 506.166H153.088L150.933 489.189L154.436 488.65L154.975 492.961L190.815 479.757L173.299 477.601C171.682 477.332 169.796 477.332 167.371 477.062C164.945 477.062 163.329 477.062 162.251 477.062C159.556 477.332 157.4 478.14 155.783 478.949C154.166 479.757 153.358 480.835 153.627 482.452L150.124 482.991L148.507 468.978L152.011 468.439C152.28 470.325 153.897 471.673 156.592 472.751C159.286 473.559 164.407 474.637 171.952 475.445L195.396 478.14L249.561 458.199L249.023 454.426L252.526 453.887Z" fill="black"/>
<path fill-rule="evenodd" clip-rule="evenodd" d="M278.126 545.241L266.808 530.42L264.113 532.576L267.077 536.618L188.66 595.634L185.695 591.861L183 594.017L194.049 608.838L197.013 606.682L194.049 602.909L272.467 543.624L275.162 547.397L278.126 545.241Z" fill="black"/>
<path fill-rule="evenodd" clip-rule="evenodd" d="M290.792 562.218L279.474 547.396L276.779 549.283L279.744 553.325L201.326 612.341L198.361 608.568L195.667 610.724L206.715 625.545L209.679 623.389L206.715 619.616L285.133 560.331L287.828 564.104L290.792 562.218Z" fill="black"/>
<path fill-rule="evenodd" clip-rule="evenodd" d="M303.457 578.926L292.139 564.104L289.444 566.26L292.408 570.033L213.99 629.318L211.026 625.276L208.331 627.432L219.38 642.253L222.344 640.097L219.38 636.324L297.528 577.039L300.492 581.082L303.457 578.926Z" fill="black"/>
<path fill-rule="evenodd" clip-rule="evenodd" d="M246.057 671.896C245.249 670.279 246.327 667.584 249.561 664.081C250.638 662.734 253.603 660.039 258.184 655.458L318.547 597.251L316.122 594.287L225.577 645.487L222.882 641.984L220.188 644.14L230.967 658.422L233.661 656.266L230.967 652.763L296.45 615.575L256.028 654.38C255.489 654.919 254.411 655.997 252.794 657.075C251.177 658.422 249.561 659.77 247.674 661.117C244.979 663.273 242.824 664.081 241.207 664.081C239.59 664.081 238.512 663.542 237.973 662.464L235.278 664.62L242.554 674.322L246.057 671.896Z" fill="black"/>
<path fill-rule="evenodd" clip-rule="evenodd" d="M382.683 641.174L399.66 648.45L398.312 651.684L394.001 649.797L355.735 740.342L360.047 742.228L358.699 745.462L341.722 738.186L343.07 734.952L347.381 736.838L385.647 646.294L381.335 644.408L382.683 641.174Z" fill="black"/>
<path fill-rule="evenodd" clip-rule="evenodd" d="M363.28 633.09L380.527 640.366L378.91 643.6L374.598 641.713L336.332 731.988L340.913 733.875L339.296 737.108L322.319 729.832L323.667 726.599L328.248 728.485L366.514 638.21L361.933 636.324L363.28 633.09Z" fill="black"/>
<path fill-rule="evenodd" clip-rule="evenodd" d="M287.018 711.239C288.905 711.778 291.06 709.891 293.755 705.849C294.564 704.502 296.719 700.999 299.953 695.34L341.453 622.581L344.956 624.197L317.469 724.443L321.511 726.06L320.164 729.294L303.726 722.287L305.073 719.054L309.115 720.67L329.057 648.181L301.3 696.687C300.762 697.495 300.223 698.843 299.414 700.459C298.606 702.346 297.797 704.232 296.719 706.388C295.372 709.622 294.833 712.047 295.372 713.395C295.911 715.011 296.719 715.82 297.797 716.089L296.45 719.323L285.132 714.472L287.018 711.239Z" fill="black"/>
<path fill-rule="evenodd" clip-rule="evenodd" d="M378.103 532.305C371.096 526.646 360.587 527.724 354.928 534.73C349.269 541.737 350.347 552.247 357.353 557.906C364.359 563.565 374.869 562.487 380.528 555.48C386.457 548.474 385.379 537.964 378.103 532.305Z" fill="#FBA300"/>
<path fill-rule="evenodd" clip-rule="evenodd" d="M373.791 529.612C381.605 512.635 397.505 492.693 426.339 465.746L433.345 471.405C412.865 505.359 396.696 524.761 381.605 536.079C366.515 547.128 373.791 529.612 373.791 529.612Z" fill="#FBA300"/>
<path fill-rule="evenodd" clip-rule="evenodd" d="M548.682 563.296C491.283 519.101 474.845 503.741 436.849 457.66L440.082 454.157C489.127 488.65 505.565 503.741 554.071 557.637L651.083 647.373L645.694 653.301L548.682 563.296Z" fill="#FBA300"/>
<path fill-rule="evenodd" clip-rule="evenodd" d="M322.32 387.596C327.17 380.051 337.41 378.165 344.956 383.015C352.501 388.135 354.927 398.106 350.076 405.651C345.225 413.197 334.985 415.083 327.44 410.232C319.625 405.112 317.469 395.142 322.32 387.596ZM363.55 408.615C363.55 408.615 362.202 408.077 360.316 407.807C359.508 407.538 358.969 407.268 358.43 406.46L356.543 402.957C358.969 394.333 355.735 384.632 347.651 379.242C342.261 375.739 336.063 374.931 330.673 376.278L283.784 361.188C283.515 361.188 282.976 361.187 282.707 361.457C282.437 361.726 282.437 362.265 282.707 362.535L315.313 399.184C316.391 404.843 319.625 410.232 324.745 413.736C332.829 418.856 342.8 418.317 349.806 412.658L354.118 413.197C354.927 413.197 355.465 413.466 356.004 414.275C356.543 415.083 357.352 415.891 358.16 416.7C370.556 430.443 391.575 444.726 427.416 461.972L432.267 454.696C402.624 428.557 381.066 414.544 363.55 408.615Z" fill="#FBA300"/>
<path fill-rule="evenodd" clip-rule="evenodd" d="M443.045 470.056C438.734 474.098 432.266 473.829 428.224 469.517C424.182 465.205 424.451 458.738 428.763 454.696C433.075 450.654 439.542 450.923 443.584 455.235C447.626 459.546 447.357 466.014 443.045 470.056Z" fill="white"/>
</g>
</svg>
