<svg width="756" height="788" viewBox="0 0 756 788" fill="none" xmlns="http://www.w3.org/2000/svg">
<path d="M38.4001 545.727L84.3293 701.03L174.494 676.37L38.4001 545.727Z" fill="#E4761B"/>
<path d="M174.494 676.37L87.5294 557.21L38.4001 545.727L174.494 676.37Z" fill="#E4761B"/>
<path d="M105.976 428.638L38.3998 545.727L87.5291 557.21L105.976 428.638ZM105.976 428.638L62.4938 398.518L38.3998 545.727L105.976 428.638Z" fill="#F6851B"/>
<path d="M161.316 340.162L36.3286 288.958L42.5403 317.007L161.316 340.162ZM46.4933 350.703L161.316 340.162L42.5403 317.007L46.4933 350.703Z" fill="#763D16"/>
<path d="M46.4933 350.703L62.4933 398.518L161.316 340.162L46.4933 350.703ZM21.4581 300.818L42.5404 317.007L36.3287 288.958L21.4581 300.818ZM46.4933 350.703L42.5404 317.007L25.7875 330.937L46.4933 350.703Z" fill="#763D16"/>
<path d="M271.435 638.533L240.188 648.51L174.494 676.37L271.435 638.533Z" fill="#E2761B"/>
<path d="M62.4935 398.518L46.4935 350.703L32.7524 361.245L62.4935 398.518ZM62.4935 398.518L192.187 355.786L161.317 340.161L62.4935 398.518Z" fill="#763D16"/>
<path d="M130.446 193.517L161.317 340.161L192.187 355.786L130.446 193.517Z" fill="#763D16"/>
<path d="M36.3286 288.958L161.316 340.161L130.446 193.517L36.3286 288.958Z" fill="#763D16"/>
<path d="M130.446 193.518L-0.000274658 178.458L36.329 288.959L130.446 193.518Z" fill="#763D16"/>
<path d="M62.4935 398.519L105.976 428.638L192.187 355.787L62.4935 398.519Z" fill="#F6851B"/>
<path d="M5.64676 72.8516L-0.000274658 178.458L130.446 193.518L5.64676 72.8516Z" fill="#763D16"/>
<path d="M5.64716 72.8516L266.352 262.416L269.74 133.843L5.64716 72.8516Z" fill="#E2761B"/>
<path d="M463.621 118.407L269.74 133.843L266.351 262.415L463.621 118.407Z" fill="#F6851B"/>
<path d="M192.188 355.786L266.352 262.415L130.447 193.517L192.188 355.786Z" fill="#763D16"/>
<path d="M192.187 355.787L105.976 428.638L227.011 442.004L192.187 355.787Z" fill="#E4761B"/>
<path d="M227.011 442.003L266.352 262.416L192.188 355.786L227.011 442.003Z" fill="#E4761B"/>
<path d="M130.447 193.518L266.352 262.416L5.64731 72.8516L130.447 193.518Z" fill="#763D16"/>
<path d="M461.927 673.358L400.374 737.551L484.139 661.311L461.927 673.358Z" fill="#C0AD9E"/>
<path d="M174.494 676.37L145.317 565.493L87.5293 557.21L174.494 676.37Z" fill="#CD6116"/>
<path d="M711.525 364.445L604.985 252.438L697.784 351.08L711.525 364.445Z" fill="#E2761B"/>
<path d="M87.5285 557.209L145.316 565.492L105.975 428.637L87.5285 557.209ZM266.351 262.415L370.069 259.027L463.621 118.407L266.351 262.415Z" fill="#F6851B"/>
<path d="M105.976 428.637L145.317 565.492L148.517 498.665L105.976 428.637Z" fill="#E4751F"/>
<path d="M227.011 442.003L105.976 428.637L148.517 498.665L227.011 442.003Z" fill="#CD6116"/>
<path d="M370.069 259.028L266.352 262.416L227.011 442.003L370.069 259.028Z" fill="#F6851B"/>
<path d="M370.069 259.027L649.974 0L463.622 118.407L370.069 259.027ZM463.81 712.701L707.009 788L755.573 602.577L463.81 712.701Z" fill="#E4761B"/>
<path d="M675.386 410.754L583.527 338.655L506.539 356.539L675.386 410.754Z" fill="#763D16"/>
<path d="M506.538 356.539L583.526 338.655L542.303 168.48L506.538 356.539Z" fill="#763D16"/>
<path d="M697.785 351.08L583.527 338.655L675.385 410.754L697.785 351.08Z" fill="#763D16"/>
<path d="M148.517 498.665L195.952 474.758L227.011 442.003L148.517 498.665Z" fill="#CD6116"/>
<path d="M697.785 351.08L705.879 308.348L583.526 338.656L697.785 351.08Z" fill="#763D16"/>
<path d="M205.74 528.596L195.952 474.758L148.517 498.665L205.74 528.596Z" fill="#233447"/>
<path d="M145.317 565.493L205.74 528.596L148.517 498.665L145.317 565.493Z" fill="#F6851B"/>
<path d="M583.527 338.655L705.88 308.348L715.856 272.393L583.527 338.655ZM542.304 168.48L583.527 338.655L715.856 272.393L542.304 168.48ZM542.304 168.48L370.069 259.027L506.539 356.539L542.304 168.48Z" fill="#763D16"/>
<path d="M506.538 356.539L370.068 259.028L309.268 444.827L506.538 356.539ZM309.268 444.827L497.879 440.874L506.538 356.539L309.268 444.827Z" fill="#E4761B"/>
<path d="M675.386 410.755L506.539 356.539L497.881 440.874L675.386 410.755ZM227.011 442.003L309.27 444.827L370.069 259.028L227.011 442.003Z" fill="#F6851B"/>
<path d="M195.952 474.758L205.74 528.596L227.011 442.003L195.952 474.758Z" fill="#CD6116"/>
<path d="M649.973 0L370.069 259.027L542.303 168.481L649.973 0Z" fill="#763D16"/>
<path d="M755.573 602.577L519.527 592.789L463.81 712.702L755.573 602.577Z" fill="#E4761B"/>
<path d="M463.81 712.702L519.527 592.789L403.575 587.141L463.81 712.702Z" fill="#CD6116"/>
<path d="M205.74 528.597L145.317 565.493L112 643.992L205.74 528.597ZM497.88 440.874L755.573 602.578L675.385 410.754L497.88 440.874ZM519.527 592.789L755.573 602.578L497.88 440.874L519.527 592.789ZM227.011 442.003L211.576 498.101L286.116 502.43L227.011 442.003ZM286.116 502.43L309.269 444.827L227.011 442.003L286.116 502.43Z" fill="#F6851B"/>
<path d="M400.375 737.551L463.81 712.702L243.199 749.787L400.375 737.551Z" fill="#C0AD9E"/>
<path d="M675.384 410.754L711.525 364.445L697.784 351.08L675.384 410.754Z" fill="#763D16"/>
<path d="M218.164 722.303L243.199 749.787L463.81 712.702L218.164 722.303Z" fill="#D7C1B3"/>
<path d="M206.305 654.91L463.81 712.702L403.575 587.141L206.305 654.91Z" fill="#E4761B"/>
<path d="M463.81 712.701L206.305 654.91L218.164 722.302L463.81 712.701Z" fill="#D7C1B3"/>
<path d="M715.856 272.393L724.327 127.631L542.304 168.481L715.856 272.393ZM697.786 351.08L722.821 325.667L705.88 308.348L697.786 351.08Z" fill="#763D16"/>
<path d="M351.434 482.1L309.269 444.827L315.293 535.938L351.434 482.1Z" fill="#CD6116"/>
<path d="M309.269 444.827L351.433 482.1L412.798 513.913L309.269 444.827Z" fill="#CD6116"/>
<path d="M112 643.991L123.482 635.52L205.74 528.596L112 643.991Z" fill="#F6851B"/>
<path d="M412.798 513.913L497.88 440.873L309.269 444.826L412.798 513.913Z" fill="#CD6116"/>
<path d="M315.292 535.938L309.269 444.827L286.116 502.43L315.292 535.938Z" fill="#E4751F"/>
<path d="M731.103 286.699L715.856 272.393L705.879 308.348L731.103 286.699Z" fill="#763D16"/>
<path d="M315.292 535.938L412.798 513.913L351.433 482.1L315.292 535.938Z" fill="#233447"/>
<path d="M542.304 168.481L724.327 127.631L649.974 0L542.304 168.481Z" fill="#763D16"/>
<path d="M243.199 749.785L232.846 778.022L400.375 737.549L243.199 749.785Z" fill="#C0AD9E"/>
<path d="M403.574 587.141L412.798 513.913L315.292 535.938L403.574 587.141Z" fill="#F6851B"/>
<path d="M497.88 440.873L412.798 513.913L403.574 587.141L497.88 440.873Z" fill="#E4751F"/>
<path d="M286.117 502.43L211.576 498.1L123.482 635.52L286.117 502.43ZM497.88 440.873L403.575 587.141L519.527 592.788L497.88 440.873Z" fill="#F6851B"/>
<path d="M286.116 502.43L193.505 643.427L315.292 535.938L286.116 502.43Z" fill="#E4751F"/>
<path d="M315.292 535.938L193.505 643.427L206.305 654.91L315.292 535.938Z" fill="#F6851B"/>
<path d="M206.305 654.91L403.575 587.141L315.293 535.938L206.305 654.91ZM123.482 635.521L193.505 643.427L286.116 502.43L123.482 635.521Z" fill="#F6851B"/>
<path d="M105.035 701.783L135.153 762.21L232.846 778.023L105.035 701.783ZM232.846 778.023L243.199 749.786L218.164 722.302L232.846 778.023Z" fill="#C0AD9E"/>
<path d="M218.165 722.302L199.718 714.96L232.847 778.023L218.165 722.302ZM232.847 778.023L199.718 714.96L105.036 701.783L232.847 778.023Z" fill="#C0AD9E"/>
<path d="M123.482 635.52L100.329 649.639L170.729 658.11L123.482 635.52Z" fill="#161616"/>
<path d="M170.729 658.11L193.505 643.426L123.482 635.52L170.729 658.11ZM178.823 669.216L93.1759 658.863L105.035 701.783L178.823 669.216Z" fill="#161616"/>
<path d="M105.034 701.783L199.716 714.96L178.822 669.216L105.034 701.783ZM199.716 714.96L218.163 722.302L206.304 654.91L199.716 714.96ZM206.304 654.91L193.504 643.427L170.728 658.11L206.304 654.91ZM100.328 649.639L93.1755 658.863L178.822 669.216L100.328 649.639Z" fill="#161616"/>
<path d="M178.823 669.216L170.729 658.11L100.329 649.639L178.823 669.216ZM206.305 654.91L178.823 669.216L199.717 714.96L206.305 654.91Z" fill="#161616"/>
<path d="M170.729 658.11L178.823 669.216L206.305 654.91L170.729 658.11Z" fill="#161616"/>
</svg>
