<svg width="964" height="773" viewBox="0 0 964 773" fill="none" xmlns="http://www.w3.org/2000/svg">
<mask id="mask0" mask-type="alpha" maskUnits="userSpaceOnUse" x="0" y="0" width="964" height="773">
<rect width="964" height="773" fill="#C4C4C4"/>
</mask>
<g mask="url(#mask0)">
<path opacity="0.0238095" d="M446.351 238.036C457.705 225.885 476.628 221.137 492.811 224.969L864.618 311.773C899.607 320.098 916.263 363.999 891.736 390.304L380.083 920.355C368.728 932.506 349.805 937.253 333.622 933.421L-38.1848 846.618C-73.174 838.293 -89.8296 794.391 -65.302 768.086L446.351 238.036Z" fill="black"/>
<path opacity="0.047619" d="M443.56 243.239C454.605 231.666 474.24 227.672 489.4 231.328L857.118 317.429C890.506 325.269 910.137 367.788 886.673 392.802L378.171 920.447C367.127 932.02 347.492 936.013 332.331 932.357L-35.3864 846.256C-68.7749 838.417 -88.4054 795.898 -64.9421 770.884L443.56 243.239Z" fill="black"/>
<path opacity="0.0714286" d="M440.77 248.444C451.06 237.584 471.852 234.209 486.434 237.556L850.506 322.82C881.85 330.308 905.034 371.754 882.5 395.034L376.839 920.851C366.549 931.712 345.757 935.086 331.175 931.74L-33.0312 846.031C-64.3748 838.543 -87.5585 797.098 -65.0253 773.818L440.77 248.444Z" fill="black"/>
<path opacity="0.0952381" d="M438.425 253.511C447.961 243.363 469.909 240.608 483.913 243.645L844.339 328.072C874.082 335.075 900.241 375.137 879.35 397.437L375.373 920.807C365.837 930.956 343.889 933.71 329.885 930.673L-30.0972 846.112C-59.8401 839.109 -85.9988 799.047 -65.1081 776.747L438.425 253.511Z" fill="black"/>
<path opacity="0.119" d="M435.633 258.714C444.859 249.144 467.52 247.143 480.502 250.005L836.704 333.286C864.846 339.803 893.98 378.482 874.153 399.491L373.461 920.9C364.235 930.47 341.575 932.471 328.593 929.61L-27.7435 845.885C-55.8857 839.368 -85.0194 800.689 -65.1928 779.68L435.633 258.714Z" fill="black"/>
<path opacity="0.1429" d="M433.287 263.785C441.759 254.927 465.576 253.546 477.98 256.097L830.537 338.542C856.634 344.708 888.877 382.448 870.558 402.032L372.439 920.726C363.967 929.584 340.15 930.965 327.747 928.414L-24.8103 845.969C-50.9076 839.803 -83.1504 802.064 -64.8322 782.479L433.287 263.785Z" fill="black"/>
<path opacity="0.1667" d="M430.497 268.987C438.659 260.707 463.189 260.08 474.57 262.455L823.481 344.063C847.977 349.744 883.195 386.101 865.941 404.394L370.529 920.817C362.367 929.097 337.837 929.724 326.456 927.349L-22.4552 845.741C-46.9518 840.06 -82.1695 803.704 -64.9156 785.41L430.497 268.987Z" fill="black"/>
<path opacity="0.1905" d="M428.151 274.058C435.425 266.047 461.689 266.349 472.182 268.993L817.003 349.898C839.899 355.093 878.092 390.067 861.902 407.07L368.618 920.912C361.344 928.923 335.08 928.621 324.587 925.977L-20.1002 845.516C-42.9961 840.32 -81.1888 805.347 -64.9991 788.344L428.151 274.058Z" fill="black"/>
<path opacity="0.2143" d="M425.362 279.261C432.326 271.828 459.302 272.883 468.773 275.352L809.814 354.977C830.665 359.821 872.411 393.721 857.286 409.433L367.153 920.87C360.189 928.303 333.212 927.248 323.742 924.779L-17.2999 845.154C-38.151 840.31 -79.8969 806.41 -64.7714 790.698L425.362 279.261Z" fill="black"/>
<path opacity="0.2381" d="M423.014 284.329C429.223 277.609 457.357 279.284 466.249 281.442L803.201 360.365C822.451 364.724 867.172 397.24 853.555 411.528L365.374 921.406C359.165 928.127 331.031 926.452 322.139 924.293L-14.8128 845.371C-34.0631 841.012 -78.784 808.495 -65.1669 794.207L423.014 284.329Z" fill="black"/>
<path opacity="0.2619" d="M420.091 289.089C425.99 282.946 454.836 285.376 462.706 287.359L796.456 365.31C814.106 369.183 861.358 400.451 849.383 413.758L363.909 921.365C358.009 927.508 329.164 925.079 321.294 923.096L-12.0124 845.01C-29.662 841.137 -76.9137 809.869 -64.939 796.562L420.091 289.089Z" fill="black"/>
<path opacity="0.2857" d="M417.745 294.158C422.89 288.728 452.893 291.776 460.184 293.45L789.845 370.699C805.45 374.221 856.254 404.415 845.21 415.988L362.443 921.324C357.297 926.754 327.295 923.705 320.004 922.032L-9.65709 844.783C-25.2618 841.261 -76.0667 811.067 -65.0222 799.494L417.745 294.158Z" fill="black"/>
<path opacity="0.3095" d="M414.953 299.36C419.344 294.642 450.503 298.31 456.772 299.807L782.209 375.91C796.347 379.391 849.993 407.758 840.147 418.484L360.53 921.414C356.139 926.132 324.98 922.464 318.711 920.967L-6.72563 844.864C-20.8638 841.383 -74.5096 813.016 -64.6633 802.29L414.953 299.36Z" fill="black"/>
<path opacity="0.3333" d="M412.607 304.429C416.688 300.289 448.56 304.711 454.25 305.899L776.042 381.165C788.579 384.16 845.334 411.588 836.418 420.58L359.064 921.373C354.983 925.513 323.112 921.091 317.421 919.903L-4.37036 844.637C-16.9078 841.641 -73.6626 814.214 -64.7465 805.222L412.607 304.429Z" fill="black"/>
<path opacity="0.3571" d="M409.819 309.635C413.145 306.207 446.173 311.249 451.285 312.127L769.431 386.556C779.924 389.2 840.098 415.11 832.69 422.678L357.909 920.756C354.582 924.183 321.554 919.142 316.442 918.264L-1.70407 843.834C-12.1966 841.19 -72.3706 815.28 -64.9629 807.713L409.819 309.635Z" fill="black"/>
<path opacity="0.381" d="M407.47 314.702C410.487 311.853 444.093 317.204 448.317 318.35L762.373 392.077C771.265 394.236 834.414 418.763 828.204 425.484L355.685 921.425C352.669 924.274 319.063 918.923 314.839 917.776L0.916614 844.494C-7.97525 842.335 -71.1242 817.808 -64.9148 811.087L407.47 314.702Z" fill="black"/>
<path opacity="0.4048" d="M404.682 319.906C406.81 317.325 441.707 323.74 445.353 324.577L755.629 397.023C762.476 398.831 828.734 422.418 823.899 427.271L354.221 921.385C352.093 923.965 317.196 917.551 313.55 916.714L3.27367 844.268C-3.57333 842.46 -69.8313 818.872 -64.9962 814.02L404.682 319.906Z" fill="black"/>
<path opacity="0.4286" d="M402.334 324.974C404.153 322.972 440.206 330.006 442.385 330.801L748.706 402.989C753.952 404.311 823.185 426.516 819.548 430.521L352.443 921.92C350.625 923.923 314.571 916.888 312.392 916.093L5.76125 844.484C0.514966 843.162 -68.718 820.957 -65.0812 816.951L402.334 324.974Z" fill="black"/>
<path opacity="0.4524" d="M399.545 330.179C400.609 328.888 437.819 336.542 439.42 337.028L741.961 407.935C745.606 408.772 817.814 429.593 815.242 432.308L350.843 921.436C349.779 922.726 312.569 915.072 310.968 914.587L8.42693 843.68C4.78136 842.843 -67.4266 822.022 -64.854 819.306L399.545 330.179Z" fill="black"/>
<path opacity="0.4762" d="M397.199 335.246C397.953 334.534 435.876 342.942 436.454 343.251L735.35 413.322C736.95 413.807 812.711 433.555 811.647 434.846L349.511 921.836C348.757 922.549 310.834 914.141 310.256 913.831L10.9163 843.895C9.31563 843.409 -66.4455 823.662 -65.3813 822.371L397.199 335.246Z" fill="black"/>
<path opacity="0.5" d="M347.599 921.932L-65.0215 825.172L394.408 340.453L807.029 437.213L347.599 921.932Z" fill="black"/>
<path d="M308.023 343.291C315.668 368.598 329.916 383.673 346.234 387.949C346.812 388.259 729.246 478.15 729.824 478.46C747.03 482.468 731.935 466.195 750.253 446.61C787.334 407.308 804.709 333.261 789.15 281.76C781.505 256.454 804.912 248.899 788.15 244.757C787.572 244.447 401.895 155.051 401.451 155.185C384.379 151.621 364.795 158.991 346.477 178.576C310.284 217.61 292.465 291.791 308.023 343.291Z" fill="url(#paint0_linear)"/>
<path d="M743.111 110.109C740.294 100.786 734.729 95.1997 728.326 93.258L501.722 41.0766C493.585 38.2056 484.877 39.867 476.095 49.3029C526.111 60.8402 667.71 93.1594 743.111 110.109Z" fill="url(#paint1_linear)"/>
<path d="M501.722 41.0764C493.584 38.2054 484.877 39.8668 476.095 49.3027C473.832 51.4397 472.148 53.8865 470.154 56.9114C445.862 90.4126 432.919 158.275 414.955 201.493L644.182 254.335C664.534 204.582 678.339 121.925 711.18 97.4687C716.417 93.9485 721.747 92.3383 726.415 93.3506L501.722 41.0764Z" fill="url(#paint2_linear)"/>
<path d="M419.379 190.466C418.097 194.245 416.681 197.579 415.399 201.358L644.627 254.2C646.043 250.866 647.325 247.087 648.606 243.308L419.379 190.466Z" fill="url(#paint3_linear)"/>
<path d="M693.969 433.577C709.528 485.078 752.252 494.942 789.333 455.64C826.413 416.337 843.788 342.291 828.23 290.79C812.672 239.289 769.947 229.425 732.867 268.728C696.23 307.896 678.411 382.077 693.969 433.577Z" fill="url(#paint4_linear)"/>
<path d="M304.252 861.869L318.603 909.374C323.163 924.469 342.724 928.25 352.612 916.058L769.717 397.129L734.845 281.696C731.76 271.484 718.468 269.201 712.217 277.388L324.332 759.874C301.497 788.574 293.656 826.795 304.252 861.869Z" fill="#F9830D"/>
<path d="M318.604 909.375L304.253 861.87C293.657 826.796 300.92 788.265 324.333 759.874L712.218 277.389C715.411 273.517 719.852 272.175 724.386 272.744L336.974 182.418C332.884 181.716 327.999 183.192 324.806 187.063L-63.0793 669.549C-86.358 698.383 -93.7549 736.47 -83.1591 771.544L-68.6738 819.493C-66.1254 827.929 -58.7837 832.978 -50.8725 833.495L334.495 923.469C327.782 922.106 321.018 917.366 318.604 909.375Z" fill="url(#paint5_linear)"/>
<g style="mix-blend-mode:soft-light">
<path d="M318.738 909.82L304.386 862.315C293.791 827.241 301.054 788.71 324.466 760.319L712.352 277.833C714.48 275.252 717.011 274.003 719.676 273.198C714.203 269.522 706.56 269.893 701.549 275.767L313.664 758.253C290.385 787.088 282.988 825.175 293.584 860.249L307.935 907.754C310.752 917.077 319.56 922.168 328.091 921.529C324.043 919.36 320.347 915.147 318.738 909.82Z" fill="url(#paint6_radial)"/>
</g>
<path d="M388.333 862.631L382.029 841.764C372.641 810.686 379.334 776.688 399.73 751.146L752.402 283.659C755.284 280.366 759.147 278.714 762.793 279.551L754.345 277.258C750.39 276.999 746.392 278.207 743.51 281.5L391.282 748.854C370.886 774.395 364.059 807.949 373.581 839.471L386.994 883.869L378.948 882.908L374.516 889.092L397.856 894.153L402.22 874.908C396.086 873.855 390.345 869.29 388.333 862.631Z" fill="url(#paint7_linear)"/>
<path d="M382.029 841.763L397.855 894.152L776.473 422.702C793.056 402.188 798.25 374.457 790.605 349.151L772.096 287.882C769.413 279.003 757.588 276.761 751.957 283.792L399.729 751.145C379.333 776.686 372.64 810.685 382.029 841.763Z" fill="url(#paint8_linear)"/>
<path opacity="0.5" d="M-37.6169 816.409L-38.6393 816.233C-41.1284 816.016 -43.8856 814.911 -44.9586 811.359L-59.3098 763.854C-68.6985 732.776 -62.0052 698.778 -41.6091 673.237L346.41 191.195L351.111 185.899L344.843 184.401L334.552 195.261L-53.3331 677.747C-73.7291 703.289 -80.4224 737.287 -71.0337 768.365L-56.6825 815.87C-55.6095 819.422 -52.8523 820.527 -50.3633 820.744L-49.3408 820.92L303.216 903.364L301.07 896.26L-37.6169 816.409Z" fill="#8770B8"/>
<path d="M489.582 503.074L660.158 291.177L342.632 215.591L170.682 429.357C163.986 437.678 168.186 449.975 178.544 452.175L450.144 516.926C464.727 520.273 480.138 515.132 489.582 503.074Z" fill="url(#paint9_linear)"/>
<path d="M203.633 416.494C212.146 406.17 225.647 401.122 238.763 404.427L474.351 460.678C484.844 463.322 489.043 475.619 482.348 483.94C473.214 495.42 457.803 500.56 443.665 497.079L212.744 441.841C201.229 439.022 196.627 425.393 203.633 416.494Z" fill="url(#paint10_linear)"/>
<path d="M205.377 422.268C213.891 411.944 227.392 406.897 240.507 410.202L476.406 465.874C486.898 468.518 491.098 480.815 484.402 489.136C475.269 500.616 459.857 505.756 445.719 502.276L214.489 447.616C202.974 444.796 198.372 431.167 205.377 422.268Z" fill="black"/>
<path d="M203.633 416.494C212.146 406.17 225.647 401.122 238.763 404.427L474.351 460.678C484.844 463.322 489.043 475.619 482.348 483.94C473.214 495.42 457.803 500.56 443.665 497.079L212.744 441.841C201.229 439.022 196.627 425.393 203.633 416.494Z" fill="url(#paint11_linear)"/>
<path opacity="0.9" d="M233.566 380.807L349.649 237.213L626.496 303.285L510.412 446.88L233.566 380.807Z" fill="url(#paint12_linear)"/>
<path d="M286.999 463.017L319.411 422.702C322.159 418.965 327.489 417.354 331.713 418.501L390.176 432.331C393.822 433.168 395.163 437.608 393.035 440.188L360.622 480.503C357.874 484.24 352.544 485.851 348.32 484.704L289.857 470.874C286.346 470.481 285.004 466.041 286.999 463.017Z" fill="black"/>
<path d="M286.06 459.908L318.472 419.593C321.221 415.856 326.55 414.246 330.774 415.393L389.238 429.223C392.883 430.059 394.224 434.499 392.096 437.08L359.684 477.395C356.935 481.132 351.605 482.742 347.381 481.596L288.918 467.765C285.407 467.373 284.065 462.933 286.06 459.908Z" fill="url(#paint13_linear)"/>
<path d="M391.736 434.281L359.323 474.596C356.575 478.333 351.245 479.943 347.021 478.797L288.558 464.967C287.091 464.925 286.245 463.728 285.532 462.974C285.759 465.328 286.873 467.413 289.497 468.075L347.96 481.905C352.628 482.917 357.514 481.441 360.262 477.704L392.675 437.389C394.049 435.52 394.267 433.032 392.842 431.525C392.666 432.547 392.49 433.569 391.736 434.281Z" fill="url(#paint14_radial)"/>
<path d="M-24.9727 779.644L-14.6452 813.829L248.817 875.709L238.221 840.635L-24.9727 779.644Z" fill="#F9830D"/>
<path d="M-5.51259 802.349L-13.2918 776.599L-23.2061 774.265L-12.8786 808.451L250.584 870.33L248.035 861.895L-5.51259 802.349Z" fill="#9D9EB3"/>
<path d="M238.468 486.882L188.453 475.345C179.695 473.63 168.281 477.563 162.65 484.593C157.019 491.624 159.299 499.171 168.057 500.886L218.072 512.423C226.83 514.138 238.244 510.205 243.875 503.175C249.506 496.144 246.782 488.731 238.468 486.882ZM336.455 509.605L286.439 498.068C277.681 496.353 266.267 500.286 260.636 507.317C255.005 514.347 257.285 521.895 266.043 523.609L316.059 535.147C324.817 536.861 336.23 532.929 341.862 525.898C347.493 518.868 344.768 511.454 336.455 509.605ZM364.474 546.199L414.489 557.736C423.247 559.451 434.661 555.518 440.292 548.488C445.923 541.457 443.643 533.909 434.885 532.195L384.87 520.657C376.112 518.943 364.698 522.875 359.067 529.906C353.436 536.936 355.582 544.04 364.474 546.199ZM203.617 530.356L153.602 518.819C144.844 517.104 133.43 521.036 127.799 528.067C122.168 535.097 124.448 542.645 133.206 544.36L183.221 555.897C191.979 557.612 203.393 553.679 209.024 546.649C214.655 539.618 212.065 532.649 203.617 530.356ZM301.604 553.079L251.588 541.542C242.83 539.827 231.417 543.76 225.785 550.79C220.154 557.821 222.434 565.368 231.192 567.083L281.208 578.621C289.966 580.335 301.379 576.403 307.011 569.372C312.642 562.342 310.052 555.372 301.604 553.079ZM399.59 575.803L349.575 564.265C340.817 562.551 329.403 566.483 323.772 573.514C318.141 580.544 320.421 588.092 329.179 589.807L379.194 601.344C387.952 603.059 399.366 599.126 404.997 592.096C410.628 585.065 408.482 577.961 399.59 575.803ZM168.901 574.274L118.885 562.736C110.127 561.022 98.7133 564.954 93.0822 571.985C87.451 579.015 89.7311 586.563 98.4889 588.278L148.505 599.815C157.262 601.53 168.676 597.597 174.307 590.566C179.938 583.536 177.214 576.122 168.901 574.274ZM266.887 596.997L216.871 585.46C208.114 583.745 196.7 587.678 191.069 594.708C185.438 601.739 187.718 609.286 196.475 611.001L246.491 622.538C255.249 624.253 266.663 620.32 272.294 613.29C277.925 606.259 275.201 598.846 266.887 596.997ZM364.874 619.721L314.858 608.183C306.1 606.468 294.686 610.401 289.055 617.432C283.424 624.462 285.704 632.01 294.462 633.724L344.477 645.262C353.235 646.977 364.649 643.044 370.28 636.013C375.911 628.983 373.187 621.569 364.874 619.721ZM133.605 617.882L84.034 606.21C75.2762 604.495 63.8623 608.428 58.2312 615.459C52.6001 622.489 54.8802 630.037 63.6379 631.751L113.654 643.289C122.411 645.003 133.825 641.071 139.456 634.04C144.643 627.144 142.497 620.04 133.605 617.882ZM232.036 640.471L182.02 628.934C173.263 627.219 161.849 631.151 156.218 638.182C150.587 645.213 152.867 652.76 161.624 654.475L211.64 666.012C220.398 667.727 231.812 663.794 237.443 656.764C243.074 649.733 240.484 642.764 232.036 640.471ZM330.023 663.194L280.007 651.657C271.249 649.942 259.835 653.875 254.204 660.905C248.573 667.936 250.853 675.484 259.611 677.198L309.627 688.736C318.384 690.45 329.798 686.518 335.429 679.487C341.06 672.457 338.47 665.487 330.023 663.194ZM98.7545 661.355L48.7389 649.818C39.9811 648.103 28.5672 652.036 22.9361 659.067C17.305 666.097 19.5851 673.645 28.3428 675.359L78.3585 686.897C87.1163 688.611 98.5302 684.679 104.161 677.648C109.927 671.062 107.646 663.514 98.7545 661.355ZM197.185 683.945L147.17 672.407C138.412 670.693 126.998 674.625 121.367 681.656C115.736 688.686 118.016 696.234 126.773 697.949L176.789 709.486C185.547 711.201 196.961 707.268 202.592 700.238C208.357 693.651 205.633 686.238 197.185 683.945ZM295.172 706.668L245.156 695.131C236.398 693.416 224.984 697.349 219.353 704.379C213.722 711.41 216.002 718.957 224.76 720.672L274.776 732.209C283.533 733.924 294.947 729.992 300.578 722.961C306.344 716.374 303.619 708.961 295.172 706.668Z" fill="url(#paint15_linear)"/>
<path d="M236.858 481.554L186.843 470.017C178.085 468.302 166.671 472.234 161.04 479.265C155.409 486.296 157.689 493.843 166.447 495.558L216.462 507.095C225.22 508.81 236.634 504.877 242.265 497.847C247.896 490.816 245.306 483.847 236.858 481.554ZM334.845 504.277L284.829 492.74C276.072 491.025 264.658 494.958 259.026 501.988C253.395 509.019 255.675 516.567 264.433 518.281L314.449 529.819C323.207 531.533 334.621 527.601 340.252 520.57C345.883 513.54 343.293 506.57 334.845 504.277ZM362.864 540.871L412.879 552.408C421.637 554.123 433.051 550.19 438.682 543.159C444.313 536.129 442.033 528.581 433.276 526.867L383.26 515.329C374.502 513.615 363.088 517.547 357.457 524.578C351.826 531.608 354.106 539.156 362.864 540.871ZM202.008 525.028L151.992 513.49C143.234 511.776 131.82 515.708 126.189 522.739C120.558 529.769 122.838 537.317 131.596 539.032L181.611 550.569C190.369 552.284 201.783 548.351 207.414 541.321C213.045 534.29 210.455 527.321 202.008 525.028ZM299.994 547.751L249.978 536.214C241.221 534.499 229.807 538.432 224.176 545.462C218.544 552.493 220.825 560.04 229.582 561.755L279.598 573.292C288.356 575.007 299.77 571.074 305.401 564.044C311.032 557.013 308.442 550.044 299.994 547.751ZM397.98 570.475L347.965 558.937C339.207 557.222 327.793 561.155 322.162 568.186C316.531 575.216 318.811 582.764 327.569 584.478L377.584 596.016C386.342 597.731 397.756 593.798 403.387 586.767C409.018 579.737 406.872 572.633 397.98 570.475ZM167.291 568.945L117.275 557.408C108.517 555.693 97.1034 559.626 91.4723 566.657C85.8412 573.687 88.1213 581.235 96.879 582.949L146.895 594.487C155.652 596.201 167.066 592.269 172.697 585.238C178.329 578.208 175.604 570.794 167.291 568.945ZM265.277 591.669L215.261 580.132C206.504 578.417 195.09 582.349 189.459 589.38C183.828 596.411 186.108 603.958 194.865 605.673L244.881 617.21C253.639 618.925 265.053 614.992 270.684 607.962C276.315 600.931 273.591 593.518 265.277 591.669ZM363.264 614.392L313.248 602.855C304.49 601.14 293.076 605.073 287.445 612.103C281.814 619.134 284.094 626.682 292.852 628.396L342.868 639.934C351.625 641.648 363.039 637.716 368.67 630.685C374.301 623.655 371.577 616.241 363.264 614.392ZM131.996 612.553L82.4241 600.882C73.6664 599.167 62.2525 603.1 56.6213 610.13C50.9902 617.161 53.2703 624.708 62.0281 626.423L112.044 637.961C120.801 639.675 132.215 635.743 137.847 628.712C143.033 621.816 140.887 614.712 131.996 612.553ZM230.426 635.143L180.411 623.605C171.653 621.891 160.239 625.823 154.608 632.854C148.977 639.884 151.257 647.432 160.015 649.147L210.03 660.684C218.788 662.399 230.202 658.466 235.833 651.436C241.464 644.405 238.874 637.436 230.426 635.143ZM328.413 657.866L278.397 646.329C269.639 644.614 258.225 648.547 252.594 655.577C246.963 662.608 249.243 670.155 258.001 671.87L308.017 683.407C316.774 685.122 328.188 681.189 333.819 674.159C339.451 667.128 336.86 660.159 328.413 657.866ZM97.2788 656.471L47.2631 644.934C38.5054 643.219 27.0915 647.152 21.4604 654.182C15.8292 661.213 18.1093 668.76 26.8671 670.475L76.8827 682.012C85.6405 683.727 97.0544 679.795 102.686 672.764C108.317 665.733 106.037 658.186 97.2788 656.471ZM195.575 678.617L145.56 667.079C136.802 665.364 125.388 669.297 119.757 676.328C114.126 683.358 116.406 690.906 125.164 692.62L175.179 704.158C183.937 705.872 195.351 701.94 200.982 694.909C206.747 688.323 204.023 680.909 195.575 678.617ZM293.562 701.34L243.546 689.803C234.788 688.088 223.374 692.021 217.743 699.051C212.112 706.082 214.392 713.629 223.15 715.344L273.166 726.881C281.923 728.596 293.337 724.663 298.968 717.633C304.734 711.046 302.009 703.633 293.562 701.34Z" fill="#7F7F7F"/>
<path d="M293.563 701.341L243.547 689.804C234.789 688.089 223.375 692.022 217.744 699.052C212.113 706.083 214.393 713.631 223.151 715.345L273.167 726.883C281.924 728.597 293.338 724.665 298.969 717.634C304.735 711.048 302.01 703.634 293.563 701.341Z" fill="url(#paint16_linear)"/>
<path d="M97.2795 656.472L47.2638 644.935C38.5061 643.22 27.0922 647.153 21.461 654.183C15.8299 661.214 18.11 668.761 26.8678 670.476L76.8834 682.013C85.6412 683.728 97.0551 679.796 102.686 672.765C108.317 665.734 106.037 658.187 97.2795 656.472Z" fill="url(#paint17_linear)"/>
<path d="M195.576 678.619L145.56 667.081C136.802 665.367 125.389 669.299 119.757 676.33C114.126 683.36 116.406 690.908 125.164 692.623L175.18 704.16C183.938 705.875 195.351 701.942 200.983 694.911C206.748 688.325 204.024 680.912 195.576 678.619Z" fill="url(#paint18_linear)"/>
<path d="M131.596 539.031L181.612 550.569C190.37 552.283 201.784 548.351 207.415 541.32C210.607 537.449 211.177 532.916 209.35 530.077C209.576 532.431 208.47 535.187 206.342 537.768C200.711 544.799 189.297 548.731 180.539 547.017L130.523 535.479C126.878 534.643 124.43 532.96 123.182 530.43C123.5 534.694 126.484 538.153 131.596 539.031Z" fill="url(#paint19_radial)"/>
<path d="M62.0294 626.424L112.045 637.961C120.803 639.676 132.217 635.743 137.848 628.713C141.04 624.841 141.61 620.309 139.783 617.469C140.009 619.823 138.903 622.58 136.775 625.161C131.144 632.191 119.73 636.124 110.972 634.409L60.9564 622.872C57.3108 622.035 54.8636 620.352 53.6147 617.823C53.9335 622.087 56.7831 625.102 62.0294 626.424Z" fill="url(#paint20_radial)"/>
<path d="M166.449 495.558L216.464 507.095C225.222 508.81 236.636 504.877 242.267 497.846C245.46 493.975 246.029 489.443 244.202 486.603C244.429 488.957 243.323 491.714 241.194 494.295C235.563 501.325 224.149 505.258 215.391 503.543L165.376 492.006C161.73 491.169 159.283 489.486 158.034 486.956C158.353 491.22 161.203 494.236 166.449 495.558Z" fill="url(#paint21_radial)"/>
<path d="M96.8804 582.951L146.896 594.488C155.654 596.203 167.068 592.271 172.699 585.24C175.892 581.369 176.461 576.836 174.634 573.997C174.86 576.351 173.754 579.107 171.626 581.688C165.995 588.719 154.581 592.651 145.823 590.937L95.8074 579.399C92.1619 578.563 89.7146 576.88 88.4657 574.35C88.6504 578.17 91.6341 581.629 96.8804 582.951Z" fill="url(#paint22_radial)"/>
<path d="M264.435 518.281L314.45 529.818C323.208 531.533 334.622 527.601 340.253 520.57C343.446 516.699 344.015 512.166 342.188 509.327C342.415 511.681 341.309 514.437 339.18 517.018C333.549 524.049 322.135 527.981 313.377 526.267L263.362 514.729C259.716 513.893 257.269 512.21 256.02 509.68C256.339 513.944 259.188 516.959 264.435 518.281Z" fill="url(#paint23_radial)"/>
<path d="M270.686 607.962C273.878 604.09 274.448 599.558 272.621 596.718C272.847 599.072 271.741 601.829 269.613 604.41C263.982 611.441 252.568 615.373 243.81 613.658L193.794 602.121C190.149 601.284 187.701 599.601 186.453 597.072C186.637 600.892 189.621 604.351 194.867 605.673L244.883 617.21C253.197 619.059 265.055 614.992 270.686 607.962Z" fill="url(#paint24_radial)"/>
<path d="M305.402 564.043C308.595 560.171 309.164 555.639 307.337 552.799C307.563 555.153 306.457 557.91 304.329 560.491C298.698 567.522 287.284 571.454 278.526 569.739L228.511 558.202C224.865 557.365 222.418 555.682 221.169 553.153C221.354 556.973 224.337 560.432 229.584 561.754L279.599 573.291C288.491 575.45 299.905 571.517 305.402 564.043Z" fill="url(#paint25_radial)"/>
<path d="M235.834 651.435C239.026 647.564 239.596 643.031 237.769 640.192C237.995 642.546 236.889 645.303 234.761 647.884C229.129 654.914 217.716 658.847 208.958 657.132L158.942 645.595C155.297 644.758 152.849 643.075 151.6 640.545C151.785 644.365 154.769 647.824 160.015 649.146L210.031 660.684C218.344 662.533 230.202 658.466 235.834 651.435Z" fill="url(#paint26_radial)"/>
<path d="M402.449 583.66C396.818 590.69 385.404 594.623 376.647 592.908L326.631 581.371C322.986 580.534 320.538 578.851 319.289 576.322C319.474 580.142 322.458 583.601 327.704 584.923L377.72 596.46C386.477 598.175 397.891 594.242 403.522 587.212C406.715 583.34 407.285 578.808 405.457 575.968C405.55 577.878 404.444 580.635 402.449 583.66Z" fill="url(#paint27_radial)"/>
<path d="M437.165 539.741C431.534 546.772 420.12 550.704 411.363 548.989L361.347 537.452C357.701 536.615 355.254 534.932 354.005 532.403C354.19 536.223 357.174 539.682 362.42 541.004L412.436 552.541C421.193 554.256 432.607 550.323 438.238 543.293C441.431 539.421 442.001 534.889 440.173 532.049C440.4 534.403 439.294 537.16 437.165 539.741Z" fill="url(#paint28_radial)"/>
<path d="M367.599 627.134C361.967 634.164 350.554 638.097 341.796 636.382L291.78 624.845C288.135 624.008 285.687 622.325 284.438 619.795C284.623 623.615 287.607 627.074 292.853 628.396L342.869 639.934C351.626 641.648 363.04 637.716 368.671 630.685C371.864 626.814 372.434 622.281 370.607 619.442C370.833 621.796 369.727 624.553 367.599 627.134Z" fill="url(#paint29_radial)"/>
<path d="M332.748 670.606C327.117 677.637 315.703 681.569 306.945 679.855L256.93 668.317C253.284 667.481 250.837 665.798 249.588 663.268C249.772 667.088 252.756 670.547 258.003 671.869L308.018 683.406C316.776 685.121 328.19 681.189 333.821 674.158C337.014 670.287 337.583 665.754 335.756 662.915C335.982 665.269 334.876 668.025 332.748 670.606Z" fill="url(#paint30_radial)"/>
<path d="M200.044 691.803C194.413 698.833 182.999 702.766 174.242 701.051L124.226 689.514C120.58 688.677 118.133 686.994 116.884 684.464C117.069 688.284 120.053 691.743 125.299 693.065L175.315 704.603C184.072 706.318 195.486 702.385 201.117 695.354C204.31 691.483 204.879 686.95 203.052 684.111C202.7 686.155 202.039 688.778 200.044 691.803Z" fill="url(#paint31_radial)"/>
<path d="M298.032 714.525C292.401 721.556 280.987 725.488 272.229 723.774L222.213 712.236C218.568 711.4 216.12 709.716 214.871 707.187C215.056 711.007 218.04 714.466 223.286 715.788L273.302 727.325C282.06 729.04 293.474 725.107 299.105 718.077C302.297 714.205 302.867 709.673 301.04 706.834C301.132 708.744 300.026 711.5 298.032 714.525Z" fill="url(#paint32_radial)"/>
<path d="M101.614 669.214C95.983 676.244 84.5691 680.177 75.8114 678.462L25.7957 666.925C22.1501 666.088 19.7029 664.405 18.454 661.875C18.6387 665.695 21.6224 669.154 26.8687 670.476L76.8843 682.014C85.6421 683.729 97.056 679.796 102.687 672.765C105.88 668.894 106.449 664.361 104.622 661.522C104.714 663.432 103.608 666.189 101.614 669.214Z" fill="url(#paint33_radial)"/>
<path d="M242.187 454.267L240.444 448.495L270.996 411.649L274.198 412.62L243.955 448.888L245.833 455.103L242.187 454.267Z" fill="url(#paint34_radial)"/>
<path d="M244.366 455.064L242.623 449.292L273.309 412.89L276.376 413.417L246.134 449.685L248.012 455.9L244.366 455.064Z" fill="black"/>
<path d="M407.663 493.425L405.785 487.209L436.471 450.807L439.539 451.334L409.43 488.046L411.308 494.261L407.663 493.425Z" fill="url(#paint35_radial)"/>
<path d="M409.843 494.219L408.099 488.447L438.651 451.601L441.853 452.572L411.611 488.84L413.488 495.055L409.843 494.219Z" fill="black"/>
<path d="M314.619 451.765L328.32 434.545C330.448 431.964 334.001 430.891 337.069 431.418L362.722 437.718C365.789 438.245 366.862 441.797 365.178 444.243L351.477 461.464C349.349 464.045 345.795 465.118 342.728 464.591L317.075 458.291C313.564 457.898 312.491 454.346 314.619 451.765Z" fill="url(#paint36_linear)"/>
<path d="M378.241 320.626L372.786 326.634L383.279 329.278L375.251 338.002L364.758 335.358L355.046 346.528L346.733 344.679L377.377 309.743L397.784 314.722L389.756 323.445L378.241 320.626Z" fill="white"/>
<path d="M391.71 347.563L382.24 345.095L375.318 351.062L366.426 348.903L408.008 316.477L416.321 318.326L397.057 355.638L388.166 353.479L391.71 347.563ZM396.805 338.757L402.209 329.372L392.137 337.745L396.805 338.757Z" fill="white"/>
<path d="M428.993 321.767L437.307 323.616L406.662 358.551L398.349 356.702L428.993 321.767Z" fill="white"/>
<path d="M441.53 324.76L449.844 326.609L427.093 352.377L438.608 355.197L430.714 364.364L410.885 359.696L441.53 324.76Z" fill="white"/>
<path d="M462.083 360.703L454.055 369.427L433.204 364.582L463.849 329.647L484.256 334.625L476.228 343.349L464.269 340.663L460.632 344.669L471.569 347.179L463.985 355.768L453.048 353.258L449.101 357.842L462.083 360.703Z" fill="white"/>
<path d="M488.345 335.329L500.882 338.325C509.196 340.173 509.255 348.392 499.853 358.984C490.451 369.576 478.551 375.109 470.238 373.26L457.7 370.265L488.345 335.329ZM477.553 363.783C481.199 364.62 486.26 362.121 490.961 356.825C495.662 351.529 495.612 348.153 492.41 347.182L488.765 346.346L474.352 362.812L477.553 363.783Z" fill="white"/>
</g>
<defs>
<linearGradient id="paint0_linear" x1="522.104" y1="423.762" x2="577.127" y2="195.979" gradientUnits="userSpaceOnUse">
<stop offset="0.7828" stop-color="#1E1F21"/>
<stop offset="0.86" stop-color="#2C2D30"/>
<stop offset="0.9293" stop-color="#3C3E42"/>
<stop offset="1" stop-color="#252628"/>
</linearGradient>
<linearGradient id="paint1_linear" x1="612.639" y1="66.2702" x2="599.573" y2="121.732" gradientUnits="userSpaceOnUse">
<stop offset="0.00505051" stop-color="#D1D3D4"/>
<stop offset="1" stop-color="#F1F2F2"/>
</linearGradient>
<linearGradient id="paint2_linear" x1="550.441" y1="230.986" x2="591.347" y2="61.8123" gradientUnits="userSpaceOnUse">
<stop offset="0.00505051" stop-color="#E6E7E8"/>
<stop offset="0.125" stop-color="#EEEFF0"/>
<stop offset="0.3885" stop-color="#FBFBFB"/>
<stop offset="0.6414" stop-color="white"/>
</linearGradient>
<linearGradient id="paint3_linear" x1="532.834" y1="217.095" x2="525.213" y2="251.223" gradientUnits="userSpaceOnUse">
<stop stop-color="white"/>
<stop offset="1"/>
</linearGradient>
<linearGradient id="paint4_linear" x1="712.13" y1="348.763" x2="1123.09" y2="457.708" gradientUnits="userSpaceOnUse">
<stop offset="0.0353535" stop-color="#1E1F21"/>
<stop offset="0.3101" stop-color="#2C2E30"/>
<stop offset="0.84" stop-color="#515359"/>
<stop offset="1" stop-color="#5D6066"/>
</linearGradient>
<linearGradient id="paint5_linear" x1="215.759" y1="893.085" x2="397.631" y2="193.128" gradientUnits="userSpaceOnUse">
<stop stop-color="#FFCC48"/>
<stop offset="0.00603234" stop-color="#FFD056"/>
<stop offset="0.025688" stop-color="#FFDB7D"/>
<stop offset="0.0437505" stop-color="#FFE399"/>
<stop offset="0.0594936" stop-color="#FFE7AA"/>
<stop offset="0.0711713" stop-color="#FFE9B0"/>
<stop offset="0.0832371" stop-color="#FFEDBE"/>
<stop offset="0.1188" stop-color="#FFF7E1"/>
<stop offset="0.1479" stop-color="#FFFDF7"/>
<stop offset="0.1667" stop-color="white"/>
<stop offset="0.217" stop-color="#FFFAEF"/>
<stop offset="0.2323" stop-color="#FFF8E9"/>
<stop offset="0.4474" stop-color="#FFEAB6"/>
<stop offset="0.827" stop-color="#FFD361"/>
<stop offset="1" stop-color="#FFCA3F"/>
</linearGradient>
<radialGradient id="paint6_radial" cx="0" cy="0" r="1" gradientUnits="userSpaceOnUse" gradientTransform="translate(100.268 753.454) rotate(-16.8095) scale(273.095 272.983)">
<stop stop-color="white"/>
<stop offset="1"/>
</radialGradient>
<linearGradient id="paint7_linear" x1="554.314" y1="662.303" x2="530.328" y2="903.918" gradientUnits="userSpaceOnUse">
<stop offset="0.4192" stop-color="#46474D"/>
<stop offset="0.5354" stop-color="#62656B"/>
<stop offset="0.697" stop-color="#252628"/>
</linearGradient>
<linearGradient id="paint8_linear" x1="530.17" y1="579.214" x2="1128.78" y2="669.058" gradientUnits="userSpaceOnUse">
<stop offset="0.0353535" stop-color="#1E1F21"/>
<stop offset="0.3101" stop-color="#2C2E30"/>
<stop offset="0.84" stop-color="#515359"/>
<stop offset="1" stop-color="#5D6066"/>
</linearGradient>
<linearGradient id="paint9_linear" x1="544.31" y1="630.965" x2="302.395" y2="140.259" gradientUnits="userSpaceOnUse">
<stop offset="0.0353535" stop-color="#1E1F21"/>
<stop offset="0.2388" stop-color="#101012"/>
<stop offset="0.2677" stop-color="#0E0E0F"/>
<stop offset="0.345" stop-color="#131415"/>
<stop offset="0.4476" stop-color="#232326"/>
<stop offset="0.5644" stop-color="#3C3D41"/>
<stop offset="0.6869" stop-color="#5D6066"/>
<stop offset="1" stop-color="#37383C"/>
</linearGradient>
<linearGradient id="paint10_linear" x1="308.942" y1="365.415" x2="386.49" y2="558.938" gradientUnits="userSpaceOnUse">
<stop offset="0.0454545" stop-color="#5D6066"/>
<stop offset="1" stop-color="#37383C"/>
</linearGradient>
<linearGradient id="paint11_linear" x1="308.942" y1="365.415" x2="386.49" y2="558.938" gradientUnits="userSpaceOnUse">
<stop offset="0.0454545" stop-color="#5D6066"/>
<stop offset="1" stop-color="#37383C"/>
</linearGradient>
<linearGradient id="paint12_linear" x1="555.346" y1="522.132" x2="353.382" y2="231.37" gradientUnits="userSpaceOnUse">
<stop offset="0.0353535" stop-color="#138BBD"/>
<stop offset="0.2257" stop-color="#169AC7"/>
<stop offset="0.5946" stop-color="#1FC3DF"/>
<stop offset="1" stop-color="#2AF6FF"/>
</linearGradient>
<linearGradient id="paint13_linear" x1="325.787" y1="434.314" x2="433.396" y2="548.005" gradientUnits="userSpaceOnUse">
<stop offset="0.0454545" stop-color="#72757D"/>
<stop offset="1" stop-color="#37383C"/>
</linearGradient>
<radialGradient id="paint14_radial" cx="0" cy="0" r="1" gradientUnits="userSpaceOnUse" gradientTransform="translate(344.3 464.969) rotate(-16.8095) scale(41.9693 41.9521)">
<stop stop-color="white"/>
<stop offset="1"/>
</radialGradient>
<linearGradient id="paint15_linear" x1="167.788" y1="480.677" x2="325.9" y2="785.826" gradientUnits="userSpaceOnUse">
<stop stop-color="#684392"/>
<stop offset="1" stop-color="#3D065F"/>
</linearGradient>
<linearGradient id="paint16_linear" x1="270.339" y1="646.607" x2="256.762" y2="717.33" gradientUnits="userSpaceOnUse">
<stop offset="0.0353535" stop-color="#138BBD"/>
<stop offset="0.2257" stop-color="#169AC7"/>
<stop offset="0.5946" stop-color="#1FC3DF"/>
<stop offset="1" stop-color="#2AF6FF"/>
</linearGradient>
<linearGradient id="paint17_linear" x1="74.1763" y1="601.234" x2="60.5989" y2="671.957" gradientUnits="userSpaceOnUse">
<stop offset="0.0353535" stop-color="#9F19AB"/>
<stop offset="0.2438" stop-color="#AE25B1"/>
<stop offset="0.6455" stop-color="#D744BF"/>
<stop offset="1" stop-color="#FF63CE"/>
</linearGradient>
<linearGradient id="paint18_linear" x1="172.258" y1="623.922" x2="158.68" y2="694.644" gradientUnits="userSpaceOnUse">
<stop offset="0.0353535" stop-color="#FFA98C"/>
<stop offset="0.3169" stop-color="#FFB892"/>
<stop offset="0.8601" stop-color="#FEE1A3"/>
<stop offset="1" stop-color="#FEECA8"/>
</linearGradient>
<radialGradient id="paint19_radial" cx="0" cy="0" r="1" gradientUnits="userSpaceOnUse" gradientTransform="translate(168.355 537.458) rotate(-16.8095) scale(32.3891 32.3758)">
<stop stop-color="white"/>
<stop offset="1"/>
</radialGradient>
<radialGradient id="paint20_radial" cx="0" cy="0" r="1" gradientUnits="userSpaceOnUse" gradientTransform="translate(98.6635 624.761) rotate(-16.8095) scale(32.3886 32.3753)">
<stop stop-color="white"/>
<stop offset="1"/>
</radialGradient>
<radialGradient id="paint21_radial" cx="0" cy="0" r="1" gradientUnits="userSpaceOnUse" gradientTransform="translate(203.203 493.808) rotate(-16.8095) scale(32.3886 32.3753)">
<stop stop-color="white"/>
<stop offset="1"/>
</radialGradient>
<radialGradient id="paint22_radial" cx="0" cy="0" r="1" gradientUnits="userSpaceOnUse" gradientTransform="translate(133.51 581.112) rotate(-16.8095) scale(32.3886 32.3753)">
<stop stop-color="white"/>
<stop offset="1"/>
</radialGradient>
<radialGradient id="paint23_radial" cx="0" cy="0" r="1" gradientUnits="userSpaceOnUse" gradientTransform="translate(301.284 516.495) rotate(-16.8095) scale(32.3886 32.3752)">
<stop stop-color="white"/>
<stop offset="1"/>
</radialGradient>
<radialGradient id="paint24_radial" cx="0" cy="0" r="1" gradientUnits="userSpaceOnUse" gradientTransform="translate(231.592 603.796) rotate(-16.8095) scale(32.3886 32.3753)">
<stop stop-color="white"/>
<stop offset="1"/>
</radialGradient>
<radialGradient id="paint25_radial" cx="0" cy="0" r="1" gradientUnits="userSpaceOnUse" gradientTransform="translate(266.438 560.144) rotate(-16.8095) scale(32.3886 32.3753)">
<stop stop-color="white"/>
<stop offset="1"/>
</radialGradient>
<radialGradient id="paint26_radial" cx="0" cy="0" r="1" gradientUnits="userSpaceOnUse" gradientTransform="translate(196.745 647.447) rotate(-16.8095) scale(32.3886 32.3753)">
<stop stop-color="white"/>
<stop offset="1"/>
</radialGradient>
<radialGradient id="paint27_radial" cx="0" cy="0" r="1" gradientUnits="userSpaceOnUse" gradientTransform="translate(364.519 582.832) rotate(-16.8095) scale(32.389 32.3757)">
<stop stop-color="white"/>
<stop offset="1"/>
</radialGradient>
<radialGradient id="paint28_radial" cx="0" cy="0" r="1" gradientUnits="userSpaceOnUse" gradientTransform="translate(399.364 539.18) rotate(-16.8095) scale(32.3891 32.3757)">
<stop stop-color="white"/>
<stop offset="1"/>
</radialGradient>
<radialGradient id="paint29_radial" cx="0" cy="0" r="1" gradientUnits="userSpaceOnUse" gradientTransform="translate(329.673 626.483) rotate(-16.8095) scale(32.3886 32.3753)">
<stop stop-color="white"/>
<stop offset="1"/>
</radialGradient>
<radialGradient id="paint30_radial" cx="0" cy="0" r="1" gradientUnits="userSpaceOnUse" gradientTransform="translate(294.827 670.133) rotate(-16.8095) scale(32.3886 32.3753)">
<stop stop-color="white"/>
<stop offset="1"/>
</radialGradient>
<radialGradient id="paint31_radial" cx="0" cy="0" r="1" gradientUnits="userSpaceOnUse" gradientTransform="translate(161.899 691.098) rotate(-16.8095) scale(32.389 32.3758)">
<stop stop-color="white"/>
<stop offset="1"/>
</radialGradient>
<radialGradient id="paint32_radial" cx="0" cy="0" r="1" gradientUnits="userSpaceOnUse" gradientTransform="translate(259.981 713.784) rotate(-16.8095) scale(32.3886 32.3753)">
<stop stop-color="white"/>
<stop offset="1"/>
</radialGradient>
<radialGradient id="paint33_radial" cx="0" cy="0" r="1" gradientUnits="userSpaceOnUse" gradientTransform="translate(63.8178 668.412) rotate(-16.8095) scale(32.389 32.3757)">
<stop stop-color="white"/>
<stop offset="1"/>
</radialGradient>
<radialGradient id="paint34_radial" cx="0" cy="0" r="1" gradientUnits="userSpaceOnUse" gradientTransform="translate(258.329 433.502) rotate(-16.8095) scale(19.3749 19.3669)">
<stop stop-color="white"/>
<stop offset="1"/>
</radialGradient>
<radialGradient id="paint35_radial" cx="0" cy="0" r="1" gradientUnits="userSpaceOnUse" gradientTransform="translate(423.716 472.635) rotate(-16.8095) scale(19.3744 19.3665)">
<stop stop-color="white"/>
<stop offset="1"/>
</radialGradient>
<linearGradient id="paint36_linear" x1="358.828" y1="476.297" x2="319.929" y2="419.005" gradientUnits="userSpaceOnUse">
<stop stop-color="#0E0E0F"/>
<stop offset="0.1846" stop-color="#131415"/>
<stop offset="0.4293" stop-color="#232326"/>
<stop offset="0.7078" stop-color="#3C3D41"/>
<stop offset="1" stop-color="#5D6066"/>
</linearGradient>
</defs>
</svg>
