<svg width="593" height="714" viewBox="0 0 593 714" fill="none" xmlns="http://www.w3.org/2000/svg">
<path d="M367.869 56.6632L436.833 581.347C437.931 589.692 433.538 597.819 426.29 600.454L111.342 713.78C111.122 713.78 110.903 714 110.903 714C103.216 713.561 96.407 707.411 95.3089 698.407L0.209354 19.327C-1.10842 10.3224 3.94305 2.41587 11.1908 0C11.6301 0 11.8497 0 12.289 0L353.154 41.0698C360.621 42.1679 366.771 48.5371 367.869 56.6632Z" fill="#FF902C" fill-opacity="0.04"/>
<path d="M91.5161 103.066C91.5161 103.066 92.802 81.3733 119.254 82.844L200.447 641.149C200.447 641.149 172.158 652.73 161.32 629.383L91.5161 103.066Z" fill="url(#paint0_linear)"/>
<path d="M118.518 82.6603L412.612 111.338C419.041 111.89 424.185 117.037 425.103 123.472L479.109 535.077C480.027 541.695 475.986 547.945 469.741 550.151L196.404 642.436C188.138 645.193 179.321 639.862 178.035 631.038L103.455 98.6539C102.169 89.646 109.517 81.7412 118.518 82.6603Z" fill="url(#paint1_linear)"/>
<path d="M422.532 138.178L472.681 520.553C473.415 526.62 469.742 532.503 463.496 534.525L199.161 621.846C197.507 622.398 196.038 622.581 194.385 622.581C187.955 622.398 182.444 617.986 181.526 611.368L111.906 116.669C110.988 110.051 115.213 104.169 121.458 102.33C123.111 101.779 124.948 101.595 126.785 101.779L410.408 126.964C416.654 127.516 421.797 132.295 422.532 138.178Z" fill="url(#paint2_linear)"/>
<path d="M418.124 138.73L468.272 521.105C469.007 527.172 465.333 533.054 459.087 535.076L194.752 622.398C194.568 622.398 194.385 622.398 194.385 622.582C187.955 622.398 182.444 617.986 181.526 611.368L111.906 116.67C110.988 110.052 115.213 104.169 121.458 102.331C121.826 102.331 122.009 102.331 122.377 102.331L406.183 127.516C412.429 128.067 417.389 132.847 418.124 138.73Z" fill="#FF902C"/>
<path opacity="0.5" d="M145.338 354.184C145.338 354.184 179.138 544.268 240.308 627.729L272.821 616.883L145.338 354.184Z" fill="#1455D7"/>
<path d="M593 541.327C593 541.327 469.374 520.002 291.926 633.795C291.926 633.795 212.387 607.691 152.502 405.841L593 541.327Z" fill="url(#paint3_linear)"/>
<path d="M115.58 237.817C113.375 238.184 111.171 236.53 110.987 234.324L99.9658 152.701C99.5984 150.495 101.252 148.289 103.456 148.105C105.66 147.738 107.865 149.392 108.048 151.598L119.07 233.221C119.437 235.427 117.784 237.449 115.58 237.817Z" fill="#FF902C"/>
<path d="M114.294 238C112.457 238.184 110.987 237.081 110.62 235.243L99.4144 151.782C99.2307 149.944 100.333 148.473 102.17 148.105C104.007 147.922 105.476 149.025 105.844 150.863L117.049 234.324C117.233 236.162 115.947 237.817 114.294 238Z" fill="url(#paint4_linear)"/>
<path d="M102.17 148.105C100.884 148.289 99.9655 149.208 99.5981 150.311C99.9655 149.943 100.517 149.759 101.251 149.576C103.088 149.392 104.558 150.495 104.925 152.333L116.131 235.794C116.131 236.345 116.131 236.713 115.947 237.081C116.682 236.345 117.233 235.426 117.049 234.139L105.844 150.862C105.476 149.208 104.007 147.921 102.17 148.105Z" fill="url(#paint5_linear)"/>
<path d="M123.662 296.275H123.111C120.907 296.643 119.07 294.988 118.703 292.966L113.559 254.729C113.192 252.523 114.845 250.684 116.866 250.317H117.417C119.621 249.949 121.458 251.603 121.825 253.626L126.969 291.863C127.336 293.885 125.867 295.907 123.662 296.275Z" fill="#FF902C"/>
<path d="M122.192 296.459C120.355 296.643 118.886 295.54 118.518 293.701L113.191 254.177C113.008 252.339 114.11 250.868 115.947 250.5C117.784 250.317 119.253 251.42 119.621 253.258L124.948 292.782C125.131 294.621 123.846 296.091 122.192 296.459Z" fill="url(#paint6_linear)"/>
<path d="M115.947 250.5C114.661 250.684 113.559 251.236 113.191 251.787C113.742 251.603 114.294 251.42 114.845 251.236C116.682 251.052 118.151 251.603 118.151 252.339L123.846 294.988C123.846 295.172 123.846 295.54 123.662 295.724C124.58 295.356 125.132 294.805 124.948 294.069L119.253 251.42C119.253 250.868 117.784 250.317 115.947 250.5Z" fill="url(#paint7_linear)"/>
<path d="M160.217 620.743C160.217 620.743 117.967 313.188 119.804 312.82C121.641 312.453 160.768 596.477 160.768 596.477C160.768 596.477 164.442 620.927 160.217 620.743Z" fill="url(#paint8_linear)"/>
<path d="M593 541.327C557.18 535.628 518.421 539.672 480.947 548.68C381.569 572.211 291.559 629.751 291.559 629.751C227.266 595.374 174.546 477.72 152.503 405.841L146.808 365.213L111.172 112.441V112.257C110.253 105.272 116.131 99.2051 123.112 99.9405L408.204 127.332C413.164 127.883 417.205 131.56 417.94 136.523C417.94 136.707 417.94 136.707 417.94 136.891C419.226 146.083 420.879 159.87 423.083 176.232L424.92 190.571L425.472 194.799C426.941 205.461 428.411 216.859 429.88 228.257L433.554 255.832C433.921 258.957 434.289 261.898 434.656 265.024L444.025 336.168C445.678 348.301 446.596 356.022 446.78 357.125C498.582 472.573 593 541.327 593 541.327Z" fill="url(#paint9_linear)"/>
<path d="M214.223 142.59L218.448 168.511C218.999 172.555 222.49 175.497 226.347 175.681L346.115 181.012C351.443 181.196 355.668 176.6 354.933 171.269L351.443 148.289C350.891 144.429 347.585 141.304 343.727 141.12L223.224 132.847C217.714 132.296 213.489 137.075 214.223 142.59Z" fill="#222323"/>
<g opacity="0.2">
<path opacity="0.2" d="M405.526 252.602L160.65 262.016L160.714 263.669L405.59 254.256L405.526 252.602Z" fill="#1455D7"/>
</g>
<g opacity="0.2">
<path opacity="0.2" d="M437.036 331.585L173.129 354.337L173.271 355.986L437.178 333.233L437.036 331.585Z" fill="#1455D7"/>
</g>
<g opacity="0.2">
<path opacity="0.2" d="M200.997 447.204L200.63 445.733C202.467 445.181 387.814 392.972 468.088 402.9L467.904 404.554C387.814 394.627 202.834 446.652 200.997 447.204Z" fill="#1455D7"/>
</g>
<path d="M182.628 211.344L184.465 227.154C185.016 231.198 188.323 234.139 192.548 234.139L206.692 233.772C211.468 233.588 214.958 229.544 214.407 224.764L212.386 209.873C211.835 206.013 208.713 203.255 204.855 203.071L190.894 202.52C185.935 202.336 181.893 206.564 182.628 211.344Z" fill="#222323"/>
<path d="M192.547 297.747L194.2 312.086C194.752 316.865 198.976 320.174 203.569 319.807L216.427 318.52C221.387 317.968 224.877 313.556 224.143 308.777L222.306 295.173C221.754 290.761 217.897 287.452 213.305 287.636L200.63 288.187C195.854 288.187 191.996 292.599 192.547 297.747Z" fill="#222323"/>
<path opacity="0.2" d="M207.794 385.987C209.631 392.054 212.937 401.797 217.529 409.334C218.632 411.356 221.203 412.275 223.408 411.724C227.816 410.621 235.164 408.415 241.042 406.76C243.981 405.841 245.451 402.716 244.532 399.958C242.512 394.627 239.573 386.171 237.552 380.656C236.817 378.45 234.429 376.979 232.041 377.163L212.202 379.185C209.08 379.737 206.875 382.862 207.794 385.987Z" fill="#1455D7"/>
<path opacity="0.2" d="M258.677 522.024C261.616 527.723 266.76 536.547 272.638 543.165C274.107 545.003 276.679 545.371 278.883 544.268C282.925 542.246 289.721 538.753 295.232 535.995C297.987 534.525 298.906 531.216 297.253 528.642C294.314 523.678 289.721 516.141 286.782 510.994C285.496 508.972 283.108 507.869 280.72 508.604L261.8 514.487C258.677 515.59 257.207 519.083 258.677 522.024Z" fill="#1455D7"/>
<path opacity="0.2" d="M417.756 136.523L422.9 176.232L424.737 190.571L425.288 194.799L429.697 228.257L433.37 255.832L434.656 265.024L444.025 336.168C444.943 343.521 445.678 349.22 446.229 352.896L446.78 357.125L414.817 148.473C413.715 141.119 407.653 135.604 400.306 135.053L111.172 112.441V112.257C110.253 105.272 116.131 99.2051 123.112 99.9405L408.204 127.332C412.98 127.883 417.022 131.56 417.756 136.523Z" fill="#1455D7"/>
<g opacity="0.2">
<path opacity="0.2" d="M314.704 594.639C311.397 594.639 308.274 593.352 305.886 591.146C297.253 583.057 288.619 573.498 282.557 565.593C280.169 562.468 279.251 558.607 280.169 554.93C281.088 551.254 283.476 548.129 286.782 546.29C309.744 534.525 355.851 513.935 404.53 508.972C408.755 508.604 412.98 510.259 415.552 513.568L427.859 528.091C430.614 531.4 431.533 535.995 430.247 540.04C428.961 544.268 425.655 547.393 421.43 548.68C399.019 555.114 363.383 567.983 321.133 592.8C319.296 594.087 316.908 594.639 314.704 594.639ZM405.816 510.442C405.448 510.442 405.081 510.442 404.714 510.442C356.218 515.222 310.479 535.812 287.517 547.577C284.578 549.048 282.374 551.805 281.639 555.114C280.904 558.423 281.639 561.916 283.659 564.49C289.721 572.395 298.355 581.77 306.805 589.859C310.479 593.352 315.99 593.903 320.398 591.33C362.831 566.328 398.652 553.276 421.062 547.026C424.736 545.923 427.675 543.165 428.777 539.488C429.88 535.812 429.145 531.951 426.573 529.01L414.266 514.487C412.245 511.913 409.122 510.442 405.816 510.442Z" fill="#1455D7"/>
</g>
<path d="M362.28 122.736C362.28 122.736 361.729 98.4701 359.157 79.3514C358.423 73.8363 363.199 69.0566 368.71 70.1596C377.894 71.8141 390.385 74.0202 398.468 76.0423C401.591 76.7777 403.979 79.3514 404.53 82.4765C406.55 92.4036 410.408 114.648 408.02 127.516L362.28 122.736Z" fill="#616161"/>
<g opacity="0.5">
<path opacity="0.5" d="M307.356 579.748C312.132 578.645 317.091 576.806 321.5 574.6C323.704 573.497 325.909 572.027 327.746 570.556C329.583 568.902 331.42 567.063 333.257 565.225C336.747 561.548 340.053 557.504 342.441 553.092C344.646 548.68 345.748 543.716 343.36 539.856C342.258 538.017 340.604 537.098 338.216 537.282C336.012 537.466 333.624 538.385 331.603 539.672C327.562 542.246 323.888 546.29 322.786 550.886C322.235 553.092 322.602 555.482 323.888 557.32C325.174 559.158 327.378 560.629 329.583 560.997C331.787 561.364 334.359 560.813 336.379 559.526C338.584 558.423 340.604 556.768 342.441 555.114C346.115 551.621 349.238 547.209 351.075 542.429C351.442 541.326 351.81 540.04 351.993 538.937C351.993 538.385 351.993 537.834 351.81 537.466C351.626 537.282 351.626 537.098 351.442 536.914C351.258 536.731 351.075 536.547 350.707 536.547C350.524 536.363 350.34 536.363 350.156 536.363C350.156 536.363 349.973 536.363 349.973 536.547C349.789 536.914 349.789 537.466 349.789 538.017C349.789 539.304 349.973 540.407 350.34 541.694C351.81 546.474 354.932 551.07 359.157 553.827C361.178 555.114 363.933 556.033 365.219 554.379C365.954 553.459 366.321 552.356 366.505 551.07C366.689 549.783 366.872 548.496 367.056 547.209C367.24 545.922 367.24 544.635 367.424 543.165C367.607 542.429 367.607 541.878 367.975 541.143C368.158 540.775 368.342 540.407 368.526 540.04C368.709 539.672 369.26 539.304 369.628 539.12C370.363 538.753 371.281 538.753 372.016 538.753C372.751 538.937 373.485 539.12 374.037 539.488C375.322 540.04 376.425 540.591 377.527 540.775C378.629 540.959 379.915 540.959 381.017 540.407C382.119 540.04 383.037 539.304 383.956 538.385C385.609 536.547 386.895 534.157 388.732 532.135C390.385 529.929 392.59 528.09 394.978 526.803C397.366 525.517 399.937 524.414 402.693 524.23C405.448 524.046 408.204 524.597 410.592 525.884C411.877 526.436 412.98 527.171 414.082 528.09L415.735 529.193C416.286 529.561 416.837 529.929 417.388 530.112C416.653 530.112 416.102 529.745 415.551 529.561L413.898 528.642C412.796 527.906 411.694 527.355 410.408 526.987C408.02 526.068 405.448 525.7 402.876 526.068C400.488 526.436 398.1 527.539 395.896 528.826C393.692 530.112 391.855 531.767 390.202 533.789C388.548 535.811 387.262 538.017 385.242 540.04C383.405 542.246 380.282 543.349 377.343 542.797C374.404 542.246 372.2 540.04 370.363 540.959C369.812 541.143 369.444 542.429 369.26 543.716C369.077 545.003 368.893 546.29 368.893 547.577C368.709 548.864 368.709 550.15 368.342 551.621C367.975 552.908 367.607 554.379 366.689 555.665C366.138 556.217 365.403 556.768 364.668 557.136C363.933 557.32 363.015 557.32 362.28 557.32C360.811 556.952 359.525 556.401 358.423 555.665C353.647 552.54 350.707 547.761 349.054 542.613C348.687 541.326 348.319 540.04 348.319 538.569C348.319 537.834 348.319 537.098 348.687 536.179C348.87 535.811 349.422 535.26 349.973 535.26C350.524 535.076 351.075 535.26 351.442 535.444C351.81 535.627 352.177 535.811 352.544 535.995C352.912 536.363 353.279 536.731 353.463 537.098C353.83 537.834 353.83 538.753 353.83 539.488C353.83 540.959 353.463 542.246 352.912 543.532C350.891 548.68 347.768 553.092 344.094 556.952C342.257 558.791 340.053 560.629 337.665 561.916C335.277 563.203 332.338 564.122 329.399 563.754C326.46 563.387 323.704 561.548 322.051 559.158C320.214 556.768 319.663 553.459 320.398 550.518C320.949 547.577 322.419 545.003 324.072 542.797C325.725 540.591 327.929 538.753 330.317 537.098C332.705 535.628 335.277 534.341 338.4 534.157C339.869 533.973 341.523 534.341 343.176 535.076C344.646 535.811 345.931 537.098 346.666 538.385C348.319 540.959 349.054 544.084 348.687 547.025C348.503 549.967 347.401 552.724 346.299 555.298C343.727 560.261 340.421 564.673 336.747 568.718C334.91 570.74 333.073 572.578 331.052 574.6C328.848 576.439 326.644 578.093 324.072 579.38C319.112 582.138 314.152 583.976 308.825 585.447C307.356 585.814 306.07 585.079 305.702 583.608C304.968 581.586 305.886 580.115 307.356 579.748C307.172 579.748 307.356 579.748 307.356 579.748Z" fill="#1455D7"/>
</g>
<g opacity="0.2">
<g opacity="0.2">
<path opacity="0.2" d="M474.517 526.62C457.617 526.62 438.329 512.833 426.573 490.957C411.694 463.014 415 432.13 433.737 422.202C442.922 417.423 454.311 418.158 465.883 424.225C477.273 430.291 487.559 441.137 494.723 454.741C501.887 468.161 505.01 482.684 503.724 495.736C502.439 508.788 496.56 518.715 487.559 523.495C483.518 525.517 479.109 526.62 474.517 526.62ZM446.963 420.548C442.554 420.548 438.329 421.467 434.656 423.489C416.654 433.049 413.714 463.014 428.226 490.037C442.554 517.245 469.006 531.4 487.008 521.841C495.642 517.245 501.153 507.869 502.439 495.369C503.724 482.684 500.602 468.529 493.621 455.293C486.641 442.057 476.538 431.578 465.516 425.511C458.903 422.386 452.658 420.548 446.963 420.548Z" fill="#1455D7"/>
</g>
<g opacity="0.2">
<path opacity="0.2" d="M473.232 514.487C468.088 514.487 462.761 513.017 457.434 510.075C448.433 505.296 440.534 496.839 435.023 486.361C423.083 463.749 426.206 439.299 442.187 430.843C458.169 422.386 480.212 433.416 492.152 456.028C497.663 466.507 500.235 477.721 499.132 487.831C498.03 498.862 493.071 507.134 484.988 511.362C481.314 513.568 477.457 514.487 473.232 514.487ZM453.76 439.299C451.556 439.299 449.351 439.851 447.331 440.77C437.228 446.101 435.942 464.668 444.759 481.213C449.351 489.67 455.597 496.472 462.761 500.332C469.007 503.825 475.069 504.193 479.661 501.803C484.253 499.413 487.192 494.082 487.927 486.912C488.662 479.007 486.641 469.816 482.233 461.359C475.069 447.939 463.312 439.299 453.76 439.299Z" fill="#1455D7"/>
</g>
<g opacity="0.2">
<path opacity="0.2" d="M466.802 496.655H466.618C466.251 496.471 466.067 496.104 466.067 495.552L479.844 456.579C480.028 456.212 480.396 456.028 480.947 456.028C481.314 456.212 481.498 456.579 481.498 457.131L467.721 496.104C467.537 496.471 467.17 496.655 466.802 496.655Z" fill="#1455D7"/>
</g>
<g opacity="0.2">
<path opacity="0.2" d="M460.924 488.567C460.556 488.567 460.189 488.383 460.189 488.015C459.271 484.706 458.168 480.11 457.25 476.617C456.699 475.698 456.148 474.411 455.78 472.389C455.597 471.286 455.413 470.551 456.331 470.367C457.066 470.183 457.25 470.183 458.719 476.066C459.087 476.434 459.454 476.801 459.822 476.801C460.74 476.985 462.026 475.882 463.128 473.86C464.598 471.47 462.026 465.955 459.822 461.543C457.617 456.763 455.964 453.087 457.801 451.616C458.352 451.248 458.903 451.064 459.454 451.064C461.475 451.432 463.495 454.19 465.332 456.947C466.251 458.234 467.537 460.072 468.088 460.256C468.455 460.256 468.823 460.624 468.823 461.175C468.823 461.543 468.455 461.911 467.904 461.911C466.802 461.911 465.884 460.44 464.047 457.866C462.577 455.66 460.556 452.903 459.271 452.719C459.087 452.719 458.903 452.719 458.719 452.903C457.801 453.638 459.822 457.866 461.291 460.992C463.679 466.323 466.251 471.654 464.414 474.779C462.393 478.272 460.556 478.64 459.454 478.456H459.271C459.822 480.846 460.556 483.787 461.659 487.648C461.842 488.015 461.475 488.567 461.107 488.567C461.107 488.567 461.107 488.567 460.924 488.567Z" fill="#1455D7"/>
</g>
<g opacity="0.2">
<path opacity="0.2" d="M466.251 453.086C465.883 453.086 465.516 452.719 465.516 452.351L464.965 443.159C464.965 442.792 465.332 442.424 465.7 442.24C466.067 442.24 466.434 442.608 466.618 442.976L467.169 452.167C467.169 452.535 466.802 453.086 466.251 453.086Z" fill="#1455D7"/>
</g>
</g>
<g opacity="0.2">
<path opacity="0.2" d="M206.324 438.196C202.467 438.196 198.977 435.806 197.691 431.946C193.466 418.894 185.567 394.076 180.975 374.957C180.424 372.384 180.791 369.626 182.444 367.42C183.914 365.214 186.302 363.927 189.057 363.56L426.206 340.764C429.88 340.396 433.554 342.419 435.207 345.728L454.495 384.333C455.964 387.09 455.781 390.399 454.127 393.157C452.474 395.914 449.719 397.569 446.596 397.569C416.837 398.304 333.808 403.819 208.896 437.645C207.978 438.012 207.059 438.196 206.324 438.196ZM426.941 342.419C426.757 342.419 426.39 342.419 426.206 342.419L189.057 365.214C186.853 365.398 184.832 366.501 183.73 368.339C182.444 370.178 182.077 372.384 182.444 374.59C187.037 393.525 194.935 418.342 199.16 431.394C200.446 435.255 204.488 437.277 208.345 436.358C333.441 402.532 416.47 397.017 446.412 396.282C448.984 396.282 451.372 394.811 452.658 392.605C453.944 390.399 454.127 387.642 453.025 385.436L433.737 346.831C432.451 344.073 429.696 342.419 426.941 342.419Z" fill="#1455D7"/>
</g>
<path d="M185.016 346.83C180.24 346.83 176.199 343.337 175.648 338.557L166.831 276.789C166.463 274.031 167.198 271.458 169.035 269.252C170.688 267.23 173.26 265.943 176.015 265.759L406.918 256.383C411.878 256.2 416.103 259.692 416.838 264.656L423.818 317.049C424.185 319.622 423.451 322.196 421.797 324.402C420.144 326.424 417.756 327.711 415.185 327.895L185.935 346.83C185.567 346.83 185.384 346.83 185.016 346.83ZM407.102 258.038C406.918 258.038 406.918 258.038 406.735 258.038L175.832 267.413C173.627 267.597 171.423 268.516 169.953 270.355C168.484 272.009 167.933 274.399 168.116 276.605L176.934 338.373C177.485 342.602 181.342 345.543 185.567 345.175L414.633 326.424C416.838 326.24 418.858 325.137 420.144 323.483C421.614 321.828 422.165 319.622 421.797 317.416L414.817 265.024C414.45 260.979 411.143 258.038 407.102 258.038Z" fill="#222323"/>
<path d="M175.28 257.67C169.586 257.67 164.81 253.442 164.075 247.743L157.095 191.49C156.727 188.181 157.829 184.872 160.034 182.482C162.238 180.092 165.544 178.621 168.851 178.805L396.999 187.813C402.509 187.997 407.102 192.225 407.836 197.556L413.164 237.448C413.531 240.573 412.613 243.882 410.592 246.272C408.571 248.662 405.448 250.133 402.326 250.317L175.831 257.67C175.464 257.67 175.28 257.67 175.28 257.67ZM165.544 247.559C166.096 252.523 170.504 256.199 175.464 256.015L401.958 248.662C404.714 248.662 407.285 247.375 409.122 245.169C410.959 243.147 411.694 240.389 411.327 237.632L406 197.74C405.448 192.96 401.407 189.467 396.815 189.284L168.667 180.276C165.728 180.092 162.973 181.379 161.136 183.401C159.115 185.423 158.197 188.364 158.564 191.122L165.544 247.559Z" fill="#222323"/>
<path d="M198.425 224.213C198.058 224.213 197.691 224.029 197.507 223.845L192.363 218.146C191.812 217.595 191.996 216.859 192.363 216.308C192.915 215.756 193.649 215.94 194.2 216.308L198.242 220.72L203.936 211.161C204.304 210.609 205.038 210.425 205.773 210.793C206.324 211.161 206.508 211.896 206.14 212.631L199.527 223.661C199.344 223.845 198.976 224.029 198.425 224.213Z" fill="white"/>
<path d="M208.161 309.696C207.794 309.696 207.426 309.512 207.243 309.328L202.099 303.629C201.548 303.078 201.732 302.342 202.099 301.791C202.65 301.239 203.385 301.423 203.936 301.791L207.977 306.203L213.672 296.643C214.039 296.092 214.774 295.908 215.509 296.276C216.06 296.643 216.244 297.379 215.876 298.114L209.263 309.144C208.896 309.328 208.529 309.696 208.161 309.696Z" fill="white"/>
<path d="M282.925 529.561C282.741 529.561 282.374 529.561 282.19 529.561L274.659 527.907C272.822 527.539 271.72 525.701 272.087 523.862C272.454 522.024 274.291 520.921 276.128 521.289L283.66 522.943C285.497 523.311 286.599 525.149 286.231 526.988C285.864 528.458 284.394 529.561 282.925 529.561Z" fill="white"/>
<path d="M268.413 525.701C268.046 525.701 267.862 525.701 267.494 525.517L266.209 525.149C264.372 524.598 263.269 522.76 263.821 521.105C264.372 519.267 266.209 518.164 267.862 518.715L269.148 519.083C270.985 519.634 272.087 521.473 271.536 523.127C271.168 524.782 269.882 525.701 268.413 525.701Z" fill="white"/>
<path d="M286.415 529.194L287.517 524.965L289.722 528.274L286.415 529.194Z" fill="white"/>
<path opacity="0.2" d="M482.967 546.842L480.763 548.68C381.385 572.211 291.375 629.751 291.375 629.751C227.082 595.374 174.362 477.72 152.319 405.841L146.624 365.213C164.442 380.288 334.543 524.23 482.967 546.842Z" fill="url(#paint10_linear)"/>
<path opacity="0.32" d="M382.487 317.049L372.935 228.625C372.567 224.581 375.69 221.088 379.731 221.272L453.025 222.742C456.332 222.742 459.271 225.316 459.454 228.809L467.721 312.086C468.088 315.946 465.149 319.255 461.475 319.439L389.467 323.116C385.977 323.116 382.854 320.542 382.487 317.049Z" fill="url(#paint11_linear)"/>
<path d="M484.621 187.078C480.763 187.078 477.64 184.321 477.089 180.46L471.762 140.017C470.476 130.457 462.578 123.104 452.842 122.736C446.964 122.552 441.269 124.758 437.412 129.17C433.37 133.582 431.533 139.281 432.268 145.164L435.942 173.107C436.493 177.335 433.554 181.195 429.329 181.563C425.104 182.115 421.246 179.173 420.879 174.945L417.205 147.002C415.919 136.708 419.226 126.413 426.206 118.692C433.187 110.971 443.29 106.926 453.577 107.294C470.66 108.029 484.621 120.898 486.825 137.811L492.152 178.254C492.703 182.482 489.764 186.343 485.539 186.894C485.356 187.078 484.988 187.078 484.621 187.078Z" fill="url(#paint12_linear)"/>
<g opacity="0.6">
<path opacity="0.6" d="M474.701 116.118C469.742 112.809 464.047 110.971 457.801 110.603C448.066 110.235 438.514 114.096 431.901 121.266C425.288 128.435 422.165 138.362 423.451 148.105L426.757 174.761C426.941 175.864 427.308 176.967 428.043 177.886C425.471 176.967 423.634 174.761 423.267 172.004L419.777 145.532C418.491 135.788 421.614 126.045 428.227 118.692C434.84 111.522 444.392 107.478 454.128 108.029C462.026 108.213 469.191 111.338 474.701 116.118Z" fill="url(#paint13_linear)"/>
<path opacity="0.6" d="M483.519 184.137C480.947 183.217 479.11 181.011 478.743 178.254L473.783 140.016C473.232 135.788 471.211 131.928 468.272 128.986C473.048 131.744 476.538 136.707 477.273 142.774L482.233 181.011C482.416 182.114 482.784 183.217 483.519 184.137Z" fill="url(#paint14_linear)"/>
</g>
<path d="M503.725 277.709L418.491 283.04C418.491 283.04 412.062 282.488 409.123 276.238L399.571 190.939C399.571 190.939 404.714 171.085 422.349 171.452C431.166 171.636 505.93 256.384 516.033 271.274C513.828 276.238 503.725 277.709 503.725 277.709Z" fill="url(#paint15_linear)"/>
<path d="M427.492 272.01L417.389 178.99C417.021 174.762 420.328 171.085 424.553 171.269L497.847 172.739C503.541 172.923 508.317 177.152 508.868 182.85L517.318 266.679C517.686 270.723 514.746 274.216 510.705 274.4L434.84 278.26C431.166 278.444 427.859 275.687 427.492 272.01Z" fill="url(#paint16_linear)"/>
<path opacity="0.32" d="M478.559 228.257L479.661 242.045C480.028 245.538 477.273 248.847 473.783 249.03L472.13 249.214C470.66 249.398 469.374 249.03 468.272 248.295C466.619 247.192 465.333 245.354 465.149 243.332L464.047 229.912C459.455 227.89 455.964 223.294 455.413 217.962L454.311 205.462C453.944 201.417 455.413 197.373 457.985 194.616C460.373 192.042 463.68 190.203 467.537 189.836C475.436 189.1 482.6 195.167 483.151 203.072L484.253 215.573C484.804 220.536 482.416 225.316 478.559 228.257Z" fill="url(#paint17_linear)"/>
<path opacity="0.32" d="M467.354 233.037L468.456 246.825C468.456 247.376 468.456 247.744 468.456 248.295C466.803 247.192 465.517 245.354 465.333 243.332L464.231 229.912C459.639 227.89 456.149 223.294 455.597 217.963L454.495 205.462C454.128 201.418 455.597 197.373 458.169 194.616C465.333 194.8 471.395 200.498 471.946 207.852L473.048 220.353C473.416 225.5 471.211 230.096 467.354 233.037Z" fill="#222323"/>
<path opacity="0.32" d="M154.89 500.148L173.994 480.478L242.879 468.528C251.329 467.058 257.208 459.153 256.105 450.696L252.431 422.202L148.645 448.307L154.89 500.148Z" fill="url(#paint18_linear)"/>
<path d="M74.616 337.27L230.388 332.306C238.287 331.755 245.084 337.638 246.002 345.359L275.026 436.54C275.944 444.629 251.88 450.512 243.798 451.615L73.1464 473.307C65.2476 474.41 57.8998 468.895 56.614 460.807L41 360.065C46.3271 342.233 61.2063 337.27 74.616 337.27Z" fill="url(#paint19_linear)"/>
<path d="M74.6156 337.27L250.227 326.792C258.126 326.24 264.922 332.123 265.841 339.844L276.495 429.555C277.413 437.644 271.719 444.997 263.636 446.1L92.985 467.793C85.0861 468.896 77.7384 463.381 76.4525 455.292L60.6549 354.367C59.5527 345.727 65.982 337.822 74.6156 337.27Z" fill="url(#paint20_linear)"/>
<path d="M75.5342 334.697C75.5342 334.697 78.4733 347.749 85.4536 387.641L264.004 372.566C264.004 372.566 260.146 325.873 249.676 324.402L75.5342 334.697Z" fill="#FF902C"/>
<path d="M85.4537 387.641L80.1266 388.928L71.6767 337.638L67.2681 338.557L75.5343 334.697C75.5343 334.697 83.8005 370.728 85.4537 387.641Z" fill="url(#paint21_linear)"/>
<path d="M100.885 337.087C98.4967 337.087 96.2923 335.248 96.1086 332.675C95.7413 327.16 97.5782 321.645 101.252 317.6C104.926 313.372 110.069 310.982 115.58 310.614L171.239 307.122C181.526 306.386 190.895 313.556 192.915 323.667L193.466 326.24C194.017 328.814 192.364 331.388 189.792 331.755C187.221 332.307 184.649 330.652 184.282 328.079L183.731 325.505C182.628 319.99 177.669 316.13 171.974 316.497L116.131 319.99C113.192 320.174 110.437 321.461 108.416 323.851C106.395 326.057 105.477 328.998 105.661 332.123C105.844 334.697 103.824 337.087 101.252 337.27C101.068 337.087 100.885 337.087 100.885 337.087Z" fill="#FF902C"/>
<path d="M264.004 372.567L261.065 373.854L80.127 388.928L85.4541 387.641L264.004 372.567Z" fill="url(#paint22_linear)"/>
<path d="M164.994 375.507L167.382 393.891L195.854 390.398L196.405 389.479L192.915 373.301L166.463 374.037L164.994 375.507Z" fill="url(#paint23_linear)"/>
<path d="M166.463 374.037L169.402 392.421L196.405 389.479L194.201 371.831L166.463 374.037Z" fill="url(#paint24_linear)"/>
<path d="M167.381 374.589L193.833 372.566C193.833 372.566 194.384 378.633 182.812 379.368C171.974 379.92 167.381 374.589 167.381 374.589Z" fill="url(#paint25_linear)"/>
<path d="M427.491 515.59C426.022 515.039 425.287 513.384 425.838 511.914L429.512 501.619C430.063 500.148 431.716 499.413 433.186 499.964C434.656 500.516 435.39 502.17 434.839 503.641L431.165 513.936C430.431 515.406 428.961 516.142 427.491 515.59Z" fill="url(#paint26_linear)"/>
<path d="M458.719 433.784L454.862 432.497C446.228 429.372 441.636 419.629 444.759 410.989L513.093 222.926C516.216 214.286 525.951 209.69 534.585 212.815L538.443 214.102C547.076 217.227 551.669 226.97 548.546 235.611L480.212 423.489C477.089 432.497 467.353 436.909 458.719 433.784Z" fill="#FBA300"/>
<path d="M421.246 477.537C421.246 477.537 418.307 497.758 429.512 510.259C429.512 510.259 446.045 507.318 456.148 490.405L421.246 477.537Z" fill="url(#paint27_linear)"/>
<path d="M461.107 490.773C461.107 490.773 457.801 491.324 453.208 491.324C448.616 491.324 442.554 490.957 437.227 488.934L436.86 488.751C426.022 484.706 417.388 474.595 417.388 474.595C438.697 432.497 442.554 391.318 442.554 391.318L453.208 390.215C455.596 395.73 467.169 401.062 468.639 401.613C470.108 401.981 482.416 405.474 487.743 402.716L495.274 410.437C495.458 410.805 471.945 444.998 461.107 490.773Z" fill="url(#paint28_linear)"/>
<path d="M541.749 218.882C541.382 219.985 538.259 219.985 534.769 218.698C531.279 217.411 528.891 215.389 529.258 214.286C529.625 213.183 532.748 213.183 536.238 214.47C539.728 215.757 542.116 217.595 541.749 218.882Z" fill="#FF902C"/>
<path opacity="0.58" d="M495.458 410.805C466.434 415.033 442.738 391.502 442.738 391.502L453.392 390.399C455.78 395.914 467.353 401.245 468.822 401.797C470.292 402.164 482.599 405.657 487.926 402.9L495.458 410.805Z" fill="#515151"/>
<path opacity="0.17" d="M514.562 220.904L457.433 391.318C457.433 391.318 462.944 396.833 469.19 398.672L532.748 229.728C532.931 229.728 517.501 225.316 514.562 220.904Z" fill="url(#paint29_linear)"/>
<path opacity="0.31" d="M515.848 220.536C515.848 220.536 520.808 214.654 526.686 214.102C526.686 214.102 527.972 216.86 534.769 219.985C534.769 219.985 534.401 225.684 533.115 228.625C533.299 228.625 524.665 227.154 515.848 220.536Z" fill="white"/>
<path d="M320.215 163.179C319.112 163.179 318.378 162.444 318.01 161.341L317.092 156.745L320.949 156.929L320.215 153.068L316.357 152.885L315.622 148.656H314.52L311.03 152.701L304.968 152.333L302.213 157.848L300.192 146.818L294.865 146.634L296.702 156.929C295.232 153.62 291.742 151.23 287.701 151.046C286.415 151.046 285.313 151.23 284.211 151.782L284.027 151.046L278.516 150.862L282.19 171.084L287.517 171.268L286.415 165.569C287.701 166.305 288.987 166.672 290.456 166.672C294.497 166.856 297.069 164.834 297.437 161.525L298.355 166.672L303.682 166.856L302.58 160.79L307.54 167.224L313.969 167.591L307.172 159.687L308.826 156.745L311.581 156.929L312.499 162.444C313.051 165.753 315.622 167.775 318.929 167.959L322.603 168.143L321.868 163.731L320.215 163.179ZM289.538 162.076C287.517 161.893 285.864 160.422 285.496 158.583C285.129 156.745 286.415 155.274 288.436 155.458C290.456 155.642 292.109 157.113 292.477 158.951C292.661 160.79 291.558 162.26 289.538 162.076Z" fill="white"/>
<path d="M254.82 148.84L248.941 148.473L249.86 153.988L255.738 154.355L254.82 148.84Z" fill="white"/>
<path d="M250.594 142.59L246.92 142.406L247.471 145.899L251.145 146.083L250.594 142.59Z" fill="white"/>
<path d="M260.881 143.51L256.84 143.326L257.575 147.002L261.432 147.186L260.881 143.51Z" fill="white"/>
<path d="M255.003 144.244L252.982 144.061L253.35 145.899L255.37 146.083L255.003 144.244Z" fill="white"/>
<path d="M273.924 150.495L276.128 162.444C276.128 162.811 276.128 163.363 276.128 163.731C275.944 164.098 275.76 164.466 275.577 164.834C275.209 165.201 274.842 165.385 274.475 165.569C274.107 165.753 273.556 165.753 273.005 165.753L260.147 165.201L257.391 149.759L273.924 150.495Z" fill="white"/>
<defs>
<linearGradient id="paint0_linear" x1="182.253" y1="644.74" x2="106.562" y2="83.7222" gradientUnits="userSpaceOnUse">
<stop stop-color="#E39E25"/>
<stop offset="1" stop-color="white"/>
</linearGradient>
<linearGradient id="paint1_linear" x1="333.44" y1="624.302" x2="257.785" y2="63.5446" gradientUnits="userSpaceOnUse">
<stop stop-color="#E39E25"/>
<stop offset="1" stop-color="white"/>
</linearGradient>
<linearGradient id="paint2_linear" x1="331.456" y1="604.27" x2="261.182" y2="83.3986" gradientUnits="userSpaceOnUse">
<stop offset="0.00540541" stop-color="#FBA300"/>
<stop offset="1" stop-color="#FFF8E4"/>
</linearGradient>
<linearGradient id="paint3_linear" x1="390.186" y1="622.283" x2="361.946" y2="381.276" gradientUnits="userSpaceOnUse">
<stop stop-color="#9AB5FF"/>
<stop offset="1" stop-color="#CDFFFF"/>
</linearGradient>
<linearGradient id="paint4_linear" x1="114.292" y1="237.999" x2="102.18" y2="148.227" gradientUnits="userSpaceOnUse">
<stop stop-color="#E39E25"/>
<stop offset="1" stop-color="white"/>
</linearGradient>
<linearGradient id="paint5_linear" x1="114.363" y1="237.436" x2="102.316" y2="148.15" gradientUnits="userSpaceOnUse">
<stop stop-color="#B0C2FF"/>
<stop offset="1" stop-color="#CAFFFF"/>
</linearGradient>
<linearGradient id="paint6_linear" x1="122.157" y1="296.409" x2="115.971" y2="250.563" gradientUnits="userSpaceOnUse">
<stop stop-color="#E39E25"/>
<stop offset="1" stop-color="white"/>
</linearGradient>
<linearGradient id="paint7_linear" x1="122.263" y1="296.113" x2="116.111" y2="250.515" gradientUnits="userSpaceOnUse">
<stop stop-color="#B0C2FF"/>
<stop offset="1" stop-color="#CAFFFF"/>
</linearGradient>
<linearGradient id="paint8_linear" x1="162.067" y1="620.579" x2="120.551" y2="312.859" gradientUnits="userSpaceOnUse">
<stop stop-color="#CA90FF"/>
<stop offset="1"/>
</linearGradient>
<linearGradient id="paint9_linear" x1="346.731" y1="630.732" x2="355.932" y2="104.012" gradientUnits="userSpaceOnUse">
<stop stop-color="white"/>
<stop offset="1" stop-color="#E4D69F"/>
</linearGradient>
<linearGradient id="paint10_linear" x1="314.937" y1="629.769" x2="314.937" y2="365.121" gradientUnits="userSpaceOnUse">
<stop stop-color="#6F6F6F"/>
<stop offset="0.3849" stop-color="#8D8D8D"/>
<stop offset="0.463542" stop-color="#AEAEAE"/>
<stop offset="0.7868" stop-color="#D7D7D7"/>
<stop offset="1" stop-color="#F8F8F8"/>
</linearGradient>
<linearGradient id="paint11_linear" x1="420.343" y1="322.986" x2="420.343" y2="221.182" gradientUnits="userSpaceOnUse">
<stop stop-color="#FEFEFE"/>
<stop offset="0.2059" stop-color="#F5F5F5"/>
<stop offset="0.5958" stop-color="#D0D0D0"/>
<stop offset="1" stop-color="#AEAEAE"/>
</linearGradient>
<linearGradient id="paint12_linear" x1="454.586" y1="170.303" x2="454.586" y2="94.3177" gradientUnits="userSpaceOnUse">
<stop stop-color="#FFFFD6"/>
<stop offset="0.1388" stop-color="#F1F2D3"/>
<stop offset="0.402" stop-color="#CCD1C9"/>
<stop offset="0.7585" stop-color="#909CBB"/>
<stop offset="1" stop-color="#6475B0"/>
</linearGradient>
<linearGradient id="paint13_linear" x1="447.151" y1="177.876" x2="447.151" y2="107.911" gradientUnits="userSpaceOnUse">
<stop/>
<stop offset="1" stop-color="white"/>
</linearGradient>
<linearGradient id="paint14_linear" x1="475.788" y1="184.162" x2="475.788" y2="129.017" gradientUnits="userSpaceOnUse">
<stop/>
<stop offset="1" stop-color="white"/>
</linearGradient>
<linearGradient id="paint15_linear" x1="457.828" y1="283.077" x2="457.828" y2="171.481" gradientUnits="userSpaceOnUse">
<stop stop-color="#E39E25"/>
<stop offset="1" stop-color="white"/>
</linearGradient>
<linearGradient id="paint16_linear" x1="419.446" y1="229.711" x2="563.344" y2="208.907" gradientUnits="userSpaceOnUse">
<stop stop-color="#E39E25"/>
<stop offset="1" stop-color="white"/>
</linearGradient>
<linearGradient id="paint17_linear" x1="469.438" y1="249.287" x2="469.438" y2="189.798" gradientUnits="userSpaceOnUse">
<stop stop-color="#D6CAFF"/>
<stop offset="0.2059" stop-color="#C8BCF3"/>
<stop offset="0.5958" stop-color="#A597D3"/>
<stop offset="1" stop-color="#7A6AAD"/>
</linearGradient>
<linearGradient id="paint18_linear" x1="202.601" y1="500.096" x2="202.601" y2="422.076" gradientUnits="userSpaceOnUse">
<stop stop-color="#D6CAFF"/>
<stop offset="0.2059" stop-color="#C8BCF3"/>
<stop offset="0.5958" stop-color="#A597D3"/>
<stop offset="1" stop-color="#7A6AAD"/>
</linearGradient>
<linearGradient id="paint19_linear" x1="163.379" y1="433.887" x2="136.397" y2="274.571" gradientUnits="userSpaceOnUse">
<stop stop-color="#E39E25"/>
<stop offset="1" stop-color="white"/>
</linearGradient>
<linearGradient id="paint20_linear" x1="77.4904" y1="412.93" x2="351.216" y2="349.293" gradientUnits="userSpaceOnUse">
<stop stop-color="#E39E25"/>
<stop offset="1" stop-color="white"/>
</linearGradient>
<linearGradient id="paint21_linear" x1="87.2753" y1="399.883" x2="65.2003" y2="312.263" gradientUnits="userSpaceOnUse">
<stop stop-color="#E39E25"/>
<stop offset="1" stop-color="white"/>
</linearGradient>
<linearGradient id="paint22_linear" x1="171.76" y1="391.741" x2="172.432" y2="369.783" gradientUnits="userSpaceOnUse">
<stop stop-color="#BDAEF4"/>
<stop offset="1" stop-color="#D4BDF0"/>
</linearGradient>
<linearGradient id="paint23_linear" x1="180.295" y1="394.303" x2="180.948" y2="372.902" gradientUnits="userSpaceOnUse">
<stop stop-color="#9881C1"/>
<stop offset="0.2391" stop-color="#8A7DB9"/>
<stop offset="0.6901" stop-color="#6572A3"/>
<stop offset="1" stop-color="#486A92"/>
</linearGradient>
<linearGradient id="paint24_linear" x1="181.048" y1="392.737" x2="181.7" y2="371.402" gradientUnits="userSpaceOnUse">
<stop stop-color="#FFFFD6"/>
<stop offset="0.1388" stop-color="#F1F2D3"/>
<stop offset="0.402" stop-color="#CCD1C9"/>
<stop offset="0.7585" stop-color="#909CBB"/>
<stop offset="1" stop-color="#6475B0"/>
</linearGradient>
<linearGradient id="paint25_linear" x1="180.499" y1="379.289" x2="180.719" y2="372.075" gradientUnits="userSpaceOnUse">
<stop stop-color="#E39E25"/>
<stop offset="1" stop-color="white"/>
</linearGradient>
<linearGradient id="paint26_linear" x1="427.444" y1="515.596" x2="433.077" y2="500.119" gradientUnits="userSpaceOnUse">
<stop stop-color="#F6FFFF"/>
<stop offset="1" stop-color="#168CE8"/>
</linearGradient>
<linearGradient id="paint27_linear" x1="429.02" y1="510.167" x2="438.59" y2="483.872" gradientUnits="userSpaceOnUse">
<stop stop-color="#FBA300"/>
<stop offset="1"/>
</linearGradient>
<linearGradient id="paint28_linear" x1="437.078" y1="489.083" x2="470.685" y2="396.749" gradientUnits="userSpaceOnUse">
<stop stop-color="#222323"/>
<stop offset="1" stop-color="#787878"/>
</linearGradient>
<linearGradient id="paint29_linear" x1="461.722" y1="396.085" x2="524.194" y2="224.445" gradientUnits="userSpaceOnUse">
<stop/>
<stop offset="1" stop-color="white"/>
</linearGradient>
</defs>
</svg>
