<svg width="552" height="575" viewBox="0 0 552 575" fill="none" xmlns="http://www.w3.org/2000/svg">
<path d="M50.5161 33.0658C50.5161 33.0658 51.802 11.3733 78.2539 12.844L159.447 571.149C159.447 571.149 131.158 582.73 120.32 559.383L50.5161 33.0658Z" fill="url(#paint0_linear)"/>
<path d="M77.5181 12.6603L371.612 41.3385C378.041 41.89 383.185 47.0374 384.103 53.4716L438.109 465.077C439.027 471.695 434.986 477.945 428.741 480.151L155.404 572.436C147.138 575.193 138.321 569.862 137.035 561.038L62.4552 28.6539C61.1694 19.646 68.5171 11.7412 77.5181 12.6603Z" fill="url(#paint1_linear)"/>
<path d="M381.532 68.1781L431.681 450.553C432.415 456.62 428.742 462.503 422.496 464.525L158.161 551.846C156.507 552.398 155.038 552.581 153.385 552.581C146.955 552.398 141.444 547.986 140.526 541.368L70.9061 46.6695C69.9876 40.0514 74.2126 34.1687 80.4582 32.3304C82.1114 31.7789 83.9483 31.5951 85.7853 31.7789L369.408 56.9642C375.654 57.5157 380.797 62.2954 381.532 68.1781Z" fill="url(#paint2_linear)"/>
<path d="M377.124 68.7298L427.272 451.105C428.007 457.172 424.333 463.054 418.087 465.076L153.752 552.398C153.568 552.398 153.385 552.398 153.385 552.582C146.955 552.398 141.444 547.986 140.526 541.368L70.9061 46.6696C69.9876 40.0516 74.2126 34.1689 80.4582 32.3306C80.8256 32.3306 81.0092 32.3306 81.3766 32.3306L365.183 57.5159C371.429 58.0674 376.389 62.8471 377.124 68.7298Z" fill="#FF902C"/>
<path opacity="0.5" d="M104.338 284.184C104.338 284.184 138.138 474.268 199.308 557.729L231.821 546.883L104.338 284.184Z" fill="#1455D7"/>
<path d="M552 471.327C552 471.327 428.374 450.002 250.926 563.795C250.926 563.795 171.387 537.691 111.502 335.841L552 471.327Z" fill="url(#paint3_linear)"/>
<path d="M74.5798 167.817C72.3755 168.184 70.1711 166.53 69.9874 164.324L58.9658 82.7014C58.5984 80.4953 60.2517 78.2893 62.456 78.1055C64.6603 77.7378 66.8646 79.3923 67.0483 81.5984L78.07 163.221C78.4373 165.427 76.7841 167.449 74.5798 167.817Z" fill="#FF902C"/>
<path d="M73.2936 168C71.4567 168.184 69.9871 167.081 69.6197 165.243L58.4144 81.782C58.2307 79.9437 59.3329 78.473 61.1698 78.1054C63.0068 77.9215 64.4763 79.0245 64.8437 80.8629L76.049 164.324C76.2327 166.162 74.9469 167.817 73.2936 168Z" fill="url(#paint4_linear)"/>
<path d="M61.1699 78.1049C59.884 78.2888 58.9655 79.2079 58.5981 80.3109C58.9655 79.9433 59.5166 79.7594 60.2514 79.5756C62.0883 79.3918 63.5579 80.4948 63.9253 82.3331L75.1306 165.794C75.1306 166.345 75.1306 166.713 74.9469 167.081C75.6817 166.345 76.2327 165.426 76.0491 164.139L64.8437 80.8624C64.4763 79.2079 63.0068 77.9211 61.1699 78.1049Z" fill="url(#paint5_linear)"/>
<path d="M82.6624 226.275H82.1113C79.907 226.643 78.07 224.988 77.7027 222.966L72.5592 184.729C72.1918 182.523 73.8451 180.684 75.8657 180.317H76.4168C78.6211 179.949 80.4581 181.603 80.8255 183.626L85.9689 221.863C86.3363 223.885 84.8667 225.907 82.6624 226.275Z" fill="#FF902C"/>
<path d="M81.1923 226.459C79.3553 226.643 77.8858 225.54 77.5184 223.701L72.1913 184.177C72.0076 182.339 73.1097 180.868 74.9467 180.5C76.7836 180.317 78.2532 181.42 78.6205 183.258L83.9477 222.782C84.1314 224.621 82.8455 226.091 81.1923 226.459Z" fill="url(#paint6_linear)"/>
<path d="M74.9468 180.5C73.661 180.684 72.5588 181.236 72.1914 181.787C72.7425 181.603 73.2936 181.42 73.8447 181.236C75.6816 181.052 77.1511 181.603 77.1511 182.339L82.8456 224.988C82.8456 225.172 82.8456 225.54 82.662 225.724C83.5804 225.356 84.1315 224.805 83.9478 224.069L78.2533 181.42C78.2533 180.868 76.7838 180.317 74.9468 180.5Z" fill="url(#paint7_linear)"/>
<path d="M119.217 550.743C119.217 550.743 76.9674 243.188 78.8043 242.82C80.6412 242.453 119.768 526.477 119.768 526.477C119.768 526.477 123.442 550.927 119.217 550.743Z" fill="url(#paint8_linear)"/>
<path d="M552 471.327C516.18 465.628 477.421 469.672 439.947 478.68C340.569 502.211 250.559 559.751 250.559 559.751C186.266 525.374 133.546 407.72 111.503 335.841L105.808 295.213L70.1716 42.4412V42.2574C69.2531 35.2717 75.1313 29.2051 82.1117 29.9405L367.204 57.3318C372.164 57.8833 376.205 61.56 376.94 66.5235C376.94 66.7073 376.94 66.7073 376.94 66.8912C378.226 76.0829 379.879 89.8704 382.083 106.232L383.92 120.571L384.472 124.799C385.941 135.461 387.411 146.859 388.88 158.257L392.554 185.832C392.921 188.957 393.289 191.898 393.656 195.024L403.025 266.168C404.678 278.301 405.596 286.022 405.78 287.125C457.582 402.573 552 471.327 552 471.327Z" fill="url(#paint9_linear)"/>
<path d="M173.223 72.5904L177.448 98.511C177.999 102.555 181.49 105.497 185.347 105.681L305.115 111.012C310.443 111.196 314.668 106.6 313.933 101.269L310.443 78.2892C309.891 74.4287 306.585 71.3035 302.727 71.1197L182.224 62.8472C176.714 62.2957 172.489 67.0753 173.223 72.5904Z" fill="#222323"/>
<g opacity="0.2">
<path opacity="0.2" d="M364.526 182.602L119.65 192.016L119.714 193.669L364.59 184.256L364.526 182.602Z" fill="#1455D7"/>
</g>
<g opacity="0.2">
<path opacity="0.2" d="M396.036 261.585L132.129 284.337L132.271 285.986L396.178 263.233L396.036 261.585Z" fill="#1455D7"/>
</g>
<g opacity="0.2">
<path opacity="0.2" d="M159.997 377.204L159.63 375.733C161.467 375.181 346.814 322.972 427.088 332.9L426.904 334.554C346.814 324.627 161.834 376.652 159.997 377.204Z" fill="#1455D7"/>
</g>
<path d="M141.628 141.344L143.465 157.154C144.016 161.198 147.323 164.139 151.548 164.139L165.692 163.772C170.468 163.588 173.958 159.544 173.407 154.764L171.386 139.873C170.835 136.013 167.713 133.255 163.855 133.071L149.894 132.52C144.935 132.336 140.893 136.564 141.628 141.344Z" fill="#222323"/>
<path d="M151.547 227.747L153.2 242.086C153.752 246.865 157.976 250.174 162.569 249.807L175.427 248.52C180.387 247.968 183.877 243.556 183.143 238.777L181.306 225.173C180.754 220.761 176.897 217.452 172.305 217.636L159.63 218.187C154.854 218.187 150.996 222.599 151.547 227.747Z" fill="#222323"/>
<path opacity="0.2" d="M166.794 315.987C168.631 322.054 171.937 331.797 176.529 339.334C177.632 341.356 180.203 342.275 182.408 341.724C186.816 340.621 194.164 338.415 200.042 336.76C202.981 335.841 204.451 332.716 203.532 329.958C201.512 324.627 198.573 316.171 196.552 310.656C195.817 308.45 193.429 306.979 191.041 307.163L171.202 309.185C168.08 309.737 165.875 312.862 166.794 315.987Z" fill="#1455D7"/>
<path opacity="0.2" d="M217.677 452.024C220.616 457.723 225.76 466.547 231.638 473.165C233.107 475.003 235.679 475.371 237.883 474.268C241.925 472.246 248.721 468.753 254.232 465.995C256.987 464.525 257.906 461.216 256.253 458.642C253.314 453.678 248.721 446.141 245.782 440.994C244.496 438.972 242.108 437.869 239.72 438.604L220.8 444.487C217.677 445.59 216.207 449.083 217.677 452.024Z" fill="#1455D7"/>
<path opacity="0.2" d="M376.756 66.5235L381.9 106.232L383.737 120.571L384.288 124.799L388.697 158.257L392.37 185.832L393.656 195.024L403.025 266.168C403.943 273.521 404.678 279.22 405.229 282.896L405.78 287.125L373.817 78.4727C372.715 71.1194 366.653 65.6043 359.306 65.0528L70.1716 42.4412V42.2574C69.2531 35.2717 75.1313 29.2051 82.1117 29.9405L367.204 57.3318C371.98 57.8833 376.022 61.56 376.756 66.5235Z" fill="#1455D7"/>
<g opacity="0.2">
<path opacity="0.2" d="M273.704 524.639C270.397 524.639 267.274 523.352 264.886 521.146C256.253 513.057 247.619 503.498 241.557 495.593C239.169 492.468 238.251 488.607 239.169 484.93C240.088 481.254 242.476 478.129 245.782 476.29C268.744 464.525 314.851 443.935 363.53 438.972C367.755 438.604 371.98 440.259 374.552 443.568L386.859 458.091C389.614 461.4 390.533 465.995 389.247 470.04C387.961 474.268 384.655 477.393 380.43 478.68C358.019 485.114 322.383 497.983 280.133 522.8C278.296 524.087 275.908 524.639 273.704 524.639ZM364.816 440.442C364.448 440.442 364.081 440.442 363.714 440.442C315.218 445.222 269.479 465.812 246.517 477.577C243.578 479.048 241.374 481.805 240.639 485.114C239.904 488.423 240.639 491.916 242.659 494.49C248.721 502.395 257.355 511.77 265.805 519.859C269.479 523.352 274.99 523.903 279.398 521.33C321.831 496.328 357.652 483.276 380.062 477.026C383.736 475.923 386.675 473.165 387.777 469.488C388.88 465.812 388.145 461.951 385.573 459.01L373.266 444.487C371.245 441.913 368.122 440.442 364.816 440.442Z" fill="#1455D7"/>
</g>
<path d="M321.28 52.7363C321.28 52.7363 320.729 28.4701 318.157 9.35135C317.423 3.83632 322.199 -0.94337 327.71 0.159636C336.894 1.81415 349.385 4.02016 357.468 6.04233C360.591 6.77767 362.979 9.35135 363.53 12.4765C365.55 22.4036 369.408 44.6475 367.02 57.5159L321.28 52.7363Z" fill="#616161"/>
<g opacity="0.5">
<path opacity="0.5" d="M266.356 509.748C271.132 508.645 276.091 506.806 280.5 504.6C282.704 503.497 284.909 502.027 286.746 500.556C288.583 498.902 290.42 497.063 292.257 495.225C295.747 491.548 299.053 487.504 301.441 483.092C303.646 478.68 304.748 473.716 302.36 469.856C301.258 468.017 299.604 467.098 297.216 467.282C295.012 467.466 292.624 468.385 290.603 469.672C286.562 472.246 282.888 476.29 281.786 480.886C281.235 483.092 281.602 485.482 282.888 487.32C284.174 489.158 286.378 490.629 288.583 490.997C290.787 491.364 293.359 490.813 295.379 489.526C297.584 488.423 299.604 486.768 301.441 485.114C305.115 481.621 308.238 477.209 310.075 472.429C310.442 471.326 310.81 470.04 310.993 468.937C310.993 468.385 310.993 467.834 310.81 467.466C310.626 467.282 310.626 467.098 310.442 466.914C310.258 466.731 310.075 466.547 309.707 466.547C309.524 466.363 309.34 466.363 309.156 466.363C309.156 466.363 308.973 466.363 308.973 466.547C308.789 466.914 308.789 467.466 308.789 468.017C308.789 469.304 308.973 470.407 309.34 471.694C310.81 476.474 313.932 481.07 318.157 483.827C320.178 485.114 322.933 486.033 324.219 484.379C324.954 483.459 325.321 482.356 325.505 481.07C325.689 479.783 325.872 478.496 326.056 477.209C326.24 475.922 326.24 474.635 326.424 473.165C326.607 472.429 326.607 471.878 326.975 471.143C327.158 470.775 327.342 470.407 327.526 470.04C327.709 469.672 328.26 469.304 328.628 469.12C329.363 468.753 330.281 468.753 331.016 468.753C331.751 468.937 332.485 469.12 333.037 469.488C334.322 470.04 335.425 470.591 336.527 470.775C337.629 470.959 338.915 470.959 340.017 470.407C341.119 470.04 342.037 469.304 342.956 468.385C344.609 466.547 345.895 464.157 347.732 462.135C349.385 459.929 351.59 458.09 353.978 456.803C356.366 455.517 358.937 454.414 361.693 454.23C364.448 454.046 367.204 454.597 369.592 455.884C370.877 456.436 371.98 457.171 373.082 458.09L374.735 459.193C375.286 459.561 375.837 459.929 376.388 460.112C375.653 460.112 375.102 459.745 374.551 459.561L372.898 458.642C371.796 457.906 370.694 457.355 369.408 456.987C367.02 456.068 364.448 455.7 361.876 456.068C359.488 456.436 357.1 457.539 354.896 458.826C352.692 460.112 350.855 461.767 349.202 463.789C347.548 465.811 346.262 468.017 344.242 470.04C342.405 472.246 339.282 473.349 336.343 472.797C333.404 472.246 331.2 470.04 329.363 470.959C328.812 471.143 328.444 472.429 328.26 473.716C328.077 475.003 327.893 476.29 327.893 477.577C327.709 478.864 327.709 480.15 327.342 481.621C326.975 482.908 326.607 484.379 325.689 485.665C325.138 486.217 324.403 486.768 323.668 487.136C322.933 487.32 322.015 487.32 321.28 487.32C319.811 486.952 318.525 486.401 317.423 485.665C312.647 482.54 309.707 477.761 308.054 472.613C307.687 471.326 307.319 470.04 307.319 468.569C307.319 467.834 307.319 467.098 307.687 466.179C307.87 465.811 308.422 465.26 308.973 465.26C309.524 465.076 310.075 465.26 310.442 465.444C310.81 465.627 311.177 465.811 311.544 465.995C311.912 466.363 312.279 466.731 312.463 467.098C312.83 467.834 312.83 468.753 312.83 469.488C312.83 470.959 312.463 472.246 311.912 473.532C309.891 478.68 306.768 483.092 303.094 486.952C301.257 488.791 299.053 490.629 296.665 491.916C294.277 493.203 291.338 494.122 288.399 493.754C285.46 493.387 282.704 491.548 281.051 489.158C279.214 486.768 278.663 483.459 279.398 480.518C279.949 477.577 281.419 475.003 283.072 472.797C284.725 470.591 286.929 468.753 289.317 467.098C291.705 465.628 294.277 464.341 297.4 464.157C298.869 463.973 300.523 464.341 302.176 465.076C303.646 465.811 304.931 467.098 305.666 468.385C307.319 470.959 308.054 474.084 307.687 477.025C307.503 479.967 306.401 482.724 305.299 485.298C302.727 490.261 299.421 494.673 295.747 498.718C293.91 500.74 292.073 502.578 290.052 504.6C287.848 506.439 285.644 508.093 283.072 509.38C278.112 512.138 273.152 513.976 267.825 515.447C266.356 515.814 265.07 515.079 264.702 513.608C263.968 511.586 264.886 510.115 266.356 509.748C266.172 509.748 266.356 509.748 266.356 509.748Z" fill="#1455D7"/>
</g>
<g opacity="0.2">
<g opacity="0.2">
<path opacity="0.2" d="M433.517 456.62C416.617 456.62 397.329 442.833 385.573 420.957C370.694 393.014 374 362.13 392.737 352.202C401.922 347.423 413.311 348.158 424.883 354.225C436.273 360.291 446.559 371.137 453.723 384.741C460.887 398.161 464.01 412.684 462.724 425.736C461.439 438.788 455.56 448.715 446.559 453.495C442.518 455.517 438.109 456.62 433.517 456.62ZM405.963 350.548C401.554 350.548 397.329 351.467 393.656 353.489C375.654 363.049 372.714 393.014 387.226 420.037C401.554 447.245 428.006 461.4 446.008 451.841C454.642 447.245 460.153 437.869 461.439 425.369C462.724 412.684 459.602 398.529 452.621 385.293C445.641 372.057 435.538 361.578 424.516 355.511C417.903 352.386 411.658 350.548 405.963 350.548Z" fill="#1455D7"/>
</g>
<g opacity="0.2">
<path opacity="0.2" d="M432.232 444.487C427.088 444.487 421.761 443.017 416.434 440.075C407.433 435.296 399.534 426.839 394.023 416.361C382.083 393.749 385.206 369.299 401.187 360.843C417.169 352.386 439.212 363.416 451.152 386.028C456.663 396.507 459.235 407.721 458.132 417.831C457.03 428.862 452.071 437.134 443.988 441.362C440.314 443.568 436.457 444.487 432.232 444.487ZM412.76 369.299C410.556 369.299 408.351 369.851 406.331 370.77C396.228 376.101 394.942 394.668 403.759 411.213C408.351 419.67 414.597 426.472 421.761 430.332C428.007 433.825 434.069 434.193 438.661 431.803C443.253 429.413 446.192 424.082 446.927 416.912C447.662 409.007 445.641 399.816 441.233 391.359C434.069 377.939 422.312 369.299 412.76 369.299Z" fill="#1455D7"/>
</g>
<g opacity="0.2">
<path opacity="0.2" d="M425.802 426.655H425.618C425.251 426.471 425.067 426.104 425.067 425.552L438.844 386.579C439.028 386.212 439.396 386.028 439.947 386.028C440.314 386.212 440.498 386.579 440.498 387.131L426.721 426.104C426.537 426.471 426.17 426.655 425.802 426.655Z" fill="#1455D7"/>
</g>
<g opacity="0.2">
<path opacity="0.2" d="M419.924 418.567C419.556 418.567 419.189 418.383 419.189 418.015C418.271 414.706 417.168 410.11 416.25 406.617C415.699 405.698 415.148 404.411 414.78 402.389C414.597 401.286 414.413 400.551 415.331 400.367C416.066 400.183 416.25 400.183 417.719 406.066C418.087 406.434 418.454 406.801 418.822 406.801C419.74 406.985 421.026 405.882 422.128 403.86C423.598 401.47 421.026 395.955 418.822 391.543C416.617 386.763 414.964 383.087 416.801 381.616C417.352 381.248 417.903 381.064 418.454 381.064C420.475 381.432 422.495 384.19 424.332 386.947C425.251 388.234 426.537 390.072 427.088 390.256C427.455 390.256 427.823 390.624 427.823 391.175C427.823 391.543 427.455 391.911 426.904 391.911C425.802 391.911 424.884 390.44 423.047 387.866C421.577 385.66 419.556 382.903 418.271 382.719C418.087 382.719 417.903 382.719 417.719 382.903C416.801 383.638 418.822 387.866 420.291 390.992C422.679 396.323 425.251 401.654 423.414 404.779C421.393 408.272 419.556 408.64 418.454 408.456H418.271C418.822 410.846 419.556 413.787 420.659 417.648C420.842 418.015 420.475 418.567 420.107 418.567C420.107 418.567 420.107 418.567 419.924 418.567Z" fill="#1455D7"/>
</g>
<g opacity="0.2">
<path opacity="0.2" d="M425.251 383.086C424.883 383.086 424.516 382.719 424.516 382.351L423.965 373.159C423.965 372.792 424.332 372.424 424.7 372.24C425.067 372.24 425.434 372.608 425.618 372.976L426.169 382.167C426.169 382.535 425.802 383.086 425.251 383.086Z" fill="#1455D7"/>
</g>
</g>
<g opacity="0.2">
<path opacity="0.2" d="M165.324 368.196C161.467 368.196 157.977 365.806 156.691 361.946C152.466 348.894 144.567 324.076 139.975 304.957C139.424 302.384 139.791 299.626 141.444 297.42C142.914 295.214 145.302 293.927 148.057 293.56L385.206 270.764C388.88 270.396 392.554 272.419 394.207 275.728L413.495 314.333C414.964 317.09 414.781 320.399 413.127 323.157C411.474 325.914 408.719 327.569 405.596 327.569C375.837 328.304 292.808 333.819 167.896 367.645C166.978 368.012 166.059 368.196 165.324 368.196ZM385.941 272.419C385.757 272.419 385.39 272.419 385.206 272.419L148.057 295.214C145.853 295.398 143.832 296.501 142.73 298.339C141.444 300.178 141.077 302.384 141.444 304.59C146.037 323.525 153.935 348.342 158.16 361.394C159.446 365.255 163.488 367.277 167.345 366.358C292.441 332.532 375.47 327.017 405.412 326.282C407.984 326.282 410.372 324.811 411.658 322.605C412.944 320.399 413.127 317.642 412.025 315.436L392.737 276.831C391.451 274.073 388.696 272.419 385.941 272.419Z" fill="#1455D7"/>
</g>
<path d="M144.016 276.83C139.24 276.83 135.199 273.337 134.648 268.557L125.831 206.789C125.463 204.031 126.198 201.458 128.035 199.252C129.688 197.23 132.26 195.943 135.015 195.759L365.918 186.383C370.878 186.2 375.103 189.692 375.838 194.656L382.818 247.049C383.185 249.622 382.451 252.196 380.797 254.402C379.144 256.424 376.756 257.711 374.185 257.895L144.935 276.83C144.567 276.83 144.384 276.83 144.016 276.83ZM366.102 188.038C365.918 188.038 365.918 188.038 365.735 188.038L134.832 197.413C132.627 197.597 130.423 198.516 128.953 200.355C127.484 202.009 126.933 204.399 127.116 206.605L135.934 268.373C136.485 272.602 140.342 275.543 144.567 275.175L373.633 256.424C375.838 256.24 377.858 255.137 379.144 253.483C380.614 251.828 381.165 249.622 380.797 247.416L373.817 195.024C373.45 190.979 370.143 188.038 366.102 188.038Z" fill="#222323"/>
<path d="M134.28 187.67C128.586 187.67 123.81 183.442 123.075 177.743L116.095 121.49C115.727 118.181 116.829 114.872 119.034 112.482C121.238 110.092 124.544 108.621 127.851 108.805L355.999 117.813C361.509 117.997 366.102 122.225 366.836 127.556L372.164 167.448C372.531 170.573 371.613 173.882 369.592 176.272C367.571 178.662 364.448 180.133 361.326 180.317L134.831 187.67C134.464 187.67 134.28 187.67 134.28 187.67ZM124.544 177.559C125.096 182.523 129.504 186.199 134.464 186.015L360.958 178.662C363.714 178.662 366.285 177.375 368.122 175.169C369.959 173.147 370.694 170.389 370.327 167.632L365 127.74C364.448 122.96 360.407 119.467 355.815 119.284L127.667 110.276C124.728 110.092 121.973 111.379 120.136 113.401C118.115 115.423 117.197 118.364 117.564 121.122L124.544 177.559Z" fill="#222323"/>
<path d="M157.425 154.213C157.058 154.213 156.691 154.029 156.507 153.845L151.363 148.146C150.812 147.595 150.996 146.859 151.363 146.308C151.915 145.756 152.649 145.94 153.2 146.308L157.242 150.72L162.936 141.161C163.304 140.609 164.038 140.425 164.773 140.793C165.324 141.161 165.508 141.896 165.14 142.631L158.527 153.661C158.344 153.845 157.976 154.029 157.425 154.213Z" fill="white"/>
<path d="M167.161 239.696C166.794 239.696 166.426 239.512 166.243 239.328L161.099 233.629C160.548 233.078 160.732 232.342 161.099 231.791C161.65 231.239 162.385 231.423 162.936 231.791L166.977 236.203L172.672 226.643C173.039 226.092 173.774 225.908 174.509 226.276C175.06 226.643 175.244 227.379 174.876 228.114L168.263 239.144C167.896 239.328 167.529 239.696 167.161 239.696Z" fill="white"/>
<path d="M241.925 459.561C241.741 459.561 241.374 459.561 241.19 459.561L233.659 457.907C231.822 457.539 230.72 455.701 231.087 453.862C231.454 452.024 233.291 450.921 235.128 451.289L242.66 452.943C244.497 453.311 245.599 455.149 245.231 456.988C244.864 458.458 243.394 459.561 241.925 459.561Z" fill="white"/>
<path d="M227.413 455.701C227.046 455.701 226.862 455.701 226.494 455.517L225.209 455.149C223.372 454.598 222.269 452.76 222.821 451.105C223.372 449.267 225.209 448.164 226.862 448.715L228.148 449.083C229.985 449.634 231.087 451.473 230.536 453.127C230.168 454.782 228.882 455.701 227.413 455.701Z" fill="white"/>
<path d="M245.415 459.194L246.517 454.965L248.722 458.274L245.415 459.194Z" fill="white"/>
<path opacity="0.2" d="M441.967 476.842L439.763 478.68C340.385 502.211 250.375 559.751 250.375 559.751C186.082 525.374 133.362 407.72 111.319 335.841L105.624 295.213C123.442 310.288 293.543 454.23 441.967 476.842Z" fill="url(#paint10_linear)"/>
<path opacity="0.32" d="M341.487 247.049L331.935 158.625C331.567 154.581 334.69 151.088 338.731 151.272L412.025 152.742C415.332 152.742 418.271 155.316 418.454 158.809L426.721 242.086C427.088 245.946 424.149 249.255 420.475 249.439L348.467 253.116C344.977 253.116 341.854 250.542 341.487 247.049Z" fill="url(#paint11_linear)"/>
<path d="M443.621 117.078C439.763 117.078 436.64 114.321 436.089 110.46L430.762 70.0165C429.476 60.4572 421.578 53.1038 411.842 52.7361C405.964 52.5523 400.269 54.7583 396.412 59.1703C392.37 63.5823 390.533 69.2812 391.268 75.1639L394.942 103.107C395.493 107.335 392.554 111.195 388.329 111.563C384.104 112.115 380.246 109.173 379.879 104.945L376.205 77.0022C374.919 66.7075 378.226 56.4128 385.206 48.6918C392.187 40.9707 402.29 36.9264 412.577 37.294C429.66 38.0294 443.621 50.8978 445.825 67.8105L451.152 108.254C451.703 112.482 448.764 116.343 444.539 116.894C444.356 117.078 443.988 117.078 443.621 117.078Z" fill="url(#paint12_linear)"/>
<g opacity="0.6">
<path opacity="0.6" d="M433.701 46.1182C428.742 42.8091 423.047 40.9708 416.801 40.6031C407.066 40.2355 397.514 44.096 390.901 51.2655C384.288 58.4351 381.165 68.3621 382.451 78.1053L385.757 104.761C385.941 105.864 386.308 106.967 387.043 107.886C384.471 106.967 382.634 104.761 382.267 102.004L378.777 75.5316C377.491 65.7884 380.614 56.0452 387.227 48.6918C393.84 41.5223 403.392 37.4779 413.128 38.0294C421.026 38.2133 428.191 41.3385 433.701 46.1182Z" fill="url(#paint13_linear)"/>
<path opacity="0.6" d="M442.519 114.137C439.947 113.217 438.11 111.011 437.743 108.254L432.783 70.0164C432.232 65.7882 430.211 61.9277 427.272 58.9863C432.048 61.7438 435.538 66.7074 436.273 72.7739L441.233 111.011C441.416 112.114 441.784 113.217 442.519 114.137Z" fill="url(#paint14_linear)"/>
</g>
<path d="M462.725 207.709L377.491 213.04C377.491 213.04 371.062 212.488 368.123 206.238L358.571 120.939C358.571 120.939 363.714 101.085 381.349 101.452C390.166 101.636 464.93 186.384 475.033 201.274C472.828 206.238 462.725 207.709 462.725 207.709Z" fill="url(#paint15_linear)"/>
<path d="M386.492 202.01L376.389 108.99C376.021 104.762 379.328 101.085 383.553 101.269L456.847 102.739C462.541 102.923 467.317 107.152 467.868 112.85L476.318 196.679C476.686 200.723 473.746 204.216 469.705 204.4L393.84 208.26C390.166 208.444 386.859 205.687 386.492 202.01Z" fill="url(#paint16_linear)"/>
<path opacity="0.32" d="M437.559 158.257L438.661 172.045C439.028 175.538 436.273 178.847 432.783 179.03L431.13 179.214C429.66 179.398 428.374 179.03 427.272 178.295C425.619 177.192 424.333 175.354 424.149 173.332L423.047 159.912C418.455 157.89 414.964 153.294 414.413 147.962L413.311 135.462C412.944 131.417 414.413 127.373 416.985 124.616C419.373 122.042 422.68 120.203 426.537 119.836C434.436 119.1 441.6 125.167 442.151 133.072L443.253 145.573C443.804 150.536 441.416 155.316 437.559 158.257Z" fill="url(#paint17_linear)"/>
<path opacity="0.32" d="M426.354 163.037L427.456 176.825C427.456 177.376 427.456 177.744 427.456 178.295C425.803 177.192 424.517 175.354 424.333 173.332L423.231 159.912C418.639 157.89 415.149 153.294 414.597 147.963L413.495 135.462C413.128 131.418 414.597 127.373 417.169 124.616C424.333 124.8 430.395 130.498 430.946 137.852L432.048 150.353C432.416 155.5 430.211 160.096 426.354 163.037Z" fill="#222323"/>
<path opacity="0.32" d="M113.89 430.148L132.994 410.478L201.879 398.528C210.329 397.058 216.208 389.153 215.105 380.696L211.431 352.202L107.645 378.307L113.89 430.148Z" fill="url(#paint18_linear)"/>
<path d="M33.616 267.27L189.388 262.306C197.287 261.755 204.084 267.638 205.002 275.359L234.026 366.54C234.944 374.629 210.88 380.512 202.798 381.615L32.1464 403.307C24.2476 404.41 16.8998 398.895 15.614 390.807L0 290.065C5.32712 272.233 20.2063 267.27 33.616 267.27Z" fill="url(#paint19_linear)"/>
<path d="M33.6156 267.27L209.227 256.792C217.126 256.24 223.922 262.123 224.841 269.844L235.495 359.555C236.413 367.644 230.719 374.997 222.636 376.1L51.985 397.793C44.0861 398.896 36.7384 393.381 35.4525 385.292L19.6549 284.367C18.5527 275.727 24.982 267.822 33.6156 267.27Z" fill="url(#paint20_linear)"/>
<path d="M34.5342 264.697C34.5342 264.697 37.4733 277.749 44.4536 317.641L223.004 302.566C223.004 302.566 219.146 255.873 208.676 254.402L34.5342 264.697Z" fill="#FF902C"/>
<path d="M44.4537 317.641L39.1266 318.928L30.6767 267.638L26.2681 268.557L34.5343 264.697C34.5343 264.697 42.8005 300.728 44.4537 317.641Z" fill="url(#paint21_linear)"/>
<path d="M59.8847 267.087C57.4967 267.087 55.2923 265.248 55.1086 262.675C54.7413 257.16 56.5782 251.645 60.2521 247.6C63.9259 243.372 69.0694 240.982 74.5802 240.614L130.239 237.122C140.526 236.386 149.895 243.556 151.915 253.667L152.466 256.24C153.017 258.814 151.364 261.388 148.792 261.755C146.221 262.307 143.649 260.652 143.282 258.079L142.731 255.505C141.628 249.99 136.669 246.13 130.974 246.497L75.1313 249.99C72.1922 250.174 69.4368 251.461 67.4161 253.851C65.3955 256.057 64.477 258.998 64.6607 262.123C64.8444 264.697 62.8238 267.087 60.2521 267.27C60.0684 267.087 59.8847 267.087 59.8847 267.087Z" fill="#FF902C"/>
<path d="M223.004 302.567L220.065 303.854L39.127 318.928L44.4541 317.641L223.004 302.567Z" fill="url(#paint22_linear)"/>
<path d="M123.994 305.507L126.382 323.891L154.854 320.398L155.405 319.479L151.915 303.301L125.463 304.037L123.994 305.507Z" fill="url(#paint23_linear)"/>
<path d="M125.463 304.037L128.402 322.421L155.405 319.479L153.201 301.831L125.463 304.037Z" fill="url(#paint24_linear)"/>
<path d="M126.381 304.589L152.833 302.566C152.833 302.566 153.384 308.633 141.812 309.368C130.974 309.92 126.381 304.589 126.381 304.589Z" fill="url(#paint25_linear)"/>
<path d="M386.491 445.59C385.022 445.039 384.287 443.384 384.838 441.914L388.512 431.619C389.063 430.148 390.716 429.413 392.186 429.964C393.656 430.516 394.39 432.17 393.839 433.641L390.165 443.936C389.431 445.406 387.961 446.142 386.491 445.59Z" fill="url(#paint26_linear)"/>
<path d="M417.719 363.784L413.862 362.497C405.228 359.372 400.636 349.629 403.759 340.989L472.093 152.926C475.216 144.286 484.951 139.69 493.585 142.815L497.443 144.102C506.076 147.227 510.669 156.97 507.546 165.611L439.212 353.489C436.089 362.497 426.353 366.909 417.719 363.784Z" fill="#FBA300"/>
<path d="M380.246 407.537C380.246 407.537 377.307 427.758 388.512 440.259C388.512 440.259 405.045 437.318 415.148 420.405L380.246 407.537Z" fill="url(#paint27_linear)"/>
<path d="M420.107 420.773C420.107 420.773 416.801 421.324 412.208 421.324C407.616 421.324 401.554 420.957 396.227 418.934L395.86 418.751C385.022 414.706 376.388 404.595 376.388 404.595C397.697 362.497 401.554 321.318 401.554 321.318L412.208 320.215C414.596 325.73 426.169 331.062 427.639 331.613C429.108 331.981 441.416 335.474 446.743 332.716L454.274 340.437C454.458 340.805 430.945 374.998 420.107 420.773Z" fill="url(#paint28_linear)"/>
<path d="M500.749 148.882C500.382 149.985 497.259 149.985 493.769 148.698C490.279 147.411 487.891 145.389 488.258 144.286C488.625 143.183 491.748 143.183 495.238 144.47C498.728 145.757 501.116 147.595 500.749 148.882Z" fill="#FF902C"/>
<path opacity="0.58" d="M454.458 340.805C425.434 345.033 401.738 321.502 401.738 321.502L412.392 320.399C414.78 325.914 426.353 331.245 427.822 331.797C429.292 332.164 441.599 335.657 446.926 332.9L454.458 340.805Z" fill="#515151"/>
<path opacity="0.17" d="M473.562 150.904L416.433 321.318C416.433 321.318 421.944 326.833 428.19 328.672L491.748 159.728C491.931 159.728 476.501 155.316 473.562 150.904Z" fill="url(#paint29_linear)"/>
<path opacity="0.31" d="M474.848 150.536C474.848 150.536 479.808 144.654 485.686 144.102C485.686 144.102 486.972 146.86 493.769 149.985C493.769 149.985 493.401 155.684 492.115 158.625C492.299 158.625 483.665 157.154 474.848 150.536Z" fill="white"/>
<path d="M279.215 93.1794C278.112 93.1794 277.378 92.444 277.01 91.341L276.092 86.7452L279.949 86.929L279.215 83.0685L275.357 82.8846L274.622 78.6565H273.52L270.03 82.7008L263.968 82.3331L261.213 87.8482L259.192 76.8181L253.865 76.6343L255.702 86.929C254.232 83.62 250.742 81.2301 246.701 81.0463C245.415 81.0463 244.313 81.2301 243.211 81.7816L243.027 81.0463L237.516 80.8625L241.19 101.084L246.517 101.268L245.415 95.5692C246.701 96.3045 247.987 96.6722 249.456 96.6722C253.497 96.856 256.069 94.8339 256.437 91.5248L257.355 96.6722L262.682 96.856L261.58 90.7895L266.54 97.2237L272.969 97.5914L266.172 89.6865L267.826 86.7452L270.581 86.929L271.499 92.444C272.051 95.753 274.622 97.7752 277.929 97.959L281.603 98.1429L280.868 93.7309L279.215 93.1794ZM248.538 92.0763C246.517 91.8925 244.864 90.4218 244.496 88.5835C244.129 86.7452 245.415 85.2745 247.436 85.4583C249.456 85.6422 251.109 87.1128 251.477 88.9512C251.661 90.7895 250.558 92.2602 248.538 92.0763Z" fill="white"/>
<path d="M213.82 78.8403L207.941 78.4727L208.86 83.9877L214.738 84.3554L213.82 78.8403Z" fill="white"/>
<path d="M209.594 72.5901L205.92 72.4062L206.471 75.8991L210.145 76.0829L209.594 72.5901Z" fill="white"/>
<path d="M219.881 73.5095L215.84 73.3257L216.575 77.0024L220.432 77.1862L219.881 73.5095Z" fill="white"/>
<path d="M214.003 74.2444L211.982 74.0605L212.35 75.8989L214.37 76.0827L214.003 74.2444Z" fill="white"/>
<path d="M232.924 80.4946L235.128 92.4438C235.128 92.8115 235.128 93.363 235.128 93.7307C234.944 94.0983 234.76 94.466 234.577 94.8337C234.209 95.2013 233.842 95.3852 233.475 95.569C233.107 95.7528 232.556 95.7528 232.005 95.7528L219.147 95.2013L216.391 79.7593L232.924 80.4946Z" fill="white"/>
<defs>
<linearGradient id="paint0_linear" x1="141.253" y1="574.74" x2="65.5622" y2="13.7222" gradientUnits="userSpaceOnUse">
<stop stop-color="#E39E25"/>
<stop offset="1" stop-color="white"/>
</linearGradient>
<linearGradient id="paint1_linear" x1="292.44" y1="554.302" x2="216.785" y2="-6.45535" gradientUnits="userSpaceOnUse">
<stop stop-color="#E39E25"/>
<stop offset="1" stop-color="white"/>
</linearGradient>
<linearGradient id="paint2_linear" x1="290.456" y1="534.27" x2="220.182" y2="13.3986" gradientUnits="userSpaceOnUse">
<stop offset="0.00540541" stop-color="#FBA300"/>
<stop offset="1" stop-color="#FFF8E4"/>
</linearGradient>
<linearGradient id="paint3_linear" x1="349.186" y1="552.283" x2="320.946" y2="311.276" gradientUnits="userSpaceOnUse">
<stop stop-color="#9AB5FF"/>
<stop offset="1" stop-color="#CDFFFF"/>
</linearGradient>
<linearGradient id="paint4_linear" x1="73.2916" y1="167.999" x2="61.18" y2="78.2274" gradientUnits="userSpaceOnUse">
<stop stop-color="#E39E25"/>
<stop offset="1" stop-color="white"/>
</linearGradient>
<linearGradient id="paint5_linear" x1="73.3626" y1="167.436" x2="61.3164" y2="78.1503" gradientUnits="userSpaceOnUse">
<stop stop-color="#B0C2FF"/>
<stop offset="1" stop-color="#CAFFFF"/>
</linearGradient>
<linearGradient id="paint6_linear" x1="81.1569" y1="226.409" x2="74.9715" y2="180.563" gradientUnits="userSpaceOnUse">
<stop stop-color="#E39E25"/>
<stop offset="1" stop-color="white"/>
</linearGradient>
<linearGradient id="paint7_linear" x1="81.263" y1="226.113" x2="75.111" y2="180.515" gradientUnits="userSpaceOnUse">
<stop stop-color="#B0C2FF"/>
<stop offset="1" stop-color="#CAFFFF"/>
</linearGradient>
<linearGradient id="paint8_linear" x1="121.067" y1="550.579" x2="79.5508" y2="242.859" gradientUnits="userSpaceOnUse">
<stop stop-color="#CA90FF"/>
<stop offset="1"/>
</linearGradient>
<linearGradient id="paint9_linear" x1="305.731" y1="560.732" x2="314.932" y2="34.0116" gradientUnits="userSpaceOnUse">
<stop stop-color="white"/>
<stop offset="1" stop-color="#E4D69F"/>
</linearGradient>
<linearGradient id="paint10_linear" x1="273.937" y1="559.769" x2="273.937" y2="295.121" gradientUnits="userSpaceOnUse">
<stop stop-color="#6F6F6F"/>
<stop offset="0.3849" stop-color="#8D8D8D"/>
<stop offset="0.463542" stop-color="#AEAEAE"/>
<stop offset="0.7868" stop-color="#D7D7D7"/>
<stop offset="1" stop-color="#F8F8F8"/>
</linearGradient>
<linearGradient id="paint11_linear" x1="379.343" y1="252.986" x2="379.343" y2="151.182" gradientUnits="userSpaceOnUse">
<stop stop-color="#FEFEFE"/>
<stop offset="0.2059" stop-color="#F5F5F5"/>
<stop offset="0.5958" stop-color="#D0D0D0"/>
<stop offset="1" stop-color="#AEAEAE"/>
</linearGradient>
<linearGradient id="paint12_linear" x1="413.586" y1="100.303" x2="413.586" y2="24.3177" gradientUnits="userSpaceOnUse">
<stop stop-color="#FFFFD6"/>
<stop offset="0.1388" stop-color="#F1F2D3"/>
<stop offset="0.402" stop-color="#CCD1C9"/>
<stop offset="0.7585" stop-color="#909CBB"/>
<stop offset="1" stop-color="#6475B0"/>
</linearGradient>
<linearGradient id="paint13_linear" x1="406.151" y1="107.876" x2="406.151" y2="37.9112" gradientUnits="userSpaceOnUse">
<stop/>
<stop offset="1" stop-color="white"/>
</linearGradient>
<linearGradient id="paint14_linear" x1="434.788" y1="114.162" x2="434.788" y2="59.0172" gradientUnits="userSpaceOnUse">
<stop/>
<stop offset="1" stop-color="white"/>
</linearGradient>
<linearGradient id="paint15_linear" x1="416.828" y1="213.077" x2="416.828" y2="101.481" gradientUnits="userSpaceOnUse">
<stop stop-color="#E39E25"/>
<stop offset="1" stop-color="white"/>
</linearGradient>
<linearGradient id="paint16_linear" x1="378.446" y1="159.711" x2="522.344" y2="138.907" gradientUnits="userSpaceOnUse">
<stop stop-color="#E39E25"/>
<stop offset="1" stop-color="white"/>
</linearGradient>
<linearGradient id="paint17_linear" x1="428.438" y1="179.287" x2="428.438" y2="119.798" gradientUnits="userSpaceOnUse">
<stop stop-color="#D6CAFF"/>
<stop offset="0.2059" stop-color="#C8BCF3"/>
<stop offset="0.5958" stop-color="#A597D3"/>
<stop offset="1" stop-color="#7A6AAD"/>
</linearGradient>
<linearGradient id="paint18_linear" x1="161.601" y1="430.096" x2="161.601" y2="352.076" gradientUnits="userSpaceOnUse">
<stop stop-color="#D6CAFF"/>
<stop offset="0.2059" stop-color="#C8BCF3"/>
<stop offset="0.5958" stop-color="#A597D3"/>
<stop offset="1" stop-color="#7A6AAD"/>
</linearGradient>
<linearGradient id="paint19_linear" x1="122.379" y1="363.887" x2="95.3974" y2="204.571" gradientUnits="userSpaceOnUse">
<stop stop-color="#E39E25"/>
<stop offset="1" stop-color="white"/>
</linearGradient>
<linearGradient id="paint20_linear" x1="36.4904" y1="342.93" x2="310.216" y2="279.293" gradientUnits="userSpaceOnUse">
<stop stop-color="#E39E25"/>
<stop offset="1" stop-color="white"/>
</linearGradient>
<linearGradient id="paint21_linear" x1="46.2753" y1="329.883" x2="24.2003" y2="242.263" gradientUnits="userSpaceOnUse">
<stop stop-color="#E39E25"/>
<stop offset="1" stop-color="white"/>
</linearGradient>
<linearGradient id="paint22_linear" x1="130.76" y1="321.741" x2="131.432" y2="299.783" gradientUnits="userSpaceOnUse">
<stop stop-color="#BDAEF4"/>
<stop offset="1" stop-color="#D4BDF0"/>
</linearGradient>
<linearGradient id="paint23_linear" x1="139.295" y1="324.303" x2="139.948" y2="302.902" gradientUnits="userSpaceOnUse">
<stop stop-color="#9881C1"/>
<stop offset="0.2391" stop-color="#8A7DB9"/>
<stop offset="0.6901" stop-color="#6572A3"/>
<stop offset="1" stop-color="#486A92"/>
</linearGradient>
<linearGradient id="paint24_linear" x1="140.048" y1="322.737" x2="140.7" y2="301.402" gradientUnits="userSpaceOnUse">
<stop stop-color="#FFFFD6"/>
<stop offset="0.1388" stop-color="#F1F2D3"/>
<stop offset="0.402" stop-color="#CCD1C9"/>
<stop offset="0.7585" stop-color="#909CBB"/>
<stop offset="1" stop-color="#6475B0"/>
</linearGradient>
<linearGradient id="paint25_linear" x1="139.499" y1="309.289" x2="139.719" y2="302.075" gradientUnits="userSpaceOnUse">
<stop stop-color="#E39E25"/>
<stop offset="1" stop-color="white"/>
</linearGradient>
<linearGradient id="paint26_linear" x1="386.444" y1="445.596" x2="392.077" y2="430.119" gradientUnits="userSpaceOnUse">
<stop stop-color="#F6FFFF"/>
<stop offset="1" stop-color="#168CE8"/>
</linearGradient>
<linearGradient id="paint27_linear" x1="388.02" y1="440.167" x2="397.59" y2="413.872" gradientUnits="userSpaceOnUse">
<stop stop-color="#FBA300"/>
<stop offset="1"/>
</linearGradient>
<linearGradient id="paint28_linear" x1="396.078" y1="419.083" x2="429.685" y2="326.749" gradientUnits="userSpaceOnUse">
<stop stop-color="#222323"/>
<stop offset="1" stop-color="#787878"/>
</linearGradient>
<linearGradient id="paint29_linear" x1="420.722" y1="326.085" x2="483.194" y2="154.445" gradientUnits="userSpaceOnUse">
<stop/>
<stop offset="1" stop-color="white"/>
</linearGradient>
</defs>
</svg>
