<svg width="1070" height="1118" viewBox="0 0 1070 1118" fill="none" xmlns="http://www.w3.org/2000/svg">
<g opacity="0.02">
<path d="M844.658 1361.34C1239.73 1325.63 1531.05 976.414 1495.34 581.342C1459.63 186.269 1110.41 -105.052 715.342 -69.342C320.27 -33.6324 28.9483 315.585 64.6579 710.658C100.367 1105.73 449.585 1397.05 844.658 1361.34Z" fill="white"/>
<path fill-rule="evenodd" clip-rule="evenodd" d="M784.722 683.304C805.643 680.979 820.172 661.801 817.847 640.881C815.523 619.96 796.345 605.431 775.424 607.756C754.503 610.08 739.975 629.258 742.299 650.179C745.205 671.1 763.801 686.209 784.722 683.304Z" fill="black"/>
<path fill-rule="evenodd" clip-rule="evenodd" d="M674.308 -36.1467L715.568 -41.377L700.459 2.20842L674.308 -36.1467Z" fill="black"/>
<path d="M627.453 -27.8011L620.66 -26.2236L628.153 6.04339L634.946 4.46597L627.453 -27.8011Z" fill="black"/>
<path d="M557.699 -8.05761L551.108 -5.7793L561.93 25.5271L568.521 23.2488L557.699 -8.05761Z" fill="black"/>
<path d="M490.397 19.2065L484.082 22.1626L498.123 52.1639L504.439 49.2078L490.397 19.2065Z" fill="black"/>
<path d="M426.413 52.9214L420.44 56.5205L437.536 84.8919L443.509 81.2927L426.413 52.9214Z" fill="black"/>
<path d="M311 139.189L305.906 143.952L328.527 168.149L333.621 163.387L311 139.189Z" fill="black"/>
<path d="M260.614 190.696L256.044 195.965L281.07 217.668L285.64 212.4L260.614 190.696Z" fill="black"/>
<path d="M215.585 247.618L211.593 253.335L238.752 272.296L242.744 266.578L215.585 247.618Z" fill="black"/>
<path d="M177.134 308.671L173.762 314.775L202.756 330.791L206.128 324.687L177.134 308.671Z" fill="black"/>
<path d="M120.043 441.617L118.013 448.289L149.703 457.931L151.733 451.259L120.043 441.617Z" fill="black"/>
<path d="M102.327 511.798L101.004 518.645L133.526 524.928L134.849 518.082L102.327 511.798Z" fill="black"/>
<path d="M122.695 654.448L89.5767 655.067L89.7071 662.04L122.825 661.42L122.695 654.448Z" fill="black"/>
<path d="M138.881 791.273L106.614 798.763L108.191 805.556L140.458 798.066L138.881 791.273Z" fill="black"/>
<path d="M157.471 857.521L126.165 868.343L128.443 874.933L159.75 864.112L157.471 857.521Z" fill="black"/>
<path d="M183.001 921.3L152.997 935.335L155.952 941.652L185.956 927.617L183.001 921.3Z" fill="black"/>
<path d="M215.02 982.252L186.648 999.351L190.248 1005.32L218.62 988.225L215.02 982.252Z" fill="black"/>
<path d="M977.879 -15.6086L968.233 16.082L974.905 18.1127L984.551 -13.5779L977.879 -15.6086Z" fill="black"/>
<path d="M907.8 -32.5833L901.517 -0.0581055L908.364 1.26481L914.648 -31.2604L907.8 -32.5833Z" fill="black"/>
<path fill-rule="evenodd" clip-rule="evenodd" d="M347.707 107.978L380.832 82.9893L388.968 128.318L347.707 107.978Z" fill="black"/>
<path fill-rule="evenodd" clip-rule="evenodd" d="M97.8182 751.298L92.5879 710.619L136.173 725.728L97.8182 751.298Z" fill="black"/>
<path fill-rule="evenodd" clip-rule="evenodd" d="M1029.96 2.20801L1068.32 18.4798L1032.87 48.6991L1029.96 2.20801Z" fill="black"/>
<path fill-rule="evenodd" clip-rule="evenodd" d="M1128.18 1159.26C1131.08 1156.35 1129.92 1149.96 1125.85 1140.66C1124.11 1137.75 1120.04 1129.62 1113.07 1117.41L1021.83 961.087L1028.22 955.857L1185.71 1115.09L1193.26 1109.28L1197.91 1115.09L1167.11 1138.33L1162.46 1132.52L1170.02 1126.71L1056.11 1011.07L1117.13 1115.09C1118.3 1116.83 1120.04 1119.16 1122.36 1122.64C1124.69 1126.13 1127.59 1129.62 1130.5 1133.69C1135.15 1139.5 1138.64 1142.98 1142.12 1143.56C1145.61 1144.15 1147.93 1143.56 1149.68 1141.82L1154.33 1147.63L1133.41 1163.32L1128.18 1159.26Z" fill="black"/>
<path fill-rule="evenodd" clip-rule="evenodd" d="M691.16 -68.6875C888.747 -93.0954 1077.04 -35.5626 1222.32 77.7594C1367.6 191.081 1469.89 359.611 1494.29 557.198C1518.7 754.786 1461.17 943.074 1347.85 1088.36C1234.52 1233.64 1065.99 1335.92 868.407 1360.33C670.82 1384.74 482.531 1327.21 337.247 1213.88C191.962 1100.56 89.6817 932.033 65.2739 734.446C40.8661 536.859 98.3988 348.57 211.721 203.285C325.043 58.0007 494.154 -44.2797 691.16 -68.6875ZM1220.58 80.6651C1075.87 -32.0758 888.166 -89.6085 691.741 -65.2007C495.316 -40.7929 327.367 60.9064 214.627 205.61C101.886 350.313 44.3529 538.021 68.7607 734.446C93.1686 930.87 194.868 1098.82 339.571 1211.56C484.275 1324.3 671.982 1381.83 868.407 1357.43C1064.83 1333.02 1232.78 1231.32 1345.52 1086.62C1458.26 941.912 1515.8 754.204 1491.39 557.78C1466.98 361.355 1365.28 193.406 1220.58 80.6651Z" fill="black"/>
<path fill-rule="evenodd" clip-rule="evenodd" d="M690.578 -76.8243C788.209 -89.0282 884.097 -80.8923 973.592 -56.4845C1066.57 -30.9144 1153.16 13.2521 1228.13 71.366C1303.1 129.48 1366.44 202.703 1414.1 286.968C1460.01 367.747 1490.81 458.985 1503.01 556.616C1515.21 654.248 1507.08 750.136 1482.67 839.631C1457.1 932.613 1412.93 1019.2 1354.82 1094.17C1296.71 1169.14 1223.48 1232.48 1139.22 1280.13C1058.44 1326.04 967.2 1356.84 869.568 1369.05C771.937 1381.25 676.049 1373.12 586.554 1348.71C493.572 1323.14 406.982 1278.97 332.016 1220.86C257.049 1162.74 193.705 1089.52 146.051 1005.26C100.141 924.477 69.341 833.238 57.1371 735.607C44.9332 637.976 53.0692 542.088 77.477 452.593C103.047 359.611 147.214 273.021 205.327 198.054C263.441 123.087 336.665 59.7433 420.93 12.09C501.708 -33.82 592.366 -65.2015 690.578 -76.8243ZM1215.35 87.638C1142.7 30.6864 1058.44 -11.7368 968.362 -36.7258C881.191 -60.5525 788.209 -68.1072 692.902 -56.4845C597.596 -44.8617 509.263 -14.6425 430.809 30.1051C349.45 76.5962 278.551 138.197 221.599 210.839C164.648 283.481 122.225 367.747 97.2356 457.823C73.409 544.994 65.2731 637.976 77.477 733.282C89.0997 828.589 119.319 916.922 164.067 995.376C210.558 1076.74 272.158 1147.63 344.801 1204.59C487.761 1316.16 673.144 1373.12 867.244 1348.71C962.551 1337.09 1050.88 1306.87 1129.34 1262.12C1210.7 1215.63 1281.6 1154.03 1338.55 1081.38C1395.5 1008.74 1437.92 924.477 1462.91 834.401C1486.74 747.23 1494.29 654.248 1482.67 558.941C1471.05 463.634 1440.83 375.301 1396.08 296.848C1350.17 214.907 1287.99 144.008 1215.35 87.638Z" fill="black"/>
<path fill-rule="evenodd" clip-rule="evenodd" d="M698.713 -8.25008C879.447 -30.9145 1052.05 22.5501 1185.13 125.993C1318.21 229.435 1411.77 384.018 1433.85 564.752C1456.52 745.486 1403.05 918.084 1299.61 1051.17C1196.17 1184.25 1041.58 1277.81 860.85 1299.89C680.116 1322.56 507.518 1269.09 374.438 1165.65C241.357 1062.21 147.794 907.624 125.71 726.89C103.046 546.156 156.511 373.558 259.953 240.477C363.977 107.978 518.56 14.4143 698.713 -8.25008ZM1183.38 128.898C1050.88 25.4558 879.447 -26.8466 699.875 -4.76339C520.303 17.3199 366.302 110.302 263.44 242.802C159.998 375.301 107.695 546.737 129.778 726.309C151.862 905.88 244.844 1059.88 377.343 1162.74C509.843 1266.19 681.279 1318.49 860.85 1296.41C1040.42 1274.32 1194.42 1181.34 1297.29 1048.84C1400.73 916.341 1453.03 744.905 1430.95 565.333C1408.28 385.762 1315.3 231.76 1183.38 128.898Z" fill="black"/>
<path fill-rule="evenodd" clip-rule="evenodd" d="M694.646 -41.374C884.678 -65.2007 1065.99 -9.41147 1205.47 99.8425C1345.52 208.515 1443.73 371.234 1466.98 560.685C1490.81 750.718 1435.02 932.033 1325.76 1071.51C1217.09 1211.56 1054.37 1309.77 864.919 1333.02C674.887 1356.84 493.572 1301.06 354.099 1191.8C214.044 1083.13 115.832 920.41 92.5864 730.959C68.7598 540.927 124.549 359.611 233.803 220.138C343.057 80.665 505.195 -17.5473 694.646 -41.374ZM1203.72 102.748C1064.83 -5.34351 884.097 -61.1326 695.227 -37.306C506.357 -14.0604 344.801 83.5707 236.709 223.044C128.617 361.936 72.8277 542.67 96.6544 731.54C119.9 920.41 217.531 1081.97 357.004 1190.06C495.897 1298.15 676.631 1353.94 865.501 1330.11C1054.37 1306.87 1215.93 1209.24 1324.02 1069.76C1432.11 930.871 1487.9 750.137 1464.07 561.267C1440.25 372.397 1342.61 210.84 1203.72 102.748Z" fill="black"/>
<path fill-rule="evenodd" clip-rule="evenodd" d="M241.94 1078.48L216.951 1045.35L262.279 1037.22L241.94 1078.48Z" fill="black"/>
<path d="M297.342 1092.53L273.144 1115.15L277.906 1120.24L302.104 1097.62L297.342 1092.53Z" fill="black"/>
<path d="M92.5153 583.399L91.9155 590.347L124.918 593.196L125.518 586.248L92.5153 583.399Z" fill="black"/>
<path fill-rule="evenodd" clip-rule="evenodd" d="M136.173 396.221L152.445 357.866L182.664 393.316L136.173 396.221Z" fill="black"/>
<path fill-rule="evenodd" clip-rule="evenodd" d="M734.163 249.776L697.552 254.425L696.389 246.87L703.944 245.708L672.563 160.862L666.751 206.772C666.17 211.421 665.589 214.908 665.589 217.232C665.008 221.881 665.008 225.368 665.589 227.693C666.751 235.829 667.914 241.64 669.657 244.546C671.4 247.452 674.306 249.195 678.955 248.614L680.117 256.169L648.155 260.237L646.993 252.682C650.479 251.52 653.385 248.614 655.129 244.546C656.872 240.478 659.197 230.017 660.94 213.164L668.495 151.564L627.234 41.7285L621.423 42.3096L620.26 34.7549L656.872 30.1057L658.034 37.6606L648.736 38.8228L677.212 116.114L681.861 78.3403C682.442 74.8535 682.442 70.7854 683.023 65.5552C683.023 60.3249 683.023 56.8381 683.023 54.5136C682.442 48.7022 680.699 44.0531 678.955 40.5663C677.212 37.0795 674.887 35.3359 671.4 35.9171L670.238 28.3624L700.457 24.8755L701.62 32.4304C697.552 33.0115 694.646 36.4983 692.321 42.3096C690.578 48.121 688.253 59.1627 686.51 75.4346L680.699 125.994L723.703 242.802L731.839 241.64L734.163 249.776Z" fill="black"/>
<path fill-rule="evenodd" clip-rule="evenodd" d="M433.135 452.011L418.606 485.717L411.633 482.811L414.538 475.838L325.624 460.728L362.236 488.623C366.304 491.528 368.629 493.853 370.953 495.015C375.021 497.921 377.927 499.664 380.251 500.246C387.806 503.732 393.617 504.895 397.104 505.476C400.591 505.476 403.497 503.732 405.24 499.664L412.214 502.57L399.429 532.208L392.455 529.302C393.036 525.816 392.455 521.747 389.549 518.261C386.644 514.193 378.508 507.219 365.723 497.34L316.326 460.147L200.679 440.388L198.355 445.618L191.381 442.713L205.91 409.007L212.883 411.912L209.396 420.629L290.756 434.577L260.537 411.912C257.631 410.169 254.144 407.263 250.076 404.939C246.008 402.033 242.521 400.29 240.197 399.127C234.386 396.803 229.736 395.641 225.668 395.641C221.601 395.641 219.276 396.803 218.114 399.708L211.14 396.803L222.763 368.908L229.736 371.814C227.993 375.882 229.155 379.95 233.804 384.599C237.872 389.248 246.589 396.803 259.956 406.101L301.216 436.32L423.837 457.822L426.742 450.268L433.135 452.011Z" fill="black"/>
<path fill-rule="evenodd" clip-rule="evenodd" d="M771.355 245.125L731.838 249.774L730.676 242.219L741.136 241.057L714.985 31.2658L705.106 32.4282L703.943 24.8733L743.461 19.6431L744.623 27.1978L734.163 28.9413L760.314 238.732L770.774 237.57L771.355 245.125Z" fill="black"/>
<path fill-rule="evenodd" clip-rule="evenodd" d="M561.565 303.24L531.927 325.323L527.278 319.512L533.089 314.863L463.353 257.33L481.368 299.753C483.112 304.402 484.855 307.308 485.436 309.632C487.179 313.7 488.923 317.187 490.666 318.931C495.897 325.323 499.965 329.972 502.87 331.716C505.776 333.459 509.263 333.459 512.75 330.553L517.399 336.365L491.829 355.542L487.18 349.731C489.504 346.825 490.666 343.338 490.085 338.689C489.504 334.04 486.017 324.161 479.625 308.47L455.798 251.519L365.141 176.552L360.491 180.039L355.842 174.227L385.48 152.144L390.129 157.955L382.575 163.767L445.919 216.65L430.809 181.782C429.647 178.876 427.903 174.808 425.579 170.74C423.254 166.091 421.511 163.186 419.768 160.861C416.281 156.212 412.794 152.725 409.307 150.401C405.82 148.076 402.915 148.076 400.59 149.819L395.941 144.008L420.349 125.993L424.998 131.804C421.511 134.129 420.93 138.778 422.092 145.17C423.254 151.563 427.322 162.023 433.715 176.552L454.055 223.043L549.942 303.24L556.335 298.01L561.565 303.24Z" fill="black"/>
<path fill-rule="evenodd" clip-rule="evenodd" d="M591.785 280.575L559.823 304.402L555.174 298.591L563.891 292.198L436.04 123.087L427.904 129.479L423.255 123.668L455.218 99.2603L459.867 105.072L451.15 111.464L579 280.575L587.136 274.183L591.785 280.575Z" fill="black"/>
<path fill-rule="evenodd" clip-rule="evenodd" d="M813.78 239.895L774.262 244.544L773.1 236.989L783.561 235.827L757.409 26.0359L746.949 27.198L745.787 19.6433L785.885 14.4131L786.466 21.9678L776.587 23.7113L802.157 233.502L812.618 232.34L813.78 239.895Z" fill="black"/>
<path fill-rule="evenodd" clip-rule="evenodd" d="M960.227 283.481L923.616 267.79L926.521 260.817L936.401 264.885L1018.92 70.2034L1009.04 66.1354L1011.95 59.1616L1049.14 74.2713L1046.24 81.245L1036.36 77.1769L953.835 272.439L963.714 276.507L960.227 283.481Z" fill="black"/>
<path fill-rule="evenodd" clip-rule="evenodd" d="M806.808 1045.35L767.29 1050.58L768.452 1058.14L778.332 1056.4L804.483 1266.77L794.022 1267.93L795.185 1275.48L834.702 1270.84L834.121 1263.28L823.661 1264.44L797.509 1054.07L807.97 1052.91L806.808 1045.35Z" fill="black"/>
<path fill-rule="evenodd" clip-rule="evenodd" d="M918.386 1252.82C914.318 1252.82 910.831 1247.59 907.345 1237.71C906.182 1234.22 903.858 1225.51 900.371 1212.14L856.786 1036.64L848.65 1037.8L846.325 1262.12L837.027 1263.28L838.189 1270.84L876.544 1266.19L875.382 1258.63L866.084 1259.79L867.246 1097.66L895.722 1214.47C896.303 1216.21 896.884 1219.11 897.465 1223.76C898.047 1227.83 898.628 1232.48 899.209 1237.13C900.371 1244.68 899.79 1249.92 897.465 1252.82C895.722 1255.73 893.397 1256.89 891.073 1256.89L892.235 1264.44L918.386 1260.96V1252.82Z" fill="black"/>
<path fill-rule="evenodd" clip-rule="evenodd" d="M395.36 716.427L400.59 755.945L393.035 757.107L391.873 746.647L181.501 772.798L182.663 783.258L175.109 783.839L170.459 744.322L178.014 743.16L179.177 753.62L389.549 727.469L387.805 717.008L395.36 716.427Z" fill="black"/>
<path fill-rule="evenodd" clip-rule="evenodd" d="M384.319 627.514L388.969 664.125L381.414 665.288L380.252 657.733L295.405 689.114L341.315 694.926C345.964 695.507 349.451 696.088 351.776 696.088C356.425 696.669 359.912 696.669 362.236 696.088C370.372 694.926 376.184 693.763 379.089 692.02C381.995 690.277 383.738 687.371 383.157 682.722L390.712 681.559L394.78 713.522L387.225 714.684C386.063 711.198 383.157 708.292 379.089 706.549C375.021 704.805 364.561 702.481 347.708 700.737L286.107 693.182L176.272 734.443L176.853 740.254H169.879L165.23 703.643L172.785 702.48L173.947 711.779L251.239 683.303L213.465 678.654C209.978 678.073 205.91 678.073 200.68 677.492C195.449 677.492 191.963 677.492 189.638 677.492C183.827 678.073 179.178 679.816 175.691 681.559C172.204 683.303 170.461 685.628 171.042 689.114L163.487 690.277L160 660.057L167.555 658.895C168.136 662.963 171.623 665.869 177.434 668.193C183.246 669.937 194.287 672.261 210.559 674.005L261.118 679.816L377.927 636.812L376.765 628.676L384.319 627.514Z" fill="black"/>
<path fill-rule="evenodd" clip-rule="evenodd" d="M439.527 824.523L415.119 792.56L409.308 797.209L415.7 805.926L246.589 933.196L240.197 925.06L234.385 929.709L258.212 961.671L264.604 957.022L258.212 948.886L427.323 821.036L433.134 829.172L439.527 824.523Z" fill="black"/>
<path fill-rule="evenodd" clip-rule="evenodd" d="M466.841 861.133L442.433 829.17L436.622 833.238L443.014 841.956L273.903 969.225L267.511 961.089L261.699 965.738L285.526 997.701L291.918 993.051L285.526 984.915L454.637 857.065L460.449 865.201L466.841 861.133Z" fill="black"/>
<path fill-rule="evenodd" clip-rule="evenodd" d="M494.153 897.164L469.745 865.202L463.934 869.851L470.326 877.987L301.215 1005.84L294.823 997.12L289.011 1001.77L312.838 1033.73L319.23 1029.08L312.838 1020.95L481.368 893.096L487.761 901.813L494.153 897.164Z" fill="black"/>
<path fill-rule="evenodd" clip-rule="evenodd" d="M370.37 1097.66C368.626 1094.17 370.951 1088.36 377.925 1080.81C380.249 1077.9 386.642 1072.09 396.521 1062.21L526.696 936.683L521.466 930.291L326.203 1040.71L320.392 1033.15L314.581 1037.8L337.826 1068.6L343.637 1063.95L337.826 1056.4L479.043 976.2L391.872 1059.88C390.71 1061.05 388.385 1063.37 384.898 1065.7C381.412 1068.6 377.925 1071.51 373.857 1074.41C368.045 1079.06 363.396 1080.81 359.909 1080.81C356.423 1080.81 354.098 1079.64 352.936 1077.32L347.124 1081.97L362.815 1102.89L370.37 1097.66Z" fill="black"/>
<path fill-rule="evenodd" clip-rule="evenodd" d="M665.008 1031.4L701.62 1047.1L698.714 1054.07L689.416 1050L606.894 1245.26L616.192 1249.33L613.286 1256.31L576.675 1240.61L579.58 1233.64L588.879 1237.71L671.4 1042.45L662.102 1038.38L665.008 1031.4Z" fill="black"/>
<path fill-rule="evenodd" clip-rule="evenodd" d="M623.165 1013.97L660.357 1029.66L656.871 1036.64L647.573 1032.57L565.051 1227.25L574.93 1231.32L571.443 1238.29L534.832 1222.6L537.737 1215.63L547.617 1219.69L630.138 1025.01L620.259 1020.94L623.165 1013.97Z" fill="black"/>
<path fill-rule="evenodd" clip-rule="evenodd" d="M458.704 1182.5C462.772 1183.66 467.421 1179.6 473.232 1170.88C474.976 1167.97 479.625 1160.42 486.598 1148.21L576.094 991.307L583.649 994.793L524.372 1210.98L533.089 1214.46L530.184 1221.44L494.734 1206.33L497.64 1199.35L506.357 1202.84L549.361 1046.51L489.504 1151.12C488.342 1152.86 487.179 1155.77 485.436 1159.26C483.693 1163.32 481.949 1167.39 479.625 1172.04C476.719 1179.01 475.557 1184.24 476.719 1187.15C477.881 1190.64 479.625 1192.38 481.949 1192.96L479.044 1199.94L454.636 1189.47L458.704 1182.5Z" fill="black"/>
<path fill-rule="evenodd" clip-rule="evenodd" d="M655.131 796.626C640.021 784.422 617.357 786.746 605.153 801.856C592.949 816.965 595.273 839.63 610.383 851.834C625.493 864.038 648.157 861.713 660.361 846.603C673.146 831.494 670.822 808.829 655.131 796.626Z" fill="black"/>
<path fill-rule="evenodd" clip-rule="evenodd" d="M645.832 790.817C662.685 754.205 696.972 711.201 759.154 653.087L774.263 665.291C730.097 738.514 695.228 780.356 662.685 804.764C630.141 828.591 645.832 790.817 645.832 790.817Z" fill="black"/>
<path fill-rule="evenodd" clip-rule="evenodd" d="M1022.99 863.457C899.208 768.151 863.759 735.026 781.818 635.651L788.792 628.096C894.559 702.482 930.009 735.026 1034.61 851.253L1243.82 1044.77L1232.2 1057.56L1022.99 863.457Z" fill="black"/>
<path fill-rule="evenodd" clip-rule="evenodd" d="M534.832 484.555C545.292 468.283 567.376 464.215 583.648 474.676C599.919 485.717 605.15 507.219 594.689 523.491C584.229 539.763 562.145 543.831 545.874 533.371C529.021 522.329 524.371 500.827 534.832 484.555ZM623.746 529.884C623.746 529.884 620.84 528.722 616.772 528.14C615.029 527.559 613.867 526.978 612.705 525.235L608.636 517.68C613.867 499.084 606.893 478.162 589.459 466.54C577.836 458.985 564.47 457.241 552.847 460.147L451.729 427.604C451.148 427.604 449.986 427.603 449.405 428.185C448.823 428.766 448.823 429.928 449.405 430.509L519.722 509.544C522.047 521.748 529.021 533.371 540.062 540.925C557.496 551.967 578.998 550.805 594.108 538.601L603.406 539.763C605.15 539.763 606.312 540.344 607.474 542.088C608.636 543.831 610.38 545.574 612.123 547.318C638.856 576.956 684.184 607.756 761.476 644.949L771.936 629.258C708.011 572.888 661.52 542.669 623.746 529.884Z" fill="black"/>
<path fill-rule="evenodd" clip-rule="evenodd" d="M795.182 662.383C785.884 671.1 771.936 670.519 763.219 661.22C754.502 651.922 755.083 637.975 764.381 629.258C773.68 620.541 787.627 621.122 796.344 630.42C805.061 639.718 804.48 653.666 795.182 662.383Z" fill="white"/>
</g>
</svg>
