<svg width="1019" height="1028" viewBox="0 0 1019 1028" fill="none" xmlns="http://www.w3.org/2000/svg">
<path opacity="0.9" d="M322.694 635.112C328.958 631.229 330.89 623.007 327.01 616.747C323.13 610.487 314.906 608.561 308.643 612.444C302.379 616.326 300.447 624.549 304.327 630.808C308.208 637.068 316.431 638.994 322.694 635.112Z" fill="#FCBA00"/>
<path opacity="0.3" d="M179.888 488.979C183.837 486.531 185.055 481.348 182.609 477.401C180.162 473.455 174.978 472.24 171.029 474.688C167.081 477.136 165.863 482.32 168.309 486.266C170.755 490.212 175.939 491.427 179.888 488.979Z" fill="#FCBA00"/>
<path opacity="0.2" d="M257.424 410.9C261.373 408.452 262.591 403.268 260.144 399.322C257.698 395.376 252.514 394.161 248.565 396.609C244.616 399.057 243.398 404.24 245.844 408.187C248.291 412.133 253.475 413.348 257.424 410.9Z" fill="#FCBA00"/>
<path opacity="0.2" d="M503.703 434.907C506.154 433.387 506.91 430.17 505.392 427.72C503.873 425.271 500.655 424.517 498.204 426.037C495.753 427.556 494.997 430.773 496.516 433.223C498.034 435.672 501.252 436.426 503.703 434.907Z" fill="#FCBA00"/>
<path opacity="0.2" d="M498.948 401.359C497.541 407.348 491.624 411.016 485.634 409.613C479.645 408.209 475.979 402.296 477.387 396.307C478.794 390.319 484.711 386.651 490.7 388.054C496.69 389.458 500.355 395.371 498.948 401.359Z" fill="#FCBA00"/>
<path opacity="0.2" d="M237.383 386.829C239.97 385.225 240.768 381.829 239.165 379.243C237.562 376.658 234.166 375.862 231.579 377.466C228.991 379.07 228.193 382.466 229.796 385.051C231.399 387.637 234.795 388.432 237.383 386.829Z" fill="#FCBA00"/>
<path opacity="0.3" d="M173.431 636.574C172.399 640.965 167.961 643.716 163.569 642.687C159.177 641.658 156.427 637.223 157.459 632.831C158.491 628.44 162.929 625.689 167.321 626.718C171.713 627.747 174.709 632.029 173.431 636.574Z" fill="#FCBA00"/>
<path opacity="0.2" d="M251.366 558.588C250.334 562.98 245.65 565.884 241.258 564.854C236.865 563.825 233.963 559.144 234.995 554.752C236.027 550.361 240.712 547.457 245.104 548.486C249.496 549.515 252.398 554.197 251.366 558.588Z" fill="#FCBA00"/>
<path opacity="0.2" d="M230.057 536.326C229.401 539.12 226.442 540.955 223.647 540.3C220.852 539.645 219.019 536.688 219.676 533.893C220.333 531.099 223.291 529.265 226.086 529.92C228.881 530.575 230.714 533.531 230.057 536.326Z" fill="#FCBA00"/>
<path opacity="0.9" d="M316.457 486.859C316.401 493.375 322.098 498.711 328.462 498.517C334.98 498.57 340.321 492.871 340.131 486.509C340.188 479.993 334.49 474.657 328.126 474.851C321.362 474.951 316.115 480.25 316.457 486.859Z" fill="#FCBA00"/>
<path opacity="0.3" d="M469.082 389.518C469.189 393.544 472.619 396.875 476.647 396.766C480.675 396.657 484.008 393.226 483.901 389.199C483.794 385.173 480.364 381.842 476.337 381.951C472.309 382.06 468.975 385.491 469.082 389.518Z" fill="#FCBA00"/>
<path opacity="0.2" d="M416.131 307.401C416.238 311.428 419.668 314.758 423.696 314.649C427.723 314.54 431.057 311.109 430.95 307.082C430.843 303.056 427.413 299.725 423.385 299.834C419.358 299.943 416.024 303.374 416.131 307.401Z" fill="#FCBA00"/>
<path opacity="0.2" d="M198.622 284.659C198.611 287.395 200.878 289.4 203.462 289.163C206.198 289.172 208.205 286.905 207.969 284.322C207.733 281.74 205.713 279.582 203.13 279.819C200.64 279.657 198.633 281.924 198.622 284.659Z" fill="#FCBA00"/>
<path opacity="0.2" d="M210.403 259.62C210.381 265.091 215.068 269.348 220.54 269.367C226.013 269.385 230.274 264.697 230.295 259.227C230.317 253.756 225.63 249.499 220.158 249.48C214.686 249.462 210.425 254.15 210.403 259.62Z" fill="#FCBA00"/>
<path opacity="0.2" d="M438.696 292.049C438.685 294.784 440.952 296.789 443.688 296.799C446.424 296.808 448.431 294.54 448.442 291.805C448.453 289.07 446.186 287.064 443.45 287.055C440.867 287.292 438.707 289.313 438.696 292.049Z" fill="#FCBA00"/>
<path opacity="0.2" d="M403.247 695.685C400.629 696.967 397.282 695.972 396.001 693.355C394.72 690.738 395.717 687.392 398.335 686.11C400.954 684.828 404.301 685.822 405.581 688.439C406.862 691.056 405.865 694.403 403.247 695.685Z" fill="#FCBA00"/>
<path opacity="0.2" d="M421.545 670.698C416.062 673.415 409.368 671.425 406.501 665.699C403.787 660.219 405.781 653.526 411.51 650.656C416.993 647.939 423.688 649.929 426.555 655.655C429.269 661.135 427.275 667.829 421.545 670.698Z" fill="#FCBA00"/>
<path opacity="0.3" d="M411.214 640.267C408.067 642.9 407.834 647.478 410.465 650.622C413.097 653.766 417.677 653.996 420.823 651.364C423.969 648.731 424.202 644.153 421.571 641.009C418.94 637.865 414.36 637.635 411.214 640.267Z" fill="#FCBA00"/>
<path opacity="0.2" d="M439.53 546.654C436.384 549.287 436.057 554.264 438.935 557.255C441.566 560.399 446.545 560.723 449.539 557.845C452.685 555.212 453.012 550.234 450.134 547.243C447.503 544.099 442.677 544.022 439.53 546.654Z" fill="#FCBA00"/>
<path opacity="0.2" d="M466.001 554.12C464.088 555.988 463.83 558.876 465.452 560.941C467.319 562.853 470.208 563.108 472.274 561.486C474.188 559.618 474.445 556.73 472.824 554.665C471.05 552.354 468.161 552.099 466.001 554.12Z" fill="#FCBA00"/>
<g opacity="0.9">
<path opacity="0.9" d="M223.373 741.362C223.316 747.877 229.013 753.214 235.378 753.02C241.895 753.073 247.236 747.374 247.046 741.012C247.103 734.496 241.406 729.16 235.041 729.353C228.277 729.454 223.183 734.999 223.373 741.362Z" fill="#FCBA00"/>
<path opacity="0.9" d="M271.395 686.694C271.561 691.366 275.296 695.19 279.97 695.022C284.644 694.853 288.471 691.116 288.305 686.444C288.139 681.772 284.403 677.948 279.73 678.117C275.056 678.285 271.628 682.116 271.395 686.694Z" fill="#FCBA00"/>
</g>
<path opacity="0.9" d="M729.632 706.869C727.944 714.055 720.794 718.487 713.606 716.804C706.419 715.12 701.99 707.974 703.678 700.788C705.367 693.602 712.517 689.17 719.704 690.854C726.891 692.538 731.321 699.683 729.632 706.869Z" fill="#FCBA00"/>
<path opacity="0.3" d="M580.829 569.23C584.777 566.782 585.995 561.598 583.549 557.652C581.103 553.706 575.919 552.491 571.97 554.939C568.021 557.387 566.803 562.57 569.249 566.517C571.696 570.463 576.88 571.677 580.829 569.23Z" fill="#FCBA00"/>
<path opacity="0.2" d="M662.32 485.97C661.288 490.362 656.603 493.266 652.211 492.236C647.819 491.207 644.917 486.526 645.949 482.134C646.981 477.743 651.665 474.839 656.057 475.868C660.45 476.897 663.199 481.332 662.32 485.97Z" fill="#FCBA00"/>
<path opacity="0.2" d="M904.491 514.911C906.942 513.391 907.698 510.174 906.179 507.725C904.661 505.275 901.443 504.521 898.992 506.041C896.541 507.56 895.785 510.777 897.303 513.227C898.822 515.676 902.04 516.43 904.491 514.911Z" fill="#FCBA00"/>
<path opacity="0.2" d="M900.136 481.457C898.728 487.445 892.811 491.114 886.822 489.71C880.833 488.307 877.167 482.394 878.574 476.405C879.981 470.417 885.898 466.749 891.888 468.152C897.724 469.309 901.543 475.469 900.136 481.457Z" fill="#FCBA00"/>
<path opacity="0.2" d="M638.57 466.926C641.157 465.322 641.955 461.926 640.352 459.341C638.75 456.755 635.353 455.96 632.766 457.563C630.179 459.167 629.381 462.563 630.984 465.149C632.586 467.734 635.983 468.53 638.57 466.926Z" fill="#FCBA00"/>
<path opacity="0.3" d="M570.815 722.099C574.764 719.651 575.982 714.467 573.535 710.521C571.089 706.575 565.905 705.36 561.956 707.808C558.007 710.256 556.789 715.44 559.236 719.386C561.682 723.332 566.866 724.547 570.815 722.099Z" fill="#FCBA00"/>
<path opacity="0.2" d="M652.307 638.839C651.275 643.23 646.59 646.134 642.198 645.105C637.806 644.076 634.904 639.395 635.936 635.003C636.968 630.612 641.652 627.708 646.044 628.737C650.436 629.766 653.338 634.447 652.307 638.839Z" fill="#FCBA00"/>
<path opacity="0.2" d="M628.709 620.042C631.296 618.438 632.094 615.042 630.491 612.456C628.888 609.871 625.492 609.075 622.905 610.679C620.318 612.283 619.519 615.679 621.122 618.264C622.725 620.85 626.122 621.645 628.709 620.042Z" fill="#FCBA00"/>
<path opacity="0.9" d="M717.397 567.11C717.34 573.626 723.037 578.962 729.402 578.769C735.919 578.821 741.26 573.123 741.07 566.76C741.127 560.245 735.43 554.908 729.065 555.102C722.548 555.049 717.054 560.501 717.397 567.11Z" fill="#FCBA00"/>
<path opacity="0.3" d="M870.023 469.769C870.13 473.795 873.56 477.126 877.588 477.017C881.615 476.907 884.949 473.476 884.842 469.45C884.735 465.423 881.305 462.092 877.277 462.202C873.25 462.311 869.916 465.742 870.023 469.769Z" fill="#FCBA00"/>
<path opacity="0.2" d="M817.07 387.652C817.177 391.678 820.607 395.009 824.635 394.9C828.663 394.791 831.997 391.36 831.89 387.333C831.783 383.307 828.353 379.976 824.325 380.085C820.144 379.948 816.81 383.379 817.07 387.652Z" fill="#FCBA00"/>
<path opacity="0.2" d="M599.656 364.511C599.645 367.247 601.912 369.252 604.495 369.015C607.231 369.024 609.239 366.757 609.003 364.174C609.014 361.439 606.747 359.433 604.163 359.67C601.58 359.908 599.573 362.175 599.656 364.511Z" fill="#FCBA00"/>
<path opacity="0.2" d="M611.343 339.872C611.321 345.342 616.008 349.599 621.48 349.618C626.952 349.636 631.213 344.948 631.235 339.478C631.257 334.007 626.57 329.75 621.098 329.731C615.626 329.713 611.212 334.155 611.343 339.872Z" fill="#FCBA00"/>
<path opacity="0.2" d="M839.882 372.147C839.871 374.882 842.138 376.888 844.874 376.897C847.61 376.906 849.617 374.639 849.628 371.903C849.639 369.168 847.372 367.163 844.636 367.153C841.653 367.297 839.646 369.565 839.882 372.147Z" fill="#FCBA00"/>
<path opacity="0.2" d="M804.187 775.935C801.568 777.217 798.221 776.223 796.94 773.606C795.66 770.989 796.657 767.642 799.275 766.36C801.893 765.078 805.24 766.073 806.521 768.69C807.802 771.307 806.652 774.407 804.187 775.935Z" fill="#FCBA00"/>
<path opacity="0.2" d="M822.485 750.949C817.002 753.666 810.308 751.676 807.441 745.95C804.726 740.47 806.72 733.777 812.45 730.907C817.933 728.19 824.627 730.18 827.494 735.906C830.209 741.386 828.215 748.079 822.485 750.949Z" fill="#FCBA00"/>
<path opacity="0.3" d="M812.153 720.518C809.007 723.151 808.774 727.729 811.405 730.873C814.036 734.017 818.616 734.248 821.763 731.615C824.909 728.983 825.142 724.404 822.511 721.26C819.879 718.116 815.147 717.639 812.153 720.518Z" fill="#FCBA00"/>
<path opacity="0.2" d="M840.47 626.905C837.323 629.538 836.996 634.516 839.874 637.507C842.506 640.65 847.485 640.975 850.478 638.096C853.625 635.463 853.952 630.485 851.074 627.494C848.442 624.351 843.616 624.273 840.47 626.905Z" fill="#FCBA00"/>
<path opacity="0.2" d="M867.188 634.218C865.274 636.086 865.017 638.975 866.638 641.039C868.506 642.951 871.395 643.207 873.461 641.585C875.374 639.717 875.632 636.828 874.011 634.764C871.99 632.605 869.101 632.35 867.188 634.218Z" fill="#FCBA00"/>
<g opacity="0.9">
<path opacity="0.9" d="M624.312 821.613C624.256 828.129 629.953 833.465 636.317 833.271C642.835 833.324 648.176 827.625 647.986 821.263C648.042 814.747 642.345 809.411 635.981 809.605C629.463 809.552 624.122 815.25 624.312 821.613Z" fill="#FCBA00"/>
<path opacity="0.9" d="M672.335 766.945C672.501 771.618 676.237 775.441 680.91 775.273C685.584 775.104 689.411 771.367 689.245 766.695C689.079 762.023 685.343 758.199 680.67 758.368C675.996 758.537 672.416 762.12 672.335 766.945Z" fill="#FCBA00"/>
</g>
<path d="M524.105 732.636L398.374 660.846L523.541 588.03L649.272 659.82L524.105 732.636Z" fill="#312A91"/>
<path d="M523.91 711.952L398.426 640.009L523.593 567.192L648.924 638.889L523.91 711.952Z" fill="#312A91"/>
<g opacity="0.9">
<path opacity="0.9" d="M523.376 583.357L426.632 528.046L523.081 471.668L619.978 527.225L523.376 583.357Z" fill="url(#paint0_linear)"/>
<path opacity="0.9" d="M619.977 527.226L620.425 639.161L523.823 695.293L523.375 583.358L619.977 527.226Z" fill="url(#paint1_linear)"/>
<path opacity="0.9" d="M426.631 528.047L427.079 639.982L523.823 695.293L523.375 583.357L426.631 528.047Z" fill="url(#paint2_linear)"/>
</g>
<path opacity="0.7" d="M523.823 695.293L427.079 639.982L523.528 583.604L620.425 639.161L523.823 695.293Z" fill="url(#paint3_linear)"/>
<path d="M648.924 638.889L649.271 659.82L524.105 732.636L523.91 711.952L648.924 638.889Z" fill="url(#paint4_linear)"/>
<path d="M398.426 640.008L398.374 660.846L524.105 732.636L523.911 711.951L398.426 640.008Z" fill="#312A91"/>
<path opacity="0.7" d="M398.426 640.008L398.374 660.846L524.105 732.636L523.911 711.951L398.426 640.008Z" fill="url(#paint5_linear)"/>
<path d="M523.472 558.74L397.741 486.95L522.908 414.133L648.393 486.076L523.472 558.74Z" fill="#312A91"/>
<path d="M523.278 538.055L397.794 466.112L522.714 393.448L648.293 464.992L523.278 538.055Z" fill="#312A91"/>
<path opacity="0.7" d="M523.278 538.055L397.794 466.112L522.714 393.448L648.293 464.992L523.278 538.055Z" fill="url(#paint6_linear)"/>
<path d="M648.292 464.992L648.393 486.076L523.473 558.74L523.278 538.055L648.292 464.992Z" fill="url(#paint7_linear)"/>
<path d="M397.793 466.112L397.741 486.95L523.472 558.74L523.278 538.055L397.793 466.112Z" fill="#312A91"/>
<path opacity="0.7" d="M397.793 466.112L397.741 486.95L523.472 558.74L523.278 538.055L397.793 466.112Z" fill="url(#paint8_linear)"/>
<path opacity="0.3" d="M523.472 558.74L523.91 711.952L398.426 640.009L397.741 486.95L523.472 558.74Z" fill="#FCBA00"/>
<path opacity="0.3" d="M426.33 503.335L427.079 639.982L523.823 695.293L620.425 639.161L619.922 502.361L523.473 558.74L426.33 503.335Z" fill="#FCBA00"/>
<path opacity="0.3" d="M523.473 558.74L523.823 695.293L427.079 639.982L426.33 503.335L523.473 558.74Z" fill="#FCBA00"/>
<path opacity="0.5" d="M397.741 486.95L398.426 640.009L523.91 711.952L648.924 638.889L648.393 486.077L523.472 558.74L397.741 486.95Z" fill="#F7D900"/>
<path d="M400.777 465.968L524.218 394.222L522.714 393.448L397.794 466.112L523.278 538.055L524.758 537.138L400.777 465.968Z" fill="url(#paint9_linear)"/>
<path opacity="0.5" d="M397.741 486.95L398.426 640.009L400.082 641.028L399.644 487.817L397.741 486.95Z" fill="#FCBA00"/>
<path opacity="0.5" d="M648.393 486.076L648.925 638.889L647.199 639.959L646.761 486.747L648.393 486.076Z" fill="#FCBA00"/>
<path opacity="0.5" d="M523.473 558.74L520.466 557.193L521.15 710.252L523.91 711.951L526.869 710.117L526.431 556.906L523.473 558.74Z" fill="#FCBA00"/>
<path d="M672.282 819.162L546.704 747.619L671.718 674.556L797.449 746.346L672.282 819.162Z" fill="#312A91"/>
<path d="M672.333 798.325L546.602 726.535L671.769 653.718L797.253 725.661L672.333 798.325Z" fill="#312A91"/>
<g opacity="0.9">
<path opacity="0.9" d="M671.704 670.13L574.808 614.573L671.257 558.195L768.154 613.752L671.704 670.13Z" fill="url(#paint10_linear)"/>
<path opacity="0.9" d="M768.153 613.752L768.6 725.688L672.151 782.066L671.704 670.131L768.153 613.752Z" fill="url(#paint11_linear)"/>
<path opacity="0.9" d="M574.807 614.573L575.255 726.509L672.152 782.066L671.704 670.131L574.807 614.573Z" fill="url(#paint12_linear)"/>
</g>
<path opacity="0.7" d="M672.152 782.066L575.255 726.509L671.857 670.377L768.601 725.688L672.152 782.066Z" fill="url(#paint13_linear)"/>
<path d="M797.254 725.661L797.448 746.346L672.281 819.162L672.333 798.325L797.254 725.661Z" fill="url(#paint14_linear)"/>
<path d="M546.603 726.534L546.704 747.618L672.282 819.162L672.334 798.325L546.603 726.534Z" fill="#312A91"/>
<path opacity="0.7" d="M546.603 726.534L546.704 747.618L672.282 819.162L672.334 798.325L546.603 726.534Z" fill="url(#paint15_linear)"/>
<path d="M671.649 645.266L546.071 573.722L671.085 500.66L796.816 572.45L671.649 645.266Z" fill="#312A91"/>
<path d="M671.454 624.581L545.97 552.638L671.137 479.822L796.621 551.765L671.454 624.581Z" fill="#312A91"/>
<path opacity="0.7" d="M671.454 624.581L545.97 552.638L671.137 479.822L796.621 551.765L671.454 624.581Z" fill="url(#paint16_linear)"/>
<path d="M796.621 551.765L796.816 572.45L671.649 645.266L671.454 624.581L796.621 551.765Z" fill="url(#paint17_linear)"/>
<path d="M545.97 552.638L546.071 573.722L671.649 645.266L671.454 624.581L545.97 552.638Z" fill="#312A91"/>
<path opacity="0.7" d="M545.97 552.638L546.071 573.722L671.649 645.266L671.454 624.581L545.97 552.638Z" fill="url(#paint18_linear)"/>
<path opacity="0.3" d="M671.649 645.266L672.333 798.325L546.602 726.535L546.071 573.722L671.649 645.266Z" fill="#FCBA00"/>
<path opacity="0.3" d="M574.905 589.956L575.255 726.509L672.152 782.066L768.601 725.688L768.251 589.134L671.649 645.266L574.905 589.956Z" fill="#FCBA00"/>
<path opacity="0.3" d="M671.649 645.266L672.152 782.066L575.255 726.509L574.905 589.955L671.649 645.266Z" fill="#FCBA00"/>
<path opacity="0.5" d="M546.071 573.722L546.602 726.535L672.333 798.325L797.254 725.662L796.816 572.45L671.649 645.266L546.071 573.722Z" fill="#F7D900"/>
<path d="M549.105 552.741L672.393 480.748L671.137 479.822L545.97 552.638L671.454 624.581L672.933 623.664L549.105 552.741Z" fill="url(#paint19_linear)"/>
<path opacity="0.5" d="M546.071 573.722L546.602 726.535L548.411 727.801L547.973 574.589L546.071 573.722Z" fill="#FCBA00"/>
<path opacity="0.5" d="M796.816 572.45L797.253 725.662L795.528 726.731L795.09 573.52L796.816 572.45Z" fill="#FCBA00"/>
<path opacity="0.5" d="M671.649 645.266L668.643 643.719L669.327 796.778L672.334 798.325L675.198 796.89L674.761 643.678L671.649 645.266Z" fill="#FCBA00"/>
<path d="M378.568 817.739L252.837 745.949L378.004 673.132L503.335 744.829L378.568 817.739Z" fill="#312A91"/>
<path d="M378.221 796.807L252.89 725.111L377.657 652.201L503.388 723.991L378.221 796.807Z" fill="#312A91"/>
<g opacity="0.9">
<path opacity="0.9" d="M377.839 668.46L280.942 612.903L377.544 556.771L474.288 612.081L377.839 668.46Z" fill="url(#paint20_linear)"/>
<path opacity="0.9" d="M474.287 612.082L474.735 724.017L378.286 780.396L377.838 668.46L474.287 612.082Z" fill="url(#paint21_linear)"/>
<path opacity="0.9" d="M280.941 612.903L281.389 724.838L378.286 780.395L377.838 668.46L280.941 612.903Z" fill="url(#paint22_linear)"/>
</g>
<path opacity="0.7" d="M378.286 780.396L281.389 724.838L377.991 668.706L474.735 724.017L378.286 780.396Z" fill="url(#paint23_linear)"/>
<path d="M503.388 723.991L503.336 744.828L378.568 817.738L378.221 796.807L503.388 723.991Z" fill="url(#paint24_linear)"/>
<path d="M252.889 725.111L252.837 745.949L378.568 817.739L378.221 796.808L252.889 725.111Z" fill="#312A91"/>
<path opacity="0.7" d="M252.889 725.111L252.837 745.949L378.568 817.739L378.221 796.808L252.889 725.111Z" fill="url(#paint25_linear)"/>
<path d="M377.936 643.843L252.205 572.052L377.219 498.99L502.703 570.933L377.936 643.843Z" fill="#312A91"/>
<path d="M377.589 622.911L252.257 551.215L377.024 478.305L502.755 550.095L377.589 622.911Z" fill="#312A91"/>
<path opacity="0.7" d="M377.589 622.911L252.257 551.215L377.024 478.305L502.755 550.095L377.589 622.911Z" fill="url(#paint26_linear)"/>
<path d="M502.756 550.095L502.704 570.932L377.936 643.842L377.589 622.911L502.756 550.095Z" fill="url(#paint27_linear)"/>
<path d="M252.256 551.215L252.204 572.053L377.935 643.843L377.588 622.912L252.256 551.215Z" fill="#312A91"/>
<path opacity="0.7" d="M252.256 551.215L252.204 572.053L377.935 643.843L377.588 622.912L252.256 551.215Z" fill="url(#paint28_linear)"/>
<path opacity="0.3" d="M377.936 643.842L378.221 796.807L252.889 725.111L252.205 572.052L377.936 643.842Z" fill="#FCBA00"/>
<path opacity="0.3" d="M280.792 588.438L281.389 724.838L378.286 780.396L474.735 724.017L474.385 587.464L377.936 643.842L280.792 588.438Z" fill="#FCBA00"/>
<path opacity="0.3" d="M377.936 643.842L378.286 780.396L281.389 724.838L280.792 588.438L377.936 643.842Z" fill="#FCBA00"/>
<path opacity="0.5" d="M252.205 572.052L252.889 725.111L378.221 796.807L503.388 723.991L502.704 570.932L377.936 643.842L252.205 572.052Z" fill="#F7D900"/>
<path d="M254.993 551.224L378.68 479.325L377.024 478.305L252.257 551.215L377.589 622.911L379.221 622.241L254.993 551.224Z" fill="url(#paint29_linear)"/>
<path opacity="0.5" d="M252.205 572.052L252.889 725.111L254.546 726.131L253.861 573.072L252.205 572.052Z" fill="#FCBA00"/>
<path opacity="0.5" d="M502.703 570.932L503.388 723.991L501.662 725.061L500.978 572.002L502.703 570.932Z" fill="#FCBA00"/>
<path opacity="0.5" d="M377.936 643.842L374.776 642.049L375.461 795.108L378.221 796.808L381.332 795.22L380.648 642.161L377.936 643.842Z" fill="#FCBA00"/>
<path d="M526.745 904.265L401.014 832.475L526.181 759.659L651.513 831.355L526.745 904.265Z" fill="#312A91"/>
<path d="M526.55 883.58L401.065 811.637L525.986 738.974L651.564 810.518L526.55 883.58Z" fill="#312A91"/>
<g opacity="0.9">
<path opacity="0.9" d="M526.015 754.987L429.271 699.676L525.72 643.297L622.617 698.854L526.015 754.987Z" fill="url(#paint30_linear)"/>
<path opacity="0.9" d="M622.616 698.855L623.064 810.79L526.462 866.922L526.014 754.987L622.616 698.855Z" fill="url(#paint31_linear)"/>
<path opacity="0.9" d="M429.27 699.676L429.718 811.611L526.462 866.922L526.014 754.987L429.27 699.676Z" fill="url(#paint32_linear)"/>
</g>
<path opacity="0.7" d="M526.462 866.922L429.718 811.612L526.167 755.233L623.064 810.79L526.462 866.922Z" fill="url(#paint33_linear)"/>
<path d="M651.564 810.518L651.512 831.355L526.744 904.265L526.55 883.58L651.564 810.518Z" fill="url(#paint34_linear)"/>
<path d="M401.066 811.637L401.014 832.475L526.745 904.265L526.55 883.58L401.066 811.637Z" fill="#312A91"/>
<path opacity="0.7" d="M401.066 811.637L401.014 832.475L526.745 904.265L526.55 883.58L401.066 811.637Z" fill="url(#paint35_linear)"/>
<path d="M526.112 730.369L400.381 658.578L525.548 585.762L650.88 657.459L526.112 730.369Z" fill="#312A91"/>
<path d="M525.917 709.684L400.433 637.741L525.353 565.078L650.931 636.621L525.917 709.684Z" fill="#312A91"/>
<path opacity="0.7" d="M525.917 709.684L400.433 637.741L525.353 565.078L650.931 636.621L525.917 709.684Z" fill="url(#paint36_linear)"/>
<path d="M650.931 636.621L650.88 657.459L526.112 730.369L525.917 709.684L650.931 636.621Z" fill="url(#paint37_linear)"/>
<path d="M400.433 637.741L400.381 658.578L526.112 730.369L525.917 709.684L400.433 637.741Z" fill="#312A91"/>
<path opacity="0.7" d="M400.433 637.741L400.381 658.578L526.112 730.369L525.917 709.684L400.433 637.741Z" fill="url(#paint38_linear)"/>
<path opacity="0.3" d="M526.112 730.369L526.55 883.58L401.065 811.637L400.381 658.579L526.112 730.369Z" fill="#FCBA00"/>
<path opacity="0.3" d="M428.968 674.965L429.718 811.612L526.462 866.922L623.064 810.79L622.561 673.991L526.112 730.369L428.968 674.965Z" fill="#FCBA00"/>
<path opacity="0.3" d="M526.112 730.369L526.462 866.922L429.718 811.611L428.968 674.965L526.112 730.369Z" fill="#FCBA00"/>
<path opacity="0.5" d="M400.381 658.579L401.065 811.637L526.55 883.58L651.564 810.518L650.879 657.459L526.112 730.369L400.381 658.579Z" fill="#F7D900"/>
<path d="M403.169 637.75L526.856 565.851L525.353 565.078L400.433 637.741L525.917 709.684L527.396 708.767L403.169 637.75Z" fill="url(#paint39_linear)"/>
<path opacity="0.5" d="M400.381 658.579L401.065 811.637L402.721 812.657L402.283 659.446L400.381 658.579Z" fill="#FCBA00"/>
<path opacity="0.5" d="M650.88 657.459L651.564 810.518L649.838 811.588L649.4 658.376L650.88 657.459Z" fill="#FCBA00"/>
<path opacity="0.5" d="M526.113 730.369L522.953 728.575L523.637 881.634L526.55 883.58L529.509 881.746L529.071 728.534L526.113 730.369Z" fill="#FCBA00"/>
<path d="M523.196 504.339L397.711 432.396L522.632 359.733L648.21 431.277L523.196 504.339Z" fill="#312A91"/>
<path d="M523.095 483.255L397.517 411.712L522.531 338.649L648.262 410.439L523.095 483.255Z" fill="#312A91"/>
<g opacity="0.9">
<path opacity="0.9" d="M522.713 354.908L425.569 299.503L522.171 243.371L619.162 298.529L522.713 354.908Z" fill="url(#paint40_linear)"/>
<path opacity="0.9" d="M619.162 298.53L619.762 410.712L523.161 466.844L522.713 354.908L619.162 298.53Z" fill="url(#paint41_linear)"/>
<path opacity="0.9" d="M425.569 299.504L426.017 411.439L523.16 466.844L522.713 354.908L425.569 299.504Z" fill="url(#paint42_linear)"/>
</g>
<path opacity="0.7" d="M523.161 466.844L426.017 411.439L522.619 355.307L619.763 410.712L523.161 466.844Z" fill="url(#paint43_linear)"/>
<path d="M648.262 410.439L648.21 431.277L523.196 504.339L523.095 483.255L648.262 410.439Z" fill="url(#paint44_linear)"/>
<path d="M397.517 411.712L397.712 432.397L523.196 504.34L523.095 483.256L397.517 411.712Z" fill="#312A91"/>
<path opacity="0.7" d="M397.517 411.712L397.712 432.397L523.196 504.34L523.095 483.256L397.517 411.712Z" fill="url(#paint45_linear)"/>
<path d="M522.564 330.443L397.08 258.5L521.847 185.59L647.578 257.38L522.564 330.443Z" fill="#312A91"/>
<path d="M522.463 309.359L396.884 237.815L521.898 164.752L647.383 236.695L522.463 309.359Z" fill="#312A91"/>
<path opacity="0.7" d="M522.463 309.359L396.884 237.815L521.898 164.752L647.383 236.695L522.463 309.359Z" fill="url(#paint46_linear)"/>
<path d="M647.383 236.696L647.578 257.38L522.564 330.443L522.463 309.359L647.383 236.696Z" fill="url(#paint47_linear)"/>
<path d="M396.885 237.815L397.08 258.5L522.564 330.443L522.463 309.358L396.885 237.815Z" fill="#312A91"/>
<path opacity="0.7" d="M396.885 237.815L397.08 258.5L522.564 330.443L522.463 309.358L396.885 237.815Z" fill="url(#paint48_linear)"/>
<path opacity="0.3" d="M522.564 330.443L523.096 483.255L397.517 411.712L397.08 258.5L522.564 330.443Z" fill="#FCBA00"/>
<path opacity="0.3" d="M425.667 274.886L426.017 411.439L523.161 466.844L619.763 410.712L619.013 274.065L522.564 330.443L425.667 274.886Z" fill="#FCBA00"/>
<path opacity="0.3" d="M522.564 330.443L523.161 466.844L426.017 411.439L425.667 274.886L522.564 330.443Z" fill="#FCBA00"/>
<path opacity="0.5" d="M397.08 258.5L397.517 411.712L523.096 483.255L648.262 410.439L647.578 257.38L522.564 330.443L397.08 258.5Z" fill="#F7D900"/>
<path d="M399.867 237.671L523.555 165.772L521.898 164.752L396.884 237.815L522.463 309.359L524.095 308.688L399.867 237.671Z" fill="url(#paint49_linear)"/>
<path opacity="0.5" d="M397.079 258.5L397.517 411.712L399.42 412.579L398.736 259.52L397.079 258.5Z" fill="#FCBA00"/>
<path opacity="0.5" d="M647.578 257.38L648.262 410.439L646.536 411.509L645.852 258.45L647.578 257.38Z" fill="#FCBA00"/>
<path opacity="0.5" d="M522.564 330.443L519.651 328.496L520.089 481.708L523.096 483.255L526.207 481.667L525.523 328.609L522.564 330.443Z" fill="#FCBA00"/>
<path d="M671.373 590.866L545.888 518.922L671.055 446.106L796.387 517.803L671.373 590.866Z" fill="#312A91"/>
<path d="M671.425 570.028L545.694 498.238L670.861 425.421L796.439 496.965L671.425 570.028Z" fill="#312A91"/>
<g opacity="0.9">
<path opacity="0.9" d="M670.889 441.434L574.145 386.123L670.348 329.898L767.491 385.302L670.889 441.434Z" fill="url(#paint50_linear)"/>
<path opacity="0.9" d="M767.492 385.302L767.939 497.238L671.337 553.37L670.89 441.434L767.492 385.302Z" fill="url(#paint51_linear)"/>
<path opacity="0.9" d="M574.145 386.123L574.347 498.212L671.337 553.37L670.89 441.434L574.145 386.123Z" fill="url(#paint52_linear)"/>
</g>
<path opacity="0.7" d="M671.337 553.37L574.347 498.212L670.796 441.833L767.939 497.238L671.337 553.37Z" fill="url(#paint53_linear)"/>
<path d="M796.439 496.965L796.387 517.803L671.373 590.865L671.425 570.028L796.439 496.965Z" fill="url(#paint54_linear)"/>
<path d="M545.694 498.238L545.888 518.923L671.373 590.866L671.425 570.028L545.694 498.238Z" fill="#312A91"/>
<path opacity="0.7" d="M545.694 498.238L545.888 518.923L671.373 590.866L671.425 570.028L545.694 498.238Z" fill="url(#paint55_linear)"/>
<path d="M670.74 416.969L545.256 345.026L670.176 272.363L795.754 343.907L670.74 416.969Z" fill="#312A91"/>
<path d="M670.793 396.132L545.062 324.341L670.228 251.525L795.807 323.069L670.793 396.132Z" fill="#312A91"/>
<path opacity="0.7" d="M670.793 396.132L545.062 324.341L670.228 251.525L795.807 323.069L670.793 396.132Z" fill="url(#paint56_linear)"/>
<path d="M795.806 323.069L795.754 343.906L670.74 416.969L670.792 396.132L795.806 323.069Z" fill="url(#paint57_linear)"/>
<path d="M545.061 324.341L545.256 345.026L670.74 416.969L670.792 396.132L545.061 324.341Z" fill="#312A91"/>
<path opacity="0.7" d="M545.061 324.341L545.256 345.026L670.74 416.969L670.792 396.132L545.061 324.341Z" fill="url(#paint58_linear)"/>
<path opacity="0.3" d="M670.741 416.969L671.425 570.028L545.694 498.238L545.256 345.026L670.741 416.969Z" fill="#FCBA00"/>
<path opacity="0.3" d="M573.844 361.412L574.347 498.212L671.337 553.37L767.939 497.238L767.19 360.591L670.741 416.969L573.844 361.412Z" fill="#FCBA00"/>
<path opacity="0.3" d="M670.741 416.969L671.337 553.37L574.347 498.212L573.844 361.412L670.741 416.969Z" fill="#FCBA00"/>
<path opacity="0.5" d="M545.256 345.026L545.694 498.238L671.425 570.028L796.439 496.965L795.755 343.906L670.741 416.969L545.256 345.026Z" fill="#F7D900"/>
<path d="M548.044 324.198L671.732 252.298L670.228 251.525L545.062 324.341L670.793 396.132L672.272 395.214L548.044 324.198Z" fill="url(#paint59_linear)"/>
<path opacity="0.5" d="M545.256 345.026L545.694 498.238L547.597 499.105L546.912 346.046L545.256 345.026Z" fill="#FCBA00"/>
<path opacity="0.5" d="M795.755 343.906L796.439 496.965L794.713 498.035L794.029 344.976L795.755 343.906Z" fill="#FCBA00"/>
<path opacity="0.5" d="M670.74 416.969L667.827 415.023L668.265 568.235L671.424 570.028L674.383 568.194L673.699 415.135L670.74 416.969Z" fill="#FCBA00"/>
<path d="M377.507 589.195L252.175 517.499L376.943 444.589L502.674 516.379L377.507 589.195Z" fill="#312A91"/>
<path d="M377.559 568.358L251.828 496.568L376.995 423.751L502.479 495.694L377.559 568.358Z" fill="#312A91"/>
<g opacity="0.9">
<path opacity="0.9" d="M377.176 440.01L280.033 384.606L376.482 328.228L473.625 383.632L377.176 440.01Z" fill="url(#paint60_linear)"/>
<path opacity="0.9" d="M473.625 383.632L473.826 495.721L377.623 551.946L377.176 440.011L473.625 383.632Z" fill="url(#paint61_linear)"/>
<path opacity="0.9" d="M280.032 384.606L280.48 496.542L377.623 551.946L377.176 440.011L280.032 384.606Z" fill="url(#paint62_linear)"/>
</g>
<path opacity="0.7" d="M377.623 551.946L280.48 496.542L376.929 440.163L473.826 495.721L377.623 551.946Z" fill="url(#paint63_linear)"/>
<path d="M502.479 495.695L502.673 516.379L377.506 589.196L377.558 568.358L502.479 495.695Z" fill="url(#paint64_linear)"/>
<path d="M251.828 496.567L252.175 517.499L377.507 589.195L377.559 568.358L251.828 496.567Z" fill="#312A91"/>
<path opacity="0.7" d="M251.828 496.567L252.175 517.499L377.507 589.195L377.559 568.358L251.828 496.567Z" fill="url(#paint65_linear)"/>
<path d="M376.875 415.299L251.39 343.356L376.31 270.692L502.041 342.483L376.875 415.299Z" fill="#312A91"/>
<path d="M376.926 394.462L251.195 322.671L376.362 249.855L501.846 321.798L376.926 394.462Z" fill="#312A91"/>
<path opacity="0.7" d="M376.926 394.462L251.195 322.671L376.362 249.855L501.846 321.798L376.926 394.462Z" fill="url(#paint66_linear)"/>
<path d="M501.846 321.798L502.041 342.483L376.874 415.299L376.926 394.462L501.846 321.798Z" fill="url(#paint67_linear)"/>
<path d="M251.196 322.671L251.39 343.356L376.875 415.299L376.927 394.461L251.196 322.671Z" fill="#312A91"/>
<path opacity="0.7" d="M251.196 322.671L251.39 343.356L376.875 415.299L376.927 394.461L251.196 322.671Z" fill="url(#paint68_linear)"/>
<path opacity="0.3" d="M376.874 415.299L377.558 568.358L251.827 496.568L251.39 343.356L376.874 415.299Z" fill="#FCBA00"/>
<path opacity="0.3" d="M279.977 359.742L280.48 496.542L377.623 551.946L473.826 495.721L473.476 359.167L376.874 415.299L279.977 359.742Z" fill="#FCBA00"/>
<path opacity="0.3" d="M376.874 415.299L377.623 551.946L280.48 496.542L279.977 359.742L376.874 415.299Z" fill="#FCBA00"/>
<path opacity="0.5" d="M251.39 343.356L251.827 496.568L377.558 568.358L502.479 495.694L502.041 342.483L376.874 415.299L251.39 343.356Z" fill="#F7D900"/>
<path d="M254.33 322.774L377.865 250.629L376.362 249.855L251.195 322.671L376.926 394.462L378.405 393.545L254.33 322.774Z" fill="url(#paint69_linear)"/>
<path opacity="0.5" d="M251.39 343.356L251.827 496.568L253.483 497.587L253.198 344.622L251.39 343.356Z" fill="#FCBA00"/>
<path opacity="0.5" d="M502.041 342.483L502.479 495.694L500.847 496.365L500.315 343.553L502.041 342.483Z" fill="#FCBA00"/>
<path opacity="0.5" d="M376.874 415.299L374.114 413.599L374.552 566.811L377.559 568.358L380.271 566.676L379.833 413.465L376.874 415.299Z" fill="#FCBA00"/>
<path d="M525.683 675.722L400.352 604.025L525.119 531.115L650.85 602.905L525.683 675.722Z" fill="#312A91"/>
<path d="M525.735 654.884L400.157 583.34L525.171 510.278L650.656 582.221L525.735 654.884Z" fill="#312A91"/>
<g opacity="0.9">
<path opacity="0.9" d="M525.353 526.537L428.21 471.132L524.812 415L621.803 470.158L525.353 526.537Z" fill="url(#paint70_linear)"/>
<path opacity="0.9" d="M621.802 470.159L622.25 582.094L525.801 638.473L525.353 526.537L621.802 470.159Z" fill="url(#paint71_linear)"/>
<path opacity="0.9" d="M428.209 471.133L428.657 583.068L525.801 638.472L525.353 526.537L428.209 471.133Z" fill="url(#paint72_linear)"/>
</g>
<path opacity="0.7" d="M525.8 638.472L428.657 583.068L525.259 526.936L622.249 582.094L525.8 638.472Z" fill="url(#paint73_linear)"/>
<path d="M650.656 582.221L650.851 602.905L525.684 675.722L525.736 654.884L650.656 582.221Z" fill="url(#paint74_linear)"/>
<path d="M400.157 583.341L400.352 604.025L525.683 675.722L525.735 654.884L400.157 583.341Z" fill="#312A91"/>
<path opacity="0.7" d="M400.157 583.341L400.352 604.025L525.683 675.722L525.735 654.884L400.157 583.341Z" fill="url(#paint75_linear)"/>
<path d="M525.05 501.825L399.719 430.129L524.486 357.219L650.217 429.009L525.05 501.825Z" fill="#312A91"/>
<path d="M525.103 480.988L399.525 409.444L524.539 336.381L650.023 408.324L525.103 480.988Z" fill="#312A91"/>
<path opacity="0.7" d="M525.103 480.988L399.525 409.444L524.539 336.381L650.023 408.324L525.103 480.988Z" fill="url(#paint76_linear)"/>
<path d="M650.023 408.324L650.218 429.009L525.051 501.825L525.103 480.988L650.023 408.324Z" fill="url(#paint77_linear)"/>
<path d="M399.524 409.444L399.719 430.129L525.051 501.826L525.103 480.988L399.524 409.444Z" fill="#312A91"/>
<path opacity="0.7" d="M399.524 409.444L399.719 430.129L525.051 501.826L525.103 480.988L399.524 409.444Z" fill="url(#paint78_linear)"/>
<path opacity="0.3" d="M525.051 501.825L525.736 654.884L400.157 583.34L399.72 430.129L525.051 501.825Z" fill="#FCBA00"/>
<path opacity="0.3" d="M428.307 446.515L428.657 583.068L525.8 638.472L622.249 582.094L621.653 445.693L525.051 501.825L428.307 446.515Z" fill="#FCBA00"/>
<path opacity="0.3" d="M525.051 501.825L525.8 638.472L428.657 583.068L428.307 446.515L525.051 501.825Z" fill="#FCBA00"/>
<path opacity="0.5" d="M399.72 430.129L400.157 583.34L525.736 654.884L650.656 582.22L650.218 429.009L525.051 501.825L399.72 430.129Z" fill="#F7D900"/>
<path d="M402.508 409.3L526.042 337.155L524.539 336.381L399.525 409.444L525.103 480.988L526.582 480.071L402.508 409.3Z" fill="url(#paint79_linear)"/>
<path opacity="0.5" d="M399.719 430.129L400.157 583.34L402.06 584.207L401.375 431.148L399.719 430.129Z" fill="#FCBA00"/>
<path opacity="0.5" d="M650.218 429.009L650.656 582.221L649.176 583.138L648.492 430.079L650.218 429.009Z" fill="#FCBA00"/>
<path opacity="0.5" d="M525.051 501.826L522.291 500.126L522.728 653.337L525.735 654.884L528.846 653.297L528.162 500.238L525.051 501.826Z" fill="#FCBA00"/>
<defs>
<linearGradient id="paint0_linear" x1="769.955" y1="577.149" x2="409.375" y2="504.401" gradientUnits="userSpaceOnUse">
<stop stop-color="#231F20"/>
<stop offset="0.0946678" stop-color="#2C2521"/>
<stop offset="0.2458" stop-color="#433724"/>
<stop offset="0.4345" stop-color="#69542A"/>
<stop offset="0.6534" stop-color="#9D7B31"/>
<stop offset="0.8948" stop-color="#E0AD3B"/>
<stop offset="1" stop-color="#FFC53F"/>
</linearGradient>
<linearGradient id="paint1_linear" x1="660.608" y1="668.266" x2="415.297" y2="510.272" gradientUnits="userSpaceOnUse">
<stop stop-color="#231F20"/>
<stop offset="0.0946678" stop-color="#2C2521"/>
<stop offset="0.2458" stop-color="#433724"/>
<stop offset="0.4345" stop-color="#69542A"/>
<stop offset="0.6534" stop-color="#9D7B31"/>
<stop offset="0.8948" stop-color="#E0AD3B"/>
<stop offset="1" stop-color="#FFC53F"/>
</linearGradient>
<linearGradient id="paint2_linear" x1="592.044" y1="673.296" x2="393.732" y2="568.507" gradientUnits="userSpaceOnUse">
<stop stop-color="#231F20"/>
<stop offset="0.0946678" stop-color="#2C2521"/>
<stop offset="0.2458" stop-color="#433724"/>
<stop offset="0.4345" stop-color="#69542A"/>
<stop offset="0.6534" stop-color="#9D7B31"/>
<stop offset="0.8948" stop-color="#E0AD3B"/>
<stop offset="1" stop-color="#FFC53F"/>
</linearGradient>
<linearGradient id="paint3_linear" x1="689.917" y1="729.731" x2="431.921" y2="589.521" gradientUnits="userSpaceOnUse">
<stop stop-color="#231F20"/>
<stop offset="0.0946678" stop-color="#2C2521"/>
<stop offset="0.2458" stop-color="#433724"/>
<stop offset="0.4345" stop-color="#69542A"/>
<stop offset="0.6534" stop-color="#9D7B31"/>
<stop offset="0.8948" stop-color="#E0AD3B"/>
<stop offset="1" stop-color="#FFC53F"/>
</linearGradient>
<linearGradient id="paint4_linear" x1="482.244" y1="686.276" x2="661.357" y2="685.594" gradientUnits="userSpaceOnUse">
<stop stop-color="#2B237C"/>
<stop offset="1" stop-color="#180D5B"/>
</linearGradient>
<linearGradient id="paint5_linear" x1="537.165" y1="729.075" x2="373.74" y2="636.997" gradientUnits="userSpaceOnUse">
<stop stop-color="#231F20"/>
<stop offset="0.0946678" stop-color="#2C2521"/>
<stop offset="0.2458" stop-color="#433724"/>
<stop offset="0.4345" stop-color="#69542A"/>
<stop offset="0.6534" stop-color="#9D7B31"/>
<stop offset="0.8948" stop-color="#E0AD3B"/>
<stop offset="1" stop-color="#FFC53F"/>
</linearGradient>
<linearGradient id="paint6_linear" x1="606.816" y1="519.505" x2="396.218" y2="383.868" gradientUnits="userSpaceOnUse">
<stop stop-color="#231F20"/>
<stop offset="0.0946678" stop-color="#2C2521"/>
<stop offset="0.2458" stop-color="#433724"/>
<stop offset="0.4345" stop-color="#69542A"/>
<stop offset="0.6534" stop-color="#9D7B31"/>
<stop offset="0.8948" stop-color="#E0AD3B"/>
<stop offset="1" stop-color="#FFC53F"/>
</linearGradient>
<linearGradient id="paint7_linear" x1="481.594" y1="512.373" x2="660.707" y2="511.691" gradientUnits="userSpaceOnUse">
<stop stop-color="#2B237C"/>
<stop offset="1" stop-color="#180D5B"/>
</linearGradient>
<linearGradient id="paint8_linear" x1="515.599" y1="543.147" x2="368.527" y2="460.968" gradientUnits="userSpaceOnUse">
<stop stop-color="#231F20"/>
<stop offset="0.0946678" stop-color="#2C2521"/>
<stop offset="0.2458" stop-color="#433724"/>
<stop offset="0.4345" stop-color="#69542A"/>
<stop offset="0.6534" stop-color="#9D7B31"/>
<stop offset="0.8948" stop-color="#E0AD3B"/>
<stop offset="1" stop-color="#FFC53F"/>
</linearGradient>
<linearGradient id="paint9_linear" x1="564.857" y1="474.87" x2="395.799" y2="437.363" gradientUnits="userSpaceOnUse">
<stop stop-color="#231F20"/>
<stop offset="0.0946678" stop-color="#2C2521"/>
<stop offset="0.2458" stop-color="#433724"/>
<stop offset="0.4345" stop-color="#69542A"/>
<stop offset="0.6534" stop-color="#9D7B31"/>
<stop offset="0.8948" stop-color="#E0AD3B"/>
<stop offset="1" stop-color="#FFC53F"/>
</linearGradient>
<linearGradient id="paint10_linear" x1="918.194" y1="663.735" x2="557.614" y2="590.987" gradientUnits="userSpaceOnUse">
<stop stop-color="#231F20"/>
<stop offset="0.0946678" stop-color="#2C2521"/>
<stop offset="0.2458" stop-color="#433724"/>
<stop offset="0.4345" stop-color="#69542A"/>
<stop offset="0.6534" stop-color="#9D7B31"/>
<stop offset="0.8948" stop-color="#E0AD3B"/>
<stop offset="1" stop-color="#FFC53F"/>
</linearGradient>
<linearGradient id="paint11_linear" x1="808.846" y1="754.853" x2="563.535" y2="596.858" gradientUnits="userSpaceOnUse">
<stop stop-color="#231F20"/>
<stop offset="0.0946678" stop-color="#2C2521"/>
<stop offset="0.2458" stop-color="#433724"/>
<stop offset="0.4345" stop-color="#69542A"/>
<stop offset="0.6534" stop-color="#9D7B31"/>
<stop offset="0.8948" stop-color="#E0AD3B"/>
<stop offset="1" stop-color="#FFC53F"/>
</linearGradient>
<linearGradient id="paint12_linear" x1="740.283" y1="759.882" x2="541.97" y2="655.093" gradientUnits="userSpaceOnUse">
<stop stop-color="#231F20"/>
<stop offset="0.0946678" stop-color="#2C2521"/>
<stop offset="0.2458" stop-color="#433724"/>
<stop offset="0.4345" stop-color="#69542A"/>
<stop offset="0.6534" stop-color="#9D7B31"/>
<stop offset="0.8948" stop-color="#E0AD3B"/>
<stop offset="1" stop-color="#FFC53F"/>
</linearGradient>
<linearGradient id="paint13_linear" x1="838.157" y1="816.318" x2="580.16" y2="676.108" gradientUnits="userSpaceOnUse">
<stop stop-color="#231F20"/>
<stop offset="0.0946678" stop-color="#2C2521"/>
<stop offset="0.2458" stop-color="#433724"/>
<stop offset="0.4345" stop-color="#69542A"/>
<stop offset="0.6534" stop-color="#9D7B31"/>
<stop offset="0.8948" stop-color="#E0AD3B"/>
<stop offset="1" stop-color="#FFC53F"/>
</linearGradient>
<linearGradient id="paint14_linear" x1="630.484" y1="772.862" x2="809.597" y2="772.18" gradientUnits="userSpaceOnUse">
<stop stop-color="#2B237C"/>
<stop offset="1" stop-color="#180D5B"/>
</linearGradient>
<linearGradient id="paint15_linear" x1="685.405" y1="815.661" x2="521.98" y2="723.583" gradientUnits="userSpaceOnUse">
<stop stop-color="#231F20"/>
<stop offset="0.0946678" stop-color="#2C2521"/>
<stop offset="0.2458" stop-color="#433724"/>
<stop offset="0.4345" stop-color="#69542A"/>
<stop offset="0.6534" stop-color="#9D7B31"/>
<stop offset="0.8948" stop-color="#E0AD3B"/>
<stop offset="1" stop-color="#FFC53F"/>
</linearGradient>
<linearGradient id="paint16_linear" x1="755.055" y1="606.092" x2="544.457" y2="470.455" gradientUnits="userSpaceOnUse">
<stop stop-color="#231F20"/>
<stop offset="0.0946678" stop-color="#2C2521"/>
<stop offset="0.2458" stop-color="#433724"/>
<stop offset="0.4345" stop-color="#69542A"/>
<stop offset="0.6534" stop-color="#9D7B31"/>
<stop offset="0.8948" stop-color="#E0AD3B"/>
<stop offset="1" stop-color="#FFC53F"/>
</linearGradient>
<linearGradient id="paint17_linear" x1="629.832" y1="598.959" x2="808.946" y2="598.277" gradientUnits="userSpaceOnUse">
<stop stop-color="#2B237C"/>
<stop offset="1" stop-color="#180D5B"/>
</linearGradient>
<linearGradient id="paint18_linear" x1="663.839" y1="629.733" x2="516.768" y2="547.554" gradientUnits="userSpaceOnUse">
<stop stop-color="#231F20"/>
<stop offset="0.0946678" stop-color="#2C2521"/>
<stop offset="0.2458" stop-color="#433724"/>
<stop offset="0.4345" stop-color="#69542A"/>
<stop offset="0.6534" stop-color="#9D7B31"/>
<stop offset="0.8948" stop-color="#E0AD3B"/>
<stop offset="1" stop-color="#FFC53F"/>
</linearGradient>
<linearGradient id="paint19_linear" x1="713.096" y1="561.457" x2="544.038" y2="523.95" gradientUnits="userSpaceOnUse">
<stop stop-color="#231F20"/>
<stop offset="0.0946678" stop-color="#2C2521"/>
<stop offset="0.2458" stop-color="#433724"/>
<stop offset="0.4345" stop-color="#69542A"/>
<stop offset="0.6534" stop-color="#9D7B31"/>
<stop offset="0.8948" stop-color="#E0AD3B"/>
<stop offset="1" stop-color="#FFC53F"/>
</linearGradient>
<linearGradient id="paint20_linear" x1="624.321" y1="662.172" x2="263.741" y2="589.425" gradientUnits="userSpaceOnUse">
<stop stop-color="#231F20"/>
<stop offset="0.0946678" stop-color="#2C2521"/>
<stop offset="0.2458" stop-color="#433724"/>
<stop offset="0.4345" stop-color="#69542A"/>
<stop offset="0.6534" stop-color="#9D7B31"/>
<stop offset="0.8948" stop-color="#E0AD3B"/>
<stop offset="1" stop-color="#FFC53F"/>
</linearGradient>
<linearGradient id="paint21_linear" x1="514.972" y1="753.289" x2="269.662" y2="595.296" gradientUnits="userSpaceOnUse">
<stop stop-color="#231F20"/>
<stop offset="0.0946678" stop-color="#2C2521"/>
<stop offset="0.2458" stop-color="#433724"/>
<stop offset="0.4345" stop-color="#69542A"/>
<stop offset="0.6534" stop-color="#9D7B31"/>
<stop offset="0.8948" stop-color="#E0AD3B"/>
<stop offset="1" stop-color="#FFC53F"/>
</linearGradient>
<linearGradient id="paint22_linear" x1="446.409" y1="758.319" x2="248.097" y2="653.53" gradientUnits="userSpaceOnUse">
<stop stop-color="#231F20"/>
<stop offset="0.0946678" stop-color="#2C2521"/>
<stop offset="0.2458" stop-color="#433724"/>
<stop offset="0.4345" stop-color="#69542A"/>
<stop offset="0.6534" stop-color="#9D7B31"/>
<stop offset="0.8948" stop-color="#E0AD3B"/>
<stop offset="1" stop-color="#FFC53F"/>
</linearGradient>
<linearGradient id="paint23_linear" x1="544.283" y1="814.755" x2="286.287" y2="674.545" gradientUnits="userSpaceOnUse">
<stop stop-color="#231F20"/>
<stop offset="0.0946678" stop-color="#2C2521"/>
<stop offset="0.2458" stop-color="#433724"/>
<stop offset="0.4345" stop-color="#69542A"/>
<stop offset="0.6534" stop-color="#9D7B31"/>
<stop offset="0.8948" stop-color="#E0AD3B"/>
<stop offset="1" stop-color="#FFC53F"/>
</linearGradient>
<linearGradient id="paint24_linear" x1="336.61" y1="771.299" x2="515.724" y2="770.617" gradientUnits="userSpaceOnUse">
<stop stop-color="#2B237C"/>
<stop offset="1" stop-color="#180D5B"/>
</linearGradient>
<linearGradient id="paint25_linear" x1="391.531" y1="814.099" x2="228.106" y2="722.021" gradientUnits="userSpaceOnUse">
<stop stop-color="#231F20"/>
<stop offset="0.0946678" stop-color="#2C2521"/>
<stop offset="0.2458" stop-color="#433724"/>
<stop offset="0.4345" stop-color="#69542A"/>
<stop offset="0.6534" stop-color="#9D7B31"/>
<stop offset="0.8948" stop-color="#E0AD3B"/>
<stop offset="1" stop-color="#FFC53F"/>
</linearGradient>
<linearGradient id="paint26_linear" x1="461.181" y1="604.529" x2="250.583" y2="468.892" gradientUnits="userSpaceOnUse">
<stop stop-color="#231F20"/>
<stop offset="0.0946678" stop-color="#2C2521"/>
<stop offset="0.2458" stop-color="#433724"/>
<stop offset="0.4345" stop-color="#69542A"/>
<stop offset="0.6534" stop-color="#9D7B31"/>
<stop offset="0.8948" stop-color="#E0AD3B"/>
<stop offset="1" stop-color="#FFC53F"/>
</linearGradient>
<linearGradient id="paint27_linear" x1="335.959" y1="597.397" x2="515.073" y2="596.715" gradientUnits="userSpaceOnUse">
<stop stop-color="#2B237C"/>
<stop offset="1" stop-color="#180D5B"/>
</linearGradient>
<linearGradient id="paint28_linear" x1="369.964" y1="628.172" x2="222.893" y2="545.992" gradientUnits="userSpaceOnUse">
<stop stop-color="#231F20"/>
<stop offset="0.0946678" stop-color="#2C2521"/>
<stop offset="0.2458" stop-color="#433724"/>
<stop offset="0.4345" stop-color="#69542A"/>
<stop offset="0.6534" stop-color="#9D7B31"/>
<stop offset="0.8948" stop-color="#E0AD3B"/>
<stop offset="1" stop-color="#FFC53F"/>
</linearGradient>
<linearGradient id="paint29_linear" x1="419.223" y1="559.894" x2="250.164" y2="522.387" gradientUnits="userSpaceOnUse">
<stop stop-color="#231F20"/>
<stop offset="0.0946678" stop-color="#2C2521"/>
<stop offset="0.2458" stop-color="#433724"/>
<stop offset="0.4345" stop-color="#69542A"/>
<stop offset="0.6534" stop-color="#9D7B31"/>
<stop offset="0.8948" stop-color="#E0AD3B"/>
<stop offset="1" stop-color="#FFC53F"/>
</linearGradient>
<linearGradient id="paint30_linear" x1="772.56" y1="748.759" x2="411.979" y2="676.011" gradientUnits="userSpaceOnUse">
<stop stop-color="#231F20"/>
<stop offset="0.0946678" stop-color="#2C2521"/>
<stop offset="0.2458" stop-color="#433724"/>
<stop offset="0.4345" stop-color="#69542A"/>
<stop offset="0.6534" stop-color="#9D7B31"/>
<stop offset="0.8948" stop-color="#E0AD3B"/>
<stop offset="1" stop-color="#FFC53F"/>
</linearGradient>
<linearGradient id="paint31_linear" x1="663.212" y1="839.876" x2="417.902" y2="681.883" gradientUnits="userSpaceOnUse">
<stop stop-color="#231F20"/>
<stop offset="0.0946678" stop-color="#2C2521"/>
<stop offset="0.2458" stop-color="#433724"/>
<stop offset="0.4345" stop-color="#69542A"/>
<stop offset="0.6534" stop-color="#9D7B31"/>
<stop offset="0.8948" stop-color="#E0AD3B"/>
<stop offset="1" stop-color="#FFC53F"/>
</linearGradient>
<linearGradient id="paint32_linear" x1="594.648" y1="844.906" x2="396.336" y2="740.117" gradientUnits="userSpaceOnUse">
<stop stop-color="#231F20"/>
<stop offset="0.0946678" stop-color="#2C2521"/>
<stop offset="0.2458" stop-color="#433724"/>
<stop offset="0.4345" stop-color="#69542A"/>
<stop offset="0.6534" stop-color="#9D7B31"/>
<stop offset="0.8948" stop-color="#E0AD3B"/>
<stop offset="1" stop-color="#FFC53F"/>
</linearGradient>
<linearGradient id="paint33_linear" x1="692.522" y1="901.342" x2="434.526" y2="761.132" gradientUnits="userSpaceOnUse">
<stop stop-color="#231F20"/>
<stop offset="0.0946678" stop-color="#2C2521"/>
<stop offset="0.2458" stop-color="#433724"/>
<stop offset="0.4345" stop-color="#69542A"/>
<stop offset="0.6534" stop-color="#9D7B31"/>
<stop offset="0.8948" stop-color="#E0AD3B"/>
<stop offset="1" stop-color="#FFC53F"/>
</linearGradient>
<linearGradient id="paint34_linear" x1="484.849" y1="857.885" x2="663.963" y2="857.203" gradientUnits="userSpaceOnUse">
<stop stop-color="#2B237C"/>
<stop offset="1" stop-color="#180D5B"/>
</linearGradient>
<linearGradient id="paint35_linear" x1="539.771" y1="900.684" x2="376.346" y2="808.607" gradientUnits="userSpaceOnUse">
<stop stop-color="#231F20"/>
<stop offset="0.0946678" stop-color="#2C2521"/>
<stop offset="0.2458" stop-color="#433724"/>
<stop offset="0.4345" stop-color="#69542A"/>
<stop offset="0.6534" stop-color="#9D7B31"/>
<stop offset="0.8948" stop-color="#E0AD3B"/>
<stop offset="1" stop-color="#FFC53F"/>
</linearGradient>
<linearGradient id="paint36_linear" x1="609.421" y1="691.116" x2="398.822" y2="555.479" gradientUnits="userSpaceOnUse">
<stop stop-color="#231F20"/>
<stop offset="0.0946678" stop-color="#2C2521"/>
<stop offset="0.2458" stop-color="#433724"/>
<stop offset="0.4345" stop-color="#69542A"/>
<stop offset="0.6534" stop-color="#9D7B31"/>
<stop offset="0.8948" stop-color="#E0AD3B"/>
<stop offset="1" stop-color="#FFC53F"/>
</linearGradient>
<linearGradient id="paint37_linear" x1="484.198" y1="683.983" x2="663.312" y2="683.301" gradientUnits="userSpaceOnUse">
<stop stop-color="#2B237C"/>
<stop offset="1" stop-color="#180D5B"/>
</linearGradient>
<linearGradient id="paint38_linear" x1="518.204" y1="714.757" x2="371.133" y2="632.578" gradientUnits="userSpaceOnUse">
<stop stop-color="#231F20"/>
<stop offset="0.0946678" stop-color="#2C2521"/>
<stop offset="0.2458" stop-color="#433724"/>
<stop offset="0.4345" stop-color="#69542A"/>
<stop offset="0.6534" stop-color="#9D7B31"/>
<stop offset="0.8948" stop-color="#E0AD3B"/>
<stop offset="1" stop-color="#FFC53F"/>
</linearGradient>
<linearGradient id="paint39_linear" x1="567.461" y1="646.48" x2="398.403" y2="608.974" gradientUnits="userSpaceOnUse">
<stop stop-color="#231F20"/>
<stop offset="0.0946678" stop-color="#2C2521"/>
<stop offset="0.2458" stop-color="#433724"/>
<stop offset="0.4345" stop-color="#69542A"/>
<stop offset="0.6534" stop-color="#9D7B31"/>
<stop offset="0.8948" stop-color="#E0AD3B"/>
<stop offset="1" stop-color="#FFC53F"/>
</linearGradient>
<linearGradient id="paint40_linear" x1="769.099" y1="348.684" x2="408.519" y2="275.936" gradientUnits="userSpaceOnUse">
<stop stop-color="#231F20"/>
<stop offset="0.0946678" stop-color="#2C2521"/>
<stop offset="0.2458" stop-color="#433724"/>
<stop offset="0.4345" stop-color="#69542A"/>
<stop offset="0.6534" stop-color="#9D7B31"/>
<stop offset="0.8948" stop-color="#E0AD3B"/>
<stop offset="1" stop-color="#FFC53F"/>
</linearGradient>
<linearGradient id="paint41_linear" x1="659.752" y1="439.801" x2="414.441" y2="281.807" gradientUnits="userSpaceOnUse">
<stop stop-color="#231F20"/>
<stop offset="0.0946678" stop-color="#2C2521"/>
<stop offset="0.2458" stop-color="#433724"/>
<stop offset="0.4345" stop-color="#69542A"/>
<stop offset="0.6534" stop-color="#9D7B31"/>
<stop offset="0.8948" stop-color="#E0AD3B"/>
<stop offset="1" stop-color="#FFC53F"/>
</linearGradient>
<linearGradient id="paint42_linear" x1="591.188" y1="444.831" x2="392.876" y2="340.042" gradientUnits="userSpaceOnUse">
<stop stop-color="#231F20"/>
<stop offset="0.0946678" stop-color="#2C2521"/>
<stop offset="0.2458" stop-color="#433724"/>
<stop offset="0.4345" stop-color="#69542A"/>
<stop offset="0.6534" stop-color="#9D7B31"/>
<stop offset="0.8948" stop-color="#E0AD3B"/>
<stop offset="1" stop-color="#FFC53F"/>
</linearGradient>
<linearGradient id="paint43_linear" x1="689.062" y1="501.267" x2="431.065" y2="361.056" gradientUnits="userSpaceOnUse">
<stop stop-color="#231F20"/>
<stop offset="0.0946678" stop-color="#2C2521"/>
<stop offset="0.2458" stop-color="#433724"/>
<stop offset="0.4345" stop-color="#69542A"/>
<stop offset="0.6534" stop-color="#9D7B31"/>
<stop offset="0.8948" stop-color="#E0AD3B"/>
<stop offset="1" stop-color="#FFC53F"/>
</linearGradient>
<linearGradient id="paint44_linear" x1="481.389" y1="457.81" x2="660.502" y2="457.128" gradientUnits="userSpaceOnUse">
<stop stop-color="#2B237C"/>
<stop offset="1" stop-color="#180D5B"/>
</linearGradient>
<linearGradient id="paint45_linear" x1="536.31" y1="500.61" x2="372.885" y2="408.532" gradientUnits="userSpaceOnUse">
<stop stop-color="#231F20"/>
<stop offset="0.0946678" stop-color="#2C2521"/>
<stop offset="0.2458" stop-color="#433724"/>
<stop offset="0.4345" stop-color="#69542A"/>
<stop offset="0.6534" stop-color="#9D7B31"/>
<stop offset="0.8948" stop-color="#E0AD3B"/>
<stop offset="1" stop-color="#FFC53F"/>
</linearGradient>
<linearGradient id="paint46_linear" x1="605.96" y1="291.041" x2="395.362" y2="155.404" gradientUnits="userSpaceOnUse">
<stop stop-color="#231F20"/>
<stop offset="0.0946678" stop-color="#2C2521"/>
<stop offset="0.2458" stop-color="#433724"/>
<stop offset="0.4345" stop-color="#69542A"/>
<stop offset="0.6534" stop-color="#9D7B31"/>
<stop offset="0.8948" stop-color="#E0AD3B"/>
<stop offset="1" stop-color="#FFC53F"/>
</linearGradient>
<linearGradient id="paint47_linear" x1="480.738" y1="283.908" x2="659.851" y2="283.226" gradientUnits="userSpaceOnUse">
<stop stop-color="#2B237C"/>
<stop offset="1" stop-color="#180D5B"/>
</linearGradient>
<linearGradient id="paint48_linear" x1="514.744" y1="314.682" x2="367.673" y2="232.502" gradientUnits="userSpaceOnUse">
<stop stop-color="#231F20"/>
<stop offset="0.0946678" stop-color="#2C2521"/>
<stop offset="0.2458" stop-color="#433724"/>
<stop offset="0.4345" stop-color="#69542A"/>
<stop offset="0.6534" stop-color="#9D7B31"/>
<stop offset="0.8948" stop-color="#E0AD3B"/>
<stop offset="1" stop-color="#FFC53F"/>
</linearGradient>
<linearGradient id="paint49_linear" x1="564.001" y1="246.405" x2="394.943" y2="208.899" gradientUnits="userSpaceOnUse">
<stop stop-color="#231F20"/>
<stop offset="0.0946678" stop-color="#2C2521"/>
<stop offset="0.2458" stop-color="#433724"/>
<stop offset="0.4345" stop-color="#69542A"/>
<stop offset="0.6534" stop-color="#9D7B31"/>
<stop offset="0.8948" stop-color="#E0AD3B"/>
<stop offset="1" stop-color="#FFC53F"/>
</linearGradient>
<linearGradient id="paint50_linear" x1="917.338" y1="435.271" x2="556.758" y2="362.523" gradientUnits="userSpaceOnUse">
<stop stop-color="#231F20"/>
<stop offset="0.0946678" stop-color="#2C2521"/>
<stop offset="0.2458" stop-color="#433724"/>
<stop offset="0.4345" stop-color="#69542A"/>
<stop offset="0.6534" stop-color="#9D7B31"/>
<stop offset="0.8948" stop-color="#E0AD3B"/>
<stop offset="1" stop-color="#FFC53F"/>
</linearGradient>
<linearGradient id="paint51_linear" x1="807.992" y1="526.387" x2="562.681" y2="368.393" gradientUnits="userSpaceOnUse">
<stop stop-color="#231F20"/>
<stop offset="0.0946678" stop-color="#2C2521"/>
<stop offset="0.2458" stop-color="#433724"/>
<stop offset="0.4345" stop-color="#69542A"/>
<stop offset="0.6534" stop-color="#9D7B31"/>
<stop offset="0.8948" stop-color="#E0AD3B"/>
<stop offset="1" stop-color="#FFC53F"/>
</linearGradient>
<linearGradient id="paint52_linear" x1="739.428" y1="531.417" x2="541.116" y2="426.628" gradientUnits="userSpaceOnUse">
<stop stop-color="#231F20"/>
<stop offset="0.0946678" stop-color="#2C2521"/>
<stop offset="0.2458" stop-color="#433724"/>
<stop offset="0.4345" stop-color="#69542A"/>
<stop offset="0.6534" stop-color="#9D7B31"/>
<stop offset="0.8948" stop-color="#E0AD3B"/>
<stop offset="1" stop-color="#FFC53F"/>
</linearGradient>
<linearGradient id="paint53_linear" x1="837.302" y1="587.853" x2="579.305" y2="447.642" gradientUnits="userSpaceOnUse">
<stop stop-color="#231F20"/>
<stop offset="0.0946678" stop-color="#2C2521"/>
<stop offset="0.2458" stop-color="#433724"/>
<stop offset="0.4345" stop-color="#69542A"/>
<stop offset="0.6534" stop-color="#9D7B31"/>
<stop offset="0.8948" stop-color="#E0AD3B"/>
<stop offset="1" stop-color="#FFC53F"/>
</linearGradient>
<linearGradient id="paint54_linear" x1="629.629" y1="544.396" x2="808.742" y2="543.715" gradientUnits="userSpaceOnUse">
<stop stop-color="#2B237C"/>
<stop offset="1" stop-color="#180D5B"/>
</linearGradient>
<linearGradient id="paint55_linear" x1="684.55" y1="587.196" x2="521.124" y2="495.118" gradientUnits="userSpaceOnUse">
<stop stop-color="#231F20"/>
<stop offset="0.0946678" stop-color="#2C2521"/>
<stop offset="0.2458" stop-color="#433724"/>
<stop offset="0.4345" stop-color="#69542A"/>
<stop offset="0.6534" stop-color="#9D7B31"/>
<stop offset="0.8948" stop-color="#E0AD3B"/>
<stop offset="1" stop-color="#FFC53F"/>
</linearGradient>
<linearGradient id="paint56_linear" x1="754.2" y1="377.627" x2="543.602" y2="241.99" gradientUnits="userSpaceOnUse">
<stop stop-color="#231F20"/>
<stop offset="0.0946678" stop-color="#2C2521"/>
<stop offset="0.2458" stop-color="#433724"/>
<stop offset="0.4345" stop-color="#69542A"/>
<stop offset="0.6534" stop-color="#9D7B31"/>
<stop offset="0.8948" stop-color="#E0AD3B"/>
<stop offset="1" stop-color="#FFC53F"/>
</linearGradient>
<linearGradient id="paint57_linear" x1="628.978" y1="370.494" x2="808.091" y2="369.812" gradientUnits="userSpaceOnUse">
<stop stop-color="#2B237C"/>
<stop offset="1" stop-color="#180D5B"/>
</linearGradient>
<linearGradient id="paint58_linear" x1="662.983" y1="401.269" x2="515.912" y2="319.089" gradientUnits="userSpaceOnUse">
<stop stop-color="#231F20"/>
<stop offset="0.0946678" stop-color="#2C2521"/>
<stop offset="0.2458" stop-color="#433724"/>
<stop offset="0.4345" stop-color="#69542A"/>
<stop offset="0.6534" stop-color="#9D7B31"/>
<stop offset="0.8948" stop-color="#E0AD3B"/>
<stop offset="1" stop-color="#FFC53F"/>
</linearGradient>
<linearGradient id="paint59_linear" x1="712.241" y1="332.991" x2="543.183" y2="295.485" gradientUnits="userSpaceOnUse">
<stop stop-color="#231F20"/>
<stop offset="0.0946678" stop-color="#2C2521"/>
<stop offset="0.2458" stop-color="#433724"/>
<stop offset="0.4345" stop-color="#69542A"/>
<stop offset="0.6534" stop-color="#9D7B31"/>
<stop offset="0.8948" stop-color="#E0AD3B"/>
<stop offset="1" stop-color="#FFC53F"/>
</linearGradient>
<linearGradient id="paint60_linear" x1="623.465" y1="433.708" x2="262.885" y2="360.96" gradientUnits="userSpaceOnUse">
<stop stop-color="#231F20"/>
<stop offset="0.0946678" stop-color="#2C2521"/>
<stop offset="0.2458" stop-color="#433724"/>
<stop offset="0.4345" stop-color="#69542A"/>
<stop offset="0.6534" stop-color="#9D7B31"/>
<stop offset="0.8948" stop-color="#E0AD3B"/>
<stop offset="1" stop-color="#FFC53F"/>
</linearGradient>
<linearGradient id="paint61_linear" x1="514.118" y1="524.825" x2="268.807" y2="366.831" gradientUnits="userSpaceOnUse">
<stop stop-color="#231F20"/>
<stop offset="0.0946678" stop-color="#2C2521"/>
<stop offset="0.2458" stop-color="#433724"/>
<stop offset="0.4345" stop-color="#69542A"/>
<stop offset="0.6534" stop-color="#9D7B31"/>
<stop offset="0.8948" stop-color="#E0AD3B"/>
<stop offset="1" stop-color="#FFC53F"/>
</linearGradient>
<linearGradient id="paint62_linear" x1="445.554" y1="529.855" x2="247.241" y2="425.066" gradientUnits="userSpaceOnUse">
<stop stop-color="#231F20"/>
<stop offset="0.0946678" stop-color="#2C2521"/>
<stop offset="0.2458" stop-color="#433724"/>
<stop offset="0.4345" stop-color="#69542A"/>
<stop offset="0.6534" stop-color="#9D7B31"/>
<stop offset="0.8948" stop-color="#E0AD3B"/>
<stop offset="1" stop-color="#FFC53F"/>
</linearGradient>
<linearGradient id="paint63_linear" x1="543.428" y1="586.291" x2="285.431" y2="446.08" gradientUnits="userSpaceOnUse">
<stop stop-color="#231F20"/>
<stop offset="0.0946678" stop-color="#2C2521"/>
<stop offset="0.2458" stop-color="#433724"/>
<stop offset="0.4345" stop-color="#69542A"/>
<stop offset="0.6534" stop-color="#9D7B31"/>
<stop offset="0.8948" stop-color="#E0AD3B"/>
<stop offset="1" stop-color="#FFC53F"/>
</linearGradient>
<linearGradient id="paint64_linear" x1="335.755" y1="542.834" x2="514.868" y2="542.152" gradientUnits="userSpaceOnUse">
<stop stop-color="#2B237C"/>
<stop offset="1" stop-color="#180D5B"/>
</linearGradient>
<linearGradient id="paint65_linear" x1="390.676" y1="585.633" x2="227.251" y2="493.556" gradientUnits="userSpaceOnUse">
<stop stop-color="#231F20"/>
<stop offset="0.0946678" stop-color="#2C2521"/>
<stop offset="0.2458" stop-color="#433724"/>
<stop offset="0.4345" stop-color="#69542A"/>
<stop offset="0.6534" stop-color="#9D7B31"/>
<stop offset="0.8948" stop-color="#E0AD3B"/>
<stop offset="1" stop-color="#FFC53F"/>
</linearGradient>
<linearGradient id="paint66_linear" x1="460.326" y1="376.064" x2="249.727" y2="240.428" gradientUnits="userSpaceOnUse">
<stop stop-color="#231F20"/>
<stop offset="0.0946678" stop-color="#2C2521"/>
<stop offset="0.2458" stop-color="#433724"/>
<stop offset="0.4345" stop-color="#69542A"/>
<stop offset="0.6534" stop-color="#9D7B31"/>
<stop offset="0.8948" stop-color="#E0AD3B"/>
<stop offset="1" stop-color="#FFC53F"/>
</linearGradient>
<linearGradient id="paint67_linear" x1="335.104" y1="368.932" x2="514.217" y2="368.25" gradientUnits="userSpaceOnUse">
<stop stop-color="#2B237C"/>
<stop offset="1" stop-color="#180D5B"/>
</linearGradient>
<linearGradient id="paint68_linear" x1="369.11" y1="399.706" x2="222.039" y2="317.526" gradientUnits="userSpaceOnUse">
<stop stop-color="#231F20"/>
<stop offset="0.0946678" stop-color="#2C2521"/>
<stop offset="0.2458" stop-color="#433724"/>
<stop offset="0.4345" stop-color="#69542A"/>
<stop offset="0.6534" stop-color="#9D7B31"/>
<stop offset="0.8948" stop-color="#E0AD3B"/>
<stop offset="1" stop-color="#FFC53F"/>
</linearGradient>
<linearGradient id="paint69_linear" x1="418.367" y1="331.429" x2="249.309" y2="293.922" gradientUnits="userSpaceOnUse">
<stop stop-color="#231F20"/>
<stop offset="0.0946678" stop-color="#2C2521"/>
<stop offset="0.2458" stop-color="#433724"/>
<stop offset="0.4345" stop-color="#69542A"/>
<stop offset="0.6534" stop-color="#9D7B31"/>
<stop offset="0.8948" stop-color="#E0AD3B"/>
<stop offset="1" stop-color="#FFC53F"/>
</linearGradient>
<linearGradient id="paint70_linear" x1="771.706" y1="520.294" x2="411.125" y2="447.546" gradientUnits="userSpaceOnUse">
<stop stop-color="#231F20"/>
<stop offset="0.0946678" stop-color="#2C2521"/>
<stop offset="0.2458" stop-color="#433724"/>
<stop offset="0.4345" stop-color="#69542A"/>
<stop offset="0.6534" stop-color="#9D7B31"/>
<stop offset="0.8948" stop-color="#E0AD3B"/>
<stop offset="1" stop-color="#FFC53F"/>
</linearGradient>
<linearGradient id="paint71_linear" x1="662.358" y1="611.411" x2="417.047" y2="453.417" gradientUnits="userSpaceOnUse">
<stop stop-color="#231F20"/>
<stop offset="0.0946678" stop-color="#2C2521"/>
<stop offset="0.2458" stop-color="#433724"/>
<stop offset="0.4345" stop-color="#69542A"/>
<stop offset="0.6534" stop-color="#9D7B31"/>
<stop offset="0.8948" stop-color="#E0AD3B"/>
<stop offset="1" stop-color="#FFC53F"/>
</linearGradient>
<linearGradient id="paint72_linear" x1="593.794" y1="616.441" x2="395.482" y2="511.652" gradientUnits="userSpaceOnUse">
<stop stop-color="#231F20"/>
<stop offset="0.0946678" stop-color="#2C2521"/>
<stop offset="0.2458" stop-color="#433724"/>
<stop offset="0.4345" stop-color="#69542A"/>
<stop offset="0.6534" stop-color="#9D7B31"/>
<stop offset="0.8948" stop-color="#E0AD3B"/>
<stop offset="1" stop-color="#FFC53F"/>
</linearGradient>
<linearGradient id="paint73_linear" x1="691.667" y1="672.877" x2="433.671" y2="532.666" gradientUnits="userSpaceOnUse">
<stop stop-color="#231F20"/>
<stop offset="0.0946678" stop-color="#2C2521"/>
<stop offset="0.2458" stop-color="#433724"/>
<stop offset="0.4345" stop-color="#69542A"/>
<stop offset="0.6534" stop-color="#9D7B31"/>
<stop offset="0.8948" stop-color="#E0AD3B"/>
<stop offset="1" stop-color="#FFC53F"/>
</linearGradient>
<linearGradient id="paint74_linear" x1="483.995" y1="629.42" x2="663.108" y2="628.739" gradientUnits="userSpaceOnUse">
<stop stop-color="#2B237C"/>
<stop offset="1" stop-color="#180D5B"/>
</linearGradient>
<linearGradient id="paint75_linear" x1="538.915" y1="672.22" x2="375.491" y2="580.143" gradientUnits="userSpaceOnUse">
<stop stop-color="#231F20"/>
<stop offset="0.0946678" stop-color="#2C2521"/>
<stop offset="0.2458" stop-color="#433724"/>
<stop offset="0.4345" stop-color="#69542A"/>
<stop offset="0.6534" stop-color="#9D7B31"/>
<stop offset="0.8948" stop-color="#E0AD3B"/>
<stop offset="1" stop-color="#FFC53F"/>
</linearGradient>
<linearGradient id="paint76_linear" x1="608.566" y1="462.651" x2="397.968" y2="327.014" gradientUnits="userSpaceOnUse">
<stop stop-color="#231F20"/>
<stop offset="0.0946678" stop-color="#2C2521"/>
<stop offset="0.2458" stop-color="#433724"/>
<stop offset="0.4345" stop-color="#69542A"/>
<stop offset="0.6534" stop-color="#9D7B31"/>
<stop offset="0.8948" stop-color="#E0AD3B"/>
<stop offset="1" stop-color="#FFC53F"/>
</linearGradient>
<linearGradient id="paint77_linear" x1="483.344" y1="455.518" x2="662.457" y2="454.836" gradientUnits="userSpaceOnUse">
<stop stop-color="#2B237C"/>
<stop offset="1" stop-color="#180D5B"/>
</linearGradient>
<linearGradient id="paint78_linear" x1="517.349" y1="486.293" x2="370.278" y2="404.113" gradientUnits="userSpaceOnUse">
<stop stop-color="#231F20"/>
<stop offset="0.0946678" stop-color="#2C2521"/>
<stop offset="0.2458" stop-color="#433724"/>
<stop offset="0.4345" stop-color="#69542A"/>
<stop offset="0.6534" stop-color="#9D7B31"/>
<stop offset="0.8948" stop-color="#E0AD3B"/>
<stop offset="1" stop-color="#FFC53F"/>
</linearGradient>
<linearGradient id="paint79_linear" x1="566.607" y1="418.016" x2="397.549" y2="380.509" gradientUnits="userSpaceOnUse">
<stop stop-color="#231F20"/>
<stop offset="0.0946678" stop-color="#2C2521"/>
<stop offset="0.2458" stop-color="#433724"/>
<stop offset="0.4345" stop-color="#69542A"/>
<stop offset="0.6534" stop-color="#9D7B31"/>
<stop offset="0.8948" stop-color="#E0AD3B"/>
<stop offset="1" stop-color="#FFC53F"/>
</linearGradient>
</defs>
</svg>
