<svg width="414" height="531" viewBox="0 0 414 531" fill="none" xmlns="http://www.w3.org/2000/svg">
<mask id="mask0" mask-type="alpha" maskUnits="userSpaceOnUse" x="0" y="0" width="500" height="531">
<rect y="0.499756" width="499.541" height="530.462" fill="#C4C4C4"/>
</mask>
<g mask="url(#mask0)">
<g style="mix-blend-mode:lighten" opacity="0.07">
<g filter="url(#filter0_d)">
<path d="M54.5091 822.018C267.972 822.018 441.018 648.972 441.018 435.509C441.018 222.046 267.972 49 54.5091 49C-158.954 49 -332 222.046 -332 435.509C-332 648.972 -158.954 822.018 54.5091 822.018Z" fill="url(#paint0_linear)"/>
<path d="M54.5085 816.884C265.136 816.884 435.883 646.137 435.883 435.509C435.883 224.882 265.136 54.1346 54.5085 54.1346C-156.119 54.1346 -326.866 224.882 -326.866 435.509C-326.866 646.137 -156.119 816.884 54.5085 816.884Z" fill="url(#paint1_linear)"/>
<path d="M54.5077 792.187C251.495 792.187 411.185 632.497 411.185 435.509C411.185 238.521 251.495 78.8313 54.5077 78.8313C-142.48 78.8313 -302.17 238.521 -302.17 435.509C-302.17 632.497 -142.48 792.187 54.5077 792.187Z" fill="url(#paint2_linear)"/>
<path d="M54.5079 787.507C248.911 787.507 406.506 629.912 406.506 435.509C406.506 241.106 248.911 83.5108 54.5079 83.5108C-139.895 83.5108 -297.49 241.106 -297.49 435.509C-297.49 629.912 -139.895 787.507 54.5079 787.507Z" fill="url(#paint3_linear)"/>
<path d="M38.0659 215.445H19.2832V218.565H38.0659V215.445Z" fill="url(#paint4_linear)"/>
<path d="M38.0659 225.584H19.2832V228.703H38.0659V225.584Z" fill="url(#paint5_linear)"/>
<path d="M38.0659 232.343H19.2832V235.463H38.0659V232.343Z" fill="url(#paint6_linear)"/>
<path d="M46.1898 219.735H28.9669C27.2121 219.735 25.7822 218.305 25.7822 216.55V210.831C25.7822 209.076 27.2121 207.646 28.9669 207.646H46.1898C47.9446 207.646 49.3744 209.076 49.3744 210.831V216.55C49.3744 218.37 47.9446 219.735 46.1898 219.735Z" fill="url(#paint7_linear)"/>
<path d="M330.268 441.683H305.181C302.907 441.683 301.087 439.864 301.087 437.589V432.064C301.087 429.79 302.907 427.97 305.181 427.97H330.268C332.543 427.97 334.363 429.79 334.363 432.064V437.589C334.298 439.864 332.478 441.683 330.268 441.683Z" fill="url(#paint8_linear)"/>
<path d="M330.268 417.116H305.181C302.907 417.116 301.087 415.297 301.087 413.022V407.497C301.087 405.223 302.907 403.403 305.181 403.403H330.268C332.543 403.403 334.363 405.223 334.363 407.497V413.022C334.298 415.297 332.478 417.116 330.268 417.116Z" fill="url(#paint9_linear)"/>
<path d="M211.722 447.922H188.715C186.635 447.922 184.945 446.232 184.945 444.153V439.083C184.945 437.004 186.635 435.314 188.715 435.314H211.722C213.802 435.314 215.492 437.004 215.492 439.083V444.153C215.492 446.232 213.802 447.922 211.722 447.922Z" fill="url(#paint10_linear)"/>
<path d="M189.691 413.087H173.768C172.338 413.087 171.168 411.917 171.168 410.487V406.977C171.168 405.548 172.338 404.378 173.768 404.378H189.626C191.056 404.378 192.225 405.548 192.225 406.977V410.487C192.225 411.917 191.056 413.087 189.691 413.087Z" fill="url(#paint11_linear)"/>
<path d="M54.5096 733.628C-109.856 733.628 -243.545 599.939 -243.545 435.574C-243.545 271.208 -109.856 137.519 54.5096 137.519C218.875 137.519 352.564 271.208 352.564 435.574C352.564 599.939 218.875 733.628 54.5096 733.628ZM54.5096 140.639C-108.101 140.639 -240.425 272.963 -240.425 435.574C-240.425 598.185 -108.101 730.509 54.5096 730.509C217.12 730.509 349.445 598.185 349.445 435.574C349.445 272.898 217.185 140.639 54.5096 140.639Z" fill="url(#paint12_linear)"/>
<path d="M37.7403 738.633C32.3459 738.308 27.0166 737.918 21.6872 737.333C17.3327 736.878 14.2131 732.978 14.6681 728.624C15.123 724.269 19.0875 721.15 23.377 721.605C33.5808 722.709 44.1096 723.294 54.4433 723.294C58.8628 723.229 62.3074 726.804 62.3074 731.159C62.3074 735.513 58.7978 739.023 54.4433 739.023C48.919 739.088 43.2646 738.958 37.7403 738.633ZM-9.44412 732.198C-9.83408 732.198 -10.289 732.133 -10.679 732.003C-21.3377 729.664 -31.9964 726.739 -42.3302 723.229C-46.4247 721.865 -48.6994 717.38 -47.2696 713.221C-45.9047 709.126 -41.4203 706.851 -37.2608 708.281C-27.447 711.596 -17.3732 714.391 -7.29935 716.6C-3.07484 717.51 -0.345184 721.735 -1.32007 725.959C-2.16496 729.859 -5.67458 732.393 -9.44412 732.198ZM85.9646 737.398C82.195 737.203 79.0104 734.278 78.5555 730.379C78.1005 726.024 81.2202 722.19 85.5746 721.735C95.8434 720.63 106.177 718.94 116.316 716.73C120.605 715.82 124.765 718.485 125.675 722.775C126.585 726.999 123.92 731.224 119.631 732.133C108.972 734.473 98.0532 736.228 87.1995 737.398C86.8095 737.398 86.3545 737.463 85.9646 737.398ZM-70.0169 711.856C-70.9918 711.791 -71.9667 711.596 -72.8766 711.141C-82.7554 706.591 -92.5042 701.392 -101.863 695.738C-105.568 693.463 -106.803 688.654 -104.528 684.949C-102.253 681.245 -97.4436 680.01 -93.7391 682.284C-84.8351 687.614 -75.6062 692.553 -66.2473 696.908C-62.2828 698.727 -60.593 703.407 -62.4128 707.371C-63.8427 710.296 -66.8973 712.051 -70.0169 711.856ZM148.357 723.749C145.238 723.554 142.378 721.54 141.338 718.42C139.973 714.326 142.183 709.841 146.277 708.411C156.091 705.097 165.84 701.262 175.199 696.908C179.163 695.088 183.843 696.778 185.663 700.742C187.483 704.707 185.793 709.386 181.828 711.206C171.949 715.82 161.681 719.85 151.347 723.359C150.307 723.684 149.332 723.814 148.357 723.749ZM-124.74 678.84C-126.235 678.775 -127.795 678.255 -129.095 677.215C-137.739 670.586 -146.188 663.437 -154.117 655.962C-157.302 652.973 -157.432 647.968 -154.442 644.849C-151.452 641.664 -146.448 641.534 -143.328 644.524C-135.789 651.673 -127.86 658.432 -119.606 664.671C-116.161 667.336 -115.446 672.276 -118.111 675.72C-119.671 677.93 -122.206 679.035 -124.74 678.84ZM206.265 696.908C203.731 696.778 201.326 695.413 199.961 693.073C197.686 689.369 198.921 684.494 202.626 682.284C211.465 676.955 220.174 671.041 228.363 664.801C231.807 662.202 236.747 662.852 239.411 666.296C242.011 669.741 241.361 674.68 237.916 677.345C229.207 683.909 220.109 690.148 210.75 695.738C209.385 696.648 207.825 697.038 206.265 696.908ZM-171.08 634.905C-173.16 634.775 -175.174 633.865 -176.669 632.11C-183.753 623.791 -190.383 615.017 -196.557 605.983C-199.027 602.409 -198.052 597.469 -194.477 595.065C-190.903 592.595 -185.963 593.57 -183.558 597.144C-177.709 605.723 -171.405 614.042 -164.711 621.907C-161.916 625.221 -162.306 630.161 -165.621 633.02C-167.115 634.45 -169.13 635.035 -171.08 634.905ZM257.154 658.302C255.204 658.172 253.32 657.392 251.89 655.833C248.9 652.648 249.03 647.708 252.215 644.719C259.754 637.635 266.968 630.031 273.662 622.166C276.457 618.852 281.461 618.462 284.776 621.257C288.091 624.051 288.48 629.056 285.686 632.37C278.602 640.689 270.998 648.683 263.069 656.157C261.379 657.717 259.234 658.432 257.154 658.302ZM-206.956 582.131C-209.62 582.001 -212.155 580.506 -213.455 577.972C-218.589 568.353 -223.204 558.344 -227.298 548.205C-228.923 544.176 -226.973 539.561 -222.879 537.936C-218.849 536.312 -214.235 538.261 -212.61 542.356C-208.775 551.975 -204.356 561.464 -199.481 570.563C-197.467 574.397 -198.897 579.142 -202.731 581.221C-204.161 581.871 -205.591 582.196 -206.956 582.131ZM298.554 609.688C297.189 609.623 295.825 609.168 294.59 608.323C291.015 605.853 290.04 600.979 292.51 597.404C298.359 588.825 303.754 579.857 308.628 570.758C310.643 566.923 315.452 565.493 319.287 567.508C323.121 569.523 324.551 574.332 322.536 578.167C317.402 587.786 311.683 597.21 305.573 606.308C303.884 608.583 301.219 609.818 298.554 609.688ZM-230.678 522.793C-233.927 522.598 -236.917 520.389 -237.827 517.009C-240.752 506.545 -243.091 495.757 -244.911 484.968C-245.626 480.678 -242.701 476.649 -238.412 475.934C-234.122 475.219 -230.093 478.144 -229.378 482.433C-227.688 492.637 -225.478 502.906 -222.684 512.849C-221.514 517.009 -223.984 521.363 -228.143 522.533C-228.988 522.793 -229.833 522.858 -230.678 522.793ZM328.581 553.275C327.736 553.21 326.891 553.015 326.111 552.69C322.082 551.065 320.132 546.516 321.692 542.421C325.526 532.802 328.906 522.923 331.635 512.914C332.805 508.755 337.16 506.285 341.319 507.455C345.479 508.625 347.948 512.979 346.779 517.139C343.854 527.668 340.344 538.132 336.25 548.27C335.015 551.585 331.83 553.47 328.581 553.275ZM-241.012 459.816C-244.976 459.621 -248.226 456.436 -248.421 452.342C-249.006 441.488 -249.006 430.439 -248.421 419.521C-248.161 415.166 -244.456 411.852 -240.102 412.047C-235.812 412.566 -232.433 416.011 -232.628 420.365C-233.212 430.699 -233.212 441.163 -232.628 451.497C-232.368 455.851 -235.747 459.556 -240.102 459.816C-240.427 459.816 -240.687 459.816 -241.012 459.816ZM-237.567 395.993C-237.827 395.993 -238.152 395.928 -238.412 395.928C-242.701 395.213 -245.626 391.184 -244.911 386.894C-243.156 376.106 -240.817 365.317 -237.892 354.788C-236.722 350.629 -232.433 348.094 -228.208 349.264C-223.984 350.434 -221.579 354.723 -222.684 358.948C-225.413 368.892 -227.688 379.16 -229.313 389.364C-230.028 393.394 -233.602 396.253 -237.567 395.993ZM-220.604 334.446C-221.449 334.381 -222.294 334.251 -223.074 333.926C-227.103 332.301 -229.118 327.752 -227.493 323.722C-223.464 313.583 -218.849 303.574 -213.715 293.891C-211.7 290.056 -206.891 288.561 -203.056 290.641C-199.222 292.656 -197.727 297.465 -199.806 301.3C-204.681 310.464 -209.035 319.952 -212.87 329.571C-214.105 332.691 -217.289 334.641 -220.604 334.446ZM338.72 363.822C335.47 363.627 332.48 361.418 331.57 358.103C328.776 348.159 325.396 338.215 321.562 328.661C319.937 324.632 321.887 320.017 325.916 318.393C329.946 316.768 334.56 318.718 336.185 322.747C340.279 332.886 343.789 343.35 346.779 353.813C347.948 357.973 345.479 362.327 341.319 363.497C340.409 363.757 339.564 363.822 338.72 363.822ZM-190.708 277.967C-192.072 277.902 -193.437 277.447 -194.672 276.603C-198.247 274.133 -199.222 269.258 -196.752 265.684C-190.643 256.65 -183.948 247.876 -176.864 239.557C-174.07 236.242 -169.065 235.852 -165.751 238.647C-162.436 241.442 -162.046 246.446 -164.841 249.761C-171.535 257.69 -177.904 266.009 -183.688 274.523C-185.378 276.928 -188.043 278.162 -190.708 277.967ZM314.932 304.549C312.268 304.419 309.733 302.924 308.433 300.39C303.559 291.291 298.164 282.322 292.315 273.743C289.845 270.168 290.755 265.229 294.395 262.824C297.969 260.355 302.909 261.329 305.314 264.904C311.488 273.938 317.207 283.362 322.341 292.981C324.421 296.815 322.926 301.56 319.092 303.639C317.727 304.354 316.297 304.614 314.932 304.549ZM-149.372 229.288C-151.322 229.158 -153.207 228.378 -154.637 226.819C-157.626 223.634 -157.496 218.694 -154.312 215.705C-146.383 208.231 -137.999 201.017 -129.355 194.452C-125.91 191.788 -120.971 192.503 -118.306 195.947C-115.641 199.392 -116.356 204.331 -119.801 206.996C-127.99 213.235 -135.984 220.059 -143.523 227.208C-145.148 228.703 -147.293 229.418 -149.372 229.288ZM278.927 251.776C276.847 251.646 274.832 250.736 273.337 249.046C266.643 241.182 259.429 233.578 251.89 226.494C248.705 223.504 248.575 218.499 251.565 215.38C254.555 212.195 259.559 212.065 262.679 215.055C270.608 222.529 278.212 230.588 285.296 238.842C288.091 242.157 287.701 247.096 284.386 249.956C282.826 251.321 280.876 251.906 278.927 251.776ZM-98.5485 190.553C-101.083 190.423 -103.488 189.058 -104.853 186.783C-107.127 183.079 -105.893 178.204 -102.188 175.995C-92.8292 170.34 -83.0804 165.141 -73.2015 160.526C-69.237 158.707 -64.5576 160.396 -62.7378 164.361C-60.918 168.325 -62.6078 173.005 -66.5723 174.825C-75.9312 179.179 -85.1601 184.119 -94.064 189.448C-95.4939 190.293 -97.0537 190.618 -98.5485 190.553ZM232.457 207.971C230.962 207.906 229.467 207.386 228.168 206.411C219.914 200.172 211.27 194.257 202.366 188.993C198.661 186.783 197.426 181.909 199.636 178.204C201.846 174.435 206.72 173.265 210.425 175.475C219.784 181.064 228.948 187.303 237.657 193.867C241.101 196.467 241.816 201.407 239.151 204.916C237.527 206.996 234.992 208.101 232.457 207.971ZM-40.7054 163.646C-43.825 163.451 -46.6847 161.436 -47.7245 158.317C-49.1544 154.222 -46.9446 149.738 -42.7851 148.308C-32.4514 144.798 -21.7926 141.809 -11.1339 139.469C-6.84441 138.494 -2.68491 141.224 -1.71002 145.448C-0.800125 149.673 -3.46481 153.897 -7.68932 154.872C-17.8281 157.082 -27.9019 159.941 -37.6507 163.256C-38.6906 163.581 -39.7305 163.711 -40.7054 163.646ZM177.669 175.085C176.694 175.02 175.719 174.825 174.809 174.37C165.385 170.015 155.636 166.181 145.887 162.931C141.728 161.566 139.518 157.082 140.883 152.987C142.248 148.893 146.732 146.618 150.827 147.983C161.161 151.427 171.429 155.522 181.373 160.071C185.338 161.891 187.028 166.571 185.208 170.535C183.908 173.525 180.788 175.28 177.669 175.085ZM21.6222 149.803C17.8527 149.608 14.668 146.683 14.2131 142.783C13.7581 138.429 16.8778 134.594 21.1673 134.075C32.021 132.905 43.0047 132.32 53.9234 132.255C58.2129 132.255 61.7874 135.764 61.7874 140.119C61.7874 144.473 58.2778 147.983 53.9234 147.983C43.5896 147.983 33.1259 148.568 22.8571 149.673C22.5321 149.868 22.0772 149.868 21.6222 149.803ZM117.096 154.807C116.706 154.807 116.251 154.742 115.861 154.612C105.787 152.402 95.4534 150.778 85.1196 149.673C80.7652 149.218 77.6456 145.318 78.1005 141.029C78.5555 136.674 82.325 133.62 86.7444 134.01C97.5982 135.179 108.517 136.934 119.176 139.209C123.4 140.119 126.13 144.343 125.22 148.568C124.375 152.467 120.93 155.067 117.096 154.807Z" fill="url(#paint13_linear)"/>
</g>
<path d="M42.2003 392.616V390.093L38.1869 390.106L7.09102 390.211L3.10449 390.224V394.211V515.139V519.139H7.10449H36.9963H40.9963V515.139V487.293C46.4932 489.534 52.4237 490.701 58.4208 490.661C75.545 490.657 89.9164 483.292 98.8002 471.149V483.729V487.729H102.8H133.006H137.006V483.729V461.387L151.558 485.779L152.722 487.729H154.993H190.643H198.077L193.982 481.525L165.331 438.126L174.794 423.705H184.392V452.581C184.392 463.082 187.601 471.975 193.883 478.249C200.164 484.522 209.069 487.729 219.593 487.729H240.376H244.376V483.729V457.397V453.397H240.376H228.807C226.398 453.397 224.966 452.701 224.146 451.889C223.331 451.083 222.651 449.702 222.651 447.398V423.653H239.957H243.957V419.653V396.514V392.514H239.957H221.918V371.072V367.072H217.918H211.688H209.967L208.783 368.322L185.886 392.514H153.946H151.704L150.534 394.426L137.059 416.447V365.104V361.104H133.059H102.8H98.8002V365.104V409.167C89.9132 397.051 75.5378 389.744 58.422 389.74C52.857 389.7 47.3589 390.696 42.2003 392.616ZM56.2087 456.067C47.1731 456.067 40.5775 449.44 40.5775 440.122C40.5775 430.803 47.1731 424.176 56.2087 424.176C65.2444 424.176 71.84 430.803 71.84 440.122C71.84 449.433 65.1991 456.067 56.2087 456.067Z" fill="white" stroke="url(#paint14_angular)" stroke-width="8"/>
</g>
</g>
<defs>
<filter id="filter0_d" x="-344" y="44" width="797.018" height="797.018" filterUnits="userSpaceOnUse" color-interpolation-filters="sRGB">
<feFlood flood-opacity="0" result="BackgroundImageFix"/>
<feColorMatrix in="SourceAlpha" type="matrix" values="0 0 0 0 0 0 0 0 0 0 0 0 0 0 0 0 0 0 127 0" result="hardAlpha"/>
<feOffset dy="7"/>
<feGaussianBlur stdDeviation="6"/>
<feColorMatrix type="matrix" values="0 0 0 0 0 0 0 0 0 0 0 0 0 0 0 0 0 0 0.19 0"/>
<feBlend mode="normal" in2="BackgroundImageFix" result="effect1_dropShadow"/>
<feBlend mode="normal" in="SourceGraphic" in2="effect1_dropShadow" result="shape"/>
</filter>
<linearGradient id="paint0_linear" x1="-186.814" y1="194.187" x2="382.056" y2="763.056" gradientUnits="userSpaceOnUse">
<stop stop-color="#7F7F7F"/>
<stop offset="0.0209508" stop-color="#8C8B8C"/>
<stop offset="0.0650388" stop-color="#A4A3A4"/>
<stop offset="0.1094" stop-color="#B7B7B7"/>
<stop offset="0.1539" stop-color="#C5C4C4"/>
<stop offset="0.1985" stop-color="#C9C9C9"/>
<stop offset="0.2902" stop-color="#969595"/>
<stop offset="0.3358" stop-color="#7F7F7F"/>
<stop offset="0.3557" stop-color="#757575"/>
<stop offset="0.3944" stop-color="#666666"/>
<stop offset="0.4335" stop-color="#5E5E5E"/>
<stop offset="0.473" stop-color="#5B5B5B"/>
<stop offset="0.5119" stop-color="#5F5F5F"/>
<stop offset="0.5597" stop-color="#6D6C6C"/>
<stop offset="0.612" stop-color="#858484"/>
<stop offset="0.6673" stop-color="#ACACAC"/>
<stop offset="0.6814" stop-color="#BBBBBB"/>
<stop offset="0.7241" stop-color="#B2B2B3"/>
<stop offset="0.7852" stop-color="#9F9F9F"/>
<stop offset="0.8571" stop-color="#848484"/>
<stop offset="0.8701" stop-color="#7F7F7F"/>
<stop offset="1" stop-color="#BBBBBB"/>
</linearGradient>
<linearGradient id="paint1_linear" x1="332.834" y1="163.891" x2="-211.712" y2="695.416" gradientUnits="userSpaceOnUse">
<stop stop-color="#FBA300"/>
<stop offset="0.0209508" stop-color="#FFC998"/>
<stop offset="0.0650388" stop-color="#A4A3A4"/>
<stop offset="0.1094" stop-color="#B7B7B7"/>
<stop offset="0.1539" stop-color="#C5C4C4"/>
<stop offset="0.1985" stop-color="#C9C9C9"/>
<stop offset="0.2902" stop-color="#969595"/>
<stop offset="0.3358" stop-color="#7F7F7F"/>
<stop offset="0.3557" stop-color="#757575"/>
<stop offset="0.3944" stop-color="#666666"/>
<stop offset="0.4335" stop-color="#5E5E5E"/>
<stop offset="0.473" stop-color="#5B5B5B"/>
<stop offset="0.5119" stop-color="#5F5F5F"/>
<stop offset="0.5597" stop-color="#6D6C6C"/>
<stop offset="0.612" stop-color="#858484"/>
<stop offset="0.6673" stop-color="#ACACAC"/>
<stop offset="0.6814" stop-color="#BBBBBB"/>
<stop offset="0.7241" stop-color="#B2B2B3"/>
<stop offset="0.7852" stop-color="#9F9F9F"/>
<stop offset="0.8571" stop-color="#848484"/>
<stop offset="0.8701" stop-color="#7F7F7F"/>
<stop offset="1" stop-color="#FFD3AB"/>
</linearGradient>
<linearGradient id="paint2_linear" x1="-223.227" y1="157.774" x2="345.846" y2="726.847" gradientUnits="userSpaceOnUse">
<stop stop-color="#7F7F7F"/>
<stop offset="0.0209508" stop-color="#8C8B8C"/>
<stop offset="0.0650388" stop-color="#A4A3A4"/>
<stop offset="0.1094" stop-color="#B7B7B7"/>
<stop offset="0.1539" stop-color="#C5C4C4"/>
<stop offset="0.1985" stop-color="#C9C9C9"/>
<stop offset="0.2902" stop-color="#969595"/>
<stop offset="0.3358" stop-color="#7F7F7F"/>
<stop offset="0.3557" stop-color="#757575"/>
<stop offset="0.3944" stop-color="#666666"/>
<stop offset="0.4335" stop-color="#5E5E5E"/>
<stop offset="0.473" stop-color="#5B5B5B"/>
<stop offset="0.5119" stop-color="#5F5F5F"/>
<stop offset="0.5597" stop-color="#6D6C6C"/>
<stop offset="0.612" stop-color="#858484"/>
<stop offset="0.6673" stop-color="#ACACAC"/>
<stop offset="0.6814" stop-color="#BBBBBB"/>
<stop offset="0.7241" stop-color="#B2B2B3"/>
<stop offset="0.7852" stop-color="#9F9F9F"/>
<stop offset="0.8571" stop-color="#848484"/>
<stop offset="0.8701" stop-color="#7F7F7F"/>
<stop offset="1" stop-color="#BBBBBB"/>
</linearGradient>
<linearGradient id="paint3_linear" x1="-492.11" y1="982.179" x2="844.953" y2="-354.883" gradientUnits="userSpaceOnUse">
<stop stop-color="#979797"/>
<stop offset="0.2034" stop-color="#575858"/>
<stop offset="0.2296" stop-color="#505050"/>
<stop offset="0.2838" stop-color="#434443"/>
<stop offset="0.3407" stop-color="#3B3B3B"/>
<stop offset="0.4015" stop-color="#363636"/>
<stop offset="0.473" stop-color="#343434"/>
<stop offset="0.5122" stop-color="#383838"/>
<stop offset="0.5751" stop-color="#444444"/>
<stop offset="0.6536" stop-color="#575858"/>
<stop offset="0.6544" stop-color="#575858"/>
<stop offset="0.7398" stop-color="#7E7C7C"/>
<stop offset="0.8125" stop-color="#9B9A9A"/>
<stop offset="0.8554" stop-color="#A9A8A8"/>
<stop offset="0.8862" stop-color="#A1A0A0"/>
<stop offset="0.9239" stop-color="#8F8E8E"/>
<stop offset="0.9651" stop-color="#747373"/>
<stop offset="1" stop-color="#595A5A"/>
</linearGradient>
<linearGradient id="paint4_linear" x1="-40.684" y1="217.882" x2="186.892" y2="215.081" gradientUnits="userSpaceOnUse">
<stop stop-color="#7F7F7F"/>
<stop offset="0.0209508" stop-color="#8C8B8C"/>
<stop offset="0.0650388" stop-color="#A4A3A4"/>
<stop offset="0.1094" stop-color="#B7B7B7"/>
<stop offset="0.1539" stop-color="#C5C4C4"/>
<stop offset="0.1985" stop-color="#C9C9C9"/>
<stop offset="0.2902" stop-color="#969595"/>
<stop offset="0.3358" stop-color="#7F7F7F"/>
<stop offset="0.3557" stop-color="#757575"/>
<stop offset="0.3944" stop-color="#666666"/>
<stop offset="0.4335" stop-color="#5E5E5E"/>
<stop offset="0.473" stop-color="#5B5B5B"/>
<stop offset="0.5119" stop-color="#5F5F5F"/>
<stop offset="0.5597" stop-color="#6D6C6C"/>
<stop offset="0.612" stop-color="#858484"/>
<stop offset="0.6673" stop-color="#ACACAC"/>
<stop offset="0.6814" stop-color="#BBBBBB"/>
<stop offset="0.7241" stop-color="#B2B2B3"/>
<stop offset="0.7852" stop-color="#9F9F9F"/>
<stop offset="0.8571" stop-color="#848484"/>
<stop offset="0.8701" stop-color="#7F7F7F"/>
<stop offset="1" stop-color="#BBBBBB"/>
</linearGradient>
<linearGradient id="paint5_linear" x1="-40.5591" y1="228.026" x2="187.016" y2="225.225" gradientUnits="userSpaceOnUse">
<stop stop-color="#7F7F7F"/>
<stop offset="0.0209508" stop-color="#8C8B8C"/>
<stop offset="0.0650388" stop-color="#A4A3A4"/>
<stop offset="0.1094" stop-color="#B7B7B7"/>
<stop offset="0.1539" stop-color="#C5C4C4"/>
<stop offset="0.1985" stop-color="#C9C9C9"/>
<stop offset="0.2902" stop-color="#969595"/>
<stop offset="0.3358" stop-color="#7F7F7F"/>
<stop offset="0.3557" stop-color="#757575"/>
<stop offset="0.3944" stop-color="#666666"/>
<stop offset="0.4335" stop-color="#5E5E5E"/>
<stop offset="0.473" stop-color="#5B5B5B"/>
<stop offset="0.5119" stop-color="#5F5F5F"/>
<stop offset="0.5597" stop-color="#6D6C6C"/>
<stop offset="0.612" stop-color="#858484"/>
<stop offset="0.6673" stop-color="#ACACAC"/>
<stop offset="0.6814" stop-color="#BBBBBB"/>
<stop offset="0.7241" stop-color="#B2B2B3"/>
<stop offset="0.7852" stop-color="#9F9F9F"/>
<stop offset="0.8571" stop-color="#848484"/>
<stop offset="0.8701" stop-color="#7F7F7F"/>
<stop offset="1" stop-color="#BBBBBB"/>
</linearGradient>
<linearGradient id="paint6_linear" x1="-40.4765" y1="234.752" x2="187.099" y2="231.951" gradientUnits="userSpaceOnUse">
<stop stop-color="#7F7F7F"/>
<stop offset="0.0209508" stop-color="#8C8B8C"/>
<stop offset="0.0650388" stop-color="#A4A3A4"/>
<stop offset="0.1094" stop-color="#B7B7B7"/>
<stop offset="0.1539" stop-color="#C5C4C4"/>
<stop offset="0.1985" stop-color="#C9C9C9"/>
<stop offset="0.2902" stop-color="#969595"/>
<stop offset="0.3358" stop-color="#7F7F7F"/>
<stop offset="0.3557" stop-color="#757575"/>
<stop offset="0.3944" stop-color="#666666"/>
<stop offset="0.4335" stop-color="#5E5E5E"/>
<stop offset="0.473" stop-color="#5B5B5B"/>
<stop offset="0.5119" stop-color="#5F5F5F"/>
<stop offset="0.5597" stop-color="#6D6C6C"/>
<stop offset="0.612" stop-color="#858484"/>
<stop offset="0.6673" stop-color="#ACACAC"/>
<stop offset="0.6814" stop-color="#BBBBBB"/>
<stop offset="0.7241" stop-color="#B2B2B3"/>
<stop offset="0.7852" stop-color="#9F9F9F"/>
<stop offset="0.8571" stop-color="#848484"/>
<stop offset="0.8701" stop-color="#7F7F7F"/>
<stop offset="1" stop-color="#BBBBBB"/>
</linearGradient>
<linearGradient id="paint7_linear" x1="-63.2808" y1="254.727" x2="68.8291" y2="201.042" gradientUnits="userSpaceOnUse">
<stop stop-color="#7F7F7F"/>
<stop offset="0.0209508" stop-color="#8C8B8C"/>
<stop offset="0.0650388" stop-color="#A4A3A4"/>
<stop offset="0.1094" stop-color="#B7B7B7"/>
<stop offset="0.1539" stop-color="#C5C4C4"/>
<stop offset="0.1985" stop-color="#C9C9C9"/>
<stop offset="0.2902" stop-color="#969595"/>
<stop offset="0.3358" stop-color="#7F7F7F"/>
<stop offset="0.3557" stop-color="#757575"/>
<stop offset="0.3944" stop-color="#666666"/>
<stop offset="0.4335" stop-color="#5E5E5E"/>
<stop offset="0.473" stop-color="#5B5B5B"/>
<stop offset="0.5119" stop-color="#5F5F5F"/>
<stop offset="0.5597" stop-color="#6D6C6C"/>
<stop offset="0.612" stop-color="#858484"/>
<stop offset="0.6673" stop-color="#ACACAC"/>
<stop offset="0.6814" stop-color="#BBBBBB"/>
<stop offset="0.7241" stop-color="#B2B2B3"/>
<stop offset="0.7852" stop-color="#9F9F9F"/>
<stop offset="0.8571" stop-color="#848484"/>
<stop offset="0.8701" stop-color="#7F7F7F"/>
<stop offset="1" stop-color="#BBBBBB"/>
</linearGradient>
<linearGradient id="paint8_linear" x1="189.587" y1="437.607" x2="679.05" y2="427.104" gradientUnits="userSpaceOnUse">
<stop stop-color="#7F7F7F"/>
<stop offset="0.0209508" stop-color="#8C8B8C"/>
<stop offset="0.0650388" stop-color="#A4A3A4"/>
<stop offset="0.1094" stop-color="#B7B7B7"/>
<stop offset="0.1539" stop-color="#C5C4C4"/>
<stop offset="0.1985" stop-color="#C9C9C9"/>
<stop offset="0.2902" stop-color="#969595"/>
<stop offset="0.3358" stop-color="#7F7F7F"/>
<stop offset="0.3557" stop-color="#757575"/>
<stop offset="0.3944" stop-color="#666666"/>
<stop offset="0.4335" stop-color="#5E5E5E"/>
<stop offset="0.473" stop-color="#5B5B5B"/>
<stop offset="0.5119" stop-color="#5F5F5F"/>
<stop offset="0.5597" stop-color="#6D6C6C"/>
<stop offset="0.612" stop-color="#858484"/>
<stop offset="0.6673" stop-color="#ACACAC"/>
<stop offset="0.6814" stop-color="#BBBBBB"/>
<stop offset="0.7241" stop-color="#B2B2B3"/>
<stop offset="0.7852" stop-color="#9F9F9F"/>
<stop offset="0.8571" stop-color="#848484"/>
<stop offset="0.8701" stop-color="#7F7F7F"/>
<stop offset="1" stop-color="#BBBBBB"/>
</linearGradient>
<linearGradient id="paint9_linear" x1="189.06" y1="413.046" x2="678.523" y2="402.542" gradientUnits="userSpaceOnUse">
<stop stop-color="#7F7F7F"/>
<stop offset="0.0209508" stop-color="#8C8B8C"/>
<stop offset="0.0650388" stop-color="#A4A3A4"/>
<stop offset="0.1094" stop-color="#B7B7B7"/>
<stop offset="0.1539" stop-color="#C5C4C4"/>
<stop offset="0.1985" stop-color="#C9C9C9"/>
<stop offset="0.2902" stop-color="#969595"/>
<stop offset="0.3358" stop-color="#7F7F7F"/>
<stop offset="0.3557" stop-color="#757575"/>
<stop offset="0.3944" stop-color="#666666"/>
<stop offset="0.4335" stop-color="#5E5E5E"/>
<stop offset="0.473" stop-color="#5B5B5B"/>
<stop offset="0.5119" stop-color="#5F5F5F"/>
<stop offset="0.5597" stop-color="#6D6C6C"/>
<stop offset="0.612" stop-color="#858484"/>
<stop offset="0.6673" stop-color="#ACACAC"/>
<stop offset="0.6814" stop-color="#BBBBBB"/>
<stop offset="0.7241" stop-color="#B2B2B3"/>
<stop offset="0.7852" stop-color="#9F9F9F"/>
<stop offset="0.8571" stop-color="#848484"/>
<stop offset="0.8701" stop-color="#7F7F7F"/>
<stop offset="1" stop-color="#BBBBBB"/>
</linearGradient>
<linearGradient id="paint10_linear" x1="115.227" y1="456.185" x2="395.675" y2="408.218" gradientUnits="userSpaceOnUse">
<stop stop-color="#7F7F7F"/>
<stop offset="0.0209508" stop-color="#8C8B8C"/>
<stop offset="0.0650388" stop-color="#A4A3A4"/>
<stop offset="0.1094" stop-color="#B7B7B7"/>
<stop offset="0.1539" stop-color="#C5C4C4"/>
<stop offset="0.1985" stop-color="#C9C9C9"/>
<stop offset="0.2902" stop-color="#969595"/>
<stop offset="0.3358" stop-color="#7F7F7F"/>
<stop offset="0.3557" stop-color="#757575"/>
<stop offset="0.3944" stop-color="#666666"/>
<stop offset="0.4335" stop-color="#5E5E5E"/>
<stop offset="0.473" stop-color="#5B5B5B"/>
<stop offset="0.5119" stop-color="#5F5F5F"/>
<stop offset="0.5597" stop-color="#6D6C6C"/>
<stop offset="0.612" stop-color="#858484"/>
<stop offset="0.6673" stop-color="#ACACAC"/>
<stop offset="0.6814" stop-color="#BBBBBB"/>
<stop offset="0.7241" stop-color="#B2B2B3"/>
<stop offset="0.7852" stop-color="#9F9F9F"/>
<stop offset="0.8571" stop-color="#848484"/>
<stop offset="0.8701" stop-color="#7F7F7F"/>
<stop offset="1" stop-color="#BBBBBB"/>
</linearGradient>
<linearGradient id="paint11_linear" x1="109.235" y1="421.136" x2="389.678" y2="373.17" gradientUnits="userSpaceOnUse">
<stop stop-color="#7F7F7F"/>
<stop offset="0.0209508" stop-color="#8C8B8C"/>
<stop offset="0.0650388" stop-color="#A4A3A4"/>
<stop offset="0.1094" stop-color="#B7B7B7"/>
<stop offset="0.1539" stop-color="#C5C4C4"/>
<stop offset="0.1985" stop-color="#C9C9C9"/>
<stop offset="0.2902" stop-color="#969595"/>
<stop offset="0.3358" stop-color="#7F7F7F"/>
<stop offset="0.3557" stop-color="#757575"/>
<stop offset="0.3944" stop-color="#666666"/>
<stop offset="0.4335" stop-color="#5E5E5E"/>
<stop offset="0.473" stop-color="#5B5B5B"/>
<stop offset="0.5119" stop-color="#5F5F5F"/>
<stop offset="0.5597" stop-color="#6D6C6C"/>
<stop offset="0.612" stop-color="#858484"/>
<stop offset="0.6673" stop-color="#ACACAC"/>
<stop offset="0.6814" stop-color="#BBBBBB"/>
<stop offset="0.7241" stop-color="#B2B2B3"/>
<stop offset="0.7852" stop-color="#9F9F9F"/>
<stop offset="0.8571" stop-color="#848484"/>
<stop offset="0.8701" stop-color="#7F7F7F"/>
<stop offset="1" stop-color="#BBBBBB"/>
</linearGradient>
<linearGradient id="paint12_linear" x1="-243.54" y1="435.535" x2="352.613" y2="435.535" gradientUnits="userSpaceOnUse">
<stop stop-color="#7F7F7F"/>
<stop offset="0.0209508" stop-color="#8C8B8C"/>
<stop offset="0.0650388" stop-color="#A4A3A4"/>
<stop offset="0.1094" stop-color="#B7B7B7"/>
<stop offset="0.1539" stop-color="#C5C4C4"/>
<stop offset="0.1985" stop-color="#C9C9C9"/>
<stop offset="0.2902" stop-color="#969595"/>
<stop offset="0.3358" stop-color="#7F7F7F"/>
<stop offset="0.3557" stop-color="#757575"/>
<stop offset="0.3944" stop-color="#666666"/>
<stop offset="0.4335" stop-color="#5E5E5E"/>
<stop offset="0.473" stop-color="#5B5B5B"/>
<stop offset="0.5119" stop-color="#5F5F5F"/>
<stop offset="0.5597" stop-color="#6D6C6C"/>
<stop offset="0.612" stop-color="#858484"/>
<stop offset="0.6673" stop-color="#ACACAC"/>
<stop offset="0.6814" stop-color="#BBBBBB"/>
<stop offset="0.7241" stop-color="#B2B2B3"/>
<stop offset="0.7852" stop-color="#9F9F9F"/>
<stop offset="0.8571" stop-color="#848484"/>
<stop offset="0.8701" stop-color="#7F7F7F"/>
<stop offset="1" stop-color="#BBBBBB"/>
</linearGradient>
<linearGradient id="paint13_linear" x1="-248.843" y1="435.727" x2="347.121" y2="435.727" gradientUnits="userSpaceOnUse">
<stop stop-color="#7F7F7F"/>
<stop offset="0.0209508" stop-color="#8C8B8C"/>
<stop offset="0.0650388" stop-color="#A4A3A4"/>
<stop offset="0.1094" stop-color="#B7B7B7"/>
<stop offset="0.1539" stop-color="#C5C4C4"/>
<stop offset="0.1985" stop-color="#C9C9C9"/>
<stop offset="0.2902" stop-color="#969595"/>
<stop offset="0.3358" stop-color="#7F7F7F"/>
<stop offset="0.3557" stop-color="#757575"/>
<stop offset="0.3944" stop-color="#666666"/>
<stop offset="0.4335" stop-color="#5E5E5E"/>
<stop offset="0.473" stop-color="#5B5B5B"/>
<stop offset="0.5119" stop-color="#5F5F5F"/>
<stop offset="0.5597" stop-color="#6D6C6C"/>
<stop offset="0.612" stop-color="#858484"/>
<stop offset="0.6673" stop-color="#ACACAC"/>
<stop offset="0.6814" stop-color="#BBBBBB"/>
<stop offset="0.7241" stop-color="#B2B2B3"/>
<stop offset="0.7852" stop-color="#9F9F9F"/>
<stop offset="0.8571" stop-color="#848484"/>
<stop offset="0.8701" stop-color="#7F7F7F"/>
<stop offset="1" stop-color="#BBBBBB"/>
</linearGradient>
<radialGradient id="paint14_angular" cx="0" cy="0" r="1" gradientUnits="userSpaceOnUse" gradientTransform="translate(123.74 440.122) rotate(90) scale(75.0175 116.636)">
<stop stop-color="#8D8984"/>
<stop offset="0.390625" stop-color="#8D8984" stop-opacity="0"/>
<stop offset="0.390725" stop-color="#8D8984" stop-opacity="0"/>
<stop offset="0.692708" stop-color="#8D8984" stop-opacity="0.92"/>
<stop offset="0.770833" stop-color="#8D8984" stop-opacity="0.92"/>
</radialGradient>
</defs>
</svg>
