<svg width="317" height="64" viewBox="0 0 317 64" fill="none" xmlns="http://www.w3.org/2000/svg">
<path d="M14.3981 31.8587L7.19592 39.0546L0 31.8587L7.19592 24.6628L14.3981 31.8587ZM31.8587 14.3856L44.1901 26.7232L51.3861 19.5273L31.8587 0L12.3314 19.5273L19.5273 26.7232L31.8587 14.3856ZM56.5278 24.6628L49.3319 31.8587L56.5278 39.0546L63.7175 31.8587L56.5278 24.6628ZM31.8587 49.3319L19.5273 37.0005L12.3314 44.1901L31.8587 63.7175L51.3861 44.1901L44.1901 37.0005L31.8587 49.3319ZM31.8587 39.0546L39.0546 31.8587L31.8587 24.6628L24.6628 31.8587L31.8587 39.0546ZM107.802 39.7456V39.646C107.802 34.9525 105.312 32.6057 101.259 31.062C103.749 29.6614 105.853 27.464 105.853 23.5237V23.4241C105.853 17.9338 101.459 14.3856 94.3188 14.3856H78.1093V49.3319H94.7296C102.617 49.3319 107.814 46.1385 107.814 39.7456H107.802ZM98.2155 24.806C98.2155 27.4017 96.068 28.5035 92.6754 28.5035H85.5978V21.1271H93.1859C96.429 21.1271 98.228 22.4219 98.228 24.7188L98.2155 24.806ZM100.164 38.787C100.164 41.3827 98.1159 42.5779 94.7172 42.5779H85.5978V34.9027H94.4806C98.4272 34.9027 100.176 36.3531 100.176 38.6998L100.164 38.787ZM123.955 49.3319V14.3856H116.243V49.3319H123.955ZM165.282 49.3319V14.3856H157.669V35.9049L141.298 14.3856H134.208V49.3319H141.796V27.1154L158.715 49.3319H165.282ZM207.866 49.3319L192.864 14.1366H185.774L170.803 49.3319H178.64L181.846 41.4948H196.624L199.817 49.3319H207.866ZM193.891 34.7035H184.579L189.223 23.3743L193.891 34.7035ZM244.512 49.3319V14.3856H236.899V35.9049L220.521 14.3856H213.437V49.3319H221.019V27.1154L237.945 49.3319H244.512ZM284.195 43.6922L279.309 38.7496C276.563 41.2396 274.117 42.8393 270.121 42.8393C264.132 42.8393 259.987 37.8595 259.987 31.8587V31.7591C259.987 25.7708 264.232 20.8781 270.121 20.8781C273.613 20.8781 276.346 22.3721 279.06 24.8184L283.934 19.1787C280.69 15.9854 276.75 13.788 270.158 13.788C259.426 13.788 251.938 21.9239 251.938 31.8401V31.9397C251.938 41.9741 259.576 49.9108 269.859 49.9108C276.588 49.9294 280.578 47.5329 284.17 43.6922H284.195ZM317 49.3319V42.4845H298.002V35.133H314.479V28.2857H298.002V21.2267H316.726V14.3794H290.364V49.3256L317 49.3319Z" fill="#F0B90B"/>
</svg>
