<svg width="204" height="65" viewBox="0 0 204 65" fill="none" xmlns="http://www.w3.org/2000/svg">
<path d="M94.313 40.139C93.878 40.1483 93.4456 40.0694 93.0419 39.9072C92.6382 39.745 92.2715 39.5028 91.9638 39.1951C91.6562 38.8875 91.414 38.5208 91.2518 38.1171C91.0896 37.7133 91.0107 37.281 91.02 36.846L90.736 24.085C90.7327 23.9912 90.7484 23.8976 90.782 23.81C90.8157 23.7224 90.8667 23.6425 90.932 23.575C90.9973 23.5077 91.0755 23.4542 91.162 23.418C91.2483 23.3811 91.3411 23.362 91.435 23.362L99.181 23.262C99.4005 23.2588 99.6099 23.1693 99.764 23.013C99.9184 22.8567 100.005 22.6457 100.005 22.426V14.636C100.005 14.5254 99.9827 14.416 99.94 14.314C99.8973 14.2118 99.8347 14.119 99.756 14.041C99.6771 13.9632 99.5837 13.9017 99.481 13.86C99.378 13.819 99.2679 13.7986 99.157 13.8L90.99 13.912C90.9157 13.9132 90.8419 13.8996 90.773 13.872C90.7044 13.8444 90.6419 13.8036 90.589 13.752C90.5363 13.7001 90.4945 13.6382 90.466 13.57C90.4375 13.5016 90.4228 13.4281 90.423 13.354V3.54499C90.4228 3.32332 90.3347 3.11077 90.178 2.95398C90.1004 2.8763 90.0083 2.81469 89.9069 2.77265C89.8055 2.73061 89.6968 2.70897 89.587 2.70899H88.616C88.4304 2.7085 88.2466 2.74595 88.076 2.819C87.9053 2.89231 87.7515 2.99984 87.624 3.13498L77.804 13.528C77.7256 13.61 77.6313 13.6754 77.527 13.72C77.4227 13.7648 77.3105 13.7879 77.197 13.788H63.844C63.5508 13.7879 63.2623 13.8626 63.006 14.005C62.7496 14.1484 62.5341 14.3549 62.38 14.605L54.961 26.596C54.8945 26.7009 54.796 26.7816 54.68 26.826C54.5639 26.8705 54.4365 26.8761 54.317 26.842C54.1981 26.8093 54.0929 26.7392 54.017 26.642C53.9415 26.5431 53.9001 26.4224 53.899 26.298V0.853976C53.8989 0.633263 53.8116 0.421545 53.656 0.264987C53.5003 0.108188 53.2889 0.0193762 53.068 0.0179778L41.868 2.92091e-06C41.7582 -0.000287698 41.6495 0.0211109 41.548 0.0629912C41.4464 0.104964 41.354 0.166457 41.276 0.243991C41.1981 0.321865 41.1363 0.414284 41.094 0.515994C41.0519 0.617451 41.0302 0.726177 41.03 0.836001V26.37C41.03 26.37 40.841 26.37 40.613 25.616C40.3596 24.7985 40.0481 24.0001 39.681 23.227C38.5688 20.8016 36.8696 18.6917 34.737 17.088C31.444 14.694 27.837 13.288 21.268 13.795C18.5999 14.0096 15.9826 14.6448 13.513 15.677C13.468 15.6938 13.4197 15.6997 13.372 15.694C13.3242 15.6879 13.2786 15.6704 13.239 15.643C13.1995 15.6158 13.1672 15.5795 13.145 15.537C13.1228 15.4944 13.1114 15.447 13.112 15.399V14.631C13.1122 14.5212 13.0908 14.4125 13.049 14.311C13.0075 14.2096 12.9463 14.1175 12.869 14.04C12.7913 13.9625 12.6993 13.901 12.598 13.859C12.4969 13.8168 12.3885 13.7951 12.279 13.795H0.835999C0.726219 13.795 0.617509 13.8166 0.516098 13.8586C0.414687 13.9007 0.322564 13.9623 0.244995 14.04C0.0881975 14.1967 7.49278e-05 14.4093 0 14.631V64.155C7.49278e-05 64.3767 0.0881975 64.5893 0.244995 64.746C0.322564 64.8237 0.414687 64.8853 0.516098 64.9273C0.617509 64.9694 0.726219 64.991 0.835999 64.991H11.436C11.6577 64.9908 11.8702 64.9027 12.027 64.746C12.1837 64.5892 12.2718 64.3767 12.272 64.155V49.991C12.2712 49.8441 12.3091 49.6996 12.382 49.572C12.4535 49.4453 12.5569 49.3394 12.682 49.265C12.809 49.1913 12.9532 49.1523 13.1 49.152C13.2467 49.152 13.3909 49.1906 13.518 49.264C13.597 49.311 13.674 49.374 13.765 49.42C16.165 50.62 23.418 52.827 32.031 48.52C35.9657 46.5377 38.9731 43.1002 40.415 38.937C40.748 38.103 41.015 38.337 41.015 38.337V50.326C41.0146 50.4358 41.0361 50.5445 41.078 50.646C41.1199 50.7473 41.1814 50.8394 41.259 50.917C41.3365 50.9946 41.4286 51.0561 41.53 51.098C41.6311 51.1402 41.7395 51.1619 41.849 51.162H53.204C53.3143 51.1619 53.4234 51.1398 53.525 51.097C53.6265 51.0544 53.7186 50.9922 53.796 50.914C53.8734 50.8357 53.9346 50.743 53.976 50.641C54.0173 50.5387 54.038 50.4293 54.037 50.319L53.911 37.48C53.91 37.3531 53.9508 37.2295 54.027 37.128C54.1034 37.0268 54.2109 36.9534 54.333 36.919C54.4552 36.8847 54.5852 36.8917 54.703 36.939C54.8209 36.9856 54.9201 37.07 54.985 37.179L63.052 50.753C63.1264 50.8777 63.2318 50.9811 63.358 51.053C63.4842 51.1245 63.6269 51.1621 63.772 51.162H77.236C77.3879 51.1629 77.5373 51.1225 77.668 51.045C77.7984 50.9674 77.9052 50.8557 77.977 50.722C78.0495 50.5882 78.0841 50.437 78.077 50.285C78.0693 50.1335 78.0206 49.9869 77.936 49.861L66.06 32.197C65.9697 32.064 65.92 31.9077 65.917 31.747C65.9142 31.5862 65.9583 31.4281 66.044 31.292L70.769 23.686C70.8294 23.5884 70.9138 23.5079 71.014 23.452C71.1144 23.3964 71.2273 23.3675 71.342 23.368H77.036C77.2544 23.3675 77.4642 23.453 77.62 23.606C77.7761 23.7587 77.8659 23.9667 77.87 24.185L78.154 38.302V38.374C78.093 39.247 78.401 44.012 80.554 47.023C83.547 51.215 87.387 51.163 87.387 51.163H99.387C99.4968 51.163 99.6055 51.1414 99.7069 51.0993C99.8083 51.0573 99.9004 50.9957 99.978 50.918C100.135 50.7613 100.223 50.5487 100.223 50.327V40.975C100.223 40.7533 100.135 40.5407 99.978 40.384C99.8213 40.2272 99.6087 40.1391 99.387 40.139H94.313ZM21.251 40.839C18.9689 40.8576 16.7729 39.9692 15.1458 38.3691C13.5186 36.7689 12.5935 34.588 12.574 32.306C12.5838 31.1752 12.8163 30.0574 13.2581 29.0165C13.6999 27.9756 14.3425 27.0319 15.1491 26.2393C15.9557 25.4468 16.9105 24.8208 17.959 24.3973C19.0075 23.9738 20.1292 23.761 21.26 23.771C23.5434 23.7513 25.741 24.6394 27.3696 26.24C28.9982 27.8406 29.9242 30.0226 29.944 32.306C29.9239 34.5891 28.9977 36.7707 27.3692 38.371C25.7406 39.9712 23.5431 40.859 21.26 40.839H21.251Z" fill="#023DB5"/>
<path d="M122.724 52.9381H111.76C111.679 52.9381 111.599 52.9222 111.525 52.8914C111.45 52.8605 111.382 52.8152 111.325 52.7581C111.21 52.6429 111.145 52.4869 111.145 52.3241V6.18909C111.144 6.07938 111.166 5.97063 111.207 5.86908C111.249 5.76747 111.31 5.67505 111.387 5.59708C111.465 5.51931 111.557 5.45748 111.658 5.41507C111.759 5.37305 111.868 5.35131 111.978 5.35107H130.841C136.184 5.35107 140.276 6.73874 143.116 9.51407C145.956 12.2894 147.376 16.2024 147.377 21.2531C147.377 26.3017 145.957 30.2147 143.116 32.9921C140.275 35.7694 136.181 37.1587 130.834 37.1601H123.918C123.865 37.1602 123.812 37.1707 123.763 37.1911C123.714 37.2116 123.67 37.2415 123.632 37.2791C123.595 37.3167 123.565 37.3612 123.545 37.4101C123.525 37.4592 123.515 37.5119 123.515 37.5651V52.1571C123.512 52.3649 123.427 52.5632 123.279 52.7091C123.131 52.8553 122.932 52.9375 122.724 52.9381ZM123.516 26.5651C123.516 26.6475 123.532 26.729 123.564 26.8051C123.596 26.8799 123.642 26.9479 123.7 27.0051C123.757 27.0626 123.825 27.1084 123.9 27.1401C123.976 27.1711 124.058 27.1871 124.14 27.1871H127.612C132.158 27.1871 134.43 25.2097 134.428 21.2551C134.426 17.3004 132.154 15.3234 127.612 15.3241H124.001C123.937 15.324 123.873 15.3366 123.814 15.3612C123.754 15.3857 123.7 15.4217 123.655 15.4671C123.61 15.5125 123.574 15.5665 123.549 15.6259C123.525 15.6852 123.512 15.7488 123.512 15.8131L123.516 26.5651Z" fill="#1296EB"/>
<path d="M173.806 20.563H183.436C183.683 20.563 183.92 20.6612 184.095 20.836C184.27 21.0108 184.368 21.2478 184.368 21.495V52.002C184.368 52.2491 184.27 52.4861 184.095 52.661C183.92 52.8357 183.683 52.9339 183.436 52.934H173.806C173.684 52.934 173.562 52.9099 173.449 52.8631C173.336 52.8162 173.233 52.7476 173.147 52.661C173.06 52.5745 172.992 52.4717 172.945 52.3586C172.898 52.2456 172.874 52.1244 172.874 52.002V49.341C171.706 50.8387 170.199 52.0373 168.476 52.8382C166.754 53.639 164.866 54.019 162.968 53.947C160.735 53.9709 158.521 53.5299 156.468 52.652C154.514 51.8076 152.753 50.573 151.293 49.024C149.8 47.4377 148.633 45.5747 147.856 43.54C147.02 41.3447 146.603 39.012 146.627 36.663C146.615 34.4093 147.022 32.1731 147.827 30.068C148.585 28.0519 149.72 26.1986 151.171 24.607C152.613 23.0445 154.355 21.7891 156.294 20.916C158.353 19.9937 160.589 19.529 162.845 19.554C164.722 19.5041 166.588 19.8556 168.319 20.5849C170.049 21.3142 171.604 22.4045 172.879 23.783V21.492C172.88 21.2455 172.978 21.0092 173.152 20.835C173.326 20.6616 173.561 20.5638 173.806 20.563ZM158.49 36.657C158.472 38.6322 159.23 40.5355 160.602 41.957C161.262 42.6369 162.054 43.1737 162.93 43.534C163.86 43.9185 164.858 44.1116 165.864 44.102C166.851 44.1104 167.83 43.9196 168.742 43.541C169.618 43.1804 170.411 42.6436 171.071 41.964C171.728 41.2849 172.262 40.4969 172.65 39.635C173.055 38.7403 173.261 37.7688 173.256 36.787C173.26 35.7981 173.055 34.8196 172.656 33.915C172.274 33.0383 171.739 32.2366 171.077 31.547C170.416 30.8689 169.624 30.3324 168.749 29.97C167.839 29.5899 166.863 29.3968 165.877 29.402C164.871 29.3926 163.873 29.5857 162.943 29.97C162.068 30.3323 161.275 30.8689 160.614 31.547C159.965 32.2169 159.442 32.9975 159.068 33.852C158.682 34.7364 158.485 35.6919 158.49 36.657Z" fill="#1296EB"/>
<path d="M202.455 5.53613H192.609C192.402 5.53613 192.203 5.61854 192.056 5.7652C191.909 5.91185 191.827 6.11075 191.827 6.31815V52.4921C191.827 52.6995 191.909 52.8985 192.056 53.0451C192.203 53.1918 192.402 53.2741 192.609 53.2741H202.455C202.662 53.2739 202.861 53.1914 203.008 53.0448C203.154 52.8982 203.237 52.6995 203.237 52.4921V6.31815C203.237 6.11083 203.154 5.91207 203.008 5.76547C202.861 5.61888 202.662 5.5364 202.455 5.53613Z" fill="#1296EB"/>
</svg>
