<svg width="115" height="37" viewBox="0 0 115 37" fill="none" xmlns="http://www.w3.org/2000/svg">
<path d="M53.206 22.6509C51.342 22.6509 51.342 20.7869 51.342 20.7869L51.2004 13.5905C51.2004 13.5433 51.2004 13.4961 51.224 13.4254C51.2476 13.3782 51.2712 13.331 51.3184 13.2838C51.3656 13.2366 51.3892 13.213 51.4364 13.1894C51.4836 13.1658 51.5307 13.1658 51.6015 13.1658L55.9665 13.1186C56.0845 13.1186 56.2025 13.0714 56.2969 12.9771C56.3912 12.8827 56.4384 12.7647 56.4384 12.6467V8.25813C56.4384 8.18735 56.4148 8.14016 56.3912 8.06938C56.3676 8.02219 56.3205 7.9514 56.2969 7.90421C56.2497 7.85702 56.2025 7.83343 56.1317 7.80983C56.0845 7.78624 56.0137 7.78624 55.9429 7.78624L51.342 7.85702C51.2948 7.85702 51.2476 7.85702 51.224 7.83343C51.1768 7.80983 51.1532 7.78624 51.1296 7.76264C51.106 7.73905 51.0824 7.69186 51.0588 7.66827C51.0353 7.62108 51.0353 7.59748 51.0353 7.55029V2.00555C51.0353 1.88757 50.9881 1.7696 50.8937 1.67522C50.7993 1.58084 50.6813 1.53365 50.5634 1.53365H50.0207C49.9263 1.53365 49.8083 1.55725 49.714 1.60444C49.6196 1.65163 49.5252 1.69882 49.4544 1.79319L43.8861 7.62108C43.8389 7.66827 43.7917 7.71545 43.7209 7.73905C43.6501 7.76264 43.6029 7.78624 43.5322 7.78624H36.0055C35.8403 7.78624 35.6751 7.83343 35.5336 7.90421C35.392 7.975 35.274 8.09297 35.1796 8.23454L31.0034 15.0062C30.9562 15.077 30.909 15.1006 30.8382 15.1478C30.7674 15.1714 30.6967 15.1714 30.6259 15.1478C30.5551 15.1242 30.5079 15.077 30.4607 15.0298C30.4135 14.9826 30.3899 14.9118 30.3899 14.841V0.471893C30.3899 0.35392 30.3427 0.235947 30.2484 0.141568C30.154 0.0471893 30.036 0 29.918 0H23.5947C23.5239 0 23.4767 0.0235947 23.4059 0.0471893C23.3587 0.070784 23.2879 0.0943786 23.2407 0.141568C23.1936 0.188757 23.17 0.235947 23.1464 0.283136C23.1228 0.330325 23.0992 0.401109 23.0992 0.471893V14.8882C23.0992 14.8882 22.9812 14.8882 22.8632 14.4635C22.7217 13.9916 22.5329 13.5433 22.3441 13.1186C21.7779 11.9153 20.8577 10.6176 19.56 9.65022C17.696 8.30532 15.6669 7.5031 11.9625 7.78624C10.4524 7.90421 8.98957 8.25813 7.59748 8.848C7.57389 8.848 7.55029 8.87159 7.5267 8.848C7.5031 8.848 7.47951 8.8244 7.45591 8.8244C7.43232 8.8244 7.40872 8.77722 7.40872 8.75362C7.38513 8.73003 7.38513 8.70643 7.38513 8.68284V8.25813C7.38513 8.18735 7.36153 8.14016 7.33794 8.06938C7.31434 8.02219 7.29075 7.9514 7.24356 7.92781C7.19637 7.88062 7.14918 7.85702 7.10199 7.83343C7.0548 7.80983 6.98402 7.78624 6.91324 7.78624H0.471893C0.35392 7.78624 0.235947 7.83343 0.141568 7.92781C0.0471893 7.99859 0 8.11656 0 8.25813V36.1942C0 36.3122 0.0471893 36.4302 0.141568 36.5245C0.235947 36.6189 0.35392 36.6661 0.471893 36.6661H6.46494C6.58291 36.6661 6.70088 36.6189 6.79526 36.5245C6.88964 36.4302 6.93683 36.3122 6.93683 36.1942V28.1956C6.93683 28.1012 6.96043 28.0305 7.00761 27.9597C7.0548 27.8889 7.10199 27.8181 7.17278 27.7945C7.24356 27.7473 7.31434 27.7237 7.40872 27.7237C7.5031 27.7237 7.57389 27.7473 7.64467 27.7945C7.69186 27.8181 7.73905 27.8653 7.78624 27.8889C9.13113 28.5731 13.2366 29.8001 18.0971 27.3934C21.4711 25.6946 22.4857 22.8396 22.816 21.9902C23.0048 21.5183 23.1464 21.6599 23.1464 21.6599V28.4316C23.1464 28.5024 23.17 28.5495 23.1936 28.6203C23.2171 28.6675 23.2407 28.7383 23.2879 28.7619C23.3351 28.8091 23.3823 28.8327 23.4295 28.8563C23.4767 28.8799 23.5475 28.9035 23.6183 28.9035H30.036C30.1068 28.9035 30.154 28.8799 30.2248 28.8563C30.272 28.8327 30.3427 28.7855 30.3663 28.7619C30.3899 28.7383 30.4371 28.6675 30.4607 28.5967C30.4843 28.5495 30.4843 28.4788 30.4843 28.408L30.4135 21.1644C30.4135 21.0936 30.4371 21.0228 30.4843 20.9757C30.5315 20.9285 30.5787 20.8813 30.6495 20.8577C30.7202 20.8341 30.791 20.8341 30.8618 20.8577C30.9326 20.8813 30.9798 20.9285 31.027 20.9993L35.5807 28.6675C35.6279 28.7383 35.6751 28.7855 35.7459 28.8327C35.8167 28.8799 35.8875 28.9035 35.9819 28.9035H43.5793C43.6737 28.9035 43.7445 28.8799 43.8153 28.8327C43.8861 28.7855 43.9569 28.7147 43.9804 28.6439C44.004 28.5731 44.0512 28.4788 44.0276 28.408C44.0276 28.3136 44.004 28.2428 43.9569 28.172L37.2796 18.1679C37.2324 18.0971 37.2088 18.0027 37.2088 17.9083C37.2088 17.814 37.2324 17.7196 37.2796 17.6488L39.9222 13.3782C39.9458 13.331 39.993 13.2838 40.0637 13.2366C40.1109 13.213 40.1817 13.1894 40.2525 13.1894H43.4614C43.5793 13.1894 43.6973 13.2366 43.7917 13.331C43.8861 13.4254 43.9333 13.5433 43.9333 13.6613L44.0984 21.6363C44.0984 21.6599 44.0984 21.6599 44.0984 21.6835C44.0748 22.179 44.24 24.8688 45.4433 26.5676C47.1421 28.9271 49.2892 28.9035 49.2892 28.9035H56.0609C56.1789 28.9035 56.2969 28.8563 56.3912 28.7619C56.4856 28.6675 56.5328 28.5495 56.5328 28.4316V23.1228C56.5328 23.0048 56.4856 22.8868 56.3912 22.7924C56.2969 22.6981 56.1789 22.6509 56.0609 22.6509H53.206ZM11.9861 23.052C9.2963 23.052 7.10199 20.9049 7.10199 18.2387C7.10199 15.5725 9.2963 13.4254 12.0097 13.4254C14.7231 13.4254 16.9174 15.5725 16.9174 18.2387C16.9174 20.9049 14.6995 23.052 11.9861 23.052Z" fill="#008CD1"/>
<path d="M69.2504 29.8708H63.0686C62.9742 29.8708 62.8798 29.8236 62.8327 29.7764C62.7619 29.7056 62.7383 29.6349 62.7383 29.5405V3.49198C62.7383 3.42119 62.7383 3.37401 62.7619 3.30322C62.7855 3.25603 62.8091 3.18525 62.8563 3.13806C62.9034 3.09087 62.9506 3.06727 62.9978 3.04368C63.045 3.02009 63.1158 2.99649 63.1866 2.99649H73.8278C76.8479 2.99649 79.1602 3.77511 80.7646 5.35596C82.369 6.9132 83.1713 9.1311 83.1713 11.9861C83.1713 14.841 82.369 17.0353 80.7646 18.6162C79.1602 20.1734 76.8479 20.9756 73.8278 20.9756H69.9347C69.9111 20.9756 69.8639 20.9756 69.8403 20.9992C69.8167 20.9992 69.7931 21.0228 69.7695 21.0464C69.7459 21.07 69.7223 21.0936 69.7223 21.1172C69.7223 21.1408 69.6987 21.1644 69.6987 21.2116V29.4225C69.6987 29.5405 69.6515 29.6585 69.5571 29.7292C69.4628 29.8 69.3684 29.8708 69.2504 29.8708ZM69.6987 14.9826C69.6987 15.0298 69.6987 15.077 69.7223 15.1241C69.7459 15.1713 69.7695 15.1949 69.7931 15.2421C69.8167 15.2657 69.8639 15.2893 69.9111 15.3129C69.9582 15.3365 70.0054 15.3365 70.0526 15.3365H72.011C74.5828 15.3365 75.8569 14.2275 75.8569 11.9861C75.8569 9.74456 74.5828 8.63561 72.011 8.63561H69.9818C69.9111 8.63561 69.8403 8.65921 69.7931 8.7064C69.7459 8.75359 69.7223 8.82437 69.7223 8.89516V14.9826H69.6987Z" fill="#008CD1"/>
<path d="M98.0598 11.6086H103.487C103.628 11.6086 103.77 11.6558 103.864 11.7737C103.958 11.8681 104.029 12.0097 104.029 12.1513V29.3518C104.029 29.4933 103.982 29.6349 103.864 29.7293C103.77 29.8237 103.628 29.8944 103.487 29.8944H98.0598C97.9183 29.8944 97.7767 29.8472 97.6823 29.7293C97.5879 29.6113 97.5171 29.4933 97.5171 29.3518V27.8417C96.1486 29.5641 94.2847 30.4371 91.9252 30.4371C90.6747 30.4607 89.4242 30.2012 88.268 29.7057C87.1591 29.2338 86.1681 28.5259 85.3423 27.6529C84.4929 26.7563 83.8322 25.7182 83.4075 24.562C82.9356 23.3351 82.6997 22.0138 82.7233 20.6925C82.7233 19.4184 82.9356 18.1679 83.4075 16.9646C83.8322 15.832 84.4693 14.7703 85.2951 13.8737C86.0973 13.0007 87.0883 12.2928 88.1972 11.7973C89.3534 11.2782 90.6275 11.0187 91.9016 11.0187C94.1903 11.0187 96.0779 11.8209 97.5643 13.4018V12.1041C97.5643 11.9625 97.6115 11.8209 97.7295 11.7265C97.8003 11.6558 97.9183 11.6086 98.0598 11.6086ZM89.4242 20.6925C89.4242 21.8015 89.8489 22.8868 90.6275 23.689C91.005 24.0666 91.4533 24.3733 91.9488 24.5856C92.4679 24.798 93.0342 24.916 93.6004 24.916C94.1667 24.916 94.7094 24.8216 95.2285 24.6092C95.7239 24.3969 96.1722 24.1137 96.5498 23.7126C96.9273 23.3351 97.2104 22.8868 97.4464 22.3913C97.6823 21.8958 97.8003 21.3296 97.7767 20.7869C97.7767 20.2206 97.6587 19.6779 97.4464 19.1589C97.234 18.6634 96.9273 18.2151 96.5498 17.814C96.1722 17.4365 95.7239 17.1297 95.2285 16.9174C94.7094 16.705 94.1667 16.587 93.6004 16.587C93.0342 16.587 92.4679 16.6814 91.9488 16.9174C91.4533 17.1297 91.005 17.4129 90.6275 17.814C90.25 18.1915 89.9668 18.6398 89.7545 19.1117C89.5421 19.6072 89.4242 20.1262 89.4242 20.6925Z" fill="#008CD1"/>
<path d="M114.222 3.11447H108.677C108.441 3.11447 108.229 3.30323 108.229 3.56277V29.6113C108.229 29.8472 108.417 30.0596 108.677 30.0596H114.222C114.458 30.0596 114.67 29.8708 114.67 29.6113V3.56277C114.67 3.32682 114.481 3.11447 114.222 3.11447Z" fill="#008CD1"/>
</svg>
