<svg width="88" height="88" viewBox="0 0 88 88" fill="none" xmlns="http://www.w3.org/2000/svg">
<path d="M58 0H30C13.4315 0 0 13.4315 0 30V58C0 74.5685 13.4315 88 30 88H58C74.5685 88 88 74.5685 88 58V30C88 13.4315 74.5685 0 58 0Z" fill="#FBA300"/>
<path d="M67.2875 47.8301C66.9872 47.8606 66.6839 47.8245 66.3992 47.7244C66.1144 47.6244 65.8553 47.4628 65.64 47.2513C65.4248 47.0397 65.2587 46.7834 65.1537 46.5004C65.0487 46.2175 65.0073 45.9149 65.0325 45.6141V39.4661H69.7515V34.3411H64.8635V28.6981H63.4875L58.1455 34.3411H50.6875L46.0525 41.9061V27.3701H39.3525V41.0701C38.8078 38.8994 37.5323 36.9825 35.7405 35.6415C33.9486 34.3006 31.7498 33.6175 29.5135 33.7071C27.9496 33.6961 26.4086 34.0844 25.0365 34.8351V33.7931L18.1445 33.8111V60.6251H24.7736V53.0251C26.2086 53.8775 27.8495 54.3212 29.5186 54.3081C31.7569 54.3946 33.9567 53.7081 35.7484 52.3638C37.5402 51.0195 38.8147 49.0993 39.3575 46.9261V53.6541H46.0575V45.4891L50.9305 53.6561H58.8304L52.1534 43.5451L54.8385 39.4641H58.3385V46.7511C58.3385 51.0451 60.9535 53.6511 65.2565 53.6511H69.8635V47.8251L67.2875 47.8301ZM29.0245 48.4191C28.1477 48.432 27.2868 48.1838 26.5514 47.706C25.816 47.2282 25.2394 46.5425 24.8949 45.7361C24.5504 44.9297 24.4536 44.039 24.6167 43.1774C24.7798 42.3157 25.1956 41.5221 25.811 40.8974C26.4265 40.2727 27.2139 39.8453 28.073 39.6694C28.9321 39.4936 29.8242 39.5772 30.6356 39.9097C31.4471 40.2423 32.1413 40.8087 32.6299 41.5369C33.1185 42.2651 33.3794 43.1222 33.3795 43.9991C33.4009 44.5798 33.3033 45.1587 33.0929 45.7004C32.8825 46.242 32.5636 46.7349 32.1558 47.1489C31.7479 47.5628 31.2598 47.8889 30.7213 48.1074C30.1829 48.3258 29.6055 48.4319 29.0245 48.4191Z" fill="#F9F9F9"/>
</svg>
