<svg width="88" height="88" viewBox="0 0 88 88" fill="none" xmlns="http://www.w3.org/2000/svg">
<path d="M58 0H30C13.4315 0 0 13.4315 0 30V58C0 74.5685 13.4315 88 30 88H58C74.5685 88 88 74.5685 88 58V30C88 13.4315 74.5685 0 58 0Z" fill="#FBA300"/>
<path d="M43.9961 13.5029C37.9638 13.5029 32.0669 15.2917 27.0512 18.6431C22.0355 21.9945 18.1263 26.758 15.8178 32.3311C13.5093 37.9043 12.9053 44.0368 14.0821 49.9532C15.259 55.8696 18.1639 61.3042 22.4294 65.5697C26.6949 69.8352 32.1294 72.7401 38.0458 73.9169C43.9623 75.0938 50.0948 74.4897 55.668 72.1813C61.2411 69.8728 66.0046 65.9636 69.356 60.9479C72.7073 55.9322 74.4961 50.0353 74.4961 44.0029C74.4961 35.9138 71.2827 28.1561 65.5629 22.4362C59.843 16.7164 52.0852 13.5029 43.9961 13.5029ZM58.9861 34.408L53.9861 57.978C53.6361 59.656 52.6191 60.054 51.2191 59.278L43.6011 53.6479L42.3761 52.741L38.9251 50.197L53.0721 37.434C53.6921 36.886 52.9371 36.616 52.1091 37.116L34.6541 48.1299L27.1161 45.777C25.4941 45.277 25.4781 44.155 27.4821 43.351L56.8651 32.027C58.1981 31.419 59.4951 32.3499 58.9861 34.4089V34.408Z" fill="#F9F9F9"/>
<path d="M53.0691 37.4391L38.9221 50.2021L42.3731 52.7461L38.4051 57.9781C37.4191 57.9781 37.5861 57.6041 37.2441 56.6661L34.6521 48.1332L52.1071 37.1191C52.9341 36.6211 53.6881 36.8911 53.0691 37.4391Z" fill="#F9F9F9"/>
<path d="M43.5992 53.6541L39.9332 57.2161C39.7525 57.45 39.5214 57.6401 39.257 57.7722C38.9926 57.9043 38.7018 57.975 38.4062 57.9791L38.9233 50.2021L42.3743 52.7462L43.5992 53.6541Z" fill="#F9F9F9"/>
</svg>
