<svg width="88" height="88" viewBox="0 0 88 88" fill="none" xmlns="http://www.w3.org/2000/svg">
<path d="M58 0H30C13.4315 0 0 13.4315 0 30V58C0 74.5685 13.4315 88 30 88H58C74.5685 88 88 74.5685 88 58V30C88 13.4315 74.5685 0 58 0Z" fill="#FBA300"/>
<path d="M63.0234 17.7129H24.9754C23.4286 17.7179 21.9469 18.3362 20.8553 19.4321C19.7637 20.528 19.1513 22.0121 19.1524 23.5589V61.9499C19.1494 63.4973 19.7613 64.9824 20.8533 66.0787C21.9453 67.175 23.428 67.7927 24.9754 67.7959H57.1754L55.6664 62.5379L59.3044 65.9209L62.7434 69.1049L68.8434 74.4959V23.5599C68.8447 22.0135 68.2328 20.5296 67.1419 19.4335C66.0509 18.3375 64.5698 17.7187 63.0234 17.7129ZM52.0644 54.7949C52.0644 54.7949 51.0434 53.5749 50.1894 52.4949C52.2465 52.0081 54.0654 50.8103 55.3254 49.1129C54.305 49.7923 53.211 50.3542 52.0644 50.7879C50.7454 51.3548 49.3642 51.7643 47.9494 52.0079C45.517 52.455 43.0226 52.4438 40.5944 51.9749C39.1694 51.6972 37.7731 51.2885 36.4233 50.7539C35.7102 50.4813 35.0172 50.1589 34.3494 49.7889C34.2604 49.7339 34.1834 49.6999 34.0944 49.6449C34.0511 49.624 34.0132 49.5936 33.9833 49.5559C33.4733 49.2679 33.1834 49.0679 33.1834 49.0679C34.3982 50.7301 36.1559 51.9151 38.1524 52.4179C37.2984 53.4939 36.2444 54.7699 36.2444 54.7699C29.9664 54.5699 27.5814 50.4549 27.5814 50.4549C27.6741 44.6993 29.0741 39.04 31.6754 33.9049C33.9627 32.1121 36.7481 31.0699 39.6504 30.9209L39.9384 31.2649C37.2066 31.9391 34.6573 33.208 32.4724 34.9809C32.4724 34.9809 33.0943 34.6369 34.1473 34.1599C36.1877 33.2274 38.3631 32.6246 40.5924 32.3739C40.7526 32.3381 40.9162 32.3194 41.0804 32.3179C42.983 32.0701 44.9084 32.0517 46.8154 32.2629C49.8166 32.6063 52.7217 33.533 55.3674 34.9909C53.294 33.3033 50.8854 32.0762 48.3014 31.3909L48.7014 30.9359C51.6054 31.0768 54.3932 32.12 56.6764 33.9199C59.2772 39.0548 60.6767 44.7137 60.7694 50.4689C60.7484 50.4809 58.3414 54.5969 52.0634 54.7959L52.0644 54.7949ZM38.8644 41.5399C38.23 41.4872 37.5945 41.6271 37.041 41.9415C36.4874 42.2558 36.0416 42.7299 35.7619 43.3018C35.4822 43.8736 35.3817 44.5165 35.4733 45.1464C35.565 45.7764 35.8447 46.3639 36.2758 46.8323C36.7068 47.3007 37.2692 47.6281 37.8894 47.7716C38.5096 47.9151 39.1586 47.8682 39.7517 47.6368C40.3447 47.4054 40.8541 47.0005 41.2132 46.4749C41.5723 45.9493 41.7644 45.3275 41.7644 44.6909C41.7814 44.2935 41.7198 43.8966 41.5832 43.5229C41.4466 43.1493 41.2376 42.8064 40.9682 42.5137C40.6988 42.221 40.3743 41.9843 40.0133 41.8172C39.6523 41.6501 39.2619 41.5559 38.8644 41.5399ZM49.2244 41.5399C48.59 41.4872 47.9545 41.6271 47.4009 41.9415C46.8474 42.2558 46.4016 42.7299 46.122 43.3018C45.8423 43.8736 45.7416 44.5165 45.8333 45.1464C45.925 45.7764 46.2047 46.3639 46.6358 46.8323C47.0668 47.3007 47.6292 47.6281 48.2494 47.7716C48.8696 47.9151 49.5186 47.8682 50.1116 47.6368C50.7047 47.4054 51.2141 47.0005 51.5732 46.4749C51.9323 45.9493 52.1244 45.3275 52.1244 44.6909C52.1414 44.2935 52.0799 43.8966 51.9432 43.5229C51.8066 43.1493 51.5976 42.8064 51.3282 42.5137C51.0588 42.221 50.7343 41.9843 50.3733 41.8172C50.0123 41.6501 49.6219 41.5559 49.2244 41.5399Z" fill="#F9F9F9"/>
</svg>
