<svg width="752" height="712" viewBox="0 0 752 712" fill="none" xmlns="http://www.w3.org/2000/svg">
<path opacity="0.6" d="M423.872 638.723C353.789 638.723 287.97 631.332 238.282 617.853C188.408 604.375 160.968 586.462 160.968 567.332C160.968 548.462 188.037 530.723 237.169 517.419C286.116 504.202 351.378 496.897 420.72 496.897C490.803 496.897 556.621 504.289 606.309 517.767C656.183 531.245 683.623 549.158 683.623 568.288C683.623 587.158 656.554 604.897 607.422 618.201C558.475 631.418 493.398 638.723 423.872 638.723ZM420.72 497.68C351.564 497.68 286.672 504.984 237.911 518.115C189.335 531.245 162.637 548.723 162.637 567.332C162.637 586.114 189.706 603.766 239.023 617.158C288.526 630.549 354.16 637.94 423.872 637.94C493.027 637.94 557.919 630.636 606.68 617.506C655.256 604.375 681.954 586.897 681.954 568.288C681.954 549.506 654.885 531.854 605.568 518.463C556.065 505.071 490.432 497.68 420.72 497.68Z" fill="#27043D"/>
<path opacity="0.3" d="M423.871 636.201C356.57 636.201 293.161 629.07 245.513 616.114C197.493 603.071 170.98 585.766 170.98 567.332C170.98 549.071 197.122 531.941 244.4 519.158C291.493 506.375 354.159 499.419 420.72 499.419C488.021 499.419 551.43 506.549 599.079 519.506C647.098 532.549 673.611 549.853 673.611 568.288C673.611 586.549 647.469 603.679 600.191 616.462C553.284 629.157 490.617 636.201 423.871 636.201ZM420.72 500.984C354.53 500.984 292.605 507.941 246.069 520.549C199.718 533.071 174.317 549.767 174.317 567.419C174.317 585.245 200.274 602.114 247.181 614.81C294.459 627.592 357.311 634.636 423.871 634.636C490.061 634.636 551.986 627.679 598.522 615.07C644.873 602.549 670.274 585.853 670.274 568.201C670.274 550.375 644.317 533.506 597.41 520.81C550.317 508.028 487.465 500.984 420.72 500.984Z" fill="#27043D"/>
<path opacity="0.8" d="M327.276 593.505C274.436 579.244 274.251 556.114 326.72 541.94C331.911 540.549 337.288 539.245 343.036 538.201L338.03 536.288C331.911 537.505 325.978 538.81 320.416 540.288C264.61 555.418 264.98 580.027 320.972 595.244C332.653 598.462 346.002 600.896 360.093 602.809L363.801 600.636C350.637 598.896 338.4 596.549 327.276 593.505Z" fill="#27043D"/>
<path opacity="0.6" d="M556.25 564.201L564.964 564.027C561.812 555.592 548.278 547.331 524.732 540.81L518.613 542.462C540.676 548.636 553.284 556.288 556.25 564.201Z" fill="#27043D"/>
<path opacity="0.8" d="M515.832 541.766L521.951 540.114C472.262 527.071 396.432 525.505 341.182 535.679L346.188 537.592C398.101 528.027 469.111 529.418 515.832 541.766Z" fill="#27043D"/>
<path opacity="0.4" d="M565.335 565.07L556.621 565.244C559.588 575.418 546.609 585.94 517.872 593.679C501 598.201 480.791 601.331 459.469 602.896L461.694 605.157C484.499 603.418 506.191 600.201 523.99 595.331C554.767 587.07 568.487 575.94 565.335 565.07Z" fill="#27043D"/>
<path opacity="0.6" d="M367.508 601.07L363.8 603.244C393.465 606.896 426.838 607.679 457.986 605.592L455.761 603.331C426.467 605.157 395.319 604.462 367.508 601.07Z" fill="#27043D"/>
<path opacity="0.4" d="M419.793 522.983C339.884 523.157 273.694 538.809 259.604 559.331L274.807 560.027C287.6 541.418 347.485 527.244 419.978 527.07L419.793 522.983ZM273.694 559.244L261.828 558.635C277.032 538.636 342.108 524.114 418.124 523.679V526.288C347.856 526.809 287.6 540.549 273.694 559.244Z" fill="#27043D"/>
<path opacity="0.6" d="M423.686 522.983V527.157C458.913 527.331 491.359 530.723 516.944 536.375L526.771 533.157C498.589 526.983 462.621 523.157 423.686 522.983ZM516.759 535.505C490.432 529.766 458.913 526.636 425.355 526.375V523.766C460.952 524.027 495.438 527.418 523.434 533.331L516.759 535.505Z" fill="#27043D"/>
<path opacity="0.8" d="M529.738 533.94L519.911 537.158C551.986 544.636 572.381 555.679 572.566 568.027C572.566 575.245 565.706 582.027 553.655 587.853L567.004 589.94C580.538 583.418 588.14 575.94 587.954 568.027C587.769 554.375 565.15 542.201 529.738 533.94ZM566.262 588.984L556.436 587.418C568.116 581.418 574.235 574.723 574.049 567.94C573.864 556.114 555.323 544.897 522.878 536.984L529.738 534.81C565.521 543.245 585.915 555.332 586.1 567.94C586.286 575.332 579.426 582.549 566.262 588.984Z" fill="#27043D"/>
<path d="M472.262 606.201C456.874 607.679 440.373 608.462 423.316 608.462C423.13 608.462 422.945 608.462 422.759 608.462C340.069 608.375 272.396 590.114 272.211 567.679C272.211 565.418 272.767 563.245 274.065 561.158L258.862 560.462C257.379 562.81 256.637 565.244 256.822 567.766C257.193 592.462 331.54 612.636 422.945 612.723C423.13 612.723 423.316 612.723 423.501 612.723C442.412 612.723 460.767 611.853 477.639 610.201L472.262 606.201ZM422.759 611.853C332.467 611.766 258.676 591.94 258.306 567.679C258.306 565.592 258.862 563.418 259.974 561.245L271.84 561.853C270.913 563.853 270.357 565.766 270.357 567.766C270.542 590.636 338.957 609.244 422.574 609.331H423.13C439.631 609.331 455.761 608.636 471.335 607.157L474.673 609.679C457.986 611.157 440.744 611.94 423.13 611.94L422.759 611.853Z" fill="#27043D"/>
<path opacity="0.6" d="M551.615 588.723C534.373 596.549 507.674 602.636 475.97 605.94L481.347 609.853C516.574 606.288 546.053 599.505 565.15 590.81L551.615 588.723ZM478.566 606.375C508.972 603.157 534.929 597.157 551.986 589.592L561.812 591.157C543.086 599.244 514.905 605.505 481.903 608.983L478.566 606.375Z" fill="#27043D"/>
<path opacity="0.2" d="M487.465 518.289L501.556 506.115C498.033 505.767 494.511 505.419 490.988 505.072L476.341 517.158C480.049 517.593 483.757 517.941 487.465 518.289ZM312.258 524.202L284.262 513.941C281.11 514.55 278.144 515.159 275.177 515.767L302.803 526.115C305.954 525.419 309.106 524.811 312.258 524.202ZM506.191 520.463L524.917 508.811C521.58 508.376 518.242 507.941 514.72 507.506L495.438 519.158C499.146 519.506 502.668 519.941 506.191 520.463ZM575.718 535.68C578.128 536.55 580.538 537.419 582.763 538.289L620.586 530.724C618.361 529.854 616.136 529.071 613.911 528.289L575.718 535.68ZM562.369 531.506C565.15 532.289 567.745 533.071 570.341 533.854L605.012 525.332C602.601 524.55 600.006 523.767 597.41 523.072L562.369 531.506ZM579.24 518.289L547.536 527.68C550.503 528.376 553.469 529.071 556.25 529.854L587.398 520.376C584.803 519.68 582.021 518.985 579.24 518.289ZM367.138 517.158L352.12 504.985C348.597 505.246 345.075 505.68 341.552 505.941L356.014 518.115C359.722 517.854 363.43 517.506 367.138 517.158ZM634.12 536.637C632.266 535.767 630.412 534.898 628.372 534.028L587.398 540.289C589.438 541.158 591.477 542.115 593.517 543.071L634.12 536.637ZM348.041 518.985L328.388 507.332C324.866 507.68 321.528 508.202 318.191 508.637L337.288 520.376C340.81 519.854 344.333 519.332 348.041 518.985ZM467.998 516.724L477.453 504.202C473.745 503.941 470.223 503.68 466.515 503.506L456.317 516.028C460.211 516.202 464.104 516.463 467.998 516.724ZM329.686 521.332L305.769 510.289C302.432 510.811 299.28 511.332 296.128 511.854L319.674 522.985C322.826 522.376 326.163 521.854 329.686 521.332ZM447.974 515.68L452.424 502.985C448.716 502.811 445.008 502.724 441.3 502.637L436.294 515.332C440.002 515.419 444.081 515.506 447.974 515.68ZM407.185 515.245L401.808 502.55C398.1 502.637 394.392 502.724 390.684 502.898L395.505 515.593C399.398 515.506 403.292 515.332 407.185 515.245ZM386.976 515.941L376.779 503.419C373.071 503.593 369.548 503.854 365.84 504.115L375.481 516.637C379.375 516.376 383.268 516.115 386.976 515.941ZM559.217 514.115L531.406 524.376C534.558 524.985 537.895 525.593 540.862 526.289L568.302 515.941C565.335 515.332 562.183 514.724 559.217 514.115ZM616.692 569.593H663.785C663.785 568.549 663.785 567.593 663.785 566.549L616.692 566.463C616.877 567.419 616.877 568.549 616.692 569.593ZM597.781 590.81L640.98 595.941C642.649 594.984 644.317 594.115 645.615 593.158L602.601 587.854C601.303 588.897 599.449 589.854 597.781 590.81ZM588.14 595.68L629.114 602.028C631.154 601.158 633.008 600.288 634.862 599.419L594.073 592.897C592.219 593.854 590.179 594.723 588.14 595.68ZM576.459 600.201L614.838 607.68C617.063 606.897 619.288 606.028 621.513 605.245L583.505 597.68C581.28 598.462 578.87 599.332 576.459 600.201ZM417.012 620.462L417.382 633.245C421.09 633.245 424.799 633.245 428.692 633.245L428.877 620.462C424.799 620.462 420.905 620.462 417.012 620.462ZM227.899 566.028H180.621C180.621 567.071 180.621 568.028 180.621 569.071L227.899 569.158C227.714 568.202 227.714 567.158 227.899 566.028ZM427.58 515.159L427.209 502.376C423.501 502.376 419.793 502.376 415.899 502.376L415.714 515.159C419.793 515.159 423.686 515.159 427.58 515.159ZM613.726 558.636L659.891 555.941C659.15 554.984 658.223 553.941 657.296 552.984L611.13 555.506C612.057 556.55 612.984 557.593 613.726 558.636ZM616.321 564.115L663.229 562.723C662.858 561.68 662.487 560.723 661.931 559.68L615.023 560.897C615.394 561.941 615.95 562.984 616.321 564.115ZM602.231 548.028L645.059 542.811C643.576 541.854 641.907 540.984 640.238 540.028L597.039 545.071C599.079 546.028 600.747 546.984 602.231 548.028ZM609.09 553.245L653.958 549.245C652.846 548.289 651.548 547.332 650.25 546.376L605.382 550.202C606.495 551.158 607.978 552.202 609.09 553.245ZM611.315 580.462L657.481 583.071C658.408 582.115 659.335 581.071 660.077 580.115L613.911 577.332C613.169 578.462 612.242 579.419 611.315 580.462ZM615.023 575.071L661.931 576.376C662.487 575.332 662.858 574.376 663.229 573.332L616.321 571.854C616.136 572.984 615.58 574.028 615.023 575.071ZM605.568 585.767L650.621 589.68C651.919 588.723 653.217 587.767 654.329 586.81L609.461 582.723C608.349 583.767 606.866 584.723 605.568 585.767ZM537.71 510.463L513.978 521.419C517.501 521.941 520.838 522.463 524.175 523.072L547.351 512.028C544.014 511.506 540.862 510.985 537.71 510.463ZM288.341 605.767L257.193 615.245C259.974 615.94 262.755 616.636 265.536 617.332L297.24 607.941C294.089 607.245 291.122 606.549 288.341 605.767ZM437.406 620.375L442.783 633.071C446.491 632.984 450.199 632.897 453.907 632.723L449.087 620.027C445.193 620.201 441.3 620.288 437.406 620.375ZM357.126 617.332L343.035 629.506C346.558 629.853 350.081 630.201 353.603 630.549L368.25 618.462C364.542 618.114 360.834 617.68 357.126 617.332ZM396.803 619.94L392.353 632.636C396.061 632.81 399.769 632.897 403.477 632.984L408.483 620.288C404.59 620.288 400.696 620.114 396.803 619.94ZM303.73 609.419L276.29 619.767C279.256 620.375 282.223 620.984 285.375 621.593L313.185 611.332C310.033 610.636 306.881 610.027 303.73 609.419ZM320.416 612.549L297.24 623.593C300.392 624.114 303.73 624.636 306.881 625.158L330.613 614.201C327.276 613.68 323.939 613.071 320.416 612.549ZM338.4 615.158L319.674 626.81C323.012 627.245 326.349 627.68 329.872 628.114L349.154 616.462C345.446 616.114 341.923 615.68 338.4 615.158ZM376.779 618.897L367.323 631.419C371.031 631.68 374.554 631.94 378.262 632.114L388.274 619.593C384.38 619.419 380.487 619.158 376.779 618.897ZM548.463 608.114L580.353 617.593C583.134 616.897 585.915 616.288 588.696 615.593L557.177 606.028C554.396 606.723 551.43 607.419 548.463 608.114ZM532.333 611.506L560.329 621.767C563.481 621.158 566.447 620.549 569.414 619.94L541.789 609.593C538.822 610.201 535.67 610.897 532.333 611.506ZM457.615 619.68L467.812 632.201C471.521 632.027 475.043 631.766 478.751 631.506L469.11 618.984C465.217 619.245 461.509 619.506 457.615 619.68ZM563.296 604.375L598.522 612.897C601.118 612.114 603.528 611.419 606.124 610.636L571.268 602.028C568.672 602.81 566.077 603.593 563.296 604.375ZM515.091 614.288L539.008 625.332C542.345 624.81 545.497 624.288 548.649 623.767L525.288 612.636C521.765 613.245 518.428 613.854 515.091 614.288ZM477.453 618.462L492.471 630.636C495.994 630.375 499.517 629.94 503.039 629.68L488.578 617.506C484.87 617.767 481.161 618.201 477.453 618.462ZM496.735 616.636L516.203 628.288C519.726 627.94 523.063 627.419 526.4 626.984L507.303 615.245C503.781 615.767 500.258 616.288 496.735 616.636ZM230.866 577.071L184.7 579.767C185.442 580.723 186.369 581.767 187.296 582.723L233.461 580.202C232.534 579.158 231.607 578.115 230.866 577.071ZM239.023 549.854L193.97 545.941C192.672 546.897 191.375 547.854 190.262 548.81L235.13 552.897C236.428 551.854 237.726 550.897 239.023 549.854ZM233.276 555.158L187.11 552.55C186.183 553.506 185.256 554.55 184.7 555.506L230.866 558.289C231.422 557.245 232.349 556.202 233.276 555.158ZM246.81 544.81L203.611 539.68C201.943 540.637 200.274 541.506 198.976 542.463L241.99 547.767C243.288 546.724 245.142 545.767 246.81 544.81ZM268.132 535.419L229.753 527.941C227.528 528.724 225.304 529.593 223.079 530.376L261.087 537.941C263.311 537.158 265.722 536.289 268.132 535.419ZM256.637 539.941L215.662 533.593C213.623 534.463 211.769 535.332 209.915 536.202L250.704 542.724C252.373 541.767 254.412 540.897 256.637 539.941ZM239.58 610.288C241.99 611.071 244.586 611.854 247.181 612.549L282.223 604.114C279.442 603.332 276.846 602.549 274.25 601.767L239.58 610.288ZM229.568 560.55L182.661 559.245C182.104 560.289 181.734 561.245 181.363 562.289L228.27 563.767C228.641 562.723 229.012 561.593 229.568 560.55ZM281.296 531.245L246.069 522.724C243.473 523.506 241.063 524.202 238.467 524.985L273.323 533.593C275.919 532.811 278.7 532.028 281.296 531.245ZM228.455 571.593L181.548 572.984C181.919 574.028 182.29 574.984 182.846 576.028L229.753 574.81C229.197 573.68 228.641 572.636 228.455 571.593ZM210.471 599.071C212.325 599.941 214.179 600.81 216.219 601.68L257.193 595.419C255.154 594.549 253.114 593.593 251.075 592.636L210.471 599.071ZM224.006 604.897C226.231 605.767 228.455 606.549 230.68 607.332L268.874 599.941C266.463 599.071 264.053 598.201 261.828 597.332L224.006 604.897ZM242.361 587.68L199.532 592.897C201.016 593.854 202.684 594.723 204.353 595.68L247.552 590.549C245.698 589.593 243.844 588.636 242.361 587.68ZM235.686 582.462L190.818 586.462C191.931 587.419 193.229 588.375 194.526 589.332L239.394 585.506C238.096 584.462 236.799 583.419 235.686 582.462ZM296.128 527.506L264.238 518.028C261.457 518.724 258.676 519.332 255.895 520.028L287.414 529.593C290.195 528.898 293.162 528.202 296.128 527.506Z" fill="#27043D"/>
<path opacity="0.5" d="M575.718 535.679C578.128 536.549 580.538 537.418 582.763 538.288L620.586 530.723C618.361 529.853 616.136 529.07 613.911 528.288L575.718 535.679ZM329.686 521.331L305.769 510.288C302.432 510.81 299.28 511.331 296.128 511.853L319.674 522.983C322.826 522.375 326.163 521.853 329.686 521.331ZM447.974 515.679L452.424 502.984C448.716 502.81 445.008 502.723 441.3 502.636L436.294 515.331C440.002 515.418 444.081 515.505 447.974 515.679ZM407.185 515.244L401.808 502.549C398.1 502.636 394.392 502.723 390.684 502.897L395.505 515.592C399.398 515.505 403.292 515.331 407.185 515.244ZM559.217 514.114L531.406 524.375C534.558 524.983 537.895 525.592 540.862 526.288L568.301 515.94C565.335 515.331 562.183 514.723 559.217 514.114ZM576.459 600.2L614.838 607.679C617.063 606.896 619.288 606.026 621.513 605.244L583.505 597.679C581.28 598.461 578.87 599.331 576.459 600.2ZM417.012 620.461L417.382 633.244C421.09 633.244 424.799 633.244 428.692 633.244L428.877 620.461C424.799 620.461 420.905 620.461 417.012 620.461ZM227.899 566.027H180.621C180.621 567.07 180.621 568.027 180.621 569.07L227.899 569.157C227.714 568.201 227.714 567.157 227.899 566.027ZM613.726 558.635L659.891 555.94C659.15 554.983 658.223 553.94 657.296 552.983L611.13 555.505C612.057 556.549 612.984 557.592 613.726 558.635ZM611.315 580.461L657.481 583.07C658.408 582.114 659.335 581.07 660.077 580.114L613.911 577.331C613.169 578.461 612.242 579.418 611.315 580.461ZM338.4 615.157L319.674 626.809C323.012 627.244 326.349 627.679 329.872 628.113L349.154 616.461C345.446 616.113 341.923 615.679 338.4 615.157ZM515.09 614.287L539.008 625.331C542.345 624.809 545.497 624.287 548.649 623.765L525.288 612.635C521.765 613.244 518.428 613.853 515.09 614.287ZM230.866 577.07L184.7 579.766C185.442 580.722 186.369 581.766 187.296 582.722L233.461 580.201C232.534 579.157 231.607 578.114 230.866 577.07ZM268.132 535.418L229.753 527.94C227.528 528.723 225.304 529.592 223.079 530.375L261.087 537.94C263.311 537.157 265.722 536.288 268.132 535.418ZM224.006 604.896C226.231 605.766 228.455 606.548 230.68 607.331L268.874 599.94C266.463 599.07 264.053 598.2 261.828 597.331L224.006 604.896Z" fill="#27043D"/>
<path opacity="0.3" d="M312.259 524.201L284.263 513.941C281.111 514.549 278.144 515.158 275.178 515.767L302.803 526.114C305.955 525.419 309.107 524.81 312.259 524.201ZM506.192 520.462L524.918 508.81C521.58 508.375 518.243 507.941 514.72 507.506L495.438 519.158C499.146 519.506 502.669 519.941 506.192 520.462ZM579.241 518.288L547.537 527.68C550.503 528.375 553.47 529.071 556.251 529.854L587.399 520.375C584.803 519.68 582.022 518.984 579.241 518.288ZM348.042 518.984L328.389 507.332C324.866 507.68 321.529 508.201 318.192 508.636L337.288 520.375C340.811 519.854 344.334 519.332 348.042 518.984ZM467.999 516.723L477.454 504.201C473.746 503.941 470.223 503.68 466.515 503.506L456.318 516.028C460.212 516.201 464.105 516.462 467.999 516.723ZM588.141 595.679L629.115 602.027C631.154 601.157 633.008 600.288 634.862 599.418L594.073 592.897C592.219 593.853 590.18 594.723 588.141 595.679ZM616.322 564.114L663.229 562.723C662.859 561.679 662.488 560.723 661.931 559.679L615.024 560.897C615.395 561.94 615.951 562.984 616.322 564.114ZM602.231 548.027L645.06 542.81C643.576 541.853 641.908 540.984 640.239 540.027L597.04 545.071C599.079 546.027 600.748 546.984 602.231 548.027ZM609.091 553.245L653.959 549.245C652.847 548.288 651.549 547.332 650.251 546.375L605.383 550.201C606.496 551.158 607.979 552.201 609.091 553.245ZM605.569 585.766L650.622 589.679C651.92 588.723 653.217 587.766 654.33 586.81L609.462 582.723C608.35 583.766 606.866 584.723 605.569 585.766ZM396.803 619.94L392.354 632.636C396.062 632.809 399.77 632.896 403.478 632.983L408.484 620.288C404.59 620.288 400.697 620.114 396.803 619.94ZM303.73 609.418L276.29 619.766C279.257 620.375 282.223 620.983 285.375 621.592L313.186 611.331C310.034 610.636 306.882 610.027 303.73 609.418ZM376.78 618.896L367.324 631.418C371.032 631.679 374.555 631.94 378.263 632.114L388.275 619.592C384.381 619.418 380.488 619.157 376.78 618.896ZM532.334 611.505L560.33 621.766C563.482 621.157 566.448 620.549 569.415 619.94L541.789 609.592C538.823 610.201 535.671 610.897 532.334 611.505ZM477.454 618.462L492.472 630.636C495.995 630.375 499.517 629.94 503.04 629.679L488.578 617.505C484.87 617.766 481.162 618.201 477.454 618.462ZM230.866 577.071L184.701 579.766C185.442 580.723 186.369 581.766 187.296 582.723L233.462 580.201C232.535 579.158 231.608 578.114 230.866 577.071ZM233.277 555.158L187.111 552.549C186.184 553.506 185.257 554.549 184.701 555.506L230.866 558.288C231.423 557.245 232.35 556.201 233.277 555.158ZM268.133 535.419L229.754 527.94C227.529 528.723 225.304 529.593 223.079 530.375L261.087 537.94C263.312 537.158 265.722 536.288 268.133 535.419ZM242.361 587.679L199.533 592.897C201.016 593.853 202.685 594.723 204.354 595.679L247.553 590.549C245.699 589.592 243.845 588.636 242.361 587.679Z" fill="#27043D"/>
<path opacity="0.2" d="M489.69 487.245C486.538 487.071 483.386 486.81 480.049 486.637L473.004 495.593C476.341 495.767 479.678 495.941 483.016 496.202L489.69 487.245ZM475.229 494.897L481.162 487.419C482.645 487.506 484.128 487.593 485.426 487.68C486.167 487.767 486.724 487.767 487.465 487.854L481.903 495.245C479.678 495.158 477.453 494.984 475.229 494.897ZM520.467 489.593C517.315 489.332 514.349 488.984 511.197 488.723L500.629 497.419C503.966 497.68 507.118 497.941 510.455 498.289L520.467 489.593ZM503.225 496.81L511.939 489.593C513.422 489.767 515.091 489.854 516.574 490.028C517.13 490.115 517.501 490.115 518.057 490.202L509.528 497.419C507.489 497.245 505.449 496.984 503.225 496.81ZM585.73 509.158L605.197 501.767C602.601 501.245 600.006 500.723 597.225 500.202L577.386 507.506C580.167 508.115 582.949 508.636 585.73 509.158ZM597.41 501.158C598.893 501.419 600.562 501.767 602.045 502.028L585.544 508.289C583.876 507.941 582.207 507.593 580.724 507.332L597.41 501.158ZM458.171 485.68C454.834 485.593 451.682 485.419 448.345 485.332L444.637 494.463C447.974 494.55 451.497 494.636 454.834 494.723L458.171 485.68ZM446.676 493.767L449.643 486.202C451.311 486.289 452.98 486.289 454.649 486.376C455.205 486.376 455.761 486.376 456.317 486.463L453.722 494.028C451.311 493.854 449.087 493.767 446.676 493.767ZM578.499 496.984C575.718 496.549 572.937 496.028 569.97 495.593L553.098 503.419C556.065 503.854 559.031 504.376 561.998 504.81L578.499 496.984ZM556.25 503.071L570.526 496.463C572.195 496.723 573.864 496.984 575.532 497.245L561.627 503.941C559.773 503.68 557.919 503.332 556.25 503.071ZM550.317 492.897C547.351 492.55 544.384 492.115 541.418 491.767L527.698 500.115C530.85 500.463 534.002 500.81 537.154 501.245L550.317 492.897ZM530.294 499.593L541.789 492.636C543.457 492.81 545.126 493.071 546.609 493.245C546.795 493.245 546.98 493.332 547.351 493.332L536.041 500.289C534.373 500.028 532.333 499.854 530.294 499.593ZM398.1 494.376L394.207 485.245C390.87 485.332 387.718 485.419 384.38 485.593L387.718 494.636C391.24 494.549 394.763 494.463 398.1 494.376ZM387.903 486.289C389.572 486.202 391.24 486.202 392.909 486.115L396.061 493.68C393.651 493.767 391.426 493.767 389.201 493.854L386.42 486.289C386.976 486.289 387.347 486.289 387.903 486.289ZM290.01 503.245L272.952 495.332C270.171 495.767 267.205 496.202 264.424 496.723L281.11 504.636C284.077 504.115 287.043 503.68 290.01 503.245ZM272.396 496.202L286.858 502.897C285.189 503.158 283.335 503.419 281.481 503.767L267.39 497.071C269.059 496.723 270.728 496.463 272.396 496.202ZM315.595 499.854L301.69 491.506C298.724 491.854 295.757 492.289 292.791 492.636L306.325 500.984C309.292 500.636 312.444 500.202 315.595 499.854ZM295.943 493.071C297.611 492.897 299.28 492.636 300.949 492.463L312.629 499.419C310.59 499.68 308.736 499.854 306.696 500.115L295.201 493.071C295.572 493.071 295.757 493.071 295.943 493.071ZM265.907 507.245L245.883 499.941C243.288 500.463 240.507 500.984 237.911 501.506L257.564 508.897C260.345 508.376 263.126 507.767 265.907 507.245ZM245.513 500.81L262.57 507.071C261.087 507.332 259.418 507.68 257.749 508.028L241.063 501.68C242.546 501.419 244.029 501.071 245.513 500.81ZM342.294 497.245L331.54 488.55C328.388 488.81 325.422 489.158 322.27 489.419L332.653 498.115C335.805 497.854 338.956 497.506 342.294 497.245ZM326.349 489.854C327.832 489.68 329.315 489.593 330.799 489.419L339.698 496.723C337.659 496.897 335.434 497.071 333.394 497.245L324.866 490.028C325.237 489.941 325.793 489.854 326.349 489.854ZM607.422 514.202L629.67 507.419C627.26 506.81 624.85 506.202 622.254 505.593L599.635 512.289C602.416 512.897 605.012 513.506 607.422 514.202ZM622.44 506.462C623.738 506.81 625.035 507.071 626.518 507.419L607.422 513.245C605.939 512.897 604.641 512.549 603.158 512.202L622.44 506.462ZM369.919 495.419L362.503 486.463C359.351 486.637 356.199 486.897 352.862 487.071L359.907 496.028C363.244 495.767 366.582 495.593 369.919 495.419ZM357.126 487.593C358.609 487.506 359.907 487.419 361.39 487.332L367.509 494.81C365.469 494.897 363.244 495.071 360.834 495.158L355.087 487.68C355.828 487.68 356.57 487.68 357.126 487.593ZM426.653 494.202L426.282 485.071C424.242 485.071 422.388 485.071 420.349 485.071C419.051 485.071 417.753 485.071 416.455 485.071L416.27 494.202C417.753 494.202 419.051 494.202 420.534 494.202C422.574 494.202 424.613 494.202 426.653 494.202ZM418.124 485.767C418.866 485.767 419.607 485.767 420.349 485.767C421.832 485.767 423.315 485.767 424.613 485.767L424.799 493.332C423.315 493.332 422.018 493.332 420.534 493.332C419.607 493.332 418.866 493.332 417.939 493.332L418.124 485.767ZM243.473 512.028L220.854 505.245C218.444 505.854 216.033 506.462 213.623 507.071L236.057 513.854C238.467 513.245 240.878 512.636 243.473 512.028ZM220.668 506.115L240.136 511.854C238.653 512.202 237.355 512.549 235.872 512.897L216.59 507.071C218.073 506.81 219.371 506.462 220.668 506.115ZM669.161 599.245L699.939 602.897C701.237 602.114 702.72 601.332 704.018 600.462L673.24 596.636C671.943 597.592 670.645 598.462 669.161 599.245ZM701.237 600.984C700.866 601.245 700.495 601.418 699.939 601.679C699.753 601.853 699.568 601.94 699.197 602.114L671.943 598.897C672.499 598.549 673.24 598.114 673.797 597.679L701.237 600.984ZM679.73 592.114L711.805 594.897C712.917 594.027 714.029 593.245 714.956 592.375L682.881 589.506C681.954 590.375 680.842 591.245 679.73 592.114ZM712.361 592.984C712.175 593.158 711.805 593.332 711.619 593.592C711.434 593.766 711.063 593.94 710.878 594.114L682.325 591.592C682.881 591.158 683.252 590.81 683.808 590.375L712.361 592.984ZM687.517 584.723L720.519 586.549C721.26 585.679 722.187 584.81 722.743 583.94L689.556 581.94C689 582.897 688.258 583.853 687.517 584.723ZM690.668 582.81L720.333 584.636C720.148 584.81 719.962 584.984 719.777 585.245C719.592 585.419 719.406 585.592 719.221 585.766L689.556 584.114C690.112 583.679 690.483 583.245 690.668 582.81ZM655.812 606.027L685.106 610.549C686.775 609.766 688.444 609.071 690.112 608.288L661.004 603.679C659.335 604.462 657.481 605.245 655.812 606.027ZM686.96 608.636C686.219 608.984 685.477 609.245 684.921 609.592L684.736 609.679L658.964 605.679C659.891 605.245 660.633 604.897 661.375 604.462L686.96 608.636ZM692.337 577.158L725.895 578.114C726.266 577.245 726.822 576.375 727.008 575.419L693.45 574.375C693.079 575.332 692.708 576.201 692.337 577.158ZM694.747 575.158L724.968 576.114C724.783 576.375 724.783 576.723 724.597 576.984C724.597 577.071 724.597 577.158 724.412 577.245L694.191 576.375C694.562 576.027 694.747 575.593 694.747 575.158ZM621.513 618.288L646.728 624.375C648.952 623.679 651.177 623.071 653.402 622.375L628.558 616.201C626.148 616.984 623.923 617.592 621.513 618.288ZM650.065 622.462C648.952 622.81 647.84 623.158 646.728 623.505L625.035 618.288C626.333 617.94 627.446 617.592 628.558 617.158L650.065 622.462ZM639.868 612.462L667.122 617.766C669.162 617.071 671.016 616.375 672.87 615.592L645.801 610.201C643.947 610.984 641.907 611.679 639.868 612.462ZM669.903 615.766C668.976 616.114 668.049 616.462 666.937 616.81L643.02 612.201C644.132 611.766 645.059 611.418 645.986 611.071L669.903 615.766ZM627.26 519.767L651.919 513.68C649.694 512.984 647.469 512.375 645.244 511.68L620.215 517.68C622.81 518.375 625.035 519.071 627.26 519.767ZM648.767 513.593L627.446 518.897C626.333 518.549 625.035 518.202 623.737 517.767L645.244 512.549C646.542 512.897 647.655 513.245 648.767 513.593ZM694.377 569.419H728.12C728.12 568.549 728.12 567.68 728.12 566.723L694.377 566.636C694.377 567.593 694.377 568.549 694.377 569.419ZM726.451 567.506C726.451 567.853 726.451 568.288 726.451 568.636H696.045C696.045 568.201 696.045 567.853 696.045 567.419L726.451 567.506ZM660.077 532.375L689 527.767C687.331 526.984 685.662 526.202 683.994 525.419L654.885 529.854C656.74 530.81 658.408 531.593 660.077 532.375ZM683.623 526.375L683.994 526.549C684.735 526.81 685.292 527.158 686.033 527.506L660.633 531.506C659.891 531.158 658.964 530.723 658.037 530.288L683.623 526.375ZM644.874 525.854L671.943 520.462C670.089 519.767 668.049 518.984 666.01 518.289L638.755 523.593C640.98 524.288 643.02 525.071 644.874 525.854ZM668.791 520.288L645.244 524.984C644.317 524.636 643.205 524.202 642.093 523.854L665.824 519.245C666.751 519.506 667.678 519.941 668.791 520.288ZM672.684 539.332L703.461 535.593C702.164 534.81 700.68 533.941 699.197 533.158L668.42 536.81C669.903 537.68 671.201 538.462 672.684 539.332ZM699.197 534.462C699.568 534.723 700.124 534.897 700.495 535.158L673.24 538.462C672.499 538.028 671.943 537.68 671.201 537.245L698.456 534.028C698.641 534.201 699.012 534.288 699.197 534.462ZM693.264 561.767L726.822 560.81C726.452 559.94 726.081 559.071 725.524 558.114L691.966 558.984C692.523 559.853 692.893 560.81 693.264 561.767ZM724.412 558.897L724.597 559.158C724.783 559.419 724.968 559.767 724.968 560.027L694.747 560.897C694.562 560.462 694.377 560.027 694.191 559.68L724.412 558.897ZM682.325 546.636L714.4 543.767C713.473 542.897 712.175 542.114 711.063 541.245L679.173 543.941C680.286 544.81 681.398 545.68 682.325 546.636ZM711.063 542.636C711.248 542.81 711.619 543.071 711.805 543.245L683.252 545.767C682.696 545.332 682.325 544.984 681.769 544.549L710.321 542.114C710.507 542.288 710.878 542.462 711.063 542.636ZM689.371 554.114L722.558 552.201C722.002 551.332 720.889 550.462 720.148 549.593L687.331 551.419C687.887 552.288 688.629 553.158 689.371 554.114ZM719.035 550.375C719.221 550.549 719.406 550.723 719.591 550.984C719.777 551.158 719.962 551.332 720.148 551.506L690.483 553.245C690.112 552.81 689.927 552.462 689.556 552.027L719.035 550.375ZM354.901 648.462C358.053 648.636 361.205 648.896 364.542 649.07L371.588 640.114C368.25 639.94 364.913 639.766 361.576 639.505L354.901 648.462ZM369.363 640.81L363.43 648.288C361.947 648.201 360.463 648.114 359.165 648.027C358.424 647.94 357.868 647.94 357.126 647.853L362.688 640.462C365.098 640.549 367.138 640.636 369.363 640.81ZM418.124 641.505L418.495 650.636C420.534 650.636 422.388 650.636 424.428 650.636C425.726 650.636 427.023 650.636 428.321 650.636V641.505C426.838 641.505 425.54 641.505 424.057 641.505C422.018 641.505 419.978 641.505 418.124 641.505ZM426.653 649.853C425.911 649.853 425.169 649.853 424.428 649.853C422.945 649.853 421.647 649.853 420.164 649.853L419.978 642.288C421.461 642.288 422.759 642.288 424.242 642.288C425.169 642.288 425.911 642.288 426.838 642.288L426.653 649.853ZM386.42 649.94C389.757 650.027 392.909 650.201 396.246 650.288L399.954 641.157C396.617 641.07 393.094 640.983 389.757 640.897L386.42 649.94ZM397.915 641.94L394.949 649.505C393.28 649.418 391.611 649.418 389.943 649.331C389.386 649.331 389.016 649.331 388.459 649.244L391.055 641.679C393.28 641.766 395.505 641.853 397.915 641.94ZM324.124 646.027C327.276 646.288 330.242 646.636 333.394 646.896L343.962 638.201C340.625 637.94 337.473 637.679 334.136 637.331L324.124 646.027ZM341.367 638.81L332.653 646.027C331.169 645.853 329.501 645.766 328.018 645.592C327.647 645.505 327.091 645.505 326.72 645.418L335.248 638.201C337.102 638.462 339.142 638.636 341.367 638.81ZM258.862 626.462L239.394 633.853C241.99 634.375 244.586 634.897 247.367 635.418L267.205 628.114C264.424 627.592 261.643 626.984 258.862 626.462ZM247.181 634.549C245.698 634.288 244.029 633.94 242.546 633.679L259.047 627.418C260.716 627.766 262.384 628.114 263.868 628.375L247.181 634.549ZM266.092 638.723C268.874 639.157 271.655 639.679 274.621 640.114L291.493 632.288C288.526 631.853 285.56 631.331 282.594 630.897L266.092 638.723ZM288.341 632.549L274.065 639.157C272.396 638.897 270.728 638.636 269.059 638.375L282.964 631.679C284.818 632.027 286.672 632.288 288.341 632.549ZM294.274 642.81C297.24 643.157 300.207 643.592 303.173 643.94L316.893 635.592C313.741 635.244 310.59 634.897 307.438 634.462L294.274 642.81ZM314.298 636.027L302.803 642.983C301.134 642.81 299.465 642.549 297.797 642.375C297.611 642.375 297.426 642.288 297.24 642.288L308.55 635.331C310.219 635.592 312.258 635.853 314.298 636.027ZM528.996 635.766L542.901 644.114C545.868 643.766 548.834 643.331 551.801 642.983L538.266 634.636C535.3 635.07 532.148 635.418 528.996 635.766ZM548.649 642.636C546.98 642.81 545.311 643.07 543.643 643.244L531.962 636.288C534.002 636.027 535.856 635.853 537.895 635.592L549.39 642.636C549.02 642.549 548.834 642.549 548.649 642.636ZM554.582 632.462L571.639 640.375C574.42 639.94 577.386 639.505 580.167 638.983L563.481 631.07C560.515 631.505 557.548 632.027 554.582 632.462ZM572.195 639.418L557.734 632.723C559.402 632.462 561.256 632.201 563.11 631.853L577.201 638.549C575.532 638.897 573.864 639.157 572.195 639.418ZM578.684 628.375L598.708 635.679C601.304 635.157 604.085 634.636 606.68 634.114L587.027 626.723C584.246 627.331 581.465 627.853 578.684 628.375ZM599.079 634.81L582.021 628.549C583.505 628.288 585.173 627.94 586.842 627.592L603.528 633.94C602.045 634.288 600.562 634.549 599.079 634.81ZM601.118 623.679L623.737 630.462C626.148 629.853 628.558 629.244 630.968 628.636L608.534 621.853C606.31 622.375 603.714 623.071 601.118 623.679ZM623.923 629.505L604.455 623.766C605.939 623.418 607.237 623.071 608.72 622.723L628.002 628.549C626.519 628.897 625.221 629.157 623.923 629.505ZM237.169 621.505L214.921 628.288C217.331 628.897 219.741 629.505 222.337 630.114L244.956 623.418C242.175 622.723 239.58 622.114 237.169 621.505ZM222.152 629.157C220.854 628.81 219.556 628.549 218.073 628.201L237.169 622.375C238.653 622.723 239.951 623.071 241.434 623.418L222.152 629.157ZM474.672 640.201L482.089 649.157C485.24 648.983 488.392 648.723 491.73 648.549L484.87 639.592C481.347 639.853 478.01 640.027 474.672 640.201ZM487.465 648.027C485.982 648.114 484.684 648.201 483.201 648.288L477.083 640.81C479.122 640.723 481.347 640.549 483.757 640.462L489.505 647.94C488.763 647.94 488.021 648.027 487.465 648.027ZM223.079 517.332L197.864 511.245C195.639 511.941 193.414 512.549 191.189 513.245L216.033 519.419C218.444 518.723 220.668 518.028 223.079 517.332ZM194.526 513.158C195.639 512.81 196.751 512.462 197.864 512.115L219.556 517.332C218.258 517.68 217.146 518.028 216.033 518.462L194.526 513.158ZM446.491 641.244L450.384 650.375C453.722 650.288 456.874 650.201 460.211 650.027L456.874 640.983C453.351 641.07 449.828 641.157 446.491 641.244ZM456.688 649.331C455.02 649.418 453.351 649.418 451.682 649.505L448.53 641.94C450.941 641.853 453.165 641.853 455.39 641.766L458.171 649.331C457.615 649.331 457.059 649.331 456.688 649.331ZM502.298 638.375L513.051 647.07C516.203 646.81 519.169 646.462 522.321 646.201L511.939 637.505C508.787 637.853 505.635 638.114 502.298 638.375ZM518.428 645.766C516.945 645.94 515.461 646.027 513.793 646.201L504.893 638.897C507.118 638.723 509.158 638.549 511.197 638.375L519.726 645.592C519.355 645.679 518.984 645.766 518.428 645.766ZM157.075 550.897L124.258 549.071C123.517 549.94 122.59 550.81 122.033 551.68L155.221 553.68C155.592 552.723 156.333 551.854 157.075 550.897ZM153.923 552.81L124.258 550.984C124.444 550.81 124.629 550.636 124.814 550.462C125 550.288 125.185 550.114 125.371 549.94L155.035 551.593C154.479 552.027 154.108 552.375 153.923 552.81ZM164.862 543.506L132.787 540.723C131.674 541.593 130.562 542.375 129.635 543.245L161.71 546.114C162.822 545.245 163.749 544.375 164.862 543.506ZM132.231 542.723C132.416 542.549 132.787 542.375 132.972 542.114C133.158 541.941 133.528 541.767 133.714 541.593L162.266 544.114C161.71 544.549 161.339 544.897 160.783 545.332L132.231 542.723ZM152.254 558.549L118.696 557.593C118.325 558.462 117.769 559.332 117.584 560.288L151.142 561.332C151.513 560.375 151.883 559.419 152.254 558.549ZM149.844 560.462L119.438 559.506C119.623 559.245 119.623 558.897 119.808 558.636C119.808 558.549 119.808 558.462 119.994 558.375L150.215 559.245C150.029 559.593 150.029 560.027 149.844 560.462ZM188.779 529.593L159.67 525.071C158.002 525.854 156.333 526.549 154.664 527.332L183.773 531.941C185.442 531.158 187.11 530.375 188.779 529.593ZM157.631 527.071C158.187 526.81 158.929 526.462 159.485 526.201L160.041 526.028L185.812 530.028C184.885 530.462 184.144 530.81 183.402 531.245L157.631 527.071ZM204.724 523.245L177.469 517.941C175.43 518.636 173.576 519.332 171.722 520.115L198.791 525.506C200.645 524.723 202.684 523.941 204.724 523.245ZM174.688 519.854C175.615 519.506 176.542 519.158 177.655 518.81L201.572 523.419C200.459 523.854 199.532 524.202 198.605 524.549L174.688 519.854ZM150.215 566.201H116.471C116.471 567.071 116.471 567.94 116.471 568.897L150.215 568.984C150.215 568.027 150.215 567.158 150.215 566.201ZM118.14 568.114C118.14 567.766 118.14 567.332 118.14 566.984H148.546C148.546 567.419 148.546 567.766 148.546 568.201L118.14 568.114ZM175.43 536.375L144.653 532.723C143.355 533.506 141.872 534.288 140.574 535.158L171.351 538.984C172.649 538.028 174.132 537.245 175.43 536.375ZM143.355 534.636C143.726 534.375 144.096 534.201 144.653 533.941C144.838 533.854 145.023 533.68 145.394 533.593L172.649 536.81C172.093 537.158 171.351 537.593 170.795 538.028L143.355 534.636ZM217.331 615.94L192.672 622.027C194.897 622.723 197.122 623.331 199.347 624.027L224.377 618.027C221.781 617.244 219.556 616.636 217.331 615.94ZM195.824 622.114L217.146 616.81C218.258 617.158 219.556 617.505 220.854 617.94L199.347 623.158C198.049 622.723 196.937 622.375 195.824 622.114ZM184.515 603.245L155.592 607.853C157.26 608.636 158.929 609.418 160.597 610.201L189.706 605.766C187.852 604.897 186.183 604.027 184.515 603.245ZM160.968 609.245L160.783 609.158C160.041 608.81 159.3 608.462 158.558 608.201L183.958 604.201C184.7 604.549 185.627 604.984 186.554 605.418L160.968 609.245ZM172.092 596.288L141.315 600.027C142.613 600.81 144.096 601.679 145.58 602.462L176.357 598.81C174.688 598.027 173.39 597.158 172.092 596.288ZM145.394 601.158C145.023 600.897 144.653 600.723 144.282 600.462L171.536 597.158C172.278 597.592 172.834 597.94 173.576 598.375L146.321 601.592C145.95 601.418 145.58 601.332 145.394 601.158ZM199.718 609.766L172.649 615.158C174.503 615.853 176.542 616.636 178.582 617.331L205.836 612.027C203.611 611.331 201.572 610.549 199.718 609.766ZM175.801 615.418L199.347 610.723C200.274 611.071 201.386 611.505 202.499 611.853L178.767 616.462C177.84 616.114 176.913 615.766 175.801 615.418ZM162.266 589.071L130.191 591.94C131.118 592.81 132.416 593.592 133.528 594.462L165.418 591.766C164.306 590.81 163.193 589.94 162.266 589.071ZM133.528 593.071C133.158 592.897 132.972 592.636 132.787 592.462L161.339 589.94C161.895 590.375 162.266 590.723 162.822 591.158L134.27 593.592C134.085 593.419 133.899 593.245 133.528 593.071ZM155.406 581.592L122.219 583.506C122.775 584.375 123.887 585.245 124.629 586.114L157.446 584.288C156.704 583.332 155.962 582.462 155.406 581.592ZM125.556 585.245C125.371 585.071 125.185 584.897 125 584.723C124.814 584.549 124.629 584.375 124.444 584.201L154.108 582.462C154.479 582.897 154.664 583.245 155.035 583.679L125.556 585.245ZM151.327 573.94L117.769 574.897C118.14 575.766 118.511 576.636 119.067 577.593L152.625 576.723C152.069 575.766 151.698 574.81 151.327 573.94ZM120.179 576.723C120.179 576.636 119.994 576.549 119.994 576.462C119.808 576.201 119.623 575.94 119.623 575.593L149.844 574.723C150.029 575.158 150.215 575.506 150.4 575.94L120.179 576.723Z" fill="#27043D"/>
<path opacity="0.2" d="M458.171 485.68C454.834 485.593 451.682 485.419 448.345 485.332L444.637 494.462C447.974 494.549 451.497 494.636 454.834 494.723L458.171 485.68ZM446.676 493.767L449.643 486.202C451.311 486.289 452.98 486.289 454.649 486.376C455.205 486.376 455.761 486.376 456.317 486.462L453.722 494.028C451.311 493.854 449.086 493.767 446.676 493.767ZM578.499 496.984C575.718 496.549 572.937 496.028 569.97 495.593L553.098 503.419C556.065 503.854 559.031 504.375 561.998 504.81L578.499 496.984ZM556.25 503.071L570.526 496.462C572.195 496.723 573.864 496.984 575.532 497.245L561.627 503.941C559.773 503.68 557.919 503.332 556.25 503.071ZM550.317 492.897C547.351 492.549 544.384 492.115 541.418 491.767L527.698 500.115C530.85 500.462 534.002 500.81 537.154 501.245L550.317 492.897ZM530.294 499.593L541.789 492.636C543.457 492.81 545.126 493.071 546.609 493.245C546.795 493.245 546.98 493.332 547.351 493.332L536.041 500.288C534.372 500.028 532.333 499.854 530.294 499.593ZM290.01 503.245L272.952 495.332C270.171 495.767 267.205 496.202 264.424 496.723L281.11 504.636C284.077 504.115 287.043 503.68 290.01 503.245ZM272.396 496.202L286.858 502.897C285.189 503.158 283.335 503.419 281.481 503.767L267.39 497.071C269.059 496.723 270.727 496.462 272.396 496.202ZM369.919 495.419L362.503 486.462C359.351 486.636 356.199 486.897 352.862 487.071L359.907 496.028C363.244 495.767 366.581 495.593 369.919 495.419ZM357.126 487.593C358.609 487.506 359.907 487.419 361.39 487.332L367.509 494.81C365.469 494.897 363.244 495.071 360.834 495.158L355.086 487.68C355.828 487.68 356.57 487.68 357.126 487.593ZM243.473 512.028L220.854 505.245C218.443 505.854 216.033 506.462 213.623 507.071L236.057 513.854C238.467 513.245 240.877 512.636 243.473 512.028ZM220.668 506.115L240.136 511.854C238.653 512.201 237.355 512.549 235.871 512.897L216.589 507.071C218.073 506.81 219.37 506.462 220.668 506.115ZM679.729 592.114L711.804 594.897C712.917 594.027 714.029 593.244 714.956 592.375L682.881 589.505C681.954 590.375 680.842 591.245 679.729 592.114ZM712.361 592.984C712.175 593.158 711.804 593.331 711.619 593.592C711.434 593.766 711.063 593.94 710.877 594.114L682.325 591.592C682.881 591.158 683.252 590.81 683.808 590.375L712.361 592.984ZM692.337 577.158L725.895 578.114C726.266 577.245 726.822 576.375 727.008 575.419L693.449 574.375C693.078 575.332 692.708 576.201 692.337 577.158ZM694.747 575.158L724.968 576.114C724.783 576.375 724.783 576.723 724.597 576.984C724.597 577.071 724.597 577.158 724.412 577.245L694.191 576.375C694.562 576.027 694.747 575.592 694.747 575.158ZM621.512 618.288L646.728 624.375C648.952 623.679 651.177 623.07 653.402 622.375L628.558 616.201C626.148 616.984 623.923 617.592 621.512 618.288ZM650.065 622.462C648.952 622.81 647.84 623.157 646.728 623.505L625.035 618.288C626.333 617.94 627.445 617.592 628.558 617.157L650.065 622.462ZM639.868 612.462L667.122 617.766C669.161 617.07 671.015 616.375 672.87 615.592L645.8 610.201C643.946 610.984 641.907 611.679 639.868 612.462ZM669.903 615.766C668.976 616.114 668.049 616.462 666.937 616.81L643.019 612.201C644.132 611.766 645.059 611.418 645.986 611.07L669.903 615.766ZM660.077 532.375L689 527.767C687.331 526.984 685.662 526.201 683.994 525.419L654.885 529.854C656.739 530.81 658.408 531.593 660.077 532.375ZM683.623 526.375L683.994 526.549C684.735 526.81 685.292 527.158 686.033 527.506L660.633 531.506C659.891 531.158 658.964 530.723 658.037 530.288L683.623 526.375ZM689.371 554.114L722.558 552.201C722.002 551.332 720.889 550.462 720.148 549.593L687.331 551.419C687.887 552.288 688.629 553.158 689.371 554.114ZM719.035 550.375C719.221 550.549 719.406 550.723 719.591 550.984C719.777 551.158 719.962 551.332 720.148 551.506L690.483 553.245C690.112 552.81 689.927 552.462 689.556 552.027L719.035 550.375ZM354.901 648.462C358.053 648.635 361.205 648.896 364.542 649.07L371.587 640.114C368.25 639.94 364.913 639.766 361.576 639.505L354.901 648.462ZM369.363 640.809L363.43 648.288C361.946 648.201 360.463 648.114 359.165 648.027C358.424 647.94 357.868 647.94 357.126 647.853L362.688 640.462C365.098 640.549 367.138 640.636 369.363 640.809ZM294.274 642.809C297.24 643.157 300.207 643.592 303.173 643.94L316.893 635.592C313.741 635.244 310.589 634.896 307.438 634.462L294.274 642.809ZM314.297 636.027L302.802 642.983C301.134 642.809 299.465 642.549 297.797 642.375C297.611 642.375 297.426 642.288 297.24 642.288L308.55 635.331C310.219 635.592 312.258 635.853 314.297 636.027ZM554.582 632.462L571.639 640.375C574.42 639.94 577.386 639.505 580.167 638.983L563.481 631.07C560.514 631.505 557.548 632.027 554.582 632.462ZM572.195 639.418L557.733 632.723C559.402 632.462 561.256 632.201 563.11 631.853L577.201 638.549C575.532 638.896 573.864 639.157 572.195 639.418ZM237.169 621.505L214.921 628.288C217.331 628.896 219.741 629.505 222.337 630.114L244.956 623.418C242.175 622.723 239.58 622.114 237.169 621.505ZM222.152 629.157C220.854 628.81 219.556 628.549 218.073 628.201L237.169 622.375C238.653 622.723 239.95 623.07 241.434 623.418L222.152 629.157ZM474.672 640.201L482.088 649.157C485.24 648.983 488.392 648.722 491.729 648.549L484.869 639.592C481.347 639.853 478.01 640.027 474.672 640.201ZM487.465 648.027C485.982 648.114 484.684 648.201 483.201 648.288L477.083 640.809C479.122 640.723 481.347 640.549 483.757 640.462L489.505 647.94C488.763 647.94 488.021 648.027 487.465 648.027ZM446.491 641.244L450.384 650.375C453.722 650.288 456.873 650.201 460.211 650.027L456.873 640.983C453.351 641.07 449.828 641.157 446.491 641.244ZM456.688 649.331C455.019 649.418 453.351 649.418 451.682 649.505L448.53 641.94C450.94 641.853 453.165 641.853 455.39 641.766L458.171 649.331C457.615 649.331 457.059 649.331 456.688 649.331ZM152.254 558.549L118.696 557.593C118.325 558.462 117.769 559.332 117.583 560.288L151.142 561.332C151.512 560.375 151.883 559.419 152.254 558.549ZM149.844 560.462L119.438 559.506C119.623 559.245 119.623 558.897 119.808 558.636C119.808 558.549 119.808 558.462 119.994 558.375L150.215 559.245C150.029 559.593 150.029 560.027 149.844 560.462ZM188.779 529.593L159.67 525.071C158.002 525.854 156.333 526.549 154.664 527.332L183.773 531.94C185.441 531.158 187.11 530.375 188.779 529.593ZM157.631 527.071C158.187 526.81 158.929 526.462 159.485 526.201L160.041 526.027L185.812 530.027C184.885 530.462 184.144 530.81 183.402 531.245L157.631 527.071ZM175.43 536.375L144.653 532.723C143.355 533.506 141.871 534.288 140.574 535.158L171.351 538.984C172.649 538.027 174.132 537.245 175.43 536.375ZM143.355 534.636C143.725 534.375 144.096 534.201 144.653 533.94C144.838 533.854 145.023 533.68 145.394 533.593L172.649 536.81C172.092 537.158 171.351 537.593 170.795 538.027L143.355 534.636ZM184.514 603.244L155.591 607.853C157.26 608.636 158.929 609.418 160.597 610.201L189.706 605.766C187.852 604.897 186.183 604.027 184.514 603.244ZM160.968 609.244L160.783 609.157C160.041 608.81 159.299 608.462 158.558 608.201L183.958 604.201C184.7 604.549 185.627 604.984 186.554 605.418L160.968 609.244ZM162.266 589.071L130.191 591.94C131.118 592.81 132.416 593.592 133.528 594.462L165.418 591.766C164.305 590.81 163.193 589.94 162.266 589.071ZM133.528 593.071C133.157 592.897 132.972 592.636 132.787 592.462L161.339 589.94C161.895 590.375 162.266 590.723 162.822 591.158L134.27 593.592C134.084 593.418 133.899 593.245 133.528 593.071ZM155.406 581.592L122.219 583.505C122.775 584.375 123.887 585.245 124.629 586.114L157.445 584.288C156.704 583.332 155.962 582.462 155.406 581.592ZM125.556 585.245C125.37 585.071 125.185 584.897 125 584.723C124.814 584.549 124.629 584.375 124.443 584.201L154.108 582.462C154.479 582.897 154.664 583.245 155.035 583.679L125.556 585.245Z" fill="#27043D"/>
<g opacity="0.2">
<g opacity="0.2">
<path opacity="0.2" d="M594.073 568.462C593.702 579.418 579.426 589.505 555.324 597.418L565.15 599.679C592.961 590.549 606.495 580.288 606.866 568.462H594.073Z" fill="#27043D"/>
</g>
</g>
<path opacity="0.6" d="M455.02 617.245C496.736 615.245 534.929 609.332 562.925 600.462L553.099 598.201C521.58 608.114 475.043 614.375 422.759 614.375C392.168 614.375 363.43 612.114 338.4 608.288L332.097 611.245C369.734 617.071 413.304 619.158 455.02 617.245Z" fill="#27043D"/>
<path opacity="0.3" d="M250.333 567.679C249.963 542.027 326.905 521.245 421.647 521.245C431.103 521.245 440.558 521.506 449.643 521.853L451.868 518.375C419.237 516.897 389.572 517.593 358.424 520.636C285.746 527.766 237.17 546.549 237.355 567.505C237.355 573.157 241.063 578.723 248.108 584.114L260.16 582.983C253.856 578.288 250.333 573.07 250.333 567.679Z" fill="#27043D"/>
<path opacity="0.2" d="M261.458 584.114L249.406 585.245C264.795 596.375 290.751 604.723 328.574 610.81L334.878 607.853C301.69 602.375 275.548 594.027 261.458 584.114Z" fill="#27043D"/>
<path opacity="0.5" d="M594.073 567.418H606.866C606.31 555.766 590.921 544.462 563.667 535.679C536.227 526.897 498.034 520.81 455.576 518.636L453.351 522.114C532.519 526.201 592.961 544.983 594.073 567.418Z" fill="#27043D"/>
<path d="M423.872 591.537C491.564 591.537 546.438 580.923 546.438 567.83C546.438 554.737 491.564 544.123 423.872 544.123C356.181 544.123 301.307 554.737 301.307 567.83C301.307 580.923 356.181 591.537 423.872 591.537Z" fill="url(#paint0_radial)"/>
<path d="M510.476 522.317C472.469 560.307 432.421 574.021 398.121 565.867C397.009 565.682 381.991 561.975 381.064 561.79C346.394 551.968 388.851 538.069 374.575 484.882C345.837 377.952 385.699 228.214 463.569 150.379C502.133 111.833 466.721 76.0659 501.392 84.9612C502.319 85.1465 522.342 92.374 523.269 92.7447C557.384 102.937 585.38 135.368 599.471 187.814C628.023 294.744 588.161 444.482 510.476 522.317Z" fill="url(#paint1_linear)"/>
<path d="M587.048 184.663C573.329 133.329 546.26 101.269 513.443 90.335C539.585 105.161 560.721 134.812 572.402 178.177C601.139 285.106 561.277 434.845 483.407 512.68C442.804 553.265 400.161 566.052 364.378 554.191C402.757 575.688 451.889 565.31 498.24 519.166C575.924 441.331 615.786 291.593 587.048 184.663Z" fill="url(#paint2_radial)"/>
<path d="M492.307 516.571C414.252 594.591 327.668 570.87 298.93 463.569C270.192 356.269 310.24 206.16 388.295 128.14C466.35 50.12 552.934 73.8409 581.672 181.141C610.409 288.442 570.362 438.551 492.307 516.571Z" fill="url(#paint3_linear)"/>
<path d="M571.093 356.784C603.916 231.645 571.91 114.839 499.605 95.8911C427.3 76.9434 342.077 163.029 309.254 288.168C276.431 413.307 308.437 530.113 380.742 549.061C453.047 568.009 538.27 481.923 571.093 356.784Z" fill="url(#paint4_linear)"/>
<path d="M482.851 481.36C418.887 545.296 348.062 525.837 324.516 437.996C300.969 350.154 333.786 227.286 397.565 163.536C461.53 99.6009 532.354 119.06 555.9 206.901C579.447 294.558 546.816 417.425 482.851 481.36Z" fill="url(#paint5_linear)"/>
<path d="M533.611 346.961C557.059 257.562 534.235 174.127 482.631 160.604C431.027 147.081 370.185 208.591 346.737 297.99C323.288 387.39 346.112 470.825 397.716 484.348C449.32 497.871 510.162 436.361 533.611 346.961Z" fill="url(#paint6_linear)"/>
<path d="M468.575 428.36C425.932 470.983 378.84 458.011 363.08 399.45C347.321 340.889 369.199 258.977 411.842 216.539C454.485 174.101 501.577 186.888 517.337 245.449C533.096 303.825 511.218 385.736 468.575 428.36Z" fill="url(#paint7_linear)"/>
<path d="M496.309 337.186C510.383 283.527 496.661 233.441 465.659 225.317C434.657 217.193 398.115 254.106 384.041 307.766C369.966 361.425 383.689 411.511 414.691 419.635C445.693 427.759 482.234 390.845 496.309 337.186Z" fill="#FF7F00"/>
<path d="M454.485 375.358C433.163 396.67 409.617 390.183 401.645 360.903C393.858 331.622 404.796 290.666 425.933 269.355C447.254 248.043 470.8 254.529 478.773 283.81C486.56 313.09 475.806 354.046 454.485 375.358Z" fill="url(#paint8_linear)"/>
<path d="M327.483 436.514C303.936 348.672 336.753 225.805 400.532 162.055C410.915 151.677 421.483 143.523 432.051 137.407C420.556 143.523 409.061 152.233 397.566 163.723C333.601 227.658 300.97 350.525 324.516 438.182C344.169 511.569 397.009 537.143 451.148 506.194C398.122 534.548 346.765 508.603 327.483 436.514Z" fill="#D1D3D4"/>
<path d="M366.047 397.966C350.288 339.405 372.166 257.493 414.809 215.055C421.483 208.383 428.158 203.194 434.832 199.303C427.231 203.38 419.444 209.125 412.027 216.723C369.384 259.346 347.692 341.258 363.266 399.634C376.43 449.114 412.213 465.978 448.737 444.296C413.14 463.384 378.84 446.149 366.047 397.966Z" fill="#D1D3D4"/>
<path d="M404.611 359.421C396.824 330.14 407.762 289.184 428.899 267.873C432.05 264.722 435.202 262.128 438.54 260.274C434.461 262.313 430.196 265.463 426.117 269.54C404.796 290.852 393.857 331.808 401.83 361.089C408.504 385.922 426.674 394.446 445.029 383.142C427.415 391.666 410.914 382.956 404.611 359.421Z" fill="#D1D3D4"/>
<path d="M458.826 327.364C463.526 309.445 458.986 292.73 448.685 290.031C438.384 287.331 426.223 299.67 421.523 317.589C416.823 335.509 421.363 352.223 431.664 354.923C441.965 357.622 454.126 345.284 458.826 327.364Z" fill="#FF7F00"/>
<path d="M575.183 187.629C565.357 150.75 548.114 124.064 526.793 108.683C547.002 124.25 563.132 150.194 572.587 185.59C600.027 287.887 561.834 431.325 487.301 505.824C439.653 553.451 388.666 561.42 351.029 534.178C389.037 563.644 441.136 556.416 489.897 507.677C564.43 433.364 602.623 289.926 575.183 187.629Z" fill="url(#paint9_radial)"/>
<path d="M536.619 226.174C529.574 199.859 517.337 180.956 502.134 170.022C516.039 181.142 527.349 199.488 534.023 224.321C553.676 297.523 526.422 399.819 473.211 453.006C439.096 487.105 402.757 492.665 375.688 473.206C402.942 495.074 440.58 490.07 475.621 455.045C529.017 401.673 556.272 299.191 536.619 226.174Z" fill="url(#paint10_radial)"/>
<path d="M498.055 264.721C493.605 248.413 486.004 236.923 476.548 230.437C484.891 237.108 491.566 248.042 495.459 262.868C507.14 306.788 490.824 368.129 458.935 400.19C438.911 420.204 417.404 423.911 401.274 412.792C417.59 426.135 440.209 423.169 461.53 402.043C493.42 369.983 509.921 308.456 498.055 264.721Z" fill="url(#paint11_radial)"/>
<path d="M459.491 303.083C457.822 297.153 455.041 293.261 451.518 291.223C453.928 293.446 455.783 296.782 456.895 301.23C460.788 315.87 455.412 336.255 444.658 347.004C438.355 353.305 431.495 354.787 426.303 351.637C431.865 356.826 439.838 356.27 447.254 348.857C458.007 338.294 463.384 317.723 459.491 303.083Z" fill="url(#paint12_radial)"/>
<g style="mix-blend-mode:soft-light">
<path d="M594.628 234.788C584.629 242.621 570.48 232.454 562.982 212.145C555.559 191.815 557.614 168.978 567.613 161.145C577.612 153.311 591.761 163.479 599.259 183.788C606.682 204.118 604.627 226.954 594.628 234.788Z" fill="url(#paint13_radial)"/>
</g>
<path d="M355.982 304.001L389.17 314.379L354.499 306.595L355.982 304.001Z" fill="url(#paint14_linear)"/>
<path d="M85.8481 234.691L76.0217 221.719C70.645 214.677 78.8028 205.226 86.5897 209.673L168.168 256.189L85.8481 234.691Z" fill="url(#paint15_linear)"/>
<path d="M87.3314 233.951L77.5049 220.978C74.1676 216.531 76.2071 211.156 80.1006 208.747C75.2801 210.23 72.1282 216.531 76.0217 221.534L85.8481 234.507L168.168 256.004L164.645 253.965L87.3314 233.951Z" fill="url(#paint16_radial)"/>
<path d="M358.763 307.523C358.578 307.708 358.207 307.893 358.022 307.893C358.022 307.893 343.375 310.117 319.272 303.816C284.972 294.736 280.523 291.956 280.523 291.956C279.596 291.771 280.708 291.4 280.337 289.917C279.596 287.138 280.708 283.246 282.562 281.207C283.489 280.281 282.562 279.354 283.489 279.539C283.489 279.539 288.495 279.539 322.795 288.805C346.897 295.292 358.578 304.743 358.578 304.743C358.763 304.743 358.949 304.928 359.134 305.299C359.505 306.04 359.32 307.152 358.763 307.523Z" fill="url(#paint17_linear)"/>
<path d="M283.489 290.659C281.45 292.697 279.225 292.141 278.483 289.362C277.742 286.582 278.854 282.69 280.708 280.652C282.748 278.613 284.972 279.169 285.714 281.949C286.456 284.729 285.343 288.62 283.489 290.659Z" fill="url(#paint18_linear)"/>
<path d="M282.748 290.102C281.821 291.029 280.894 291.4 279.967 291.214C279.967 291.214 80.4717 237.657 80.2862 237.657C79.3592 237.471 80.4717 237.101 80.1008 235.804C79.3592 233.209 80.2862 229.503 82.3257 227.464C83.2527 226.538 82.3257 225.611 83.2527 225.796L282.933 279.539C283.86 279.724 284.416 280.651 284.787 281.948C285.529 284.543 284.602 288.249 282.748 290.102Z" fill="url(#paint19_linear)"/>
<path d="M83.0674 236.545C81.2133 238.398 78.9885 237.842 78.2468 235.248C77.5052 232.654 78.4322 228.947 80.4717 226.909C82.3257 225.055 84.5506 225.611 85.2922 228.206C85.8484 230.8 84.9214 234.507 83.0674 236.545Z" fill="url(#paint20_linear)"/>
<g style="mix-blend-mode:soft-light">
<path opacity="0.1" d="M427.363 318.827L406.227 342.177C406.042 342.177 406.042 342.363 405.856 342.363C405.856 342.363 392.322 348.849 376.191 368.122C353.387 395.364 274.219 480.982 274.219 480.982C274.034 481.168 274.034 481.168 274.034 481.353C273.663 482.094 273.477 483.021 274.034 484.133C274.961 486.727 285.529 501.923 288.31 502.479C289.608 502.665 290.535 502.479 291.276 501.738C291.276 501.738 291.462 501.738 291.462 501.553C291.462 501.553 365.438 405.186 388.243 377.944C404.187 358.856 408.266 344.587 408.266 344.587C408.452 344.401 408.452 344.216 408.266 343.845L427.363 318.827Z" fill="url(#paint21_linear)"/>
<path opacity="0.1091" d="M425.88 320.495L405.856 342.734C405.671 342.734 405.671 342.734 405.485 342.919C405.485 342.919 392.692 349.22 377.489 367.381C355.797 393.326 278.669 477.461 278.669 477.461C278.483 477.647 278.483 477.647 278.483 477.647C278.113 478.203 277.927 479.129 278.483 480.241C279.41 482.65 289.051 496.549 291.647 497.105C292.945 497.291 293.872 497.105 294.428 496.364C294.428 496.364 294.614 496.364 294.614 496.179C294.614 496.179 367.107 402.221 388.614 376.462C403.631 358.3 407.896 344.772 407.896 344.772C408.081 344.587 408.081 344.401 407.896 344.031L425.88 320.495Z" fill="url(#paint22_linear)"/>
<path opacity="0.1182" d="M424.396 322.163L405.485 343.104C405.3 343.104 405.3 343.104 405.114 343.29C405.114 343.29 393.063 349.405 378.787 366.455C358.392 390.917 282.933 473.57 282.933 473.57C282.747 473.755 282.747 473.755 282.747 473.755C282.377 474.311 282.377 475.238 282.747 476.164C283.674 478.388 292.388 491.175 294.799 491.546C295.911 491.731 296.838 491.546 297.394 490.99C297.394 490.99 297.58 490.99 297.58 490.804C297.58 490.804 368.404 399.442 388.799 374.794C403.075 357.745 407.154 344.772 407.154 344.772C407.339 344.587 407.339 344.402 407.154 344.031L424.396 322.163Z" fill="url(#paint23_linear)"/>
<path opacity="0.1273" d="M423.099 323.831L405.3 343.475C405.114 343.475 405.114 343.475 405.114 343.66C405.114 343.66 393.99 349.405 380.456 365.713C361.174 388.878 287.568 469.863 287.568 469.863C287.568 470.049 287.383 470.049 287.383 470.049C287.012 470.605 287.012 471.346 287.383 472.458C288.124 474.682 296.282 485.986 298.507 486.357C299.619 486.542 300.361 486.357 300.917 485.801C300.917 485.801 301.103 485.801 301.103 485.616C301.103 485.616 370.444 396.662 389.726 373.497C403.26 357.374 407.339 345.328 407.339 345.328C407.525 345.143 407.525 344.958 407.339 344.587L423.099 323.831Z" fill="url(#paint24_linear)"/>
<path opacity="0.1364" d="M421.616 325.498L404.929 344.03C404.744 344.03 404.744 344.03 404.744 344.215C404.744 344.215 394.361 349.775 381.754 364.971C363.77 386.654 291.833 466.156 291.833 466.156C291.833 466.341 291.647 466.341 291.647 466.341C291.276 466.897 291.276 467.639 291.647 468.565C292.389 470.604 299.62 480.611 301.659 480.982C302.771 481.167 303.513 480.982 303.884 480.426C303.884 480.426 304.069 480.426 304.069 480.24C304.069 480.24 371.927 393.696 389.912 372.013C402.519 356.817 406.598 345.513 406.598 345.513C406.783 345.327 406.783 345.142 406.598 344.957L421.616 325.498Z" fill="url(#paint25_linear)"/>
<path opacity="0.1455" d="M420.132 327.166L404.558 344.401C404.373 344.401 404.373 344.401 404.373 344.586C404.373 344.586 394.732 349.96 383.051 364.23C366.18 384.43 296.097 462.635 296.097 462.635C296.097 462.82 295.911 462.82 295.911 462.82C295.541 463.376 295.541 464.118 295.911 464.859C296.653 466.712 302.957 475.608 304.996 475.978C305.923 476.163 306.665 475.978 307.221 475.422C307.221 475.422 307.221 475.422 307.406 475.237C307.406 475.237 373.596 391.101 390.468 370.902C402.334 356.817 406.412 346.069 406.412 346.069C406.598 345.883 406.598 345.698 406.412 345.513L420.132 327.166Z" fill="url(#paint26_linear)"/>
<path opacity="0.1545" d="M418.835 328.835L404.373 344.958C404.188 344.958 404.188 344.958 404.188 345.143C404.188 345.143 395.474 350.332 384.35 363.49C368.59 382.392 300.547 458.93 300.547 458.93V459.115C300.176 459.671 300.176 460.227 300.547 460.968C301.103 462.821 306.665 470.234 308.519 470.605C309.446 470.79 310.188 470.605 310.558 470.049C310.558 470.049 310.559 470.049 310.744 469.864C310.744 469.864 375.45 388.323 391.024 369.42C401.963 356.262 406.042 346.44 406.042 346.44C406.227 346.255 406.227 346.07 406.042 345.884L418.835 328.835Z" fill="url(#paint27_linear)"/>
<path opacity="0.1636" d="M417.351 330.502L403.817 345.328C403.817 345.328 403.631 345.328 403.631 345.513C403.631 345.513 395.659 350.331 385.462 362.562C371 379.982 304.625 455.037 304.625 455.037V455.222C304.44 455.593 304.254 456.334 304.625 457.076C305.181 458.743 309.817 464.859 311.671 465.23C312.412 465.415 313.154 465.23 313.525 464.859C313.525 464.859 313.525 464.859 313.71 464.674C313.71 464.674 376.748 385.542 391.209 368.122C401.406 355.891 405.485 346.81 405.485 346.81C405.485 346.625 405.671 346.439 405.485 346.254L417.351 330.502Z" fill="url(#paint28_linear)"/>
<path opacity="0.1727" d="M415.868 332.17L403.446 345.884C403.446 345.884 403.261 345.884 403.261 346.069C403.261 346.069 396.03 350.702 386.76 362.006C373.411 377.944 308.89 451.516 308.89 451.516V451.701C308.704 452.072 308.519 452.628 308.89 453.369C309.446 454.852 313.154 459.856 314.823 460.041C315.564 460.226 316.121 460.041 316.491 459.67C316.491 459.67 316.491 459.67 316.677 459.485C316.677 459.485 378.231 382.762 391.58 366.825C400.85 355.706 404.929 347.181 404.929 347.181C404.929 346.996 405.115 346.996 404.929 346.81L415.868 332.17Z" fill="url(#paint29_linear)"/>
<path opacity="0.1818" d="M414.385 333.838L403.075 346.254C403.075 346.254 402.89 346.254 402.89 346.44C402.89 346.44 396.586 350.887 388.058 361.08C375.821 375.72 313.154 447.81 313.154 447.81V447.995C312.969 448.366 312.969 448.922 313.154 449.478C313.71 450.775 316.677 454.481 317.975 454.667C318.716 454.852 319.273 454.667 319.458 454.296C319.458 454.296 319.458 454.296 319.643 454.111C319.643 454.111 379.529 379.983 391.766 365.342C400.294 355.15 404.373 347.552 404.373 347.552C404.373 347.366 404.373 347.366 404.373 347.181L414.385 333.838Z" fill="url(#paint30_linear)"/>
<path opacity="0.1909" d="M413.087 335.506L402.889 346.81H402.704C402.704 346.81 397.142 351.073 389.54 360.153C378.601 373.311 317.603 443.918 317.603 443.918V444.103C317.418 444.474 317.418 444.845 317.603 445.401C317.974 446.698 320.199 448.922 321.497 449.292C322.053 449.478 322.609 449.292 322.98 448.922C322.98 448.922 322.98 448.922 323.166 448.922C323.166 448.922 381.568 377.203 392.507 364.045C400.108 354.779 404.187 347.922 404.187 347.922C404.187 347.922 404.187 347.737 404.187 347.552L413.087 335.506Z" fill="url(#paint31_linear)"/>
<path opacity="0.2" d="M411.604 337.174L402.519 347.181H402.334C402.334 347.181 397.513 351.073 390.653 359.412C380.827 371.087 321.868 440.212 321.868 440.212C321.868 440.212 321.868 440.212 321.868 440.397C321.683 440.768 321.683 441.138 321.868 441.509C322.239 442.621 323.537 443.733 324.649 443.918C325.205 444.104 325.576 443.918 325.947 443.548C325.947 443.548 382.866 374.238 392.507 362.563C399.367 354.409 403.446 348.108 403.446 348.108C403.446 348.108 403.446 347.922 403.446 347.737L411.604 337.174Z" fill="#231F20"/>
</g>
<path d="M88.0728 228.576L171.505 251L133.497 206.338C119.221 189.659 91.9663 197.628 89.1852 219.496L88.0728 228.576Z" fill="url(#paint32_linear)"/>
<path d="M89.1855 229.132L172.617 251.556L134.61 206.893C120.333 190.215 93.079 198.183 90.298 220.051L89.1855 229.132Z" fill="url(#paint33_linear)"/>
<path d="M90.8543 221.163C93.6354 199.295 121.075 191.327 135.166 208.005L172.061 251.37L172.803 251.556L134.795 206.893C120.519 190.215 93.2646 198.183 90.4835 220.051L89.3711 229.132L89.9273 229.317L90.8543 221.163Z" fill="url(#paint34_radial)"/>
<path d="M85.2918 238.027L81.9546 243.958C72.8698 259.895 87.1459 278.983 104.945 274.906L168.353 261.007L85.2918 238.027Z" fill="url(#paint35_linear)"/>
<path d="M86.7752 238.213L83.438 244.143C74.3532 260.081 88.6293 279.169 106.428 275.092L169.836 261.007L86.7752 238.213Z" fill="url(#paint36_linear)"/>
<path d="M107.54 274.906C89.7416 278.798 75.4654 259.896 84.5503 243.958L87.5167 238.584L86.5897 238.398L83.2524 244.329C74.1676 260.266 88.4437 279.354 106.243 275.277L169.651 261.193H169.465L107.54 274.906Z" fill="url(#paint37_radial)"/>
<g style="mix-blend-mode:soft-light">
<path d="M341.892 298.628C341.15 301.778 316.306 298.257 286.641 290.659C256.976 283.061 233.615 274.165 234.357 271.015C235.099 267.864 259.943 271.385 289.607 278.984C319.458 286.582 342.819 295.477 341.892 298.628Z" fill="url(#paint38_radial)"/>
</g>
<defs>
<radialGradient id="paint0_radial" cx="0" cy="0" r="1" gradientUnits="userSpaceOnUse" gradientTransform="translate(423.946 567.787) scale(122.569 23.7106)">
<stop offset="0.1919" stop-color="#5F5C5D"/>
<stop offset="1" stop-color="white"/>
</radialGradient>
<linearGradient id="paint1_linear" x1="451.998" y1="576.531" x2="523.546" y2="83.8948" gradientUnits="userSpaceOnUse">
<stop offset="0.0555556" stop-color="#200041"/>
<stop offset="0.233" stop-color="#210243"/>
<stop offset="0.3204" stop-color="#25084B"/>
<stop offset="0.3879" stop-color="#2C1358"/>
<stop offset="0.4192" stop-color="#311B61"/>
<stop offset="0.4744" stop-color="#351F65"/>
<stop offset="0.5347" stop-color="#422C73"/>
<stop offset="0.5974" stop-color="#584188"/>
<stop offset="0.6613" stop-color="#765FA7"/>
<stop offset="0.6919" stop-color="#8770B8"/>
<stop offset="0.6998" stop-color="#7E67AE"/>
<stop offset="0.7316" stop-color="#5C468D"/>
<stop offset="0.7619" stop-color="#442E75"/>
<stop offset="0.7899" stop-color="#362066"/>
<stop offset="0.8131" stop-color="#311B61"/>
<stop offset="0.8592" stop-color="#2A1155"/>
<stop offset="0.9359" stop-color="#230446"/>
<stop offset="1" stop-color="#200041"/>
</linearGradient>
<radialGradient id="paint2_radial" cx="0" cy="0" r="1" gradientUnits="userSpaceOnUse" gradientTransform="translate(541.957 264.516) rotate(44.987) scale(187.562)">
<stop stop-color="white"/>
<stop offset="0.0656227" stop-color="#D8D8D8"/>
<stop offset="0.1615" stop-color="#A6A6A6"/>
<stop offset="0.2622" stop-color="#797979"/>
<stop offset="0.3658" stop-color="#545454"/>
<stop offset="0.4731" stop-color="#353535"/>
<stop offset="0.5852" stop-color="#1E1E1E"/>
<stop offset="0.7042" stop-color="#0D0D0D"/>
<stop offset="0.835" stop-color="#030303"/>
<stop offset="1"/>
</radialGradient>
<linearGradient id="paint3_linear" x1="541.862" y1="399.234" x2="235.797" y2="167.682" gradientUnits="userSpaceOnUse">
<stop stop-color="#311B61"/>
<stop offset="0.2031" stop-color="#290F52"/>
<stop offset="0.4949" stop-color="#200041"/>
<stop offset="1" stop-color="#0F001F"/>
</linearGradient>
<linearGradient id="paint4_linear" x1="316.406" y1="164.687" x2="490.24" y2="422.391" gradientUnits="userSpaceOnUse">
<stop stop-color="#FF7F00"/>
<stop offset="1" stop-color="#FCD55B"/>
</linearGradient>
<linearGradient id="paint5_linear" x1="98.4828" y1="105.931" x2="797.014" y2="548.834" gradientUnits="userSpaceOnUse">
<stop stop-color="#D4D1D8"/>
<stop offset="1" stop-color="#EEEBF2"/>
</linearGradient>
<linearGradient id="paint6_linear" x1="346.737" y1="297.99" x2="533.6" y2="347.003" gradientUnits="userSpaceOnUse">
<stop stop-color="#FF7F00"/>
<stop offset="1" stop-color="#FCD55B"/>
</linearGradient>
<linearGradient id="paint7_linear" x1="212.408" y1="178.1" x2="678.095" y2="473.369" gradientUnits="userSpaceOnUse">
<stop stop-color="#D4D1D8"/>
<stop offset="1" stop-color="#EEEBF2"/>
</linearGradient>
<linearGradient id="paint8_linear" x1="326.333" y1="250.267" x2="559.176" y2="397.902" gradientUnits="userSpaceOnUse">
<stop stop-color="#D4D1D8"/>
<stop offset="1" stop-color="#EEEBF2"/>
</linearGradient>
<radialGradient id="paint9_radial" cx="0" cy="0" r="1" gradientUnits="userSpaceOnUse" gradientTransform="translate(467.518 349.15) rotate(44.987) scale(175.884)">
<stop stop-color="white"/>
<stop offset="0.0656227" stop-color="#D8D8D8"/>
<stop offset="0.1615" stop-color="#A6A6A6"/>
<stop offset="0.2622" stop-color="#797979"/>
<stop offset="0.3658" stop-color="#545454"/>
<stop offset="0.4731" stop-color="#353535"/>
<stop offset="0.5852" stop-color="#1E1E1E"/>
<stop offset="0.7042" stop-color="#0D0D0D"/>
<stop offset="0.835" stop-color="#030303"/>
<stop offset="1"/>
</radialGradient>
<radialGradient id="paint10_radial" cx="0" cy="0" r="1" gradientUnits="userSpaceOnUse" gradientTransform="translate(459.733 341.624) rotate(44.987) scale(125.625)">
<stop stop-color="white"/>
<stop offset="0.0656227" stop-color="#D8D8D8"/>
<stop offset="0.1615" stop-color="#A6A6A6"/>
<stop offset="0.2622" stop-color="#797979"/>
<stop offset="0.3658" stop-color="#545454"/>
<stop offset="0.4731" stop-color="#353535"/>
<stop offset="0.5852" stop-color="#1E1E1E"/>
<stop offset="0.7042" stop-color="#0D0D0D"/>
<stop offset="0.835" stop-color="#030303"/>
<stop offset="1"/>
</radialGradient>
<radialGradient id="paint11_radial" cx="0" cy="0" r="1" gradientUnits="userSpaceOnUse" gradientTransform="translate(451.587 333.598) rotate(44.987) scale(75.5674)">
<stop stop-color="white"/>
<stop offset="0.0656227" stop-color="#D8D8D8"/>
<stop offset="0.1615" stop-color="#A6A6A6"/>
<stop offset="0.2622" stop-color="#797979"/>
<stop offset="0.3658" stop-color="#545454"/>
<stop offset="0.4731" stop-color="#353535"/>
<stop offset="0.5852" stop-color="#1E1E1E"/>
<stop offset="0.7042" stop-color="#0D0D0D"/>
<stop offset="0.835" stop-color="#030303"/>
<stop offset="1"/>
</radialGradient>
<radialGradient id="paint12_radial" cx="0" cy="0" r="1" gradientUnits="userSpaceOnUse" gradientTransform="translate(443.678 325.859) rotate(44.987) scale(25.3692)">
<stop stop-color="white"/>
<stop offset="0.0656227" stop-color="#D8D8D8"/>
<stop offset="0.1615" stop-color="#A6A6A6"/>
<stop offset="0.2622" stop-color="#797979"/>
<stop offset="0.3658" stop-color="#545454"/>
<stop offset="0.4731" stop-color="#353535"/>
<stop offset="0.5852" stop-color="#1E1E1E"/>
<stop offset="0.7042" stop-color="#0D0D0D"/>
<stop offset="0.835" stop-color="#030303"/>
<stop offset="1"/>
</radialGradient>
<radialGradient id="paint13_radial" cx="0" cy="0" r="1" gradientUnits="userSpaceOnUse" gradientTransform="translate(581.098 197.914) rotate(69.8854) scale(39.2673 21.8945)">
<stop stop-color="#972A74"/>
<stop offset="0.0412825" stop-color="#8A266A"/>
<stop offset="0.1941" stop-color="#601B4A"/>
<stop offset="0.35" stop-color="#3D112F"/>
<stop offset="0.5074" stop-color="#220A1B"/>
<stop offset="0.6667" stop-color="#0F040C"/>
<stop offset="0.8293" stop-color="#040103"/>
<stop offset="1"/>
</radialGradient>
<linearGradient id="paint14_linear" x1="371.714" y1="311.239" x2="372.475" y2="308.401" gradientUnits="userSpaceOnUse">
<stop offset="0.0353535" stop-color="#F7AA90"/>
<stop offset="0.2316" stop-color="#F9B996"/>
<stop offset="0.6103" stop-color="#FFE2A6"/>
<stop offset="0.6313" stop-color="#FFE4A7"/>
<stop offset="0.8737" stop-color="#F7AA90"/>
</linearGradient>
<linearGradient id="paint15_linear" x1="122.091" y1="271.324" x2="120.338" y2="205.859" gradientUnits="userSpaceOnUse">
<stop offset="0.0353535" stop-color="#FFA98C"/>
<stop offset="0.3169" stop-color="#FFB892"/>
<stop offset="0.8601" stop-color="#FEE1A3"/>
<stop offset="1" stop-color="#FEECA8"/>
</linearGradient>
<radialGradient id="paint16_radial" cx="0" cy="0" r="1" gradientUnits="userSpaceOnUse" gradientTransform="translate(97.34 225.356) scale(37.1578 37.141)">
<stop stop-color="white"/>
<stop offset="0.0656227" stop-color="#D8D8D8"/>
<stop offset="0.1615" stop-color="#A6A6A6"/>
<stop offset="0.2622" stop-color="#797979"/>
<stop offset="0.3658" stop-color="#545454"/>
<stop offset="0.4731" stop-color="#353535"/>
<stop offset="0.5852" stop-color="#1E1E1E"/>
<stop offset="0.7042" stop-color="#0D0D0D"/>
<stop offset="0.835" stop-color="#030303"/>
<stop offset="1"/>
</radialGradient>
<linearGradient id="paint17_linear" x1="317.932" y1="303.401" x2="321.969" y2="288.327" gradientUnits="userSpaceOnUse">
<stop offset="0.010101" stop-color="#F9B595"/>
<stop offset="0.1313" stop-color="#FBC59C"/>
<stop offset="0.1764" stop-color="#F9BA97"/>
<stop offset="0.2526" stop-color="#F8AE92"/>
<stop offset="0.3283" stop-color="#F7AA90"/>
<stop offset="0.4298" stop-color="#F8B394"/>
<stop offset="0.5941" stop-color="#FCCB9D"/>
<stop offset="0.7323" stop-color="#FFE4A7"/>
<stop offset="0.9697" stop-color="#F7AA90"/>
</linearGradient>
<linearGradient id="paint18_linear" x1="278.877" y1="282.504" x2="285.25" y2="288.88" gradientUnits="userSpaceOnUse">
<stop offset="0.0353535" stop-color="#FFA98C"/>
<stop offset="0.3169" stop-color="#FFB892"/>
<stop offset="0.8601" stop-color="#FEE1A3"/>
<stop offset="1" stop-color="#FEECA8"/>
</linearGradient>
<linearGradient id="paint19_linear" x1="180.928" y1="264.783" x2="184.154" y2="252.736" gradientUnits="userSpaceOnUse">
<stop offset="0.0353535" stop-color="#1E1F21"/>
<stop offset="0.117" stop-color="#2D2E30"/>
<stop offset="0.1414" stop-color="#323336"/>
<stop offset="0.2677" stop-color="#0E0E0F"/>
<stop offset="0.3522" stop-color="#131415"/>
<stop offset="0.4644" stop-color="#232326"/>
<stop offset="0.592" stop-color="#3C3D41"/>
<stop offset="0.7301" stop-color="#5E6167"/>
<stop offset="0.7677" stop-color="#696C73"/>
<stop offset="1" stop-color="#37383C"/>
</linearGradient>
<linearGradient id="paint20_linear" x1="73.5374" y1="239.014" x2="86.0569" y2="227.83" gradientUnits="userSpaceOnUse">
<stop offset="0.0353535" stop-color="#1E1F21"/>
<stop offset="0.3101" stop-color="#2C2E30"/>
<stop offset="0.84" stop-color="#515359"/>
<stop offset="1" stop-color="#5D6066"/>
</linearGradient>
<linearGradient id="paint21_linear" x1="333.335" y1="444.848" x2="425.813" y2="207.447" gradientUnits="userSpaceOnUse">
<stop stop-color="white"/>
<stop offset="1" stop-color="#4D4D4D"/>
</linearGradient>
<linearGradient id="paint22_linear" x1="334.794" y1="441.628" x2="428.21" y2="213.511" gradientUnits="userSpaceOnUse">
<stop stop-color="#EBEBEB"/>
<stop offset="1" stop-color="#494949"/>
</linearGradient>
<linearGradient id="paint23_linear" x1="336.32" y1="438.422" x2="430.34" y2="219.683" gradientUnits="userSpaceOnUse">
<stop stop-color="#D7D6D6"/>
<stop offset="1" stop-color="#454545"/>
</linearGradient>
<linearGradient id="paint24_linear" x1="337.915" y1="435.238" x2="432.173" y2="225.944" gradientUnits="userSpaceOnUse">
<stop stop-color="#C3C2C2"/>
<stop offset="1" stop-color="#424041"/>
</linearGradient>
<linearGradient id="paint25_linear" x1="339.571" y1="432.073" x2="433.744" y2="232.283" gradientUnits="userSpaceOnUse">
<stop stop-color="#AFAEAE"/>
<stop offset="1" stop-color="#3E3C3D"/>
</linearGradient>
<linearGradient id="paint26_linear" x1="341.29" y1="428.935" x2="435.033" y2="238.689" gradientUnits="userSpaceOnUse">
<stop stop-color="#9B999A"/>
<stop offset="1" stop-color="#3A3839"/>
</linearGradient>
<linearGradient id="paint27_linear" x1="343.073" y1="425.827" x2="436.033" y2="245.144" gradientUnits="userSpaceOnUse">
<stop stop-color="#878585"/>
<stop offset="1" stop-color="#363434"/>
</linearGradient>
<linearGradient id="paint28_linear" x1="344.92" y1="422.753" x2="436.73" y2="251.628" gradientUnits="userSpaceOnUse">
<stop stop-color="#737071"/>
<stop offset="1" stop-color="#323030"/>
</linearGradient>
<linearGradient id="paint29_linear" x1="346.823" y1="419.716" x2="437.153" y2="258.134" gradientUnits="userSpaceOnUse">
<stop stop-color="#5F5C5D"/>
<stop offset="1" stop-color="#2E2C2C"/>
</linearGradient>
<linearGradient id="paint30_linear" x1="348.781" y1="416.722" x2="437.287" y2="264.642" gradientUnits="userSpaceOnUse">
<stop stop-color="#4B4849"/>
<stop offset="1" stop-color="#2B2728"/>
</linearGradient>
<linearGradient id="paint31_linear" x1="350.791" y1="413.78" x2="437.123" y2="271.128" gradientUnits="userSpaceOnUse">
<stop stop-color="#373334"/>
<stop offset="1" stop-color="#272324"/>
</linearGradient>
<linearGradient id="paint32_linear" x1="118.271" y1="219.682" x2="105.867" y2="198.216" gradientUnits="userSpaceOnUse">
<stop offset="0.0353535" stop-color="#FFA98C"/>
<stop offset="0.3169" stop-color="#FFB892"/>
<stop offset="0.8601" stop-color="#FEE1A3"/>
<stop offset="1" stop-color="#FEECA8"/>
</linearGradient>
<linearGradient id="paint33_linear" x1="111.891" y1="217.051" x2="262.541" y2="298.308" gradientUnits="userSpaceOnUse">
<stop offset="0.0353535" stop-color="#FFA98C"/>
<stop offset="0.3169" stop-color="#FFB892"/>
<stop offset="0.8601" stop-color="#FEE1A3"/>
<stop offset="1" stop-color="#FEECA8"/>
</linearGradient>
<radialGradient id="paint34_radial" cx="0" cy="0" r="1" gradientUnits="userSpaceOnUse" gradientTransform="translate(107.079 210.078) scale(26.8013 26.7891)">
<stop stop-color="white"/>
<stop offset="0.0656227" stop-color="#D8D8D8"/>
<stop offset="0.1615" stop-color="#A6A6A6"/>
<stop offset="0.2622" stop-color="#797979"/>
<stop offset="0.3658" stop-color="#545454"/>
<stop offset="0.4731" stop-color="#353535"/>
<stop offset="0.5852" stop-color="#1E1E1E"/>
<stop offset="0.7042" stop-color="#0D0D0D"/>
<stop offset="0.835" stop-color="#030303"/>
<stop offset="1"/>
</radialGradient>
<linearGradient id="paint35_linear" x1="106.465" y1="279.075" x2="117.343" y2="263.273" gradientUnits="userSpaceOnUse">
<stop offset="0.0353535" stop-color="#FFA98C"/>
<stop offset="0.3169" stop-color="#FFB892"/>
<stop offset="0.8601" stop-color="#FEE1A3"/>
<stop offset="1" stop-color="#FEECA8"/>
</linearGradient>
<linearGradient id="paint36_linear" x1="132.044" y1="236.93" x2="113.817" y2="288.101" gradientUnits="userSpaceOnUse">
<stop offset="0.0353535" stop-color="#FFA98C"/>
<stop offset="0.3169" stop-color="#FFB892"/>
<stop offset="0.8601" stop-color="#FEE1A3"/>
<stop offset="1" stop-color="#FEECA8"/>
</linearGradient>
<radialGradient id="paint37_radial" cx="0" cy="0" r="1" gradientUnits="userSpaceOnUse" gradientTransform="translate(76.4418 259.939) scale(23.3585 23.3479)">
<stop stop-color="white"/>
<stop offset="0.0656227" stop-color="#D8D8D8"/>
<stop offset="0.1615" stop-color="#A6A6A6"/>
<stop offset="0.2622" stop-color="#797979"/>
<stop offset="0.3658" stop-color="#545454"/>
<stop offset="0.4731" stop-color="#353535"/>
<stop offset="0.5852" stop-color="#1E1E1E"/>
<stop offset="0.7042" stop-color="#0D0D0D"/>
<stop offset="0.835" stop-color="#030303"/>
<stop offset="1"/>
</radialGradient>
<radialGradient id="paint38_radial" cx="0" cy="0" r="1" gradientUnits="userSpaceOnUse" gradientTransform="translate(288.181 284.841) rotate(14.4383) scale(55.5484 6.04148)">
<stop stop-color="#972A74"/>
<stop offset="0.0412825" stop-color="#8A266A"/>
<stop offset="0.1941" stop-color="#601B4A"/>
<stop offset="0.35" stop-color="#3D112F"/>
<stop offset="0.5074" stop-color="#220A1B"/>
<stop offset="0.6667" stop-color="#0F040C"/>
<stop offset="0.8293" stop-color="#040103"/>
<stop offset="1"/>
</radialGradient>
</defs>
</svg>
