<svg width="947" height="1149" viewBox="0 0 947 1149" fill="none" xmlns="http://www.w3.org/2000/svg">
<g filter="url(#filter0_d)">
<path d="M372.5 1130C683.16 1130 935 878.16 935 567.5C935 256.84 683.16 5 372.5 5C61.8399 5 -190 256.84 -190 567.5C-190 878.16 61.8399 1130 372.5 1130Z" fill="url(#paint0_linear)"/>
<path d="M372.5 1122.53C679.034 1122.53 927.528 874.033 927.528 567.5C927.528 260.967 679.034 12.4723 372.5 12.4723C65.9671 12.4723 -182.527 260.967 -182.527 567.5C-182.527 874.033 65.9671 1122.53 372.5 1122.53Z" fill="url(#paint1_linear)"/>
<path d="M372.5 1086.59C659.183 1086.59 891.585 854.183 891.585 567.5C891.585 280.817 659.183 48.4148 372.5 48.4148C85.817 48.4148 -146.585 280.817 -146.585 567.5C-146.585 854.183 85.817 1086.59 372.5 1086.59Z" fill="url(#paint2_linear)"/>
<path d="M372.501 1079.78C655.422 1079.78 884.776 850.422 884.776 567.5C884.776 284.578 655.422 55.225 372.501 55.225C89.5789 55.225 -139.774 284.578 -139.774 567.5C-139.774 850.422 89.5789 1079.78 372.501 1079.78Z" fill="url(#paint3_linear)"/>
<path d="M372.501 1079.78C655.422 1079.78 884.776 850.422 884.776 567.5C884.776 284.578 655.422 55.225 372.501 55.225C89.5789 55.225 -139.774 284.578 -139.774 567.5C-139.774 850.422 89.5789 1079.78 372.501 1079.78Z" fill="black" fill-opacity="0.2"/>
<path d="M348.57 247.234H321.235V251.774H348.57V247.234Z" fill="url(#paint4_linear)"/>
<path d="M348.57 261.989H321.235V266.529H348.57V261.989Z" fill="url(#paint5_linear)"/>
<path d="M348.57 271.826H321.235V276.366H348.57V271.826Z" fill="url(#paint6_linear)"/>
<path d="M348.57 881.997H321.235V886.537H348.57V881.997Z" fill="url(#paint7_linear)"/>
<path d="M348.57 867.715H321.235V872.255H348.57V867.715Z" fill="url(#paint8_linear)"/>
<path d="M348.57 857.405H321.235V861.945H348.57V857.405Z" fill="url(#paint9_linear)"/>
<path d="M360.393 253.476H335.328C332.774 253.476 330.693 251.395 330.693 248.841V240.518C330.693 237.964 332.774 235.883 335.328 235.883H360.393C362.947 235.883 365.028 237.964 365.028 240.518V248.841C365.028 251.49 362.947 253.476 360.393 253.476Z" fill="url(#paint10_linear)"/>
<path d="M773.826 576.486H737.316C734.006 576.486 731.357 573.837 731.357 570.527V562.487C731.357 559.177 734.006 556.528 737.316 556.528H773.826C777.137 556.528 779.785 559.177 779.785 562.487V570.527C779.691 573.837 777.042 576.486 773.826 576.486Z" fill="url(#paint11_linear)"/>
<path d="M773.826 540.732H737.316C734.006 540.732 731.357 538.084 731.357 534.774V526.734C731.357 523.423 734.006 520.775 737.316 520.775H773.826C777.137 520.775 779.785 523.423 779.785 526.734V534.774C779.691 538.084 777.042 540.732 773.826 540.732Z" fill="url(#paint12_linear)"/>
<path d="M196.192 541.773H159.683C156.372 541.773 153.724 539.124 153.724 535.814V527.774C153.724 524.464 156.372 521.815 159.683 521.815H196.192C199.503 521.815 202.151 524.464 202.151 527.774V535.814C202.057 539.124 199.408 541.773 196.192 541.773Z" fill="url(#paint13_linear)"/>
<path d="M196.192 577.526H159.683C156.372 577.526 153.724 574.878 153.724 571.567V563.528C153.724 560.217 156.372 557.569 159.683 557.569H196.192C199.503 557.569 202.151 560.217 202.151 563.528V571.567C202.057 574.878 199.408 577.526 196.192 577.526Z" fill="url(#paint14_linear)"/>
<path d="M601.302 585.566H567.819C564.792 585.566 562.333 583.107 562.333 580.08V572.702C562.333 569.675 564.792 567.216 567.819 567.216H601.302C604.329 567.216 606.788 569.675 606.788 572.702V580.08C606.788 583.107 604.329 585.566 601.302 585.566Z" fill="url(#paint15_linear)"/>
<path d="M569.237 534.868H546.064C543.983 534.868 542.28 533.166 542.28 531.085V525.977C542.28 523.896 543.983 522.194 546.064 522.194H569.143C571.223 522.194 572.926 523.896 572.926 525.977V531.085C572.926 533.166 571.223 534.868 569.237 534.868Z" fill="url(#paint16_linear)"/>
<path d="M196.192 613.279H159.683C156.372 613.279 153.724 610.631 153.724 607.32V599.281C153.724 595.97 156.372 593.322 159.683 593.322H196.192C199.503 593.322 202.151 595.97 202.151 599.281V607.32C202.057 610.536 199.408 613.279 196.192 613.279Z" fill="url(#paint17_linear)"/>
<path d="M360.393 898.171H335.328C332.774 898.171 330.693 896.09 330.693 893.536V885.213C330.693 882.659 332.774 880.578 335.328 880.578H360.393C362.947 880.578 365.028 882.659 365.028 885.213V893.536C365.028 896.185 362.947 898.171 360.393 898.171Z" fill="url(#paint18_linear)"/>
<path d="M360.393 873.673H335.328C332.774 873.673 330.693 871.593 330.693 869.039V860.715C330.693 858.161 332.774 856.08 335.328 856.08H360.393C362.947 856.08 365.028 858.161 365.028 860.715V869.039C365.028 871.687 362.947 873.673 360.393 873.673Z" fill="url(#paint19_linear)"/>
<path d="M372.5 1001.36C133.293 1001.36 -61.269 806.801 -61.269 567.595C-61.269 328.388 133.293 133.825 372.5 133.825C611.707 133.825 806.269 328.388 806.269 567.595C806.269 806.801 611.707 1001.36 372.5 1001.36ZM372.5 138.366C135.847 138.366 -56.729 330.942 -56.729 567.595C-56.729 804.248 135.847 996.824 372.5 996.824C609.153 996.824 801.729 804.248 801.729 567.595C801.729 330.847 609.248 138.366 372.5 138.366Z" fill="url(#paint20_linear)"/>
<path d="M348.096 1008.65C340.246 1008.17 332.49 1007.61 324.734 1006.76C318.397 1006.09 313.857 1000.42 314.519 994.081C315.181 987.743 320.95 983.203 327.193 983.865C342.043 985.473 357.366 986.325 372.405 986.325C378.837 986.23 383.85 991.432 383.85 997.769C383.85 1004.11 378.742 1009.21 372.405 1009.21C364.365 1009.31 356.136 1009.12 348.096 1008.65ZM279.427 999.283C278.86 999.283 278.198 999.188 277.63 998.999C262.118 995.594 246.606 991.338 231.567 986.23C225.608 984.244 222.298 977.717 224.379 971.664C226.365 965.705 232.891 962.394 238.945 964.475C253.227 969.299 267.888 973.366 282.549 976.582C288.697 977.906 292.669 984.055 291.251 990.203C290.021 995.878 284.913 999.567 279.427 999.283ZM418.279 1006.85C412.793 1006.57 408.158 1002.31 407.496 996.634C406.834 990.297 411.374 984.717 417.711 984.055C432.656 982.447 447.695 979.987 462.45 976.771C468.693 975.447 474.746 979.325 476.071 985.568C477.395 991.716 473.517 997.864 467.274 999.188C451.762 1002.59 435.872 1005.15 420.076 1006.85C419.509 1006.85 418.846 1006.94 418.279 1006.85ZM191.274 969.677C189.855 969.583 188.436 969.299 187.112 968.637C172.735 962.016 158.547 954.449 144.927 946.22C139.535 942.91 137.738 935.911 141.049 930.519C144.359 925.128 151.359 923.331 156.75 926.641C169.708 934.397 183.139 941.586 196.76 947.923C202.529 950.571 204.989 957.381 202.34 963.151C200.259 967.408 195.814 969.961 191.274 969.677ZM509.081 986.987C504.541 986.703 500.379 983.771 498.866 979.231C496.88 973.272 500.095 966.745 506.054 964.665C520.337 959.841 534.524 954.26 548.145 947.923C553.914 945.274 560.725 947.734 563.373 953.503C566.022 959.273 563.562 966.083 557.793 968.732C543.416 975.447 528.471 981.312 513.432 986.419C511.919 986.892 510.5 987.081 509.081 986.987ZM111.633 921.628C109.457 921.534 107.187 920.777 105.295 919.263C92.7156 909.616 80.4195 899.211 68.8801 888.334C64.2454 883.983 64.0562 876.7 68.4071 872.16C72.7581 867.525 80.0411 867.336 84.5812 871.687C95.5532 882.091 107.093 891.928 119.105 901.008C124.118 904.886 125.158 912.075 121.28 917.088C119.01 920.304 115.322 921.912 111.633 921.628ZM593.357 947.923C589.668 947.734 586.168 945.747 584.182 942.342C580.871 936.951 582.669 929.857 588.06 926.641C600.924 918.885 613.598 910.278 625.516 901.198C630.529 897.414 637.717 898.36 641.595 903.373C645.379 908.386 644.433 915.575 639.42 919.453C626.745 929.006 613.503 938.086 599.883 946.22C597.897 947.545 595.627 948.112 593.357 947.923ZM44.1933 857.688C41.1665 857.499 38.2343 856.175 36.0589 853.621C25.7491 841.514 16.1014 828.745 7.11573 815.598C3.52148 810.396 4.94028 803.207 10.1425 799.707C15.3447 796.113 22.5332 797.532 26.0328 802.734C34.5455 815.219 43.7203 827.326 53.4626 838.771C57.5298 843.595 56.9623 850.784 52.1384 854.945C49.9629 857.026 47.0308 857.878 44.1933 857.688ZM667.417 891.739C664.58 891.55 661.837 890.415 659.756 888.145C655.405 883.51 655.594 876.322 660.229 871.971C671.201 861.661 681.7 850.594 691.442 839.149C695.509 834.326 702.792 833.758 707.616 837.825C712.44 841.893 713.007 849.176 708.94 854C698.63 866.106 687.564 877.74 676.024 888.618C673.565 890.888 670.444 891.928 667.417 891.739ZM-8.01795 780.885C-11.896 780.696 -15.5848 778.52 -17.4765 774.831C-24.9488 760.833 -31.6643 746.267 -37.6232 731.511C-39.9878 725.647 -37.1503 718.931 -31.1914 716.567C-25.3271 714.202 -18.6115 717.04 -16.2469 722.999C-10.6664 736.997 -4.23453 750.807 2.85938 764.049C5.79153 769.629 3.71065 776.534 -1.8699 779.561C-3.95078 780.506 -6.03165 780.979 -8.01795 780.885ZM727.668 820.989C725.682 820.895 723.696 820.232 721.898 819.003C716.696 815.409 715.277 808.315 718.872 803.112C727.384 790.627 735.235 777.574 742.329 764.332C745.261 758.752 752.26 756.671 757.841 759.603C763.422 762.535 765.502 769.535 762.57 775.115C755.098 789.114 746.774 802.829 737.883 816.071C735.424 819.381 731.546 821.178 727.668 820.989ZM-42.5417 694.528C-47.2709 694.245 -51.6219 691.029 -52.9461 686.11C-57.2024 670.882 -60.6075 655.181 -63.2559 639.479C-64.2964 633.237 -60.04 627.373 -53.7974 626.332C-47.5547 625.292 -41.6904 629.548 -40.65 635.791C-38.1907 650.641 -34.9748 665.585 -30.9077 680.057C-29.2051 686.11 -32.7994 692.447 -38.8529 694.15C-40.0825 694.528 -41.3121 694.623 -42.5417 694.528ZM771.367 738.889C770.137 738.794 768.907 738.511 767.772 738.038C761.908 735.673 759.07 729.052 761.341 723.093C766.921 709.094 771.84 694.717 775.812 680.151C777.515 674.098 783.852 670.504 789.905 672.206C795.959 673.909 799.553 680.246 797.851 686.299C793.594 701.622 788.487 716.851 782.528 731.606C780.731 736.43 776.096 739.173 771.367 738.889ZM-57.5808 602.875C-63.3505 602.591 -68.0797 597.957 -68.3635 591.998C-69.2148 576.202 -69.2148 560.122 -68.3635 544.232C-67.9852 537.895 -62.5938 533.071 -56.2566 533.355C-50.0139 534.111 -45.0955 539.124 -45.3792 545.461C-46.2305 560.501 -46.2305 575.729 -45.3792 590.768C-45.0009 597.105 -49.9193 602.497 -56.2566 602.875C-56.7295 602.875 -57.1079 602.875 -57.5808 602.875ZM-52.5678 509.992C-52.9461 509.992 -53.419 509.897 -53.7974 509.897C-60.04 508.857 -64.2964 502.993 -63.2559 496.75C-60.7021 481.049 -57.297 465.348 -53.0407 450.025C-51.3382 443.971 -45.0955 440.283 -38.9474 441.985C-32.7994 443.688 -29.2997 449.93 -30.9077 456.078C-34.8803 470.55 -38.1908 485.494 -40.5554 500.344C-41.5958 506.209 -46.798 510.37 -52.5678 509.992ZM-27.8809 420.419C-29.1105 420.325 -30.3401 420.136 -31.4752 419.663C-37.3395 417.298 -40.2717 410.677 -37.907 404.813C-32.0427 390.058 -25.3271 375.491 -17.8549 361.398C-14.9227 355.818 -7.92336 353.642 -2.34282 356.669C3.23772 359.601 5.41319 366.6 2.38645 372.181C-4.70746 385.517 -11.0447 399.327 -16.6253 413.326C-18.4224 417.866 -23.0571 420.703 -27.8809 420.419ZM786.122 463.172C781.393 462.888 777.042 459.672 775.718 454.849C771.65 440.377 766.732 425.905 761.151 412.001C758.787 406.137 761.624 399.421 767.489 397.057C773.353 394.692 780.069 397.53 782.433 403.394C788.392 418.149 793.5 433.378 797.851 448.606C799.553 454.659 795.959 460.997 789.905 462.699C788.581 463.078 787.352 463.172 786.122 463.172ZM15.6284 338.225C13.6421 338.13 11.6558 337.468 9.85867 336.238C4.65647 332.644 3.23774 325.55 6.83199 320.348C15.723 307.201 25.4653 294.432 35.7751 282.325C39.8423 277.501 47.1254 276.933 51.9492 281C56.7731 285.068 57.3406 292.351 53.2735 297.175C43.5311 308.714 34.2618 320.821 25.8437 333.212C23.3844 336.711 19.5064 338.508 15.6284 338.225ZM751.504 376.91C747.626 376.721 743.937 374.545 742.045 370.857C734.951 357.615 727.101 344.562 718.588 332.077C714.994 326.874 716.318 319.686 721.615 316.186C726.817 312.592 734.005 314.011 737.505 319.213C746.491 332.36 754.814 346.075 762.286 360.074C765.313 365.654 763.138 372.559 757.557 375.586C755.571 376.626 753.49 377.005 751.504 376.91ZM75.7848 267.38C72.9472 267.191 70.2043 266.056 68.1234 263.786C63.7724 259.151 63.9616 251.963 68.5963 247.612C80.1357 236.734 92.3372 226.235 104.917 216.682C109.93 212.804 117.119 213.845 120.997 218.858C124.875 223.871 123.834 231.059 118.821 234.937C106.903 244.018 95.2694 253.949 84.2975 264.353C81.9328 266.529 78.8115 267.569 75.7848 267.38ZM699.103 300.107C696.077 299.918 693.144 298.593 690.969 296.134C681.227 284.689 670.728 273.623 659.756 263.313C655.121 258.962 654.932 251.679 659.283 247.139C663.634 242.504 670.917 242.315 675.457 246.666C686.996 257.543 698.063 269.272 708.373 281.284C712.44 286.108 711.872 293.297 707.048 297.458C704.778 299.445 701.941 300.296 699.103 300.107ZM149.751 211.007C146.062 210.818 142.562 208.832 140.576 205.521C137.265 200.13 139.063 193.036 144.454 189.82C158.074 181.591 172.262 174.024 186.639 167.309C192.409 164.66 199.219 167.119 201.867 172.889C204.516 178.659 202.056 185.469 196.287 188.118C182.666 194.455 169.235 201.643 156.277 209.399C154.196 210.629 151.926 211.102 149.751 211.007ZM631.475 236.356C629.299 236.262 627.124 235.505 625.232 234.086C613.22 225.006 600.64 216.399 587.682 208.737C582.29 205.521 580.493 198.427 583.709 193.036C586.925 187.55 594.019 185.847 599.41 189.063C613.031 197.198 626.367 206.278 639.042 215.831C644.055 219.614 645.095 226.803 641.217 231.911C638.852 234.937 635.164 236.545 631.475 236.356ZM233.932 171.849C229.392 171.565 225.23 168.633 223.717 164.093C221.636 158.134 224.852 151.607 230.905 149.527C245.944 144.419 261.456 140.068 276.968 136.663C283.211 135.244 289.264 139.217 290.683 145.365C292.007 151.513 288.129 157.661 281.981 159.08C267.226 162.296 252.565 166.457 238.377 171.281C236.864 171.754 235.351 171.943 233.932 171.849ZM551.739 188.496C550.32 188.401 548.902 188.117 547.577 187.455C533.862 181.118 519.675 175.538 505.487 170.808C499.433 168.822 496.217 162.296 498.204 156.337C500.19 150.378 506.716 147.067 512.675 149.054C527.714 154.067 542.659 160.026 557.13 166.647C562.9 169.295 565.359 176.105 562.711 181.875C560.819 186.226 556.279 188.78 551.739 188.496ZM324.639 151.702C319.153 151.418 314.519 147.162 313.857 141.487C313.194 135.15 317.735 129.569 323.977 128.812C339.773 127.11 355.758 126.259 371.648 126.164C377.891 126.164 383.093 131.272 383.093 137.609C383.093 143.946 377.985 149.054 371.648 149.054C356.609 149.054 341.381 149.905 326.436 151.513C325.963 151.797 325.301 151.797 324.639 151.702ZM463.585 158.985C463.018 158.985 462.356 158.891 461.788 158.701C447.128 155.485 432.088 153.121 417.049 151.513C410.712 150.851 406.172 145.176 406.834 138.933C407.496 132.596 412.982 128.15 419.414 128.718C435.21 130.42 451.1 132.974 466.612 136.285C472.76 137.609 476.733 143.757 475.409 149.905C474.179 155.58 469.166 159.363 463.585 158.985Z" fill="url(#paint21_linear)"/>
</g>
<path d="M352.767 507.755V507.245V503.232L348.753 503.245L303.498 503.398L299.512 503.411V507.398V683.389V687.389H303.512H347.014H351.014V683.389V640.091C359.486 643.971 368.781 646.007 378.189 645.943C404.786 645.939 426.637 633.477 438.781 613.345V637.677V641.677H442.781H486.741H490.741V637.677V598.554L515.304 639.726L516.468 641.677H518.739H570.622H578.056L573.961 635.473L531.604 571.312L546.574 548.501H563.346V592.346C563.346 607.256 567.896 619.696 576.624 628.413C585.351 637.129 597.808 641.677 612.754 641.677H643H647V637.677V599.355V595.355H643H626.162C622.3 595.355 619.712 594.229 618.099 592.635C616.491 591.045 615.382 588.525 615.382 584.803V548.424H642.39H646.39V544.424V510.75V506.75H642.39H614.316V473.723V469.723H610.316H601.249H599.528L598.344 470.973L564.482 506.75H517.215H514.974L513.804 508.662L490.817 546.224V465.038V461.038H486.817H442.781H438.781V465.038V535.177C426.634 515.08 404.777 502.717 378.189 502.712C369.424 502.649 360.771 504.401 352.767 507.755ZM374.975 599.241C360.79 599.241 350.405 588.753 350.405 574.213C350.405 559.674 360.79 549.186 374.975 549.186C389.159 549.186 399.545 559.674 399.545 574.213C399.545 588.745 389.09 599.241 374.975 599.241Z" fill="white" stroke="url(#paint22_angular)" stroke-width="8"/>
<path d="M60.4556 492.891H56.4556V496.891V540.623V544.623H60.4556H104.536H108.536V540.623V496.891V492.891H104.536H104.466H60.4556Z" fill="white" stroke="url(#paint23_angular)" stroke-width="8"/>
<path d="M88.5509 449.191V445.191H84.5509H54H50V449.191V479.513V483.513H54H84.5509H88.5509V479.513V449.191Z" fill="white" stroke="url(#paint24_angular)" stroke-width="8"/>
<path d="M170.681 452.162V448.162H166.681H133.692H129.692V452.162V484.846V488.846H133.692H166.681H170.681V484.846V452.162Z" fill="white" stroke="url(#paint25_angular)" stroke-width="8"/>
<path d="M121.692 460.39V456.39H117.692H101.235H97.2354V460.39V476.771V480.771H101.235H117.692H121.692V476.771V460.39Z" fill="white" stroke="url(#paint26_angular)" stroke-width="8"/>
<path d="M264.199 507.55V612.23C264.199 616.192 263.437 620.154 261.913 623.811C260.389 627.468 258.18 630.82 255.285 633.639C252.466 636.458 249.114 638.667 245.381 640.191C241.724 641.715 237.762 642.476 233.724 642.476H128.282V507.55H264.199Z" fill="white" stroke="url(#paint27_diamond)" stroke-width="8"/>
<defs>
<filter id="filter0_d" x="-202" y="0" width="1149" height="1149" filterUnits="userSpaceOnUse" color-interpolation-filters="sRGB">
<feFlood flood-opacity="0" result="BackgroundImageFix"/>
<feColorMatrix in="SourceAlpha" type="matrix" values="0 0 0 0 0 0 0 0 0 0 0 0 0 0 0 0 0 0 127 0" result="hardAlpha"/>
<feOffset dy="7"/>
<feGaussianBlur stdDeviation="6"/>
<feColorMatrix type="matrix" values="0 0 0 0 0 0 0 0 0 0 0 0 0 0 0 0 0 0 0.19 0"/>
<feBlend mode="normal" in2="BackgroundImageFix" result="effect1_dropShadow"/>
<feBlend mode="normal" in="SourceGraphic" in2="effect1_dropShadow" result="shape"/>
</filter>
<linearGradient id="paint0_linear" x1="21.2948" y1="216.295" x2="849.191" y2="1044.19" gradientUnits="userSpaceOnUse">
<stop stop-color="#7F7F7F"/>
<stop offset="0.0209508" stop-color="#8C8B8C"/>
<stop offset="0.0650388" stop-color="#A4A3A4"/>
<stop offset="0.1094" stop-color="#B7B7B7"/>
<stop offset="0.1539" stop-color="#C5C4C4"/>
<stop offset="0.1985" stop-color="#C9C9C9"/>
<stop offset="0.2902" stop-color="#969595"/>
<stop offset="0.3358" stop-color="#7F7F7F"/>
<stop offset="0.3557" stop-color="#757575"/>
<stop offset="0.3944" stop-color="#666666"/>
<stop offset="0.4335" stop-color="#5E5E5E"/>
<stop offset="0.473" stop-color="#5B5B5B"/>
<stop offset="0.5119" stop-color="#5F5F5F"/>
<stop offset="0.5597" stop-color="#6D6C6C"/>
<stop offset="0.612" stop-color="#858484"/>
<stop offset="0.6673" stop-color="#ACACAC"/>
<stop offset="0.6814" stop-color="#BBBBBB"/>
<stop offset="0.7241" stop-color="#B2B2B3"/>
<stop offset="0.7852" stop-color="#9F9F9F"/>
<stop offset="0.8571" stop-color="#848484"/>
<stop offset="0.8701" stop-color="#7F7F7F"/>
<stop offset="1" stop-color="#BBBBBB"/>
</linearGradient>
<linearGradient id="paint1_linear" x1="777.558" y1="172.205" x2="-14.9396" y2="945.751" gradientUnits="userSpaceOnUse">
<stop stop-color="#FBA300"/>
<stop offset="0.0209508" stop-color="#FFC998"/>
<stop offset="0.0650388" stop-color="#A4A3A4"/>
<stop offset="0.1094" stop-color="#B7B7B7"/>
<stop offset="0.1539" stop-color="#C5C4C4"/>
<stop offset="0.1985" stop-color="#C9C9C9"/>
<stop offset="0.2902" stop-color="#969595"/>
<stop offset="0.3358" stop-color="#7F7F7F"/>
<stop offset="0.3557" stop-color="#757575"/>
<stop offset="0.3944" stop-color="#666666"/>
<stop offset="0.4335" stop-color="#5E5E5E"/>
<stop offset="0.473" stop-color="#5B5B5B"/>
<stop offset="0.5119" stop-color="#5F5F5F"/>
<stop offset="0.5597" stop-color="#6D6C6C"/>
<stop offset="0.612" stop-color="#858484"/>
<stop offset="0.6673" stop-color="#ACACAC"/>
<stop offset="0.6814" stop-color="#BBBBBB"/>
<stop offset="0.7241" stop-color="#B2B2B3"/>
<stop offset="0.7852" stop-color="#9F9F9F"/>
<stop offset="0.8571" stop-color="#848484"/>
<stop offset="0.8701" stop-color="#7F7F7F"/>
<stop offset="1" stop-color="#FFD3AB"/>
</linearGradient>
<linearGradient id="paint2_linear" x1="-31.6975" y1="163.303" x2="796.495" y2="991.495" gradientUnits="userSpaceOnUse">
<stop stop-color="#7F7F7F"/>
<stop offset="0.0209508" stop-color="#8C8B8C"/>
<stop offset="0.0650388" stop-color="#A4A3A4"/>
<stop offset="0.1094" stop-color="#B7B7B7"/>
<stop offset="0.1539" stop-color="#C5C4C4"/>
<stop offset="0.1985" stop-color="#C9C9C9"/>
<stop offset="0.2902" stop-color="#969595"/>
<stop offset="0.3358" stop-color="#7F7F7F"/>
<stop offset="0.3557" stop-color="#757575"/>
<stop offset="0.3944" stop-color="#666666"/>
<stop offset="0.4335" stop-color="#5E5E5E"/>
<stop offset="0.473" stop-color="#5B5B5B"/>
<stop offset="0.5119" stop-color="#5F5F5F"/>
<stop offset="0.5597" stop-color="#6D6C6C"/>
<stop offset="0.612" stop-color="#858484"/>
<stop offset="0.6673" stop-color="#ACACAC"/>
<stop offset="0.6814" stop-color="#BBBBBB"/>
<stop offset="0.7241" stop-color="#B2B2B3"/>
<stop offset="0.7852" stop-color="#9F9F9F"/>
<stop offset="0.8571" stop-color="#848484"/>
<stop offset="0.8701" stop-color="#7F7F7F"/>
<stop offset="1" stop-color="#BBBBBB"/>
</linearGradient>
<linearGradient id="paint3_linear" x1="-423.011" y1="1363.09" x2="1522.86" y2="-582.785" gradientUnits="userSpaceOnUse">
<stop stop-color="#979797"/>
<stop offset="0.2034" stop-color="#575858"/>
<stop offset="0.2296" stop-color="#505050"/>
<stop offset="0.2838" stop-color="#434443"/>
<stop offset="0.3407" stop-color="#3B3B3B"/>
<stop offset="0.4015" stop-color="#363636"/>
<stop offset="0.473" stop-color="#343434"/>
<stop offset="0.5122" stop-color="#383838"/>
<stop offset="0.5751" stop-color="#444444"/>
<stop offset="0.6536" stop-color="#575858"/>
<stop offset="0.6544" stop-color="#575858"/>
<stop offset="0.7398" stop-color="#7E7C7C"/>
<stop offset="0.8125" stop-color="#9B9A9A"/>
<stop offset="0.8554" stop-color="#A9A8A8"/>
<stop offset="0.8862" stop-color="#A1A0A0"/>
<stop offset="0.9239" stop-color="#8F8E8E"/>
<stop offset="0.9651" stop-color="#747373"/>
<stop offset="1" stop-color="#595A5A"/>
</linearGradient>
<linearGradient id="paint4_linear" x1="233.963" y1="250.78" x2="565.161" y2="246.704" gradientUnits="userSpaceOnUse">
<stop stop-color="#7F7F7F"/>
<stop offset="0.0209508" stop-color="#8C8B8C"/>
<stop offset="0.0650388" stop-color="#A4A3A4"/>
<stop offset="0.1094" stop-color="#B7B7B7"/>
<stop offset="0.1539" stop-color="#C5C4C4"/>
<stop offset="0.1985" stop-color="#C9C9C9"/>
<stop offset="0.2902" stop-color="#969595"/>
<stop offset="0.3358" stop-color="#7F7F7F"/>
<stop offset="0.3557" stop-color="#757575"/>
<stop offset="0.3944" stop-color="#666666"/>
<stop offset="0.4335" stop-color="#5E5E5E"/>
<stop offset="0.473" stop-color="#5B5B5B"/>
<stop offset="0.5119" stop-color="#5F5F5F"/>
<stop offset="0.5597" stop-color="#6D6C6C"/>
<stop offset="0.612" stop-color="#858484"/>
<stop offset="0.6673" stop-color="#ACACAC"/>
<stop offset="0.6814" stop-color="#BBBBBB"/>
<stop offset="0.7241" stop-color="#B2B2B3"/>
<stop offset="0.7852" stop-color="#9F9F9F"/>
<stop offset="0.8571" stop-color="#848484"/>
<stop offset="0.8701" stop-color="#7F7F7F"/>
<stop offset="1" stop-color="#BBBBBB"/>
</linearGradient>
<linearGradient id="paint5_linear" x1="234.144" y1="265.543" x2="565.343" y2="261.466" gradientUnits="userSpaceOnUse">
<stop stop-color="#7F7F7F"/>
<stop offset="0.0209508" stop-color="#8C8B8C"/>
<stop offset="0.0650388" stop-color="#A4A3A4"/>
<stop offset="0.1094" stop-color="#B7B7B7"/>
<stop offset="0.1539" stop-color="#C5C4C4"/>
<stop offset="0.1985" stop-color="#C9C9C9"/>
<stop offset="0.2902" stop-color="#969595"/>
<stop offset="0.3358" stop-color="#7F7F7F"/>
<stop offset="0.3557" stop-color="#757575"/>
<stop offset="0.3944" stop-color="#666666"/>
<stop offset="0.4335" stop-color="#5E5E5E"/>
<stop offset="0.473" stop-color="#5B5B5B"/>
<stop offset="0.5119" stop-color="#5F5F5F"/>
<stop offset="0.5597" stop-color="#6D6C6C"/>
<stop offset="0.612" stop-color="#858484"/>
<stop offset="0.6673" stop-color="#ACACAC"/>
<stop offset="0.6814" stop-color="#BBBBBB"/>
<stop offset="0.7241" stop-color="#B2B2B3"/>
<stop offset="0.7852" stop-color="#9F9F9F"/>
<stop offset="0.8571" stop-color="#848484"/>
<stop offset="0.8701" stop-color="#7F7F7F"/>
<stop offset="1" stop-color="#BBBBBB"/>
</linearGradient>
<linearGradient id="paint6_linear" x1="234.265" y1="275.331" x2="565.463" y2="271.255" gradientUnits="userSpaceOnUse">
<stop stop-color="#7F7F7F"/>
<stop offset="0.0209508" stop-color="#8C8B8C"/>
<stop offset="0.0650388" stop-color="#A4A3A4"/>
<stop offset="0.1094" stop-color="#B7B7B7"/>
<stop offset="0.1539" stop-color="#C5C4C4"/>
<stop offset="0.1985" stop-color="#C9C9C9"/>
<stop offset="0.2902" stop-color="#969595"/>
<stop offset="0.3358" stop-color="#7F7F7F"/>
<stop offset="0.3557" stop-color="#757575"/>
<stop offset="0.3944" stop-color="#666666"/>
<stop offset="0.4335" stop-color="#5E5E5E"/>
<stop offset="0.473" stop-color="#5B5B5B"/>
<stop offset="0.5119" stop-color="#5F5F5F"/>
<stop offset="0.5597" stop-color="#6D6C6C"/>
<stop offset="0.612" stop-color="#858484"/>
<stop offset="0.6673" stop-color="#ACACAC"/>
<stop offset="0.6814" stop-color="#BBBBBB"/>
<stop offset="0.7241" stop-color="#B2B2B3"/>
<stop offset="0.7852" stop-color="#9F9F9F"/>
<stop offset="0.8571" stop-color="#848484"/>
<stop offset="0.8701" stop-color="#7F7F7F"/>
<stop offset="1" stop-color="#BBBBBB"/>
</linearGradient>
<linearGradient id="paint7_linear" x1="212.314" y1="881.013" x2="617.226" y2="891.883" gradientUnits="userSpaceOnUse">
<stop stop-color="#7F7F7F"/>
<stop offset="0.0209508" stop-color="#8C8B8C"/>
<stop offset="0.0650388" stop-color="#A4A3A4"/>
<stop offset="0.1094" stop-color="#B7B7B7"/>
<stop offset="0.1539" stop-color="#C5C4C4"/>
<stop offset="0.1985" stop-color="#C9C9C9"/>
<stop offset="0.2902" stop-color="#969595"/>
<stop offset="0.3358" stop-color="#7F7F7F"/>
<stop offset="0.3557" stop-color="#757575"/>
<stop offset="0.3944" stop-color="#666666"/>
<stop offset="0.4335" stop-color="#5E5E5E"/>
<stop offset="0.473" stop-color="#5B5B5B"/>
<stop offset="0.5119" stop-color="#5F5F5F"/>
<stop offset="0.5597" stop-color="#6D6C6C"/>
<stop offset="0.612" stop-color="#858484"/>
<stop offset="0.6673" stop-color="#ACACAC"/>
<stop offset="0.6814" stop-color="#BBBBBB"/>
<stop offset="0.7241" stop-color="#B2B2B3"/>
<stop offset="0.7852" stop-color="#9F9F9F"/>
<stop offset="0.8571" stop-color="#848484"/>
<stop offset="0.8701" stop-color="#7F7F7F"/>
<stop offset="1" stop-color="#BBBBBB"/>
</linearGradient>
<linearGradient id="paint8_linear" x1="212.698" y1="866.714" x2="617.61" y2="877.585" gradientUnits="userSpaceOnUse">
<stop stop-color="#7F7F7F"/>
<stop offset="0.0209508" stop-color="#8C8B8C"/>
<stop offset="0.0650388" stop-color="#A4A3A4"/>
<stop offset="0.1094" stop-color="#B7B7B7"/>
<stop offset="0.1539" stop-color="#C5C4C4"/>
<stop offset="0.1985" stop-color="#C9C9C9"/>
<stop offset="0.2902" stop-color="#969595"/>
<stop offset="0.3358" stop-color="#7F7F7F"/>
<stop offset="0.3557" stop-color="#757575"/>
<stop offset="0.3944" stop-color="#666666"/>
<stop offset="0.4335" stop-color="#5E5E5E"/>
<stop offset="0.473" stop-color="#5B5B5B"/>
<stop offset="0.5119" stop-color="#5F5F5F"/>
<stop offset="0.5597" stop-color="#6D6C6C"/>
<stop offset="0.612" stop-color="#858484"/>
<stop offset="0.6673" stop-color="#ACACAC"/>
<stop offset="0.6814" stop-color="#BBBBBB"/>
<stop offset="0.7241" stop-color="#B2B2B3"/>
<stop offset="0.7852" stop-color="#9F9F9F"/>
<stop offset="0.8571" stop-color="#848484"/>
<stop offset="0.8701" stop-color="#7F7F7F"/>
<stop offset="1" stop-color="#BBBBBB"/>
</linearGradient>
<linearGradient id="paint9_linear" x1="212.975" y1="856.417" x2="617.886" y2="867.287" gradientUnits="userSpaceOnUse">
<stop stop-color="#7F7F7F"/>
<stop offset="0.0209508" stop-color="#8C8B8C"/>
<stop offset="0.0650388" stop-color="#A4A3A4"/>
<stop offset="0.1094" stop-color="#B7B7B7"/>
<stop offset="0.1539" stop-color="#C5C4C4"/>
<stop offset="0.1985" stop-color="#C9C9C9"/>
<stop offset="0.2902" stop-color="#969595"/>
<stop offset="0.3358" stop-color="#7F7F7F"/>
<stop offset="0.3557" stop-color="#757575"/>
<stop offset="0.3944" stop-color="#666666"/>
<stop offset="0.4335" stop-color="#5E5E5E"/>
<stop offset="0.473" stop-color="#5B5B5B"/>
<stop offset="0.5119" stop-color="#5F5F5F"/>
<stop offset="0.5597" stop-color="#6D6C6C"/>
<stop offset="0.612" stop-color="#858484"/>
<stop offset="0.6673" stop-color="#ACACAC"/>
<stop offset="0.6814" stop-color="#BBBBBB"/>
<stop offset="0.7241" stop-color="#B2B2B3"/>
<stop offset="0.7852" stop-color="#9F9F9F"/>
<stop offset="0.8571" stop-color="#848484"/>
<stop offset="0.8701" stop-color="#7F7F7F"/>
<stop offset="1" stop-color="#BBBBBB"/>
</linearGradient>
<linearGradient id="paint10_linear" x1="201.077" y1="304.401" x2="393.341" y2="226.272" gradientUnits="userSpaceOnUse">
<stop stop-color="#7F7F7F"/>
<stop offset="0.0209508" stop-color="#8C8B8C"/>
<stop offset="0.0650388" stop-color="#A4A3A4"/>
<stop offset="0.1094" stop-color="#B7B7B7"/>
<stop offset="0.1539" stop-color="#C5C4C4"/>
<stop offset="0.1985" stop-color="#C9C9C9"/>
<stop offset="0.2902" stop-color="#969595"/>
<stop offset="0.3358" stop-color="#7F7F7F"/>
<stop offset="0.3557" stop-color="#757575"/>
<stop offset="0.3944" stop-color="#666666"/>
<stop offset="0.4335" stop-color="#5E5E5E"/>
<stop offset="0.473" stop-color="#5B5B5B"/>
<stop offset="0.5119" stop-color="#5F5F5F"/>
<stop offset="0.5597" stop-color="#6D6C6C"/>
<stop offset="0.612" stop-color="#858484"/>
<stop offset="0.6673" stop-color="#ACACAC"/>
<stop offset="0.6814" stop-color="#BBBBBB"/>
<stop offset="0.7241" stop-color="#B2B2B3"/>
<stop offset="0.7852" stop-color="#9F9F9F"/>
<stop offset="0.8571" stop-color="#848484"/>
<stop offset="0.8701" stop-color="#7F7F7F"/>
<stop offset="1" stop-color="#BBBBBB"/>
</linearGradient>
<linearGradient id="paint11_linear" x1="569.087" y1="570.554" x2="1281.42" y2="555.268" gradientUnits="userSpaceOnUse">
<stop stop-color="#7F7F7F"/>
<stop offset="0.0209508" stop-color="#8C8B8C"/>
<stop offset="0.0650388" stop-color="#A4A3A4"/>
<stop offset="0.1094" stop-color="#B7B7B7"/>
<stop offset="0.1539" stop-color="#C5C4C4"/>
<stop offset="0.1985" stop-color="#C9C9C9"/>
<stop offset="0.2902" stop-color="#969595"/>
<stop offset="0.3358" stop-color="#7F7F7F"/>
<stop offset="0.3557" stop-color="#757575"/>
<stop offset="0.3944" stop-color="#666666"/>
<stop offset="0.4335" stop-color="#5E5E5E"/>
<stop offset="0.473" stop-color="#5B5B5B"/>
<stop offset="0.5119" stop-color="#5F5F5F"/>
<stop offset="0.5597" stop-color="#6D6C6C"/>
<stop offset="0.612" stop-color="#858484"/>
<stop offset="0.6673" stop-color="#ACACAC"/>
<stop offset="0.6814" stop-color="#BBBBBB"/>
<stop offset="0.7241" stop-color="#B2B2B3"/>
<stop offset="0.7852" stop-color="#9F9F9F"/>
<stop offset="0.8571" stop-color="#848484"/>
<stop offset="0.8701" stop-color="#7F7F7F"/>
<stop offset="1" stop-color="#BBBBBB"/>
</linearGradient>
<linearGradient id="paint12_linear" x1="568.32" y1="534.809" x2="1280.65" y2="519.523" gradientUnits="userSpaceOnUse">
<stop stop-color="#7F7F7F"/>
<stop offset="0.0209508" stop-color="#8C8B8C"/>
<stop offset="0.0650388" stop-color="#A4A3A4"/>
<stop offset="0.1094" stop-color="#B7B7B7"/>
<stop offset="0.1539" stop-color="#C5C4C4"/>
<stop offset="0.1985" stop-color="#C9C9C9"/>
<stop offset="0.2902" stop-color="#969595"/>
<stop offset="0.3358" stop-color="#7F7F7F"/>
<stop offset="0.3557" stop-color="#757575"/>
<stop offset="0.3944" stop-color="#666666"/>
<stop offset="0.4335" stop-color="#5E5E5E"/>
<stop offset="0.473" stop-color="#5B5B5B"/>
<stop offset="0.5119" stop-color="#5F5F5F"/>
<stop offset="0.5597" stop-color="#6D6C6C"/>
<stop offset="0.612" stop-color="#858484"/>
<stop offset="0.6673" stop-color="#ACACAC"/>
<stop offset="0.6814" stop-color="#BBBBBB"/>
<stop offset="0.7241" stop-color="#B2B2B3"/>
<stop offset="0.7852" stop-color="#9F9F9F"/>
<stop offset="0.8571" stop-color="#848484"/>
<stop offset="0.8701" stop-color="#7F7F7F"/>
<stop offset="1" stop-color="#BBBBBB"/>
</linearGradient>
<linearGradient id="paint13_linear" x1="13.6486" y1="550.871" x2="622.375" y2="480.216" gradientUnits="userSpaceOnUse">
<stop stop-color="#7F7F7F"/>
<stop offset="0.0209508" stop-color="#8C8B8C"/>
<stop offset="0.0650388" stop-color="#A4A3A4"/>
<stop offset="0.1094" stop-color="#B7B7B7"/>
<stop offset="0.1539" stop-color="#C5C4C4"/>
<stop offset="0.1985" stop-color="#C9C9C9"/>
<stop offset="0.2902" stop-color="#969595"/>
<stop offset="0.3358" stop-color="#7F7F7F"/>
<stop offset="0.3557" stop-color="#757575"/>
<stop offset="0.3944" stop-color="#666666"/>
<stop offset="0.4335" stop-color="#5E5E5E"/>
<stop offset="0.473" stop-color="#5B5B5B"/>
<stop offset="0.5119" stop-color="#5F5F5F"/>
<stop offset="0.5597" stop-color="#6D6C6C"/>
<stop offset="0.612" stop-color="#858484"/>
<stop offset="0.6673" stop-color="#ACACAC"/>
<stop offset="0.6814" stop-color="#BBBBBB"/>
<stop offset="0.7241" stop-color="#B2B2B3"/>
<stop offset="0.7852" stop-color="#9F9F9F"/>
<stop offset="0.8571" stop-color="#848484"/>
<stop offset="0.8701" stop-color="#7F7F7F"/>
<stop offset="1" stop-color="#BBBBBB"/>
</linearGradient>
<linearGradient id="paint14_linear" x1="17.7413" y1="586.128" x2="626.467" y2="515.473" gradientUnits="userSpaceOnUse">
<stop stop-color="#7F7F7F"/>
<stop offset="0.0209508" stop-color="#8C8B8C"/>
<stop offset="0.0650388" stop-color="#A4A3A4"/>
<stop offset="0.1094" stop-color="#B7B7B7"/>
<stop offset="0.1539" stop-color="#C5C4C4"/>
<stop offset="0.1985" stop-color="#C9C9C9"/>
<stop offset="0.2902" stop-color="#969595"/>
<stop offset="0.3358" stop-color="#7F7F7F"/>
<stop offset="0.3557" stop-color="#757575"/>
<stop offset="0.3944" stop-color="#666666"/>
<stop offset="0.4335" stop-color="#5E5E5E"/>
<stop offset="0.473" stop-color="#5B5B5B"/>
<stop offset="0.5119" stop-color="#5F5F5F"/>
<stop offset="0.5597" stop-color="#6D6C6C"/>
<stop offset="0.612" stop-color="#858484"/>
<stop offset="0.6673" stop-color="#ACACAC"/>
<stop offset="0.6814" stop-color="#BBBBBB"/>
<stop offset="0.7241" stop-color="#B2B2B3"/>
<stop offset="0.7852" stop-color="#9F9F9F"/>
<stop offset="0.8571" stop-color="#848484"/>
<stop offset="0.8701" stop-color="#7F7F7F"/>
<stop offset="1" stop-color="#BBBBBB"/>
</linearGradient>
<linearGradient id="paint15_linear" x1="460.869" y1="597.591" x2="869.014" y2="527.783" gradientUnits="userSpaceOnUse">
<stop stop-color="#7F7F7F"/>
<stop offset="0.0209508" stop-color="#8C8B8C"/>
<stop offset="0.0650388" stop-color="#A4A3A4"/>
<stop offset="0.1094" stop-color="#B7B7B7"/>
<stop offset="0.1539" stop-color="#C5C4C4"/>
<stop offset="0.1985" stop-color="#C9C9C9"/>
<stop offset="0.2902" stop-color="#969595"/>
<stop offset="0.3358" stop-color="#7F7F7F"/>
<stop offset="0.3557" stop-color="#757575"/>
<stop offset="0.3944" stop-color="#666666"/>
<stop offset="0.4335" stop-color="#5E5E5E"/>
<stop offset="0.473" stop-color="#5B5B5B"/>
<stop offset="0.5119" stop-color="#5F5F5F"/>
<stop offset="0.5597" stop-color="#6D6C6C"/>
<stop offset="0.612" stop-color="#858484"/>
<stop offset="0.6673" stop-color="#ACACAC"/>
<stop offset="0.6814" stop-color="#BBBBBB"/>
<stop offset="0.7241" stop-color="#B2B2B3"/>
<stop offset="0.7852" stop-color="#9F9F9F"/>
<stop offset="0.8571" stop-color="#848484"/>
<stop offset="0.8701" stop-color="#7F7F7F"/>
<stop offset="1" stop-color="#BBBBBB"/>
</linearGradient>
<linearGradient id="paint16_linear" x1="452.146" y1="546.583" x2="860.285" y2="476.776" gradientUnits="userSpaceOnUse">
<stop stop-color="#7F7F7F"/>
<stop offset="0.0209508" stop-color="#8C8B8C"/>
<stop offset="0.0650388" stop-color="#A4A3A4"/>
<stop offset="0.1094" stop-color="#B7B7B7"/>
<stop offset="0.1539" stop-color="#C5C4C4"/>
<stop offset="0.1985" stop-color="#C9C9C9"/>
<stop offset="0.2902" stop-color="#969595"/>
<stop offset="0.3358" stop-color="#7F7F7F"/>
<stop offset="0.3557" stop-color="#757575"/>
<stop offset="0.3944" stop-color="#666666"/>
<stop offset="0.4335" stop-color="#5E5E5E"/>
<stop offset="0.473" stop-color="#5B5B5B"/>
<stop offset="0.5119" stop-color="#5F5F5F"/>
<stop offset="0.5597" stop-color="#6D6C6C"/>
<stop offset="0.612" stop-color="#858484"/>
<stop offset="0.6673" stop-color="#ACACAC"/>
<stop offset="0.6814" stop-color="#BBBBBB"/>
<stop offset="0.7241" stop-color="#B2B2B3"/>
<stop offset="0.7852" stop-color="#9F9F9F"/>
<stop offset="0.8571" stop-color="#848484"/>
<stop offset="0.8701" stop-color="#7F7F7F"/>
<stop offset="1" stop-color="#BBBBBB"/>
</linearGradient>
<linearGradient id="paint17_linear" x1="21.8335" y1="621.386" x2="630.559" y2="550.73" gradientUnits="userSpaceOnUse">
<stop stop-color="#7F7F7F"/>
<stop offset="0.0209508" stop-color="#8C8B8C"/>
<stop offset="0.0650388" stop-color="#A4A3A4"/>
<stop offset="0.1094" stop-color="#B7B7B7"/>
<stop offset="0.1539" stop-color="#C5C4C4"/>
<stop offset="0.1985" stop-color="#C9C9C9"/>
<stop offset="0.2902" stop-color="#969595"/>
<stop offset="0.3358" stop-color="#7F7F7F"/>
<stop offset="0.3557" stop-color="#757575"/>
<stop offset="0.3944" stop-color="#666666"/>
<stop offset="0.4335" stop-color="#5E5E5E"/>
<stop offset="0.473" stop-color="#5B5B5B"/>
<stop offset="0.5119" stop-color="#5F5F5F"/>
<stop offset="0.5597" stop-color="#6D6C6C"/>
<stop offset="0.612" stop-color="#858484"/>
<stop offset="0.6673" stop-color="#ACACAC"/>
<stop offset="0.6814" stop-color="#BBBBBB"/>
<stop offset="0.7241" stop-color="#B2B2B3"/>
<stop offset="0.7852" stop-color="#9F9F9F"/>
<stop offset="0.8571" stop-color="#848484"/>
<stop offset="0.8701" stop-color="#7F7F7F"/>
<stop offset="1" stop-color="#BBBBBB"/>
</linearGradient>
<linearGradient id="paint18_linear" x1="178.158" y1="877.099" x2="767.175" y2="919.899" gradientUnits="userSpaceOnUse">
<stop stop-color="#7F7F7F"/>
<stop offset="0.0209508" stop-color="#8C8B8C"/>
<stop offset="0.0650388" stop-color="#A4A3A4"/>
<stop offset="0.1094" stop-color="#B7B7B7"/>
<stop offset="0.1539" stop-color="#C5C4C4"/>
<stop offset="0.1985" stop-color="#C9C9C9"/>
<stop offset="0.2902" stop-color="#969595"/>
<stop offset="0.3358" stop-color="#7F7F7F"/>
<stop offset="0.3557" stop-color="#757575"/>
<stop offset="0.3944" stop-color="#666666"/>
<stop offset="0.4335" stop-color="#5E5E5E"/>
<stop offset="0.473" stop-color="#5B5B5B"/>
<stop offset="0.5119" stop-color="#5F5F5F"/>
<stop offset="0.5597" stop-color="#6D6C6C"/>
<stop offset="0.612" stop-color="#858484"/>
<stop offset="0.6673" stop-color="#ACACAC"/>
<stop offset="0.6814" stop-color="#BBBBBB"/>
<stop offset="0.7241" stop-color="#B2B2B3"/>
<stop offset="0.7852" stop-color="#9F9F9F"/>
<stop offset="0.8571" stop-color="#848484"/>
<stop offset="0.8701" stop-color="#7F7F7F"/>
<stop offset="1" stop-color="#BBBBBB"/>
</linearGradient>
<linearGradient id="paint19_linear" x1="179.929" y1="852.729" x2="768.945" y2="895.53" gradientUnits="userSpaceOnUse">
<stop stop-color="#7F7F7F"/>
<stop offset="0.0209508" stop-color="#8C8B8C"/>
<stop offset="0.0650388" stop-color="#A4A3A4"/>
<stop offset="0.1094" stop-color="#B7B7B7"/>
<stop offset="0.1539" stop-color="#C5C4C4"/>
<stop offset="0.1985" stop-color="#C9C9C9"/>
<stop offset="0.2902" stop-color="#969595"/>
<stop offset="0.3358" stop-color="#7F7F7F"/>
<stop offset="0.3557" stop-color="#757575"/>
<stop offset="0.3944" stop-color="#666666"/>
<stop offset="0.4335" stop-color="#5E5E5E"/>
<stop offset="0.473" stop-color="#5B5B5B"/>
<stop offset="0.5119" stop-color="#5F5F5F"/>
<stop offset="0.5597" stop-color="#6D6C6C"/>
<stop offset="0.612" stop-color="#858484"/>
<stop offset="0.6673" stop-color="#ACACAC"/>
<stop offset="0.6814" stop-color="#BBBBBB"/>
<stop offset="0.7241" stop-color="#B2B2B3"/>
<stop offset="0.7852" stop-color="#9F9F9F"/>
<stop offset="0.8571" stop-color="#848484"/>
<stop offset="0.8701" stop-color="#7F7F7F"/>
<stop offset="1" stop-color="#BBBBBB"/>
</linearGradient>
<linearGradient id="paint20_linear" x1="-61.2622" y1="567.539" x2="806.34" y2="567.539" gradientUnits="userSpaceOnUse">
<stop stop-color="#7F7F7F"/>
<stop offset="0.0209508" stop-color="#8C8B8C"/>
<stop offset="0.0650388" stop-color="#A4A3A4"/>
<stop offset="0.1094" stop-color="#B7B7B7"/>
<stop offset="0.1539" stop-color="#C5C4C4"/>
<stop offset="0.1985" stop-color="#C9C9C9"/>
<stop offset="0.2902" stop-color="#969595"/>
<stop offset="0.3358" stop-color="#7F7F7F"/>
<stop offset="0.3557" stop-color="#757575"/>
<stop offset="0.3944" stop-color="#666666"/>
<stop offset="0.4335" stop-color="#5E5E5E"/>
<stop offset="0.473" stop-color="#5B5B5B"/>
<stop offset="0.5119" stop-color="#5F5F5F"/>
<stop offset="0.5597" stop-color="#6D6C6C"/>
<stop offset="0.612" stop-color="#858484"/>
<stop offset="0.6673" stop-color="#ACACAC"/>
<stop offset="0.6814" stop-color="#BBBBBB"/>
<stop offset="0.7241" stop-color="#B2B2B3"/>
<stop offset="0.7852" stop-color="#9F9F9F"/>
<stop offset="0.8571" stop-color="#848484"/>
<stop offset="0.8701" stop-color="#7F7F7F"/>
<stop offset="1" stop-color="#BBBBBB"/>
</linearGradient>
<linearGradient id="paint21_linear" x1="-68.9785" y1="567.818" x2="798.349" y2="567.818" gradientUnits="userSpaceOnUse">
<stop stop-color="#7F7F7F"/>
<stop offset="0.0209508" stop-color="#8C8B8C"/>
<stop offset="0.0650388" stop-color="#A4A3A4"/>
<stop offset="0.1094" stop-color="#B7B7B7"/>
<stop offset="0.1539" stop-color="#C5C4C4"/>
<stop offset="0.1985" stop-color="#C9C9C9"/>
<stop offset="0.2902" stop-color="#969595"/>
<stop offset="0.3358" stop-color="#7F7F7F"/>
<stop offset="0.3557" stop-color="#757575"/>
<stop offset="0.3944" stop-color="#666666"/>
<stop offset="0.4335" stop-color="#5E5E5E"/>
<stop offset="0.473" stop-color="#5B5B5B"/>
<stop offset="0.5119" stop-color="#5F5F5F"/>
<stop offset="0.5597" stop-color="#6D6C6C"/>
<stop offset="0.612" stop-color="#858484"/>
<stop offset="0.6673" stop-color="#ACACAC"/>
<stop offset="0.6814" stop-color="#BBBBBB"/>
<stop offset="0.7241" stop-color="#B2B2B3"/>
<stop offset="0.7852" stop-color="#9F9F9F"/>
<stop offset="0.8571" stop-color="#848484"/>
<stop offset="0.8701" stop-color="#7F7F7F"/>
<stop offset="1" stop-color="#BBBBBB"/>
</linearGradient>
<radialGradient id="paint22_angular" cx="0" cy="0" r="1" gradientUnits="userSpaceOnUse" gradientTransform="translate(473.256 574.213) rotate(90) scale(109.176 169.744)">
<stop stop-color="#8D8984"/>
<stop offset="0.390625" stop-color="#8D8984" stop-opacity="0"/>
<stop offset="0.390725" stop-color="#8D8984" stop-opacity="0"/>
<stop offset="0.692708" stop-color="#8D8984" stop-opacity="0.92"/>
<stop offset="0.770833" stop-color="#8D8984" stop-opacity="0.92"/>
</radialGradient>
<radialGradient id="paint23_angular" cx="0" cy="0" r="1" gradientUnits="userSpaceOnUse" gradientTransform="translate(82.4956 518.757) rotate(90) scale(21.8665 22.04)">
<stop stop-color="#8D8984"/>
<stop offset="0.390625" stop-color="#8D8984" stop-opacity="0"/>
<stop offset="0.390725" stop-color="#8D8984" stop-opacity="0"/>
<stop offset="0.692708" stop-color="#8D8984" stop-opacity="0.92"/>
<stop offset="0.770833" stop-color="#8D8984" stop-opacity="0.92"/>
</radialGradient>
<radialGradient id="paint24_angular" cx="0" cy="0" r="1" gradientUnits="userSpaceOnUse" gradientTransform="translate(69.2754 464.352) rotate(90) scale(15.1611 15.2754)">
<stop stop-color="#8D8984"/>
<stop offset="0.390625" stop-color="#8D8984" stop-opacity="0"/>
<stop offset="0.390725" stop-color="#8D8984" stop-opacity="0"/>
<stop offset="0.692708" stop-color="#8D8984" stop-opacity="0.92"/>
<stop offset="0.770833" stop-color="#8D8984" stop-opacity="0.92"/>
</radialGradient>
<radialGradient id="paint25_angular" cx="0" cy="0" r="1" gradientUnits="userSpaceOnUse" gradientTransform="translate(150.186 468.504) rotate(90) scale(16.342 16.4944)">
<stop stop-color="#8D8984"/>
<stop offset="0.390625" stop-color="#8D8984" stop-opacity="0"/>
<stop offset="0.390725" stop-color="#8D8984" stop-opacity="0"/>
<stop offset="0.692708" stop-color="#8D8984" stop-opacity="0.92"/>
<stop offset="0.770833" stop-color="#8D8984" stop-opacity="0.92"/>
</radialGradient>
<radialGradient id="paint26_angular" cx="0" cy="0" r="1" gradientUnits="userSpaceOnUse" gradientTransform="translate(109.464 468.58) rotate(90) scale(8.19007 8.22816)">
<stop stop-color="#8D8984"/>
<stop offset="0.390625" stop-color="#8D8984" stop-opacity="0"/>
<stop offset="0.390725" stop-color="#8D8984" stop-opacity="0"/>
<stop offset="0.692708" stop-color="#8D8984" stop-opacity="0.92"/>
<stop offset="0.770833" stop-color="#8D8984" stop-opacity="0.92"/>
</radialGradient>
<radialGradient id="paint27_diamond" cx="0" cy="0" r="1" gradientUnits="userSpaceOnUse" gradientTransform="translate(196.24 575.013) rotate(90) scale(67.4633 67.9585)">
<stop stop-color="#8D8984"/>
<stop offset="0.390625" stop-color="#8D8984" stop-opacity="0"/>
<stop offset="0.390725" stop-color="#8D8984" stop-opacity="0"/>
<stop offset="0.692708" stop-color="#8D8984" stop-opacity="0.92"/>
<stop offset="0.770833" stop-color="#8D8984" stop-opacity="0.92"/>
</radialGradient>
</defs>
</svg>
